G75*
%MOIN*%
%OFA0B0*%
%FSLAX25Y25*%
%IPPOS*%
%LPD*%
%AMOC8*
5,1,8,0,0,1.08239X$1,22.5*
%
%ADD10C,0.00600*%
D10*
X0014811Y0026135D02*
X0014811Y0380466D01*
X0306150Y0380466D01*
X0306150Y0026135D01*
X0014811Y0026135D01*
X0014811Y0026294D02*
X0306150Y0026294D01*
X0306150Y0026893D02*
X0014811Y0026893D01*
X0014811Y0027491D02*
X0306150Y0027491D01*
X0306150Y0028090D02*
X0014811Y0028090D01*
X0014811Y0028688D02*
X0306150Y0028688D01*
X0306150Y0029287D02*
X0014811Y0029287D01*
X0014811Y0029885D02*
X0306150Y0029885D01*
X0306150Y0030484D02*
X0014811Y0030484D01*
X0014811Y0031082D02*
X0306150Y0031082D01*
X0306150Y0031681D02*
X0014811Y0031681D01*
X0014811Y0032279D02*
X0306150Y0032279D01*
X0306150Y0032878D02*
X0014811Y0032878D01*
X0014811Y0033476D02*
X0306150Y0033476D01*
X0306150Y0034075D02*
X0014811Y0034075D01*
X0014811Y0034673D02*
X0306150Y0034673D01*
X0306150Y0035272D02*
X0014811Y0035272D01*
X0014811Y0035870D02*
X0306150Y0035870D01*
X0306150Y0036469D02*
X0014811Y0036469D01*
X0014811Y0037067D02*
X0306150Y0037067D01*
X0306150Y0037666D02*
X0014811Y0037666D01*
X0014811Y0038264D02*
X0306150Y0038264D01*
X0306150Y0038863D02*
X0014811Y0038863D01*
X0014811Y0039461D02*
X0306150Y0039461D01*
X0306150Y0040060D02*
X0014811Y0040060D01*
X0014811Y0040658D02*
X0306150Y0040658D01*
X0306150Y0041257D02*
X0014811Y0041257D01*
X0014811Y0041855D02*
X0306150Y0041855D01*
X0306150Y0042454D02*
X0014811Y0042454D01*
X0014811Y0043052D02*
X0306150Y0043052D01*
X0306150Y0043651D02*
X0014811Y0043651D01*
X0014811Y0044249D02*
X0306150Y0044249D01*
X0306150Y0044848D02*
X0014811Y0044848D01*
X0014811Y0045446D02*
X0306150Y0045446D01*
X0306150Y0046045D02*
X0014811Y0046045D01*
X0014811Y0046643D02*
X0306150Y0046643D01*
X0306150Y0047242D02*
X0014811Y0047242D01*
X0014811Y0047840D02*
X0306150Y0047840D01*
X0306150Y0048439D02*
X0014811Y0048439D01*
X0014811Y0049037D02*
X0306150Y0049037D01*
X0306150Y0049636D02*
X0014811Y0049636D01*
X0014811Y0050234D02*
X0306150Y0050234D01*
X0306150Y0050833D02*
X0014811Y0050833D01*
X0014811Y0051431D02*
X0306150Y0051431D01*
X0306150Y0052030D02*
X0014811Y0052030D01*
X0014811Y0052629D02*
X0306150Y0052629D01*
X0306150Y0053227D02*
X0014811Y0053227D01*
X0014811Y0053826D02*
X0306150Y0053826D01*
X0306150Y0054424D02*
X0014811Y0054424D01*
X0014811Y0055023D02*
X0306150Y0055023D01*
X0306150Y0055621D02*
X0014811Y0055621D01*
X0014811Y0056220D02*
X0306150Y0056220D01*
X0306150Y0056818D02*
X0014811Y0056818D01*
X0014811Y0057417D02*
X0306150Y0057417D01*
X0306150Y0058015D02*
X0014811Y0058015D01*
X0014811Y0058614D02*
X0306150Y0058614D01*
X0306150Y0059212D02*
X0014811Y0059212D01*
X0014811Y0059811D02*
X0306150Y0059811D01*
X0306150Y0060409D02*
X0014811Y0060409D01*
X0014811Y0061008D02*
X0306150Y0061008D01*
X0306150Y0061606D02*
X0014811Y0061606D01*
X0014811Y0062205D02*
X0306150Y0062205D01*
X0306150Y0062803D02*
X0014811Y0062803D01*
X0014811Y0063402D02*
X0306150Y0063402D01*
X0306150Y0064000D02*
X0014811Y0064000D01*
X0014811Y0064599D02*
X0306150Y0064599D01*
X0306150Y0065197D02*
X0014811Y0065197D01*
X0014811Y0065796D02*
X0306150Y0065796D01*
X0306150Y0066394D02*
X0014811Y0066394D01*
X0014811Y0066993D02*
X0306150Y0066993D01*
X0306150Y0067591D02*
X0014811Y0067591D01*
X0014811Y0068190D02*
X0306150Y0068190D01*
X0306150Y0068788D02*
X0014811Y0068788D01*
X0014811Y0069387D02*
X0306150Y0069387D01*
X0306150Y0069985D02*
X0014811Y0069985D01*
X0014811Y0070584D02*
X0306150Y0070584D01*
X0306150Y0071182D02*
X0014811Y0071182D01*
X0014811Y0071781D02*
X0306150Y0071781D01*
X0306150Y0072379D02*
X0014811Y0072379D01*
X0014811Y0072978D02*
X0306150Y0072978D01*
X0306150Y0073576D02*
X0014811Y0073576D01*
X0014811Y0074175D02*
X0306150Y0074175D01*
X0306150Y0074773D02*
X0014811Y0074773D01*
X0014811Y0075372D02*
X0306150Y0075372D01*
X0306150Y0075970D02*
X0014811Y0075970D01*
X0014811Y0076569D02*
X0306150Y0076569D01*
X0306150Y0077167D02*
X0014811Y0077167D01*
X0014811Y0077766D02*
X0306150Y0077766D01*
X0306150Y0078364D02*
X0014811Y0078364D01*
X0014811Y0078963D02*
X0306150Y0078963D01*
X0306150Y0079562D02*
X0014811Y0079562D01*
X0014811Y0080160D02*
X0306150Y0080160D01*
X0306150Y0080759D02*
X0014811Y0080759D01*
X0014811Y0081357D02*
X0306150Y0081357D01*
X0306150Y0081956D02*
X0014811Y0081956D01*
X0014811Y0082554D02*
X0306150Y0082554D01*
X0306150Y0083153D02*
X0014811Y0083153D01*
X0014811Y0083751D02*
X0306150Y0083751D01*
X0306150Y0084350D02*
X0014811Y0084350D01*
X0014811Y0084948D02*
X0306150Y0084948D01*
X0306150Y0085547D02*
X0014811Y0085547D01*
X0014811Y0086145D02*
X0306150Y0086145D01*
X0306150Y0086744D02*
X0014811Y0086744D01*
X0014811Y0087342D02*
X0306150Y0087342D01*
X0306150Y0087941D02*
X0014811Y0087941D01*
X0014811Y0088539D02*
X0306150Y0088539D01*
X0306150Y0089138D02*
X0014811Y0089138D01*
X0014811Y0089736D02*
X0306150Y0089736D01*
X0306150Y0090335D02*
X0014811Y0090335D01*
X0014811Y0090933D02*
X0306150Y0090933D01*
X0306150Y0091532D02*
X0014811Y0091532D01*
X0014811Y0092130D02*
X0306150Y0092130D01*
X0306150Y0092729D02*
X0014811Y0092729D01*
X0014811Y0093327D02*
X0306150Y0093327D01*
X0306150Y0093926D02*
X0014811Y0093926D01*
X0014811Y0094524D02*
X0306150Y0094524D01*
X0306150Y0095123D02*
X0014811Y0095123D01*
X0014811Y0095721D02*
X0306150Y0095721D01*
X0306150Y0096320D02*
X0014811Y0096320D01*
X0014811Y0096918D02*
X0306150Y0096918D01*
X0306150Y0097517D02*
X0014811Y0097517D01*
X0014811Y0098115D02*
X0306150Y0098115D01*
X0306150Y0098714D02*
X0014811Y0098714D01*
X0014811Y0099312D02*
X0306150Y0099312D01*
X0306150Y0099911D02*
X0014811Y0099911D01*
X0014811Y0100509D02*
X0306150Y0100509D01*
X0306150Y0101108D02*
X0014811Y0101108D01*
X0014811Y0101706D02*
X0306150Y0101706D01*
X0306150Y0102305D02*
X0014811Y0102305D01*
X0014811Y0102903D02*
X0306150Y0102903D01*
X0306150Y0103502D02*
X0014811Y0103502D01*
X0014811Y0104100D02*
X0306150Y0104100D01*
X0306150Y0104699D02*
X0014811Y0104699D01*
X0014811Y0105298D02*
X0306150Y0105298D01*
X0306150Y0105896D02*
X0014811Y0105896D01*
X0014811Y0106495D02*
X0306150Y0106495D01*
X0306150Y0107093D02*
X0014811Y0107093D01*
X0014811Y0107692D02*
X0306150Y0107692D01*
X0306150Y0108290D02*
X0014811Y0108290D01*
X0014811Y0108889D02*
X0306150Y0108889D01*
X0306150Y0109487D02*
X0014811Y0109487D01*
X0014811Y0110086D02*
X0306150Y0110086D01*
X0306150Y0110684D02*
X0014811Y0110684D01*
X0014811Y0111283D02*
X0306150Y0111283D01*
X0306150Y0111881D02*
X0014811Y0111881D01*
X0014811Y0112480D02*
X0306150Y0112480D01*
X0306150Y0113078D02*
X0014811Y0113078D01*
X0014811Y0113677D02*
X0306150Y0113677D01*
X0306150Y0114275D02*
X0014811Y0114275D01*
X0014811Y0114874D02*
X0306150Y0114874D01*
X0306150Y0115472D02*
X0014811Y0115472D01*
X0014811Y0116071D02*
X0306150Y0116071D01*
X0306150Y0116669D02*
X0014811Y0116669D01*
X0014811Y0117268D02*
X0306150Y0117268D01*
X0306150Y0117866D02*
X0014811Y0117866D01*
X0014811Y0118465D02*
X0306150Y0118465D01*
X0306150Y0119063D02*
X0014811Y0119063D01*
X0014811Y0119662D02*
X0306150Y0119662D01*
X0306150Y0120260D02*
X0014811Y0120260D01*
X0014811Y0120859D02*
X0306150Y0120859D01*
X0306150Y0121457D02*
X0014811Y0121457D01*
X0014811Y0122056D02*
X0306150Y0122056D01*
X0306150Y0122654D02*
X0014811Y0122654D01*
X0014811Y0123253D02*
X0306150Y0123253D01*
X0306150Y0123851D02*
X0014811Y0123851D01*
X0014811Y0124450D02*
X0306150Y0124450D01*
X0306150Y0125048D02*
X0014811Y0125048D01*
X0014811Y0125647D02*
X0306150Y0125647D01*
X0306150Y0126245D02*
X0014811Y0126245D01*
X0014811Y0126844D02*
X0306150Y0126844D01*
X0306150Y0127442D02*
X0014811Y0127442D01*
X0014811Y0128041D02*
X0306150Y0128041D01*
X0306150Y0128639D02*
X0014811Y0128639D01*
X0014811Y0129238D02*
X0306150Y0129238D01*
X0306150Y0129836D02*
X0014811Y0129836D01*
X0014811Y0130435D02*
X0306150Y0130435D01*
X0306150Y0131033D02*
X0014811Y0131033D01*
X0014811Y0131632D02*
X0306150Y0131632D01*
X0306150Y0132231D02*
X0014811Y0132231D01*
X0014811Y0132829D02*
X0306150Y0132829D01*
X0306150Y0133428D02*
X0014811Y0133428D01*
X0014811Y0134026D02*
X0306150Y0134026D01*
X0306150Y0134625D02*
X0014811Y0134625D01*
X0014811Y0135223D02*
X0306150Y0135223D01*
X0306150Y0135822D02*
X0014811Y0135822D01*
X0014811Y0136420D02*
X0306150Y0136420D01*
X0306150Y0137019D02*
X0014811Y0137019D01*
X0014811Y0137617D02*
X0306150Y0137617D01*
X0306150Y0138216D02*
X0014811Y0138216D01*
X0014811Y0138814D02*
X0306150Y0138814D01*
X0306150Y0139413D02*
X0014811Y0139413D01*
X0014811Y0140011D02*
X0306150Y0140011D01*
X0306150Y0140610D02*
X0014811Y0140610D01*
X0014811Y0141208D02*
X0306150Y0141208D01*
X0306150Y0141807D02*
X0014811Y0141807D01*
X0014811Y0142405D02*
X0306150Y0142405D01*
X0306150Y0143004D02*
X0014811Y0143004D01*
X0014811Y0143602D02*
X0306150Y0143602D01*
X0306150Y0144201D02*
X0014811Y0144201D01*
X0014811Y0144799D02*
X0306150Y0144799D01*
X0306150Y0145398D02*
X0014811Y0145398D01*
X0014811Y0145996D02*
X0306150Y0145996D01*
X0306150Y0146595D02*
X0014811Y0146595D01*
X0014811Y0147193D02*
X0306150Y0147193D01*
X0306150Y0147792D02*
X0014811Y0147792D01*
X0014811Y0148390D02*
X0306150Y0148390D01*
X0306150Y0148989D02*
X0014811Y0148989D01*
X0014811Y0149587D02*
X0306150Y0149587D01*
X0306150Y0150186D02*
X0014811Y0150186D01*
X0014811Y0150784D02*
X0306150Y0150784D01*
X0306150Y0151383D02*
X0014811Y0151383D01*
X0014811Y0151981D02*
X0306150Y0151981D01*
X0306150Y0152580D02*
X0014811Y0152580D01*
X0014811Y0153178D02*
X0306150Y0153178D01*
X0306150Y0153777D02*
X0014811Y0153777D01*
X0014811Y0154375D02*
X0306150Y0154375D01*
X0306150Y0154974D02*
X0014811Y0154974D01*
X0014811Y0155572D02*
X0306150Y0155572D01*
X0306150Y0156171D02*
X0014811Y0156171D01*
X0014811Y0156769D02*
X0306150Y0156769D01*
X0306150Y0157368D02*
X0014811Y0157368D01*
X0014811Y0157966D02*
X0306150Y0157966D01*
X0306150Y0158565D02*
X0014811Y0158565D01*
X0014811Y0159164D02*
X0306150Y0159164D01*
X0306150Y0159762D02*
X0014811Y0159762D01*
X0014811Y0160361D02*
X0306150Y0160361D01*
X0306150Y0160959D02*
X0014811Y0160959D01*
X0014811Y0161558D02*
X0306150Y0161558D01*
X0306150Y0162156D02*
X0014811Y0162156D01*
X0014811Y0162755D02*
X0306150Y0162755D01*
X0306150Y0163353D02*
X0014811Y0163353D01*
X0014811Y0163952D02*
X0306150Y0163952D01*
X0306150Y0164550D02*
X0014811Y0164550D01*
X0014811Y0165149D02*
X0306150Y0165149D01*
X0306150Y0165747D02*
X0014811Y0165747D01*
X0014811Y0166346D02*
X0306150Y0166346D01*
X0306150Y0166944D02*
X0014811Y0166944D01*
X0014811Y0167543D02*
X0306150Y0167543D01*
X0306150Y0168141D02*
X0014811Y0168141D01*
X0014811Y0168740D02*
X0306150Y0168740D01*
X0306150Y0169338D02*
X0014811Y0169338D01*
X0014811Y0169937D02*
X0306150Y0169937D01*
X0306150Y0170535D02*
X0014811Y0170535D01*
X0014811Y0171134D02*
X0306150Y0171134D01*
X0306150Y0171732D02*
X0014811Y0171732D01*
X0014811Y0172331D02*
X0306150Y0172331D01*
X0306150Y0172929D02*
X0014811Y0172929D01*
X0014811Y0173528D02*
X0306150Y0173528D01*
X0306150Y0174126D02*
X0014811Y0174126D01*
X0014811Y0174725D02*
X0306150Y0174725D01*
X0306150Y0175323D02*
X0014811Y0175323D01*
X0014811Y0175922D02*
X0306150Y0175922D01*
X0306150Y0176520D02*
X0014811Y0176520D01*
X0014811Y0177119D02*
X0306150Y0177119D01*
X0306150Y0177717D02*
X0014811Y0177717D01*
X0014811Y0178316D02*
X0306150Y0178316D01*
X0306150Y0178914D02*
X0014811Y0178914D01*
X0014811Y0179513D02*
X0306150Y0179513D01*
X0306150Y0180111D02*
X0014811Y0180111D01*
X0014811Y0180710D02*
X0306150Y0180710D01*
X0306150Y0181308D02*
X0014811Y0181308D01*
X0014811Y0181907D02*
X0306150Y0181907D01*
X0306150Y0182505D02*
X0014811Y0182505D01*
X0014811Y0183104D02*
X0306150Y0183104D01*
X0306150Y0183702D02*
X0014811Y0183702D01*
X0014811Y0184301D02*
X0306150Y0184301D01*
X0306150Y0184900D02*
X0014811Y0184900D01*
X0014811Y0185498D02*
X0306150Y0185498D01*
X0306150Y0186097D02*
X0014811Y0186097D01*
X0014811Y0186695D02*
X0306150Y0186695D01*
X0306150Y0187294D02*
X0014811Y0187294D01*
X0014811Y0187892D02*
X0306150Y0187892D01*
X0306150Y0188491D02*
X0014811Y0188491D01*
X0014811Y0189089D02*
X0306150Y0189089D01*
X0306150Y0189688D02*
X0014811Y0189688D01*
X0014811Y0190286D02*
X0306150Y0190286D01*
X0306150Y0190885D02*
X0014811Y0190885D01*
X0014811Y0191483D02*
X0306150Y0191483D01*
X0306150Y0192082D02*
X0014811Y0192082D01*
X0014811Y0192680D02*
X0306150Y0192680D01*
X0306150Y0193279D02*
X0014811Y0193279D01*
X0014811Y0193877D02*
X0306150Y0193877D01*
X0306150Y0194476D02*
X0014811Y0194476D01*
X0014811Y0195074D02*
X0306150Y0195074D01*
X0306150Y0195673D02*
X0014811Y0195673D01*
X0014811Y0196271D02*
X0306150Y0196271D01*
X0306150Y0196870D02*
X0014811Y0196870D01*
X0014811Y0197468D02*
X0306150Y0197468D01*
X0306150Y0198067D02*
X0014811Y0198067D01*
X0014811Y0198665D02*
X0306150Y0198665D01*
X0306150Y0199264D02*
X0014811Y0199264D01*
X0014811Y0199862D02*
X0306150Y0199862D01*
X0306150Y0200461D02*
X0014811Y0200461D01*
X0014811Y0201059D02*
X0306150Y0201059D01*
X0306150Y0201658D02*
X0014811Y0201658D01*
X0014811Y0202256D02*
X0306150Y0202256D01*
X0306150Y0202855D02*
X0014811Y0202855D01*
X0014811Y0203453D02*
X0306150Y0203453D01*
X0306150Y0204052D02*
X0014811Y0204052D01*
X0014811Y0204650D02*
X0306150Y0204650D01*
X0306150Y0205249D02*
X0014811Y0205249D01*
X0014811Y0205847D02*
X0306150Y0205847D01*
X0306150Y0206446D02*
X0014811Y0206446D01*
X0014811Y0207044D02*
X0306150Y0207044D01*
X0306150Y0207643D02*
X0014811Y0207643D01*
X0014811Y0208241D02*
X0306150Y0208241D01*
X0306150Y0208840D02*
X0014811Y0208840D01*
X0014811Y0209438D02*
X0306150Y0209438D01*
X0306150Y0210037D02*
X0014811Y0210037D01*
X0014811Y0210635D02*
X0306150Y0210635D01*
X0306150Y0211234D02*
X0014811Y0211234D01*
X0014811Y0211833D02*
X0306150Y0211833D01*
X0306150Y0212431D02*
X0014811Y0212431D01*
X0014811Y0213030D02*
X0306150Y0213030D01*
X0306150Y0213628D02*
X0014811Y0213628D01*
X0014811Y0214227D02*
X0306150Y0214227D01*
X0306150Y0214825D02*
X0014811Y0214825D01*
X0014811Y0215424D02*
X0306150Y0215424D01*
X0306150Y0216022D02*
X0014811Y0216022D01*
X0014811Y0216621D02*
X0306150Y0216621D01*
X0306150Y0217219D02*
X0014811Y0217219D01*
X0014811Y0217818D02*
X0306150Y0217818D01*
X0306150Y0218416D02*
X0014811Y0218416D01*
X0014811Y0219015D02*
X0306150Y0219015D01*
X0306150Y0219613D02*
X0014811Y0219613D01*
X0014811Y0220212D02*
X0306150Y0220212D01*
X0306150Y0220810D02*
X0014811Y0220810D01*
X0014811Y0221409D02*
X0306150Y0221409D01*
X0306150Y0222007D02*
X0014811Y0222007D01*
X0014811Y0222606D02*
X0306150Y0222606D01*
X0306150Y0223204D02*
X0014811Y0223204D01*
X0014811Y0223803D02*
X0306150Y0223803D01*
X0306150Y0224401D02*
X0014811Y0224401D01*
X0014811Y0225000D02*
X0306150Y0225000D01*
X0306150Y0225598D02*
X0014811Y0225598D01*
X0014811Y0226197D02*
X0306150Y0226197D01*
X0306150Y0226795D02*
X0014811Y0226795D01*
X0014811Y0227394D02*
X0306150Y0227394D01*
X0306150Y0227992D02*
X0014811Y0227992D01*
X0014811Y0228591D02*
X0306150Y0228591D01*
X0306150Y0229189D02*
X0014811Y0229189D01*
X0014811Y0229788D02*
X0306150Y0229788D01*
X0306150Y0230386D02*
X0014811Y0230386D01*
X0014811Y0230985D02*
X0306150Y0230985D01*
X0306150Y0231583D02*
X0014811Y0231583D01*
X0014811Y0232182D02*
X0306150Y0232182D01*
X0306150Y0232780D02*
X0014811Y0232780D01*
X0014811Y0233379D02*
X0306150Y0233379D01*
X0306150Y0233977D02*
X0014811Y0233977D01*
X0014811Y0234576D02*
X0306150Y0234576D01*
X0306150Y0235174D02*
X0014811Y0235174D01*
X0014811Y0235773D02*
X0306150Y0235773D01*
X0306150Y0236371D02*
X0014811Y0236371D01*
X0014811Y0236970D02*
X0306150Y0236970D01*
X0306150Y0237569D02*
X0014811Y0237569D01*
X0014811Y0238167D02*
X0306150Y0238167D01*
X0306150Y0238766D02*
X0014811Y0238766D01*
X0014811Y0239364D02*
X0306150Y0239364D01*
X0306150Y0239963D02*
X0014811Y0239963D01*
X0014811Y0240561D02*
X0306150Y0240561D01*
X0306150Y0241160D02*
X0014811Y0241160D01*
X0014811Y0241758D02*
X0306150Y0241758D01*
X0306150Y0242357D02*
X0014811Y0242357D01*
X0014811Y0242955D02*
X0306150Y0242955D01*
X0306150Y0243554D02*
X0014811Y0243554D01*
X0014811Y0244152D02*
X0306150Y0244152D01*
X0306150Y0244751D02*
X0014811Y0244751D01*
X0014811Y0245349D02*
X0306150Y0245349D01*
X0306150Y0245948D02*
X0014811Y0245948D01*
X0014811Y0246546D02*
X0306150Y0246546D01*
X0306150Y0247145D02*
X0014811Y0247145D01*
X0014811Y0247743D02*
X0306150Y0247743D01*
X0306150Y0248342D02*
X0014811Y0248342D01*
X0014811Y0248940D02*
X0306150Y0248940D01*
X0306150Y0249539D02*
X0014811Y0249539D01*
X0014811Y0250137D02*
X0306150Y0250137D01*
X0306150Y0250736D02*
X0014811Y0250736D01*
X0014811Y0251334D02*
X0306150Y0251334D01*
X0306150Y0251933D02*
X0014811Y0251933D01*
X0014811Y0252531D02*
X0306150Y0252531D01*
X0306150Y0253130D02*
X0014811Y0253130D01*
X0014811Y0253728D02*
X0306150Y0253728D01*
X0306150Y0254327D02*
X0014811Y0254327D01*
X0014811Y0254925D02*
X0306150Y0254925D01*
X0306150Y0255524D02*
X0014811Y0255524D01*
X0014811Y0256122D02*
X0306150Y0256122D01*
X0306150Y0256721D02*
X0014811Y0256721D01*
X0014811Y0257319D02*
X0306150Y0257319D01*
X0306150Y0257918D02*
X0014811Y0257918D01*
X0014811Y0258516D02*
X0306150Y0258516D01*
X0306150Y0259115D02*
X0014811Y0259115D01*
X0014811Y0259713D02*
X0306150Y0259713D01*
X0306150Y0260312D02*
X0014811Y0260312D01*
X0014811Y0260910D02*
X0306150Y0260910D01*
X0306150Y0261509D02*
X0014811Y0261509D01*
X0014811Y0262107D02*
X0306150Y0262107D01*
X0306150Y0262706D02*
X0014811Y0262706D01*
X0014811Y0263304D02*
X0306150Y0263304D01*
X0306150Y0263903D02*
X0014811Y0263903D01*
X0014811Y0264502D02*
X0306150Y0264502D01*
X0306150Y0265100D02*
X0014811Y0265100D01*
X0014811Y0265699D02*
X0306150Y0265699D01*
X0306150Y0266297D02*
X0014811Y0266297D01*
X0014811Y0266896D02*
X0306150Y0266896D01*
X0306150Y0267494D02*
X0014811Y0267494D01*
X0014811Y0268093D02*
X0306150Y0268093D01*
X0306150Y0268691D02*
X0014811Y0268691D01*
X0014811Y0269290D02*
X0306150Y0269290D01*
X0306150Y0269888D02*
X0014811Y0269888D01*
X0014811Y0270487D02*
X0306150Y0270487D01*
X0306150Y0271085D02*
X0014811Y0271085D01*
X0014811Y0271684D02*
X0306150Y0271684D01*
X0306150Y0272282D02*
X0014811Y0272282D01*
X0014811Y0272881D02*
X0306150Y0272881D01*
X0306150Y0273479D02*
X0014811Y0273479D01*
X0014811Y0274078D02*
X0306150Y0274078D01*
X0306150Y0274676D02*
X0014811Y0274676D01*
X0014811Y0275275D02*
X0306150Y0275275D01*
X0306150Y0275873D02*
X0014811Y0275873D01*
X0014811Y0276472D02*
X0306150Y0276472D01*
X0306150Y0277070D02*
X0014811Y0277070D01*
X0014811Y0277669D02*
X0306150Y0277669D01*
X0306150Y0278267D02*
X0014811Y0278267D01*
X0014811Y0278866D02*
X0306150Y0278866D01*
X0306150Y0279464D02*
X0014811Y0279464D01*
X0014811Y0280063D02*
X0306150Y0280063D01*
X0306150Y0280661D02*
X0014811Y0280661D01*
X0014811Y0281260D02*
X0306150Y0281260D01*
X0306150Y0281858D02*
X0014811Y0281858D01*
X0014811Y0282457D02*
X0306150Y0282457D01*
X0306150Y0283055D02*
X0014811Y0283055D01*
X0014811Y0283654D02*
X0306150Y0283654D01*
X0306150Y0284252D02*
X0014811Y0284252D01*
X0014811Y0284851D02*
X0306150Y0284851D01*
X0306150Y0285449D02*
X0014811Y0285449D01*
X0014811Y0286048D02*
X0306150Y0286048D01*
X0306150Y0286646D02*
X0014811Y0286646D01*
X0014811Y0287245D02*
X0306150Y0287245D01*
X0306150Y0287843D02*
X0014811Y0287843D01*
X0014811Y0288442D02*
X0306150Y0288442D01*
X0306150Y0289040D02*
X0014811Y0289040D01*
X0014811Y0289639D02*
X0306150Y0289639D01*
X0306150Y0290238D02*
X0014811Y0290238D01*
X0014811Y0290836D02*
X0306150Y0290836D01*
X0306150Y0291435D02*
X0014811Y0291435D01*
X0014811Y0292033D02*
X0306150Y0292033D01*
X0306150Y0292632D02*
X0014811Y0292632D01*
X0014811Y0293230D02*
X0306150Y0293230D01*
X0306150Y0293829D02*
X0014811Y0293829D01*
X0014811Y0294427D02*
X0306150Y0294427D01*
X0306150Y0295026D02*
X0014811Y0295026D01*
X0014811Y0295624D02*
X0306150Y0295624D01*
X0306150Y0296223D02*
X0014811Y0296223D01*
X0014811Y0296821D02*
X0306150Y0296821D01*
X0306150Y0297420D02*
X0014811Y0297420D01*
X0014811Y0298018D02*
X0306150Y0298018D01*
X0306150Y0298617D02*
X0014811Y0298617D01*
X0014811Y0299215D02*
X0306150Y0299215D01*
X0306150Y0299814D02*
X0014811Y0299814D01*
X0014811Y0300412D02*
X0306150Y0300412D01*
X0306150Y0301011D02*
X0014811Y0301011D01*
X0014811Y0301609D02*
X0306150Y0301609D01*
X0306150Y0302208D02*
X0014811Y0302208D01*
X0014811Y0302806D02*
X0306150Y0302806D01*
X0306150Y0303405D02*
X0014811Y0303405D01*
X0014811Y0304003D02*
X0306150Y0304003D01*
X0306150Y0304602D02*
X0014811Y0304602D01*
X0014811Y0305200D02*
X0306150Y0305200D01*
X0306150Y0305799D02*
X0014811Y0305799D01*
X0014811Y0306397D02*
X0306150Y0306397D01*
X0306150Y0306996D02*
X0014811Y0306996D01*
X0014811Y0307594D02*
X0306150Y0307594D01*
X0306150Y0308193D02*
X0014811Y0308193D01*
X0014811Y0308791D02*
X0306150Y0308791D01*
X0306150Y0309390D02*
X0014811Y0309390D01*
X0014811Y0309988D02*
X0306150Y0309988D01*
X0306150Y0310587D02*
X0014811Y0310587D01*
X0014811Y0311185D02*
X0306150Y0311185D01*
X0306150Y0311784D02*
X0014811Y0311784D01*
X0014811Y0312382D02*
X0306150Y0312382D01*
X0306150Y0312981D02*
X0014811Y0312981D01*
X0014811Y0313579D02*
X0306150Y0313579D01*
X0306150Y0314178D02*
X0014811Y0314178D01*
X0014811Y0314776D02*
X0306150Y0314776D01*
X0306150Y0315375D02*
X0014811Y0315375D01*
X0014811Y0315973D02*
X0306150Y0315973D01*
X0306150Y0316572D02*
X0014811Y0316572D01*
X0014811Y0317171D02*
X0306150Y0317171D01*
X0306150Y0317769D02*
X0014811Y0317769D01*
X0014811Y0318368D02*
X0306150Y0318368D01*
X0306150Y0318966D02*
X0014811Y0318966D01*
X0014811Y0319565D02*
X0306150Y0319565D01*
X0306150Y0320163D02*
X0014811Y0320163D01*
X0014811Y0320762D02*
X0306150Y0320762D01*
X0306150Y0321360D02*
X0014811Y0321360D01*
X0014811Y0321959D02*
X0306150Y0321959D01*
X0306150Y0322557D02*
X0014811Y0322557D01*
X0014811Y0323156D02*
X0306150Y0323156D01*
X0306150Y0323754D02*
X0014811Y0323754D01*
X0014811Y0324353D02*
X0306150Y0324353D01*
X0306150Y0324951D02*
X0014811Y0324951D01*
X0014811Y0325550D02*
X0306150Y0325550D01*
X0306150Y0326148D02*
X0014811Y0326148D01*
X0014811Y0326747D02*
X0306150Y0326747D01*
X0306150Y0327345D02*
X0014811Y0327345D01*
X0014811Y0327944D02*
X0306150Y0327944D01*
X0306150Y0328542D02*
X0014811Y0328542D01*
X0014811Y0329141D02*
X0306150Y0329141D01*
X0306150Y0329739D02*
X0014811Y0329739D01*
X0014811Y0330338D02*
X0306150Y0330338D01*
X0306150Y0330936D02*
X0014811Y0330936D01*
X0014811Y0331535D02*
X0306150Y0331535D01*
X0306150Y0332133D02*
X0014811Y0332133D01*
X0014811Y0332732D02*
X0306150Y0332732D01*
X0306150Y0333330D02*
X0014811Y0333330D01*
X0014811Y0333929D02*
X0306150Y0333929D01*
X0306150Y0334527D02*
X0014811Y0334527D01*
X0014811Y0335126D02*
X0306150Y0335126D01*
X0306150Y0335724D02*
X0014811Y0335724D01*
X0014811Y0336323D02*
X0306150Y0336323D01*
X0306150Y0336921D02*
X0014811Y0336921D01*
X0014811Y0337520D02*
X0306150Y0337520D01*
X0306150Y0338118D02*
X0014811Y0338118D01*
X0014811Y0338717D02*
X0306150Y0338717D01*
X0306150Y0339315D02*
X0014811Y0339315D01*
X0014811Y0339914D02*
X0306150Y0339914D01*
X0306150Y0340512D02*
X0014811Y0340512D01*
X0014811Y0341111D02*
X0306150Y0341111D01*
X0306150Y0341709D02*
X0014811Y0341709D01*
X0014811Y0342308D02*
X0306150Y0342308D01*
X0306150Y0342906D02*
X0014811Y0342906D01*
X0014811Y0343505D02*
X0306150Y0343505D01*
X0306150Y0344104D02*
X0014811Y0344104D01*
X0014811Y0344702D02*
X0306150Y0344702D01*
X0306150Y0345301D02*
X0014811Y0345301D01*
X0014811Y0345899D02*
X0306150Y0345899D01*
X0306150Y0346498D02*
X0014811Y0346498D01*
X0014811Y0347096D02*
X0306150Y0347096D01*
X0306150Y0347695D02*
X0014811Y0347695D01*
X0014811Y0348293D02*
X0306150Y0348293D01*
X0306150Y0348892D02*
X0014811Y0348892D01*
X0014811Y0349490D02*
X0306150Y0349490D01*
X0306150Y0350089D02*
X0014811Y0350089D01*
X0014811Y0350687D02*
X0306150Y0350687D01*
X0306150Y0351286D02*
X0014811Y0351286D01*
X0014811Y0351884D02*
X0306150Y0351884D01*
X0306150Y0352483D02*
X0014811Y0352483D01*
X0014811Y0353081D02*
X0306150Y0353081D01*
X0306150Y0353680D02*
X0014811Y0353680D01*
X0014811Y0354278D02*
X0306150Y0354278D01*
X0306150Y0354877D02*
X0014811Y0354877D01*
X0014811Y0355475D02*
X0306150Y0355475D01*
X0306150Y0356074D02*
X0014811Y0356074D01*
X0014811Y0356672D02*
X0306150Y0356672D01*
X0306150Y0357271D02*
X0014811Y0357271D01*
X0014811Y0357869D02*
X0306150Y0357869D01*
X0306150Y0358468D02*
X0014811Y0358468D01*
X0014811Y0359066D02*
X0306150Y0359066D01*
X0306150Y0359665D02*
X0014811Y0359665D01*
X0014811Y0360263D02*
X0306150Y0360263D01*
X0306150Y0360862D02*
X0014811Y0360862D01*
X0014811Y0361460D02*
X0306150Y0361460D01*
X0306150Y0362059D02*
X0014811Y0362059D01*
X0014811Y0362657D02*
X0306150Y0362657D01*
X0306150Y0363256D02*
X0014811Y0363256D01*
X0014811Y0363854D02*
X0306150Y0363854D01*
X0306150Y0364453D02*
X0014811Y0364453D01*
X0014811Y0365051D02*
X0306150Y0365051D01*
X0306150Y0365650D02*
X0014811Y0365650D01*
X0014811Y0366248D02*
X0306150Y0366248D01*
X0306150Y0366847D02*
X0014811Y0366847D01*
X0014811Y0367445D02*
X0306150Y0367445D01*
X0306150Y0368044D02*
X0014811Y0368044D01*
X0014811Y0368642D02*
X0306150Y0368642D01*
X0306150Y0369241D02*
X0014811Y0369241D01*
X0014811Y0369840D02*
X0306150Y0369840D01*
X0306150Y0370438D02*
X0014811Y0370438D01*
X0014811Y0371037D02*
X0306150Y0371037D01*
X0306150Y0371635D02*
X0014811Y0371635D01*
X0014811Y0372234D02*
X0306150Y0372234D01*
X0306150Y0372832D02*
X0014811Y0372832D01*
X0014811Y0373431D02*
X0306150Y0373431D01*
X0306150Y0374029D02*
X0014811Y0374029D01*
X0014811Y0374628D02*
X0306150Y0374628D01*
X0306150Y0375226D02*
X0014811Y0375226D01*
X0014811Y0375825D02*
X0306150Y0375825D01*
X0306150Y0376423D02*
X0014811Y0376423D01*
X0014811Y0377022D02*
X0306150Y0377022D01*
X0306150Y0377620D02*
X0014811Y0377620D01*
X0014811Y0378219D02*
X0306150Y0378219D01*
X0306150Y0378817D02*
X0014811Y0378817D01*
X0014811Y0379416D02*
X0306150Y0379416D01*
X0306150Y0380014D02*
X0014811Y0380014D01*
M02*
