G75*
%MOIN*%
%OFA0B0*%
%FSLAX25Y25*%
%IPPOS*%
%LPD*%
%AMOC8*
5,1,8,0,0,1.08239X$1,22.5*
%
%ADD10OC8,0.10000*%
%ADD11R,0.03937X0.05512*%
%ADD12R,0.05512X0.03937*%
%ADD13R,0.07098X0.06299*%
%ADD14C,0.06000*%
%ADD15R,0.01378X0.05906*%
%ADD16R,0.01181X0.05906*%
%ADD17R,0.07600X0.15000*%
%ADD18R,0.05600X0.02800*%
%ADD19R,0.06890X0.01575*%
%ADD20R,0.10000X0.10000*%
%ADD21R,0.09000X0.09000*%
%ADD22R,0.05800X0.02000*%
%ADD23R,0.02000X0.05800*%
%ADD24R,0.06299X0.07087*%
%ADD25R,0.07087X0.06299*%
%ADD26C,0.01600*%
%ADD27C,0.02978*%
D10*
X0328302Y0120623D03*
X0328302Y0144245D03*
D11*
X0299208Y0097001D03*
X0291728Y0097001D03*
X0295468Y0088340D03*
D12*
X0304287Y0360977D03*
X0304287Y0368458D03*
X0312948Y0364717D03*
X0234208Y0364717D03*
X0225547Y0360977D03*
X0225547Y0368458D03*
X0155468Y0364717D03*
X0146806Y0360977D03*
X0146806Y0368458D03*
X0076728Y0364717D03*
X0068066Y0360977D03*
X0068066Y0368458D03*
D13*
X0068460Y0350631D03*
X0068460Y0339434D03*
X0147200Y0339434D03*
X0147200Y0350631D03*
X0225940Y0350631D03*
X0225940Y0339434D03*
X0304680Y0339434D03*
X0304680Y0350631D03*
X0083421Y0180395D03*
X0083421Y0169198D03*
D14*
X0083145Y0029135D02*
X0083145Y0023135D01*
X0093145Y0023135D02*
X0093145Y0029135D01*
X0103145Y0029135D02*
X0103145Y0023135D01*
X0113145Y0023135D02*
X0113145Y0029135D01*
X0123145Y0029135D02*
X0123145Y0023135D01*
X0137948Y0023135D02*
X0137948Y0029135D01*
X0147948Y0029135D02*
X0147948Y0023135D01*
X0157948Y0023135D02*
X0157948Y0029135D01*
X0167948Y0029135D02*
X0167948Y0023135D01*
X0177948Y0023135D02*
X0177948Y0029135D01*
X0187948Y0029135D02*
X0187948Y0023135D01*
X0202751Y0023135D02*
X0202751Y0029135D01*
X0212751Y0029135D02*
X0212751Y0023135D01*
X0222751Y0023135D02*
X0222751Y0029135D01*
X0232751Y0029135D02*
X0232751Y0023135D01*
X0242751Y0023135D02*
X0242751Y0029135D01*
X0252751Y0029135D02*
X0252751Y0023135D01*
X0262751Y0023135D02*
X0262751Y0029135D01*
X0272751Y0029135D02*
X0272751Y0023135D01*
X0294680Y0023135D02*
X0294680Y0029135D01*
X0304680Y0029135D02*
X0304680Y0023135D01*
X0314680Y0023135D02*
X0314680Y0029135D01*
X0073145Y0029135D02*
X0073145Y0023135D01*
X0063145Y0023135D02*
X0063145Y0029135D01*
X0053145Y0029135D02*
X0053145Y0023135D01*
D15*
X0095547Y0158930D03*
X0098106Y0158930D03*
X0100665Y0158930D03*
X0103224Y0158930D03*
X0105783Y0158930D03*
X0108342Y0158930D03*
X0110901Y0158930D03*
X0113460Y0158930D03*
X0116019Y0158930D03*
X0118578Y0158930D03*
X0121137Y0158930D03*
X0123696Y0158930D03*
X0121137Y0182552D03*
X0118578Y0182552D03*
X0116019Y0182552D03*
X0113460Y0182552D03*
X0110901Y0182552D03*
X0108342Y0182552D03*
X0105783Y0182552D03*
X0103224Y0182552D03*
X0100665Y0182552D03*
X0098106Y0182552D03*
X0095547Y0182552D03*
D16*
X0123696Y0182552D03*
D17*
X0241610Y0092080D03*
D18*
X0263263Y0092080D03*
X0263263Y0101135D03*
X0263263Y0083025D03*
D19*
X0318361Y0074560D03*
X0318361Y0072001D03*
X0318361Y0069442D03*
X0318361Y0066883D03*
X0318361Y0064324D03*
D20*
X0329484Y0054777D03*
X0329484Y0084107D03*
D21*
X0316176Y0084442D03*
X0316176Y0054442D03*
D22*
X0205317Y0082497D03*
X0205317Y0085597D03*
X0205317Y0088797D03*
X0205317Y0091897D03*
X0205317Y0095097D03*
X0205317Y0098197D03*
X0205317Y0101397D03*
X0205317Y0104497D03*
X0171917Y0104497D03*
X0171917Y0101397D03*
X0171917Y0098197D03*
X0171917Y0095097D03*
X0171917Y0091897D03*
X0171917Y0088797D03*
X0171917Y0085597D03*
X0171917Y0082497D03*
D23*
X0177617Y0076797D03*
X0180717Y0076797D03*
X0183917Y0076797D03*
X0187017Y0076797D03*
X0190217Y0076797D03*
X0193317Y0076797D03*
X0196517Y0076797D03*
X0199617Y0076797D03*
X0199617Y0110197D03*
X0196517Y0110197D03*
X0193317Y0110197D03*
X0190217Y0110197D03*
X0187017Y0110197D03*
X0183917Y0110197D03*
X0180717Y0110197D03*
X0177617Y0110197D03*
D24*
X0244050Y0108812D03*
X0255074Y0108812D03*
D25*
X0277121Y0098576D03*
X0277121Y0087552D03*
D26*
X0029953Y0019124D02*
X0029953Y0387477D01*
X0123312Y0387477D01*
X0123997Y0387400D01*
X0124259Y0387477D01*
X0124533Y0387477D01*
X0125169Y0387740D01*
X0125831Y0387932D01*
X0126044Y0388103D01*
X0126297Y0388207D01*
X0126784Y0388694D01*
X0144947Y0403225D01*
X0147423Y0403225D01*
X0147068Y0402870D01*
X0146337Y0401105D01*
X0146337Y0391322D01*
X0147068Y0389558D01*
X0148418Y0388207D01*
X0150182Y0387477D01*
X0215084Y0387477D01*
X0216848Y0388207D01*
X0218198Y0389558D01*
X0218929Y0391322D01*
X0218929Y0401105D01*
X0218198Y0402870D01*
X0217843Y0403225D01*
X0220015Y0403225D01*
X0235032Y0388207D01*
X0236796Y0387477D01*
X0335313Y0387477D01*
X0335313Y0019124D01*
X0317740Y0019124D01*
X0318919Y0020303D01*
X0319680Y0022140D01*
X0319680Y0030129D01*
X0318919Y0031967D01*
X0317513Y0033374D01*
X0317480Y0033387D01*
X0317480Y0040314D01*
X0317054Y0041343D01*
X0307480Y0050917D01*
X0307480Y0060408D01*
X0311155Y0064083D01*
X0318918Y0064083D01*
X0318949Y0064095D01*
X0322635Y0064095D01*
X0323806Y0065267D01*
X0323806Y0076176D01*
X0322635Y0077347D01*
X0318949Y0077347D01*
X0318918Y0077360D01*
X0308596Y0077360D01*
X0307480Y0078476D01*
X0307480Y0089465D01*
X0307054Y0090494D01*
X0306266Y0091282D01*
X0303176Y0094372D01*
X0303176Y0100585D01*
X0302008Y0101754D01*
X0302008Y0113991D01*
X0325333Y0137315D01*
X0325403Y0137245D01*
X0331202Y0137245D01*
X0335302Y0141346D01*
X0335302Y0147145D01*
X0331202Y0151245D01*
X0325403Y0151245D01*
X0321302Y0147145D01*
X0321302Y0141346D01*
X0321373Y0141275D01*
X0297622Y0117524D01*
X0296834Y0116737D01*
X0296408Y0115708D01*
X0296408Y0101754D01*
X0295468Y0100814D01*
X0294525Y0101757D01*
X0288931Y0101757D01*
X0287759Y0100585D01*
X0287759Y0093417D01*
X0288931Y0092245D01*
X0291820Y0092245D01*
X0291499Y0091924D01*
X0291499Y0091140D01*
X0282665Y0091140D01*
X0282665Y0091530D01*
X0281493Y0092702D01*
X0272750Y0092702D01*
X0271578Y0091530D01*
X0271578Y0085969D01*
X0271434Y0085825D01*
X0267491Y0085825D01*
X0266891Y0086425D01*
X0259635Y0086425D01*
X0258463Y0085253D01*
X0258463Y0080796D01*
X0259635Y0079625D01*
X0266891Y0079625D01*
X0267491Y0080225D01*
X0273151Y0080225D01*
X0274180Y0080651D01*
X0275932Y0082403D01*
X0281493Y0082403D01*
X0282665Y0083574D01*
X0282665Y0085540D01*
X0291499Y0085540D01*
X0291499Y0084755D01*
X0292671Y0083584D01*
X0298265Y0083584D01*
X0299436Y0084755D01*
X0299436Y0090045D01*
X0299584Y0090045D01*
X0301880Y0087748D01*
X0301880Y0076759D01*
X0302307Y0075730D01*
X0304658Y0073379D01*
X0292307Y0061028D01*
X0291880Y0059999D01*
X0291880Y0033387D01*
X0291848Y0033374D01*
X0290442Y0031967D01*
X0289680Y0030129D01*
X0289680Y0022140D01*
X0290442Y0020303D01*
X0291620Y0019124D01*
X0275811Y0019124D01*
X0276990Y0020303D01*
X0277751Y0022140D01*
X0277751Y0030129D01*
X0276990Y0031967D01*
X0275584Y0033374D01*
X0273746Y0034135D01*
X0271757Y0034135D01*
X0269919Y0033374D01*
X0269696Y0033150D01*
X0265051Y0037795D01*
X0264263Y0038583D01*
X0263234Y0039009D01*
X0252459Y0039009D01*
X0244167Y0047301D01*
X0244646Y0047780D01*
X0245177Y0049063D01*
X0245177Y0050451D01*
X0244646Y0051733D01*
X0244410Y0051970D01*
X0244410Y0082580D01*
X0246238Y0082580D01*
X0247410Y0083751D01*
X0247410Y0089280D01*
X0259035Y0089280D01*
X0259635Y0088680D01*
X0266891Y0088680D01*
X0268063Y0089851D01*
X0268063Y0094308D01*
X0266891Y0095480D01*
X0259635Y0095480D01*
X0259035Y0094880D01*
X0247410Y0094880D01*
X0247410Y0100408D01*
X0246850Y0100967D01*
X0246850Y0103269D01*
X0248028Y0103269D01*
X0249200Y0104440D01*
X0249200Y0113184D01*
X0248028Y0114355D01*
X0240072Y0114355D01*
X0238901Y0113184D01*
X0238901Y0104440D01*
X0240072Y0103269D01*
X0241250Y0103269D01*
X0241250Y0101580D01*
X0236981Y0101580D01*
X0235810Y0100408D01*
X0235810Y0094880D01*
X0232902Y0094880D01*
X0232835Y0095040D01*
X0231854Y0096022D01*
X0230571Y0096553D01*
X0229183Y0096553D01*
X0227901Y0096022D01*
X0226919Y0095040D01*
X0226388Y0093758D01*
X0226388Y0092639D01*
X0211778Y0107249D01*
X0210749Y0107675D01*
X0205138Y0107675D01*
X0204709Y0107497D01*
X0202617Y0107497D01*
X0202617Y0113925D01*
X0202417Y0114125D01*
X0202417Y0266369D01*
X0230325Y0294277D01*
X0230325Y0293157D01*
X0230856Y0291875D01*
X0231014Y0291717D01*
X0231014Y0288111D01*
X0230856Y0287954D01*
X0230325Y0286671D01*
X0230325Y0285283D01*
X0230856Y0284001D01*
X0231014Y0283843D01*
X0231014Y0272363D01*
X0230856Y0272206D01*
X0230325Y0270923D01*
X0230325Y0269535D01*
X0230856Y0268253D01*
X0231838Y0267271D01*
X0233120Y0266740D01*
X0234508Y0266740D01*
X0235791Y0267271D01*
X0236772Y0268253D01*
X0237303Y0269535D01*
X0237303Y0270923D01*
X0236772Y0272206D01*
X0236614Y0272363D01*
X0236614Y0283843D01*
X0236772Y0284001D01*
X0237303Y0285283D01*
X0237303Y0286671D01*
X0236772Y0287954D01*
X0236614Y0288111D01*
X0236614Y0291717D01*
X0236772Y0291875D01*
X0237303Y0293157D01*
X0237303Y0294545D01*
X0236772Y0295828D01*
X0235791Y0296809D01*
X0234508Y0297340D01*
X0233389Y0297340D01*
X0272683Y0336634D01*
X0299131Y0336634D01*
X0299131Y0335456D01*
X0300303Y0334284D01*
X0309058Y0334284D01*
X0310230Y0335456D01*
X0310230Y0343412D01*
X0309058Y0344584D01*
X0300303Y0344584D01*
X0299131Y0343412D01*
X0299131Y0342234D01*
X0270966Y0342234D01*
X0269937Y0341808D01*
X0199317Y0271188D01*
X0199317Y0308851D01*
X0224750Y0334284D01*
X0230318Y0334284D01*
X0231489Y0335456D01*
X0231489Y0338486D01*
X0231838Y0338138D01*
X0233120Y0337606D01*
X0234508Y0337606D01*
X0235791Y0338138D01*
X0236772Y0339119D01*
X0237303Y0340401D01*
X0237303Y0341789D01*
X0236772Y0343072D01*
X0236614Y0343230D01*
X0236614Y0354709D01*
X0236772Y0354867D01*
X0237303Y0356149D01*
X0237303Y0357537D01*
X0236772Y0358820D01*
X0236614Y0358978D01*
X0236614Y0360749D01*
X0237792Y0360749D01*
X0238964Y0361921D01*
X0238964Y0365658D01*
X0299534Y0365658D01*
X0300474Y0364717D01*
X0299531Y0363774D01*
X0299531Y0358180D01*
X0300702Y0357009D01*
X0301880Y0357009D01*
X0301880Y0355780D01*
X0300303Y0355780D01*
X0299131Y0354609D01*
X0299131Y0346653D01*
X0300303Y0345481D01*
X0309058Y0345481D01*
X0310230Y0346653D01*
X0310230Y0354234D01*
X0310578Y0353886D01*
X0311860Y0353354D01*
X0313248Y0353354D01*
X0314531Y0353886D01*
X0315512Y0354867D01*
X0316043Y0356149D01*
X0316043Y0357537D01*
X0315512Y0358820D01*
X0315354Y0358978D01*
X0315354Y0360749D01*
X0316532Y0360749D01*
X0317704Y0361921D01*
X0317704Y0367514D01*
X0316532Y0368686D01*
X0309364Y0368686D01*
X0309043Y0368365D01*
X0309043Y0371255D01*
X0307871Y0372426D01*
X0300702Y0372426D01*
X0299534Y0371258D01*
X0230299Y0371258D01*
X0229131Y0372426D01*
X0221962Y0372426D01*
X0220794Y0371258D01*
X0151559Y0371258D01*
X0150391Y0372426D01*
X0143222Y0372426D01*
X0142054Y0371258D01*
X0072819Y0371258D01*
X0071651Y0372426D01*
X0064482Y0372426D01*
X0063310Y0371255D01*
X0063310Y0367662D01*
X0061925Y0366276D01*
X0061137Y0365488D01*
X0060711Y0364459D01*
X0060711Y0179121D01*
X0061137Y0178092D01*
X0082673Y0156556D01*
X0083702Y0156130D01*
X0092747Y0156130D01*
X0092747Y0106092D01*
X0092530Y0105569D01*
X0092530Y0104181D01*
X0093061Y0102899D01*
X0094043Y0101917D01*
X0095325Y0101386D01*
X0096713Y0101386D01*
X0097995Y0101917D01*
X0098977Y0102899D01*
X0099508Y0104181D01*
X0099508Y0105569D01*
X0098977Y0106851D01*
X0098347Y0107482D01*
X0098347Y0153977D01*
X0105542Y0153977D01*
X0105542Y0083073D01*
X0095481Y0073012D01*
X0094693Y0072225D01*
X0094588Y0071971D01*
X0087674Y0065057D01*
X0087451Y0065057D01*
X0086169Y0064526D01*
X0085187Y0063544D01*
X0084656Y0062262D01*
X0084656Y0060874D01*
X0085187Y0059592D01*
X0086169Y0058610D01*
X0087451Y0058079D01*
X0088839Y0058079D01*
X0090121Y0058610D01*
X0091103Y0059592D01*
X0091634Y0060874D01*
X0091634Y0061097D01*
X0097500Y0066963D01*
X0097980Y0066484D01*
X0099262Y0065953D01*
X0100650Y0065953D01*
X0101932Y0066484D01*
X0102914Y0067466D01*
X0103445Y0068748D01*
X0103445Y0068971D01*
X0109322Y0074848D01*
X0109791Y0074380D01*
X0111073Y0073849D01*
X0112461Y0073849D01*
X0113743Y0074380D01*
X0114725Y0075362D01*
X0115256Y0076644D01*
X0115256Y0076867D01*
X0115834Y0077445D01*
X0116260Y0078474D01*
X0116260Y0128945D01*
X0117043Y0128945D01*
X0118325Y0129476D01*
X0119307Y0130458D01*
X0119838Y0131740D01*
X0119838Y0133128D01*
X0119307Y0134410D01*
X0118819Y0134898D01*
X0118819Y0136872D01*
X0118947Y0136819D01*
X0120335Y0136819D01*
X0121617Y0137350D01*
X0122599Y0138332D01*
X0123130Y0139614D01*
X0123130Y0141002D01*
X0122599Y0142284D01*
X0121617Y0143266D01*
X0121378Y0143365D01*
X0121378Y0144715D01*
X0122161Y0144715D01*
X0123443Y0145246D01*
X0124425Y0146228D01*
X0124956Y0147510D01*
X0124956Y0148898D01*
X0124425Y0150180D01*
X0123937Y0150668D01*
X0123937Y0153977D01*
X0125214Y0153977D01*
X0126385Y0155149D01*
X0126385Y0157659D01*
X0126967Y0158241D01*
X0129269Y0158241D01*
X0130298Y0158667D01*
X0131085Y0159455D01*
X0131990Y0160360D01*
X0132778Y0161147D01*
X0133204Y0162176D01*
X0133204Y0165118D01*
X0133413Y0164909D01*
X0134695Y0164378D01*
X0136083Y0164378D01*
X0137365Y0164909D01*
X0137523Y0165067D01*
X0139914Y0165067D01*
X0139700Y0164550D01*
X0139700Y0163162D01*
X0140231Y0161879D01*
X0141212Y0160898D01*
X0142495Y0160367D01*
X0143883Y0160367D01*
X0145165Y0160898D01*
X0145397Y0161130D01*
X0154063Y0161130D01*
X0174817Y0140376D01*
X0174817Y0114125D01*
X0174617Y0113925D01*
X0174617Y0107497D01*
X0168189Y0107497D01*
X0167989Y0107297D01*
X0148742Y0107297D01*
X0147713Y0106871D01*
X0082051Y0041209D01*
X0060492Y0041209D01*
X0059463Y0040783D01*
X0052815Y0034135D01*
X0052150Y0034135D01*
X0050313Y0033374D01*
X0048906Y0031967D01*
X0048145Y0030129D01*
X0048145Y0022140D01*
X0048906Y0020303D01*
X0050085Y0019124D01*
X0029953Y0019124D01*
X0029953Y0020718D02*
X0048734Y0020718D01*
X0048145Y0022316D02*
X0029953Y0022316D01*
X0029953Y0023915D02*
X0048145Y0023915D01*
X0048145Y0025513D02*
X0029953Y0025513D01*
X0029953Y0027112D02*
X0048145Y0027112D01*
X0048145Y0028710D02*
X0029953Y0028710D01*
X0029953Y0030309D02*
X0048219Y0030309D01*
X0048881Y0031907D02*
X0029953Y0031907D01*
X0029953Y0033506D02*
X0050632Y0033506D01*
X0053785Y0035104D02*
X0029953Y0035104D01*
X0029953Y0036703D02*
X0055383Y0036703D01*
X0056982Y0038301D02*
X0029953Y0038301D01*
X0029953Y0039900D02*
X0058580Y0039900D01*
X0061049Y0038409D02*
X0053145Y0030505D01*
X0053145Y0026135D01*
X0063145Y0026135D02*
X0063145Y0028694D01*
X0070660Y0036209D01*
X0084122Y0036209D01*
X0149311Y0101397D01*
X0171917Y0101397D01*
X0171917Y0104497D02*
X0149299Y0104497D01*
X0083211Y0038409D01*
X0061049Y0038409D01*
X0073145Y0030820D02*
X0073145Y0026135D01*
X0073145Y0030820D02*
X0076334Y0034009D01*
X0085034Y0034009D01*
X0149222Y0098197D01*
X0171917Y0098197D01*
X0168189Y0095197D02*
X0167989Y0095397D01*
X0161612Y0095397D01*
X0161969Y0095040D01*
X0162111Y0094697D01*
X0167989Y0094697D01*
X0168189Y0094897D01*
X0175646Y0094897D01*
X0175846Y0094697D01*
X0180306Y0094697D01*
X0189380Y0103771D01*
X0190409Y0104197D01*
X0200417Y0104197D01*
X0200417Y0105297D01*
X0176817Y0105297D01*
X0176817Y0096369D01*
X0175646Y0095197D01*
X0168189Y0095197D01*
X0171917Y0091897D02*
X0160178Y0091897D01*
X0159011Y0093064D01*
X0151137Y0093064D01*
X0154380Y0084742D02*
X0153098Y0084211D01*
X0152116Y0083229D01*
X0151585Y0081947D01*
X0151585Y0080559D01*
X0152116Y0079277D01*
X0152274Y0079119D01*
X0152274Y0075513D01*
X0152116Y0075355D01*
X0151585Y0074073D01*
X0151585Y0072685D01*
X0152116Y0071403D01*
X0152934Y0070585D01*
X0131432Y0049083D01*
X0113513Y0049083D01*
X0112484Y0048657D01*
X0096589Y0032762D01*
X0095977Y0033374D01*
X0094140Y0034135D01*
X0092231Y0034135D01*
X0144093Y0085997D01*
X0164817Y0085997D01*
X0164817Y0082468D01*
X0157874Y0075525D01*
X0157874Y0079119D01*
X0158032Y0079277D01*
X0158563Y0080559D01*
X0158563Y0081947D01*
X0158032Y0083229D01*
X0157050Y0084211D01*
X0155768Y0084742D01*
X0154380Y0084742D01*
X0154178Y0084658D02*
X0142754Y0084658D01*
X0141156Y0083060D02*
X0152046Y0083060D01*
X0151585Y0081461D02*
X0139557Y0081461D01*
X0137959Y0079863D02*
X0151873Y0079863D01*
X0152274Y0078264D02*
X0136360Y0078264D01*
X0134762Y0076666D02*
X0152274Y0076666D01*
X0151997Y0075067D02*
X0133163Y0075067D01*
X0131565Y0073469D02*
X0151585Y0073469D01*
X0151923Y0071870D02*
X0129966Y0071870D01*
X0128368Y0070272D02*
X0152621Y0070272D01*
X0151022Y0068673D02*
X0126769Y0068673D01*
X0125171Y0067075D02*
X0149424Y0067075D01*
X0147825Y0065476D02*
X0123572Y0065476D01*
X0121974Y0063878D02*
X0146227Y0063878D01*
X0144628Y0062279D02*
X0120375Y0062279D01*
X0118777Y0060681D02*
X0143030Y0060681D01*
X0141431Y0059082D02*
X0117178Y0059082D01*
X0115580Y0057484D02*
X0139833Y0057484D01*
X0138234Y0055885D02*
X0113981Y0055885D01*
X0112382Y0054287D02*
X0136636Y0054287D01*
X0135037Y0052688D02*
X0110784Y0052688D01*
X0109185Y0051090D02*
X0133439Y0051090D01*
X0131840Y0049491D02*
X0107587Y0049491D01*
X0105988Y0047893D02*
X0111720Y0047893D01*
X0110122Y0046294D02*
X0104390Y0046294D01*
X0102791Y0044695D02*
X0108523Y0044695D01*
X0106925Y0043097D02*
X0101193Y0043097D01*
X0099594Y0041498D02*
X0105326Y0041498D01*
X0103728Y0039900D02*
X0097996Y0039900D01*
X0096397Y0038301D02*
X0102129Y0038301D01*
X0100531Y0036703D02*
X0094799Y0036703D01*
X0093200Y0035104D02*
X0098932Y0035104D01*
X0097334Y0033506D02*
X0095658Y0033506D01*
X0093922Y0026135D02*
X0114070Y0046283D01*
X0132592Y0046283D01*
X0167617Y0081308D01*
X0167617Y0085597D01*
X0171917Y0085597D01*
X0171917Y0082497D02*
X0133503Y0044083D01*
X0121870Y0044083D01*
X0103922Y0026135D01*
X0103145Y0026135D01*
X0113145Y0026135D02*
X0113145Y0027513D01*
X0127515Y0041883D01*
X0142703Y0041883D01*
X0177617Y0076797D01*
X0180717Y0076797D02*
X0180717Y0074017D01*
X0144646Y0037946D01*
X0135389Y0037946D01*
X0123578Y0026135D01*
X0123145Y0026135D01*
X0128145Y0026742D02*
X0136549Y0035146D01*
X0145203Y0035146D01*
X0146232Y0035572D01*
X0147020Y0036360D01*
X0156211Y0045551D01*
X0156211Y0033827D01*
X0155116Y0033374D01*
X0153709Y0031967D01*
X0152948Y0030129D01*
X0152187Y0031967D01*
X0150780Y0033374D01*
X0148943Y0034135D01*
X0146954Y0034135D01*
X0145116Y0033374D01*
X0143709Y0031967D01*
X0142948Y0030129D01*
X0142948Y0022140D01*
X0143709Y0020303D01*
X0144888Y0019124D01*
X0126205Y0019124D01*
X0127384Y0020303D01*
X0128145Y0022140D01*
X0128145Y0026742D01*
X0128515Y0027112D02*
X0142948Y0027112D01*
X0142948Y0028710D02*
X0130113Y0028710D01*
X0131712Y0030309D02*
X0143022Y0030309D01*
X0143685Y0031907D02*
X0133310Y0031907D01*
X0134909Y0033506D02*
X0145435Y0033506D01*
X0147020Y0036360D02*
X0147020Y0036360D01*
X0147363Y0036703D02*
X0156211Y0036703D01*
X0156211Y0038301D02*
X0148962Y0038301D01*
X0150560Y0039900D02*
X0156211Y0039900D01*
X0156211Y0041498D02*
X0152159Y0041498D01*
X0153757Y0043097D02*
X0156211Y0043097D01*
X0156211Y0044695D02*
X0155356Y0044695D01*
X0159011Y0045820D02*
X0159011Y0027198D01*
X0157948Y0026135D01*
X0153709Y0020303D02*
X0154888Y0019124D01*
X0151008Y0019124D01*
X0152187Y0020303D01*
X0152948Y0022140D01*
X0152948Y0030129D01*
X0152948Y0022140D01*
X0153709Y0020303D01*
X0153537Y0020718D02*
X0152359Y0020718D01*
X0152948Y0022316D02*
X0152948Y0022316D01*
X0152948Y0023915D02*
X0152948Y0023915D01*
X0152948Y0025513D02*
X0152948Y0025513D01*
X0152948Y0027112D02*
X0152948Y0027112D01*
X0152948Y0028710D02*
X0152948Y0028710D01*
X0152874Y0030309D02*
X0153022Y0030309D01*
X0153685Y0031907D02*
X0152212Y0031907D01*
X0150461Y0033506D02*
X0155435Y0033506D01*
X0156211Y0035104D02*
X0136507Y0035104D01*
X0142948Y0025513D02*
X0128145Y0025513D01*
X0128145Y0023915D02*
X0142948Y0023915D01*
X0142948Y0022316D02*
X0128145Y0022316D01*
X0127556Y0020718D02*
X0143537Y0020718D01*
X0167948Y0026135D02*
X0167948Y0042946D01*
X0187017Y0062015D01*
X0187017Y0076797D01*
X0183917Y0076797D02*
X0183917Y0070726D01*
X0159011Y0045820D01*
X0177948Y0049009D02*
X0177948Y0026135D01*
X0187948Y0026135D02*
X0187948Y0055072D01*
X0193317Y0060441D01*
X0193317Y0076797D01*
X0190507Y0076507D02*
X0190217Y0076797D01*
X0190507Y0076507D02*
X0190507Y0061568D01*
X0177948Y0049009D01*
X0196517Y0032369D02*
X0202751Y0026135D01*
X0196517Y0032369D02*
X0196517Y0076797D01*
X0199617Y0076797D02*
X0199617Y0039269D01*
X0212751Y0026135D01*
X0222751Y0026135D02*
X0205317Y0043569D01*
X0205317Y0082497D01*
X0205317Y0085597D02*
X0209785Y0085597D01*
X0210192Y0085190D01*
X0210192Y0048694D01*
X0232751Y0026135D01*
X0242751Y0026135D02*
X0242751Y0032946D01*
X0214129Y0061568D01*
X0214129Y0084364D01*
X0209696Y0088797D01*
X0205317Y0088797D01*
X0207499Y0091797D02*
X0201589Y0091797D01*
X0200417Y0090625D01*
X0200417Y0081697D01*
X0176817Y0081697D01*
X0176817Y0089097D01*
X0182023Y0089097D01*
X0183052Y0089523D01*
X0192126Y0098597D01*
X0200417Y0098597D01*
X0200417Y0093269D01*
X0201589Y0092097D01*
X0207199Y0092097D01*
X0207499Y0091797D01*
X0208159Y0095097D02*
X0218066Y0085190D01*
X0218066Y0061568D01*
X0218066Y0060820D01*
X0252751Y0026135D01*
X0249562Y0034009D02*
X0257436Y0034009D01*
X0262751Y0028694D01*
X0262751Y0026135D01*
X0269340Y0033506D02*
X0270238Y0033506D01*
X0267741Y0035104D02*
X0291880Y0035104D01*
X0291880Y0033506D02*
X0275264Y0033506D01*
X0277015Y0031907D02*
X0290417Y0031907D01*
X0289755Y0030309D02*
X0277677Y0030309D01*
X0277751Y0028710D02*
X0289680Y0028710D01*
X0289680Y0027112D02*
X0277751Y0027112D01*
X0277751Y0025513D02*
X0289680Y0025513D01*
X0289680Y0023915D02*
X0277751Y0023915D01*
X0277751Y0022316D02*
X0289680Y0022316D01*
X0290270Y0020718D02*
X0277162Y0020718D01*
X0272751Y0026135D02*
X0262677Y0036209D01*
X0251299Y0036209D01*
X0240640Y0046868D01*
X0240492Y0046868D01*
X0225940Y0061419D01*
X0225940Y0089127D01*
X0210192Y0104875D01*
X0205695Y0104875D01*
X0205317Y0104497D01*
X0205317Y0101397D02*
X0190966Y0101397D01*
X0181466Y0091897D01*
X0171917Y0091897D01*
X0171917Y0088797D02*
X0142933Y0088797D01*
X0083145Y0029009D01*
X0083145Y0026135D01*
X0093145Y0026135D02*
X0093922Y0026135D01*
X0082341Y0041498D02*
X0029953Y0041498D01*
X0029953Y0043097D02*
X0083939Y0043097D01*
X0085538Y0044695D02*
X0029953Y0044695D01*
X0029953Y0046294D02*
X0087136Y0046294D01*
X0088735Y0047893D02*
X0029953Y0047893D01*
X0029953Y0049491D02*
X0090333Y0049491D01*
X0091932Y0051090D02*
X0029953Y0051090D01*
X0029953Y0052688D02*
X0093531Y0052688D01*
X0095129Y0054287D02*
X0029953Y0054287D01*
X0029953Y0055885D02*
X0096728Y0055885D01*
X0098326Y0057484D02*
X0029953Y0057484D01*
X0029953Y0059082D02*
X0085697Y0059082D01*
X0084736Y0060681D02*
X0029953Y0060681D01*
X0029953Y0062279D02*
X0084663Y0062279D01*
X0085521Y0063878D02*
X0029953Y0063878D01*
X0029953Y0065476D02*
X0088093Y0065476D01*
X0089692Y0067075D02*
X0029953Y0067075D01*
X0029953Y0068673D02*
X0091290Y0068673D01*
X0092889Y0070272D02*
X0077950Y0070272D01*
X0078310Y0070421D02*
X0079292Y0071403D01*
X0079823Y0072685D01*
X0079823Y0074073D01*
X0079292Y0075355D01*
X0079134Y0075513D01*
X0079134Y0079119D01*
X0079292Y0079277D01*
X0079823Y0080559D01*
X0079823Y0081947D01*
X0079292Y0083229D01*
X0078310Y0084211D01*
X0077028Y0084742D01*
X0075640Y0084742D01*
X0074358Y0084211D01*
X0073376Y0083229D01*
X0072845Y0081947D01*
X0072845Y0080559D01*
X0073376Y0079277D01*
X0073534Y0079119D01*
X0073534Y0075513D01*
X0073376Y0075355D01*
X0072845Y0074073D01*
X0072845Y0072685D01*
X0073376Y0071403D01*
X0074358Y0070421D01*
X0075640Y0069890D01*
X0077028Y0069890D01*
X0078310Y0070421D01*
X0079485Y0071870D02*
X0094487Y0071870D01*
X0095481Y0073012D02*
X0095481Y0073012D01*
X0095937Y0073469D02*
X0079823Y0073469D01*
X0079411Y0075067D02*
X0097536Y0075067D01*
X0099134Y0076666D02*
X0079134Y0076666D01*
X0079134Y0078264D02*
X0100733Y0078264D01*
X0102331Y0079863D02*
X0079535Y0079863D01*
X0079823Y0081461D02*
X0103930Y0081461D01*
X0105528Y0083060D02*
X0079362Y0083060D01*
X0077230Y0084658D02*
X0105542Y0084658D01*
X0105542Y0086257D02*
X0029953Y0086257D01*
X0029953Y0087855D02*
X0105542Y0087855D01*
X0105542Y0089454D02*
X0029953Y0089454D01*
X0029953Y0091052D02*
X0105542Y0091052D01*
X0105542Y0092651D02*
X0029953Y0092651D01*
X0029953Y0094249D02*
X0105542Y0094249D01*
X0105542Y0095848D02*
X0029953Y0095848D01*
X0029953Y0097446D02*
X0105542Y0097446D01*
X0105542Y0099045D02*
X0029953Y0099045D01*
X0029953Y0100643D02*
X0105542Y0100643D01*
X0105542Y0102242D02*
X0098320Y0102242D01*
X0099367Y0103840D02*
X0105542Y0103840D01*
X0105542Y0105439D02*
X0099508Y0105439D01*
X0098791Y0107037D02*
X0105542Y0107037D01*
X0105542Y0108636D02*
X0098347Y0108636D01*
X0098347Y0110234D02*
X0105542Y0110234D01*
X0105542Y0111833D02*
X0098347Y0111833D01*
X0098347Y0113431D02*
X0105542Y0113431D01*
X0105542Y0115030D02*
X0098347Y0115030D01*
X0098347Y0116629D02*
X0105542Y0116629D01*
X0105542Y0118227D02*
X0098347Y0118227D01*
X0098347Y0119826D02*
X0105542Y0119826D01*
X0105542Y0121424D02*
X0098347Y0121424D01*
X0098347Y0123023D02*
X0105542Y0123023D01*
X0105542Y0124621D02*
X0098347Y0124621D01*
X0098347Y0126220D02*
X0105542Y0126220D01*
X0105542Y0127818D02*
X0098347Y0127818D01*
X0098347Y0129417D02*
X0105542Y0129417D01*
X0105542Y0131015D02*
X0098347Y0131015D01*
X0098347Y0132614D02*
X0105542Y0132614D01*
X0105542Y0134212D02*
X0098347Y0134212D01*
X0098347Y0135811D02*
X0105542Y0135811D01*
X0105542Y0137409D02*
X0098347Y0137409D01*
X0098347Y0139008D02*
X0105542Y0139008D01*
X0105542Y0140606D02*
X0098347Y0140606D01*
X0098347Y0142205D02*
X0105542Y0142205D01*
X0105542Y0143803D02*
X0098347Y0143803D01*
X0098347Y0145402D02*
X0105542Y0145402D01*
X0105542Y0147000D02*
X0098347Y0147000D01*
X0098347Y0148599D02*
X0105542Y0148599D01*
X0105542Y0150197D02*
X0098347Y0150197D01*
X0098347Y0151796D02*
X0105542Y0151796D01*
X0105542Y0153394D02*
X0098347Y0153394D01*
X0092747Y0153394D02*
X0079582Y0153394D01*
X0079823Y0152813D02*
X0079292Y0154095D01*
X0078310Y0155077D01*
X0077028Y0155608D01*
X0075640Y0155608D01*
X0074358Y0155077D01*
X0073376Y0154095D01*
X0072845Y0152813D01*
X0072845Y0151425D01*
X0073376Y0150143D01*
X0073534Y0149985D01*
X0073534Y0146379D01*
X0073376Y0146221D01*
X0072845Y0144939D01*
X0072845Y0143551D01*
X0073376Y0142269D01*
X0073534Y0142111D01*
X0073534Y0130631D01*
X0073376Y0130473D01*
X0072845Y0129191D01*
X0072845Y0127803D01*
X0073376Y0126521D01*
X0074358Y0125539D01*
X0075640Y0125008D01*
X0077028Y0125008D01*
X0078310Y0125539D01*
X0079292Y0126521D01*
X0079823Y0127803D01*
X0079823Y0129191D01*
X0079292Y0130473D01*
X0079134Y0130631D01*
X0079134Y0142111D01*
X0079292Y0142269D01*
X0079823Y0143551D01*
X0079823Y0144939D01*
X0079292Y0146221D01*
X0079134Y0146379D01*
X0079134Y0149985D01*
X0079292Y0150143D01*
X0079823Y0151425D01*
X0079823Y0152813D01*
X0079823Y0151796D02*
X0092747Y0151796D01*
X0092747Y0150197D02*
X0079314Y0150197D01*
X0079134Y0148599D02*
X0092747Y0148599D01*
X0092747Y0147000D02*
X0079134Y0147000D01*
X0079631Y0145402D02*
X0092747Y0145402D01*
X0092747Y0143803D02*
X0079823Y0143803D01*
X0079228Y0142205D02*
X0092747Y0142205D01*
X0092747Y0140606D02*
X0079134Y0140606D01*
X0079134Y0139008D02*
X0092747Y0139008D01*
X0092747Y0137409D02*
X0079134Y0137409D01*
X0079134Y0135811D02*
X0092747Y0135811D01*
X0092747Y0134212D02*
X0079134Y0134212D01*
X0079134Y0132614D02*
X0092747Y0132614D01*
X0092747Y0131015D02*
X0079134Y0131015D01*
X0079729Y0129417D02*
X0092747Y0129417D01*
X0092747Y0127818D02*
X0079823Y0127818D01*
X0078991Y0126220D02*
X0092747Y0126220D01*
X0092747Y0124621D02*
X0029953Y0124621D01*
X0029953Y0123023D02*
X0092747Y0123023D01*
X0092747Y0121424D02*
X0029953Y0121424D01*
X0029953Y0119826D02*
X0092747Y0119826D01*
X0092747Y0118227D02*
X0029953Y0118227D01*
X0029953Y0116629D02*
X0092747Y0116629D01*
X0092747Y0115030D02*
X0029953Y0115030D01*
X0029953Y0113431D02*
X0092747Y0113431D01*
X0092747Y0111833D02*
X0029953Y0111833D01*
X0029953Y0110234D02*
X0092747Y0110234D01*
X0092747Y0108636D02*
X0029953Y0108636D01*
X0029953Y0107037D02*
X0092747Y0107037D01*
X0092530Y0105439D02*
X0029953Y0105439D01*
X0029953Y0103840D02*
X0092671Y0103840D01*
X0093718Y0102242D02*
X0029953Y0102242D01*
X0029953Y0084658D02*
X0075438Y0084658D01*
X0073306Y0083060D02*
X0029953Y0083060D01*
X0029953Y0081461D02*
X0072845Y0081461D01*
X0073133Y0079863D02*
X0029953Y0079863D01*
X0029953Y0078264D02*
X0073534Y0078264D01*
X0073534Y0076666D02*
X0029953Y0076666D01*
X0029953Y0075067D02*
X0073257Y0075067D01*
X0072845Y0073469D02*
X0029953Y0073469D01*
X0029953Y0071870D02*
X0073182Y0071870D01*
X0074718Y0070272D02*
X0029953Y0070272D01*
X0076334Y0073379D02*
X0076334Y0081253D01*
X0088145Y0061568D02*
X0097067Y0070490D01*
X0097067Y0070639D01*
X0108342Y0081913D01*
X0108342Y0158930D01*
X0110901Y0158930D02*
X0110901Y0085190D01*
X0110901Y0084494D01*
X0110901Y0080557D01*
X0108878Y0078535D01*
X0108878Y0078364D01*
X0099956Y0069442D01*
X0102523Y0067075D02*
X0107917Y0067075D01*
X0109516Y0068673D02*
X0103414Y0068673D01*
X0104746Y0070272D02*
X0111114Y0070272D01*
X0112713Y0071870D02*
X0106344Y0071870D01*
X0107943Y0073469D02*
X0114311Y0073469D01*
X0114430Y0075067D02*
X0115910Y0075067D01*
X0115256Y0076666D02*
X0117508Y0076666D01*
X0116173Y0078264D02*
X0119107Y0078264D01*
X0120705Y0079863D02*
X0116260Y0079863D01*
X0116260Y0081461D02*
X0122304Y0081461D01*
X0123902Y0083060D02*
X0116260Y0083060D01*
X0116260Y0084658D02*
X0125501Y0084658D01*
X0127099Y0086257D02*
X0116260Y0086257D01*
X0116260Y0087855D02*
X0128698Y0087855D01*
X0130296Y0089454D02*
X0116260Y0089454D01*
X0116260Y0091052D02*
X0131895Y0091052D01*
X0133493Y0092651D02*
X0116260Y0092651D01*
X0116260Y0094249D02*
X0135092Y0094249D01*
X0136690Y0095848D02*
X0116260Y0095848D01*
X0116260Y0097446D02*
X0138289Y0097446D01*
X0139887Y0099045D02*
X0116260Y0099045D01*
X0116260Y0100643D02*
X0141486Y0100643D01*
X0143084Y0102242D02*
X0116260Y0102242D01*
X0116260Y0103840D02*
X0144683Y0103840D01*
X0146281Y0105439D02*
X0116260Y0105439D01*
X0116260Y0107037D02*
X0148116Y0107037D01*
X0154380Y0125008D02*
X0153098Y0125539D01*
X0152116Y0126521D01*
X0151585Y0127803D01*
X0151585Y0129191D01*
X0152116Y0130473D01*
X0152274Y0130631D01*
X0152274Y0142111D01*
X0152116Y0142269D01*
X0151585Y0143551D01*
X0151585Y0144939D01*
X0152116Y0146221D01*
X0152274Y0146379D01*
X0152274Y0149985D01*
X0152116Y0150143D01*
X0151585Y0151425D01*
X0151585Y0152813D01*
X0152116Y0154095D01*
X0153098Y0155077D01*
X0154380Y0155608D01*
X0155768Y0155608D01*
X0157050Y0155077D01*
X0158032Y0154095D01*
X0158563Y0152813D01*
X0158563Y0151425D01*
X0158032Y0150143D01*
X0157874Y0149985D01*
X0157874Y0146379D01*
X0158032Y0146221D01*
X0158563Y0144939D01*
X0158563Y0143551D01*
X0158032Y0142269D01*
X0157874Y0142111D01*
X0157874Y0130631D01*
X0158032Y0130473D01*
X0158563Y0129191D01*
X0158563Y0127803D01*
X0158032Y0126521D01*
X0157050Y0125539D01*
X0155768Y0125008D01*
X0154380Y0125008D01*
X0152417Y0126220D02*
X0116260Y0126220D01*
X0116260Y0127818D02*
X0151585Y0127818D01*
X0151679Y0129417D02*
X0118181Y0129417D01*
X0119538Y0131015D02*
X0152274Y0131015D01*
X0152274Y0132614D02*
X0119838Y0132614D01*
X0119389Y0134212D02*
X0152274Y0134212D01*
X0152274Y0135811D02*
X0118819Y0135811D01*
X0121676Y0137409D02*
X0152274Y0137409D01*
X0152274Y0139008D02*
X0122879Y0139008D01*
X0123130Y0140606D02*
X0152274Y0140606D01*
X0152180Y0142205D02*
X0122632Y0142205D01*
X0121378Y0143803D02*
X0151585Y0143803D01*
X0151777Y0145402D02*
X0123599Y0145402D01*
X0124745Y0147000D02*
X0152274Y0147000D01*
X0152274Y0148599D02*
X0124956Y0148599D01*
X0124408Y0150197D02*
X0152094Y0150197D01*
X0151585Y0151796D02*
X0123937Y0151796D01*
X0123937Y0153394D02*
X0151826Y0153394D01*
X0153014Y0154993D02*
X0126229Y0154993D01*
X0126385Y0156591D02*
X0158602Y0156591D01*
X0157135Y0154993D02*
X0160200Y0154993D01*
X0161799Y0153394D02*
X0158322Y0153394D01*
X0158563Y0151796D02*
X0163397Y0151796D01*
X0164996Y0150197D02*
X0158054Y0150197D01*
X0157874Y0148599D02*
X0166594Y0148599D01*
X0168193Y0147000D02*
X0157874Y0147000D01*
X0158371Y0145402D02*
X0169791Y0145402D01*
X0171390Y0143803D02*
X0158563Y0143803D01*
X0157968Y0142205D02*
X0172988Y0142205D01*
X0174587Y0140606D02*
X0157874Y0140606D01*
X0157874Y0139008D02*
X0174817Y0139008D01*
X0174817Y0137409D02*
X0157874Y0137409D01*
X0157874Y0135811D02*
X0174817Y0135811D01*
X0174817Y0134212D02*
X0157874Y0134212D01*
X0157874Y0132614D02*
X0174817Y0132614D01*
X0174817Y0131015D02*
X0157874Y0131015D01*
X0158470Y0129417D02*
X0174817Y0129417D01*
X0174817Y0127818D02*
X0158563Y0127818D01*
X0157731Y0126220D02*
X0174817Y0126220D01*
X0174817Y0124621D02*
X0116260Y0124621D01*
X0116260Y0123023D02*
X0174817Y0123023D01*
X0174817Y0121424D02*
X0116260Y0121424D01*
X0116260Y0119826D02*
X0174817Y0119826D01*
X0174817Y0118227D02*
X0116260Y0118227D01*
X0116260Y0116629D02*
X0174817Y0116629D01*
X0174817Y0115030D02*
X0116260Y0115030D01*
X0116260Y0113431D02*
X0174617Y0113431D01*
X0174617Y0111833D02*
X0116260Y0111833D01*
X0116260Y0110234D02*
X0174617Y0110234D01*
X0174617Y0108636D02*
X0116260Y0108636D01*
X0096019Y0104875D02*
X0095547Y0105347D01*
X0095547Y0158930D01*
X0084259Y0158930D01*
X0063511Y0179678D01*
X0063511Y0363902D01*
X0068066Y0368458D01*
X0146806Y0368458D01*
X0225547Y0368458D01*
X0304287Y0368458D01*
X0309043Y0369193D02*
X0335313Y0369193D01*
X0335313Y0367595D02*
X0317624Y0367595D01*
X0317704Y0365996D02*
X0335313Y0365996D01*
X0335313Y0364398D02*
X0317704Y0364398D01*
X0317704Y0362799D02*
X0335313Y0362799D01*
X0335313Y0361201D02*
X0316984Y0361201D01*
X0315354Y0359602D02*
X0335313Y0359602D01*
X0335313Y0358004D02*
X0315850Y0358004D01*
X0316043Y0356405D02*
X0335313Y0356405D01*
X0335313Y0354807D02*
X0315452Y0354807D01*
X0312554Y0356843D02*
X0312554Y0364324D01*
X0312948Y0364717D01*
X0309043Y0370792D02*
X0335313Y0370792D01*
X0335313Y0372390D02*
X0307907Y0372390D01*
X0300667Y0372390D02*
X0229167Y0372390D01*
X0221926Y0372390D02*
X0150427Y0372390D01*
X0143186Y0372390D02*
X0071686Y0372390D01*
X0064446Y0372390D02*
X0029953Y0372390D01*
X0029953Y0370792D02*
X0063310Y0370792D01*
X0063310Y0369193D02*
X0029953Y0369193D01*
X0029953Y0367595D02*
X0063244Y0367595D01*
X0061645Y0365996D02*
X0029953Y0365996D01*
X0029953Y0364398D02*
X0060711Y0364398D01*
X0060711Y0362799D02*
X0029953Y0362799D01*
X0029953Y0361201D02*
X0060711Y0361201D01*
X0060711Y0359602D02*
X0029953Y0359602D01*
X0029953Y0358004D02*
X0060711Y0358004D01*
X0060711Y0356405D02*
X0029953Y0356405D01*
X0029953Y0354807D02*
X0060711Y0354807D01*
X0060711Y0353208D02*
X0029953Y0353208D01*
X0029953Y0351610D02*
X0060711Y0351610D01*
X0060711Y0350011D02*
X0029953Y0350011D01*
X0029953Y0348413D02*
X0060711Y0348413D01*
X0060711Y0346814D02*
X0029953Y0346814D01*
X0029953Y0345216D02*
X0060711Y0345216D01*
X0060711Y0343617D02*
X0029953Y0343617D01*
X0029953Y0342019D02*
X0060711Y0342019D01*
X0060711Y0340420D02*
X0029953Y0340420D01*
X0029953Y0338822D02*
X0060711Y0338822D01*
X0060711Y0337223D02*
X0029953Y0337223D01*
X0029953Y0335625D02*
X0060711Y0335625D01*
X0060711Y0334026D02*
X0029953Y0334026D01*
X0029953Y0332428D02*
X0060711Y0332428D01*
X0060711Y0330829D02*
X0029953Y0330829D01*
X0029953Y0329231D02*
X0060711Y0329231D01*
X0060711Y0327632D02*
X0029953Y0327632D01*
X0029953Y0326033D02*
X0060711Y0326033D01*
X0060711Y0324435D02*
X0029953Y0324435D01*
X0029953Y0322836D02*
X0060711Y0322836D01*
X0060711Y0321238D02*
X0029953Y0321238D01*
X0029953Y0319639D02*
X0060711Y0319639D01*
X0060711Y0318041D02*
X0029953Y0318041D01*
X0029953Y0316442D02*
X0060711Y0316442D01*
X0060711Y0314844D02*
X0029953Y0314844D01*
X0029953Y0313245D02*
X0060711Y0313245D01*
X0060711Y0311647D02*
X0029953Y0311647D01*
X0029953Y0310048D02*
X0060711Y0310048D01*
X0060711Y0308450D02*
X0029953Y0308450D01*
X0029953Y0306851D02*
X0060711Y0306851D01*
X0060711Y0305253D02*
X0029953Y0305253D01*
X0029953Y0303654D02*
X0060711Y0303654D01*
X0060711Y0302056D02*
X0029953Y0302056D01*
X0029953Y0300457D02*
X0060711Y0300457D01*
X0060711Y0298859D02*
X0029953Y0298859D01*
X0029953Y0297260D02*
X0060711Y0297260D01*
X0060711Y0295662D02*
X0029953Y0295662D01*
X0029953Y0294063D02*
X0060711Y0294063D01*
X0060711Y0292465D02*
X0029953Y0292465D01*
X0029953Y0290866D02*
X0060711Y0290866D01*
X0060711Y0289268D02*
X0029953Y0289268D01*
X0029953Y0287669D02*
X0060711Y0287669D01*
X0060711Y0286071D02*
X0029953Y0286071D01*
X0029953Y0284472D02*
X0060711Y0284472D01*
X0060711Y0282874D02*
X0029953Y0282874D01*
X0029953Y0281275D02*
X0060711Y0281275D01*
X0060711Y0279677D02*
X0029953Y0279677D01*
X0029953Y0278078D02*
X0060711Y0278078D01*
X0060711Y0276480D02*
X0029953Y0276480D01*
X0029953Y0274881D02*
X0060711Y0274881D01*
X0060711Y0273283D02*
X0029953Y0273283D01*
X0029953Y0271684D02*
X0060711Y0271684D01*
X0060711Y0270086D02*
X0029953Y0270086D01*
X0029953Y0268487D02*
X0060711Y0268487D01*
X0060711Y0266889D02*
X0029953Y0266889D01*
X0029953Y0265290D02*
X0060711Y0265290D01*
X0060711Y0263692D02*
X0029953Y0263692D01*
X0029953Y0262093D02*
X0060711Y0262093D01*
X0060711Y0260495D02*
X0029953Y0260495D01*
X0029953Y0258896D02*
X0060711Y0258896D01*
X0060711Y0257298D02*
X0029953Y0257298D01*
X0029953Y0255699D02*
X0060711Y0255699D01*
X0060711Y0254100D02*
X0029953Y0254100D01*
X0029953Y0252502D02*
X0060711Y0252502D01*
X0060711Y0250903D02*
X0029953Y0250903D01*
X0029953Y0249305D02*
X0060711Y0249305D01*
X0060711Y0247706D02*
X0029953Y0247706D01*
X0029953Y0246108D02*
X0060711Y0246108D01*
X0060711Y0244509D02*
X0029953Y0244509D01*
X0029953Y0242911D02*
X0060711Y0242911D01*
X0060711Y0241312D02*
X0029953Y0241312D01*
X0029953Y0239714D02*
X0060711Y0239714D01*
X0060711Y0238115D02*
X0029953Y0238115D01*
X0029953Y0236517D02*
X0060711Y0236517D01*
X0060711Y0234918D02*
X0029953Y0234918D01*
X0029953Y0233320D02*
X0060711Y0233320D01*
X0060711Y0231721D02*
X0029953Y0231721D01*
X0029953Y0230123D02*
X0060711Y0230123D01*
X0060711Y0228524D02*
X0029953Y0228524D01*
X0029953Y0226926D02*
X0060711Y0226926D01*
X0060711Y0225327D02*
X0029953Y0225327D01*
X0029953Y0223729D02*
X0060711Y0223729D01*
X0060711Y0222130D02*
X0029953Y0222130D01*
X0029953Y0220532D02*
X0060711Y0220532D01*
X0060711Y0218933D02*
X0029953Y0218933D01*
X0029953Y0217335D02*
X0060711Y0217335D01*
X0060711Y0215736D02*
X0029953Y0215736D01*
X0029953Y0214138D02*
X0060711Y0214138D01*
X0060711Y0212539D02*
X0029953Y0212539D01*
X0029953Y0210941D02*
X0060711Y0210941D01*
X0060711Y0209342D02*
X0029953Y0209342D01*
X0029953Y0207744D02*
X0060711Y0207744D01*
X0060711Y0206145D02*
X0029953Y0206145D01*
X0029953Y0204547D02*
X0060711Y0204547D01*
X0060711Y0202948D02*
X0029953Y0202948D01*
X0029953Y0201350D02*
X0060711Y0201350D01*
X0060711Y0199751D02*
X0029953Y0199751D01*
X0029953Y0198153D02*
X0060711Y0198153D01*
X0060711Y0196554D02*
X0029953Y0196554D01*
X0029953Y0194956D02*
X0060711Y0194956D01*
X0060711Y0193357D02*
X0029953Y0193357D01*
X0029953Y0191759D02*
X0060711Y0191759D01*
X0060711Y0190160D02*
X0029953Y0190160D01*
X0029953Y0188562D02*
X0060711Y0188562D01*
X0060711Y0186963D02*
X0029953Y0186963D01*
X0029953Y0185364D02*
X0060711Y0185364D01*
X0060711Y0183766D02*
X0029953Y0183766D01*
X0029953Y0182167D02*
X0060711Y0182167D01*
X0060711Y0180569D02*
X0029953Y0180569D01*
X0029953Y0178970D02*
X0060773Y0178970D01*
X0061857Y0177372D02*
X0029953Y0177372D01*
X0029953Y0175773D02*
X0063456Y0175773D01*
X0065054Y0174175D02*
X0029953Y0174175D01*
X0029953Y0172576D02*
X0066653Y0172576D01*
X0068251Y0170978D02*
X0029953Y0170978D01*
X0029953Y0169379D02*
X0069850Y0169379D01*
X0071448Y0167781D02*
X0029953Y0167781D01*
X0029953Y0166182D02*
X0073047Y0166182D01*
X0074645Y0164584D02*
X0029953Y0164584D01*
X0029953Y0162985D02*
X0076244Y0162985D01*
X0077842Y0161387D02*
X0029953Y0161387D01*
X0029953Y0159788D02*
X0079441Y0159788D01*
X0081039Y0158190D02*
X0029953Y0158190D01*
X0029953Y0156591D02*
X0082638Y0156591D01*
X0078394Y0154993D02*
X0092747Y0154993D01*
X0098106Y0158930D02*
X0098106Y0161993D01*
X0096815Y0163283D01*
X0096666Y0163283D01*
X0090751Y0169198D01*
X0083421Y0169198D01*
X0077871Y0169277D02*
X0077871Y0173176D01*
X0079043Y0174347D01*
X0087798Y0174347D01*
X0088970Y0173176D01*
X0088970Y0171998D01*
X0091308Y0171998D01*
X0092337Y0171572D01*
X0098147Y0165762D01*
X0098401Y0165657D01*
X0100175Y0163883D01*
X0100777Y0163883D01*
X0100850Y0164059D01*
X0102295Y0165505D01*
X0095732Y0172068D01*
X0095306Y0173098D01*
X0095306Y0183109D01*
X0095417Y0183377D01*
X0095417Y0186333D01*
X0096588Y0187505D01*
X0102983Y0187505D01*
X0102983Y0331412D01*
X0102914Y0331245D01*
X0101932Y0330264D01*
X0100650Y0329732D01*
X0099262Y0329732D01*
X0097980Y0330264D01*
X0097822Y0330421D01*
X0074116Y0330421D01*
X0073086Y0330848D01*
X0069650Y0334284D01*
X0066311Y0334284D01*
X0066311Y0180838D01*
X0077871Y0169277D01*
X0077871Y0169379D02*
X0077769Y0169379D01*
X0077871Y0170978D02*
X0076171Y0170978D01*
X0074572Y0172576D02*
X0077871Y0172576D01*
X0078870Y0174175D02*
X0072974Y0174175D01*
X0071375Y0175773D02*
X0095306Y0175773D01*
X0095306Y0174175D02*
X0087971Y0174175D01*
X0088970Y0172576D02*
X0095521Y0172576D01*
X0096822Y0170978D02*
X0092931Y0170978D01*
X0094529Y0169379D02*
X0098421Y0169379D01*
X0100019Y0167781D02*
X0096128Y0167781D01*
X0097726Y0166182D02*
X0101618Y0166182D01*
X0101374Y0164584D02*
X0099474Y0164584D01*
X0103224Y0162473D02*
X0104680Y0163930D01*
X0127515Y0163930D01*
X0128712Y0161041D02*
X0125807Y0161041D01*
X0123696Y0158930D01*
X0121137Y0158930D02*
X0121137Y0148534D01*
X0121467Y0148204D01*
X0118578Y0141371D02*
X0118578Y0158930D01*
X0116019Y0158930D02*
X0116019Y0132764D01*
X0116349Y0132434D01*
X0119641Y0140308D02*
X0118578Y0141371D01*
X0126916Y0158190D02*
X0157003Y0158190D01*
X0155405Y0159788D02*
X0131419Y0159788D01*
X0131990Y0160360D02*
X0131990Y0160360D01*
X0132877Y0161387D02*
X0140724Y0161387D01*
X0139773Y0162985D02*
X0133204Y0162985D01*
X0133204Y0164584D02*
X0134198Y0164584D01*
X0136580Y0164584D02*
X0139714Y0164584D01*
X0143189Y0163856D02*
X0143263Y0163930D01*
X0155223Y0163930D01*
X0177617Y0141535D01*
X0177617Y0110197D01*
X0180717Y0110197D02*
X0180717Y0132434D01*
X0180717Y0142224D01*
X0155074Y0167867D01*
X0135389Y0167867D01*
X0133782Y0170978D02*
X0133204Y0170978D01*
X0133413Y0170825D02*
X0133204Y0170616D01*
X0133204Y0200249D01*
X0133428Y0200342D01*
X0134410Y0201324D01*
X0134941Y0202606D01*
X0134941Y0203994D01*
X0134410Y0205277D01*
X0133428Y0206258D01*
X0132146Y0206789D01*
X0130758Y0206789D01*
X0129476Y0206258D01*
X0128494Y0205277D01*
X0127963Y0203994D01*
X0127963Y0203676D01*
X0127604Y0202809D01*
X0127604Y0179230D01*
X0126821Y0179230D01*
X0126287Y0179009D01*
X0126287Y0181490D01*
X0126496Y0181995D01*
X0126496Y0208710D01*
X0126984Y0209198D01*
X0127515Y0210480D01*
X0127515Y0211868D01*
X0126984Y0213151D01*
X0126002Y0214132D01*
X0124720Y0214663D01*
X0123937Y0214663D01*
X0123937Y0216606D01*
X0124425Y0217094D01*
X0124956Y0218376D01*
X0124956Y0219764D01*
X0124425Y0221047D01*
X0123443Y0222028D01*
X0122161Y0222559D01*
X0121378Y0222559D01*
X0121378Y0271109D01*
X0121617Y0271208D01*
X0122599Y0272190D01*
X0123130Y0273472D01*
X0123130Y0274860D01*
X0122599Y0276143D01*
X0121617Y0277124D01*
X0120335Y0277655D01*
X0118947Y0277655D01*
X0118819Y0277602D01*
X0118819Y0279576D01*
X0119307Y0280064D01*
X0119838Y0281346D01*
X0119838Y0282734D01*
X0119307Y0284017D01*
X0118325Y0284998D01*
X0117043Y0285529D01*
X0116260Y0285529D01*
X0116260Y0287472D01*
X0116748Y0287960D01*
X0117279Y0289242D01*
X0117279Y0290630D01*
X0116748Y0291913D01*
X0115766Y0292894D01*
X0114484Y0293425D01*
X0113701Y0293425D01*
X0113701Y0330290D01*
X0113728Y0330264D01*
X0115010Y0329732D01*
X0116398Y0329732D01*
X0117680Y0330264D01*
X0117838Y0330421D01*
X0122418Y0330421D01*
X0155499Y0297340D01*
X0154380Y0297340D01*
X0153098Y0296809D01*
X0152116Y0295828D01*
X0151585Y0294545D01*
X0151585Y0293157D01*
X0152116Y0291875D01*
X0152274Y0291717D01*
X0152274Y0288111D01*
X0152116Y0287954D01*
X0151585Y0286671D01*
X0151585Y0285283D01*
X0152116Y0284001D01*
X0152274Y0283843D01*
X0152274Y0272363D01*
X0152116Y0272206D01*
X0151585Y0270923D01*
X0151585Y0269535D01*
X0152116Y0268253D01*
X0153098Y0267271D01*
X0154380Y0266740D01*
X0155768Y0266740D01*
X0157050Y0267271D01*
X0158032Y0268253D01*
X0158563Y0269535D01*
X0158563Y0270923D01*
X0158032Y0272206D01*
X0157874Y0272363D01*
X0157874Y0283843D01*
X0158032Y0284001D01*
X0158563Y0285283D01*
X0158563Y0286671D01*
X0158032Y0287954D01*
X0157874Y0288111D01*
X0157874Y0291717D01*
X0158032Y0291875D01*
X0158563Y0293157D01*
X0158563Y0294277D01*
X0187417Y0265422D01*
X0187417Y0147506D01*
X0156809Y0178115D01*
X0155780Y0178541D01*
X0145397Y0178541D01*
X0145239Y0178699D01*
X0143957Y0179230D01*
X0142569Y0179230D01*
X0141287Y0178699D01*
X0140305Y0177717D01*
X0139774Y0176435D01*
X0139774Y0175047D01*
X0140305Y0173765D01*
X0141287Y0172783D01*
X0142569Y0172252D01*
X0143957Y0172252D01*
X0145239Y0172783D01*
X0145397Y0172941D01*
X0147832Y0172941D01*
X0147648Y0172498D01*
X0147648Y0171110D01*
X0147832Y0170667D01*
X0137523Y0170667D01*
X0137365Y0170825D01*
X0136083Y0171356D01*
X0134695Y0171356D01*
X0133413Y0170825D01*
X0133204Y0172576D02*
X0141786Y0172576D01*
X0140135Y0174175D02*
X0133204Y0174175D01*
X0133204Y0175773D02*
X0139774Y0175773D01*
X0140162Y0177372D02*
X0133204Y0177372D01*
X0133204Y0178970D02*
X0141942Y0178970D01*
X0144584Y0178970D02*
X0187417Y0178970D01*
X0187417Y0177372D02*
X0157552Y0177372D01*
X0159150Y0175773D02*
X0187417Y0175773D01*
X0187417Y0174175D02*
X0160749Y0174175D01*
X0162347Y0172576D02*
X0187417Y0172576D01*
X0187417Y0170978D02*
X0163946Y0170978D01*
X0165544Y0169379D02*
X0187417Y0169379D01*
X0187417Y0167781D02*
X0167143Y0167781D01*
X0168741Y0166182D02*
X0187417Y0166182D01*
X0187417Y0164584D02*
X0170340Y0164584D01*
X0171938Y0162985D02*
X0187417Y0162985D01*
X0187417Y0161387D02*
X0173537Y0161387D01*
X0175135Y0159788D02*
X0187417Y0159788D01*
X0187417Y0158190D02*
X0176734Y0158190D01*
X0178332Y0156591D02*
X0187417Y0156591D01*
X0187417Y0154993D02*
X0179931Y0154993D01*
X0181529Y0153394D02*
X0187417Y0153394D01*
X0187417Y0151796D02*
X0183128Y0151796D01*
X0184726Y0150197D02*
X0187417Y0150197D01*
X0187417Y0148599D02*
X0186325Y0148599D01*
X0187017Y0143946D02*
X0155223Y0175741D01*
X0143263Y0175741D01*
X0144740Y0172576D02*
X0147681Y0172576D01*
X0147703Y0170978D02*
X0136996Y0170978D01*
X0133204Y0180569D02*
X0187417Y0180569D01*
X0187417Y0182167D02*
X0133204Y0182167D01*
X0133204Y0183766D02*
X0187417Y0183766D01*
X0187417Y0185364D02*
X0133204Y0185364D01*
X0133204Y0186963D02*
X0187417Y0186963D01*
X0187417Y0188562D02*
X0133204Y0188562D01*
X0133204Y0190160D02*
X0187417Y0190160D01*
X0187417Y0191759D02*
X0133204Y0191759D01*
X0133204Y0193357D02*
X0187417Y0193357D01*
X0187417Y0194956D02*
X0133204Y0194956D01*
X0133204Y0196554D02*
X0152949Y0196554D01*
X0153098Y0196405D02*
X0154380Y0195874D01*
X0155768Y0195874D01*
X0157050Y0196405D01*
X0158032Y0197387D01*
X0158563Y0198669D01*
X0158563Y0200057D01*
X0158032Y0201339D01*
X0157874Y0201497D01*
X0157874Y0212977D01*
X0158032Y0213135D01*
X0158563Y0214417D01*
X0158563Y0215805D01*
X0158032Y0217088D01*
X0157874Y0217245D01*
X0157874Y0220851D01*
X0158032Y0221009D01*
X0158563Y0222291D01*
X0158563Y0223679D01*
X0158032Y0224962D01*
X0157050Y0225943D01*
X0155768Y0226474D01*
X0154380Y0226474D01*
X0153098Y0225943D01*
X0152116Y0224962D01*
X0151585Y0223679D01*
X0151585Y0222291D01*
X0152116Y0221009D01*
X0152274Y0220851D01*
X0152274Y0217245D01*
X0152116Y0217088D01*
X0151585Y0215805D01*
X0151585Y0214417D01*
X0152116Y0213135D01*
X0152274Y0212977D01*
X0152274Y0201497D01*
X0152116Y0201339D01*
X0151585Y0200057D01*
X0151585Y0198669D01*
X0152116Y0197387D01*
X0153098Y0196405D01*
X0151799Y0198153D02*
X0133204Y0198153D01*
X0133204Y0199751D02*
X0151585Y0199751D01*
X0152126Y0201350D02*
X0134421Y0201350D01*
X0134941Y0202948D02*
X0152274Y0202948D01*
X0152274Y0204547D02*
X0134712Y0204547D01*
X0133541Y0206145D02*
X0152274Y0206145D01*
X0152274Y0207744D02*
X0126496Y0207744D01*
X0126496Y0206145D02*
X0129363Y0206145D01*
X0128192Y0204547D02*
X0126496Y0204547D01*
X0126496Y0202948D02*
X0127662Y0202948D01*
X0127604Y0201350D02*
X0126496Y0201350D01*
X0126496Y0199751D02*
X0127604Y0199751D01*
X0127604Y0198153D02*
X0126496Y0198153D01*
X0126496Y0196554D02*
X0127604Y0196554D01*
X0127604Y0194956D02*
X0126496Y0194956D01*
X0126496Y0193357D02*
X0127604Y0193357D01*
X0127604Y0191759D02*
X0126496Y0191759D01*
X0126496Y0190160D02*
X0127604Y0190160D01*
X0127604Y0188562D02*
X0126496Y0188562D01*
X0126496Y0186963D02*
X0127604Y0186963D01*
X0127604Y0185364D02*
X0126496Y0185364D01*
X0126496Y0183766D02*
X0127604Y0183766D01*
X0127604Y0182167D02*
X0126496Y0182167D01*
X0126287Y0180569D02*
X0127604Y0180569D01*
X0123696Y0182552D02*
X0123696Y0210844D01*
X0124026Y0211174D01*
X0127237Y0212539D02*
X0152274Y0212539D01*
X0152274Y0210941D02*
X0127515Y0210941D01*
X0127044Y0209342D02*
X0152274Y0209342D01*
X0151701Y0214138D02*
X0125989Y0214138D01*
X0123937Y0215736D02*
X0151585Y0215736D01*
X0152274Y0217335D02*
X0124525Y0217335D01*
X0124956Y0218933D02*
X0152274Y0218933D01*
X0152274Y0220532D02*
X0124638Y0220532D01*
X0123197Y0222130D02*
X0151652Y0222130D01*
X0151606Y0223729D02*
X0121378Y0223729D01*
X0121378Y0225327D02*
X0152482Y0225327D01*
X0155074Y0222985D02*
X0155074Y0215111D01*
X0155074Y0199363D01*
X0158349Y0198153D02*
X0187417Y0198153D01*
X0187417Y0199751D02*
X0158563Y0199751D01*
X0158022Y0201350D02*
X0187417Y0201350D01*
X0187417Y0202948D02*
X0157874Y0202948D01*
X0157874Y0204547D02*
X0187417Y0204547D01*
X0187417Y0206145D02*
X0157874Y0206145D01*
X0157874Y0207744D02*
X0187417Y0207744D01*
X0187417Y0209342D02*
X0157874Y0209342D01*
X0157874Y0210941D02*
X0187417Y0210941D01*
X0187417Y0212539D02*
X0157874Y0212539D01*
X0158447Y0214138D02*
X0187417Y0214138D01*
X0187417Y0215736D02*
X0158563Y0215736D01*
X0157874Y0217335D02*
X0187417Y0217335D01*
X0187417Y0218933D02*
X0157874Y0218933D01*
X0157874Y0220532D02*
X0187417Y0220532D01*
X0187417Y0222130D02*
X0158496Y0222130D01*
X0158543Y0223729D02*
X0187417Y0223729D01*
X0187417Y0225327D02*
X0157666Y0225327D01*
X0157199Y0196554D02*
X0187417Y0196554D01*
X0202417Y0196554D02*
X0231689Y0196554D01*
X0231838Y0196405D02*
X0233120Y0195874D01*
X0234508Y0195874D01*
X0235791Y0196405D01*
X0236772Y0197387D01*
X0237303Y0198669D01*
X0237303Y0200057D01*
X0236772Y0201339D01*
X0236614Y0201497D01*
X0236614Y0212977D01*
X0236772Y0213135D01*
X0237303Y0214417D01*
X0237303Y0215805D01*
X0236772Y0217088D01*
X0236614Y0217245D01*
X0236614Y0220851D01*
X0236772Y0221009D01*
X0237303Y0222291D01*
X0237303Y0223679D01*
X0236772Y0224962D01*
X0235791Y0225943D01*
X0234508Y0226474D01*
X0233120Y0226474D01*
X0231838Y0225943D01*
X0230856Y0224962D01*
X0230325Y0223679D01*
X0230325Y0222291D01*
X0230856Y0221009D01*
X0231014Y0220851D01*
X0231014Y0217245D01*
X0230856Y0217088D01*
X0230325Y0215805D01*
X0230325Y0214417D01*
X0230856Y0213135D01*
X0231014Y0212977D01*
X0231014Y0201497D01*
X0230856Y0201339D01*
X0230325Y0200057D01*
X0230325Y0198669D01*
X0230856Y0197387D01*
X0231838Y0196405D01*
X0230539Y0198153D02*
X0202417Y0198153D01*
X0202417Y0199751D02*
X0230325Y0199751D01*
X0230867Y0201350D02*
X0202417Y0201350D01*
X0202417Y0202948D02*
X0231014Y0202948D01*
X0231014Y0204547D02*
X0202417Y0204547D01*
X0202417Y0206145D02*
X0231014Y0206145D01*
X0231014Y0207744D02*
X0202417Y0207744D01*
X0202417Y0209342D02*
X0231014Y0209342D01*
X0231014Y0210941D02*
X0202417Y0210941D01*
X0202417Y0212539D02*
X0231014Y0212539D01*
X0230441Y0214138D02*
X0202417Y0214138D01*
X0202417Y0215736D02*
X0230325Y0215736D01*
X0231014Y0217335D02*
X0202417Y0217335D01*
X0202417Y0218933D02*
X0231014Y0218933D01*
X0231014Y0220532D02*
X0202417Y0220532D01*
X0202417Y0222130D02*
X0230392Y0222130D01*
X0230346Y0223729D02*
X0202417Y0223729D01*
X0202417Y0225327D02*
X0231222Y0225327D01*
X0233814Y0222985D02*
X0233814Y0215111D01*
X0233814Y0199363D01*
X0237089Y0198153D02*
X0335313Y0198153D01*
X0335313Y0199751D02*
X0237303Y0199751D01*
X0236762Y0201350D02*
X0335313Y0201350D01*
X0335313Y0202948D02*
X0236614Y0202948D01*
X0236614Y0204547D02*
X0335313Y0204547D01*
X0335313Y0206145D02*
X0236614Y0206145D01*
X0236614Y0207744D02*
X0335313Y0207744D01*
X0335313Y0209342D02*
X0236614Y0209342D01*
X0236614Y0210941D02*
X0335313Y0210941D01*
X0335313Y0212539D02*
X0236614Y0212539D01*
X0237187Y0214138D02*
X0335313Y0214138D01*
X0335313Y0215736D02*
X0237303Y0215736D01*
X0236614Y0217335D02*
X0335313Y0217335D01*
X0335313Y0218933D02*
X0236614Y0218933D01*
X0236614Y0220532D02*
X0335313Y0220532D01*
X0335313Y0222130D02*
X0237237Y0222130D01*
X0237283Y0223729D02*
X0335313Y0223729D01*
X0335313Y0225327D02*
X0236406Y0225327D01*
X0235939Y0196554D02*
X0335313Y0196554D01*
X0335313Y0194956D02*
X0202417Y0194956D01*
X0202417Y0193357D02*
X0335313Y0193357D01*
X0335313Y0191759D02*
X0202417Y0191759D01*
X0202417Y0190160D02*
X0335313Y0190160D01*
X0335313Y0188562D02*
X0202417Y0188562D01*
X0202417Y0186963D02*
X0335313Y0186963D01*
X0335313Y0185364D02*
X0202417Y0185364D01*
X0202417Y0183766D02*
X0335313Y0183766D01*
X0335313Y0182167D02*
X0202417Y0182167D01*
X0202417Y0180569D02*
X0335313Y0180569D01*
X0335313Y0178970D02*
X0202417Y0178970D01*
X0202417Y0177372D02*
X0335313Y0177372D01*
X0335313Y0175773D02*
X0202417Y0175773D01*
X0202417Y0174175D02*
X0335313Y0174175D01*
X0335313Y0172576D02*
X0202417Y0172576D01*
X0202417Y0170978D02*
X0335313Y0170978D01*
X0335313Y0169379D02*
X0202417Y0169379D01*
X0202417Y0167781D02*
X0335313Y0167781D01*
X0335313Y0166182D02*
X0202417Y0166182D01*
X0202417Y0164584D02*
X0335313Y0164584D01*
X0335313Y0162985D02*
X0202417Y0162985D01*
X0202417Y0161387D02*
X0335313Y0161387D01*
X0335313Y0159788D02*
X0202417Y0159788D01*
X0202417Y0158190D02*
X0335313Y0158190D01*
X0335313Y0156591D02*
X0202417Y0156591D01*
X0202417Y0154993D02*
X0231754Y0154993D01*
X0231838Y0155077D02*
X0230856Y0154095D01*
X0230325Y0152813D01*
X0230325Y0151425D01*
X0230856Y0150143D01*
X0231014Y0149985D01*
X0231014Y0146379D01*
X0230856Y0146221D01*
X0230325Y0144939D01*
X0230325Y0143551D01*
X0230856Y0142269D01*
X0231014Y0142111D01*
X0231014Y0130631D01*
X0230856Y0130473D01*
X0230325Y0129191D01*
X0230325Y0127803D01*
X0230856Y0126521D01*
X0231838Y0125539D01*
X0233120Y0125008D01*
X0234508Y0125008D01*
X0235791Y0125539D01*
X0236772Y0126521D01*
X0237303Y0127803D01*
X0237303Y0129191D01*
X0236772Y0130473D01*
X0236614Y0130631D01*
X0236614Y0142111D01*
X0236772Y0142269D01*
X0237303Y0143551D01*
X0237303Y0144939D01*
X0236772Y0146221D01*
X0236614Y0146379D01*
X0236614Y0149985D01*
X0236772Y0150143D01*
X0237303Y0151425D01*
X0237303Y0152813D01*
X0236772Y0154095D01*
X0235791Y0155077D01*
X0234508Y0155608D01*
X0233120Y0155608D01*
X0231838Y0155077D01*
X0230566Y0153394D02*
X0202417Y0153394D01*
X0202417Y0151796D02*
X0230325Y0151796D01*
X0230834Y0150197D02*
X0202417Y0150197D01*
X0202417Y0148599D02*
X0231014Y0148599D01*
X0231014Y0147000D02*
X0202417Y0147000D01*
X0202417Y0145402D02*
X0230517Y0145402D01*
X0230325Y0143803D02*
X0202417Y0143803D01*
X0202417Y0142205D02*
X0230920Y0142205D01*
X0231014Y0140606D02*
X0202417Y0140606D01*
X0202417Y0139008D02*
X0231014Y0139008D01*
X0231014Y0137409D02*
X0202417Y0137409D01*
X0202417Y0135811D02*
X0231014Y0135811D01*
X0231014Y0134212D02*
X0202417Y0134212D01*
X0202417Y0132614D02*
X0231014Y0132614D01*
X0231014Y0131015D02*
X0202417Y0131015D01*
X0202417Y0129417D02*
X0230419Y0129417D01*
X0230325Y0127818D02*
X0202417Y0127818D01*
X0202417Y0126220D02*
X0231158Y0126220D01*
X0233814Y0128497D02*
X0233814Y0144245D01*
X0233814Y0152119D01*
X0237062Y0153394D02*
X0335313Y0153394D01*
X0335313Y0151796D02*
X0237303Y0151796D01*
X0236795Y0150197D02*
X0324355Y0150197D01*
X0322757Y0148599D02*
X0236614Y0148599D01*
X0236614Y0147000D02*
X0321302Y0147000D01*
X0321302Y0145402D02*
X0237112Y0145402D01*
X0237303Y0143803D02*
X0321302Y0143803D01*
X0321302Y0142205D02*
X0236708Y0142205D01*
X0236614Y0140606D02*
X0320704Y0140606D01*
X0319105Y0139008D02*
X0236614Y0139008D01*
X0236614Y0137409D02*
X0317507Y0137409D01*
X0315908Y0135811D02*
X0236614Y0135811D01*
X0236614Y0134212D02*
X0314310Y0134212D01*
X0312711Y0132614D02*
X0236614Y0132614D01*
X0236614Y0131015D02*
X0311113Y0131015D01*
X0309514Y0129417D02*
X0237210Y0129417D01*
X0237303Y0127818D02*
X0307916Y0127818D01*
X0306317Y0126220D02*
X0236471Y0126220D01*
X0239149Y0113431D02*
X0202617Y0113431D01*
X0202617Y0111833D02*
X0238901Y0111833D01*
X0238901Y0110234D02*
X0202617Y0110234D01*
X0202617Y0108636D02*
X0238901Y0108636D01*
X0238901Y0107037D02*
X0211990Y0107037D01*
X0213588Y0105439D02*
X0238901Y0105439D01*
X0239501Y0103840D02*
X0215187Y0103840D01*
X0216785Y0102242D02*
X0241250Y0102242D01*
X0236045Y0100643D02*
X0218384Y0100643D01*
X0219982Y0099045D02*
X0235810Y0099045D01*
X0235810Y0097446D02*
X0221581Y0097446D01*
X0223179Y0095848D02*
X0227727Y0095848D01*
X0226592Y0094249D02*
X0224778Y0094249D01*
X0226376Y0092651D02*
X0226388Y0092651D01*
X0229877Y0093064D02*
X0230861Y0092080D01*
X0241610Y0092080D01*
X0241610Y0049836D01*
X0241688Y0049757D01*
X0244913Y0051090D02*
X0291880Y0051090D01*
X0291880Y0052688D02*
X0244410Y0052688D01*
X0244410Y0054287D02*
X0291880Y0054287D01*
X0291880Y0055885D02*
X0244410Y0055885D01*
X0244410Y0057484D02*
X0291880Y0057484D01*
X0291880Y0059082D02*
X0244410Y0059082D01*
X0244410Y0060681D02*
X0292163Y0060681D01*
X0293558Y0062279D02*
X0244410Y0062279D01*
X0244410Y0063878D02*
X0295156Y0063878D01*
X0296755Y0065476D02*
X0244410Y0065476D01*
X0244410Y0067075D02*
X0298353Y0067075D01*
X0299952Y0068673D02*
X0244410Y0068673D01*
X0244410Y0070272D02*
X0301550Y0070272D01*
X0303149Y0071870D02*
X0244410Y0071870D01*
X0244410Y0073469D02*
X0304568Y0073469D01*
X0302969Y0075067D02*
X0244410Y0075067D01*
X0244410Y0076666D02*
X0301919Y0076666D01*
X0301880Y0078264D02*
X0244410Y0078264D01*
X0244410Y0079863D02*
X0259396Y0079863D01*
X0258463Y0081461D02*
X0244410Y0081461D01*
X0246718Y0083060D02*
X0258463Y0083060D01*
X0258463Y0084658D02*
X0247410Y0084658D01*
X0247410Y0086257D02*
X0259467Y0086257D01*
X0263263Y0083025D02*
X0272594Y0083025D01*
X0277121Y0087552D01*
X0277909Y0088340D01*
X0295468Y0088340D01*
X0299436Y0087855D02*
X0301773Y0087855D01*
X0301880Y0086257D02*
X0299436Y0086257D01*
X0299339Y0084658D02*
X0301880Y0084658D01*
X0301880Y0083060D02*
X0282150Y0083060D01*
X0282665Y0084658D02*
X0291596Y0084658D01*
X0288525Y0092651D02*
X0281544Y0092651D01*
X0287759Y0094249D02*
X0268063Y0094249D01*
X0268063Y0092651D02*
X0272699Y0092651D01*
X0271578Y0091052D02*
X0268063Y0091052D01*
X0267666Y0089454D02*
X0271578Y0089454D01*
X0271578Y0087855D02*
X0247410Y0087855D01*
X0241610Y0092080D02*
X0244050Y0094521D01*
X0244050Y0108812D01*
X0248952Y0113431D02*
X0296408Y0113431D01*
X0296408Y0111833D02*
X0249200Y0111833D01*
X0249200Y0110234D02*
X0296408Y0110234D01*
X0296408Y0108636D02*
X0249200Y0108636D01*
X0249200Y0107037D02*
X0296408Y0107037D01*
X0296408Y0105439D02*
X0249200Y0105439D01*
X0248600Y0103840D02*
X0296408Y0103840D01*
X0296408Y0102242D02*
X0246850Y0102242D01*
X0247174Y0100643D02*
X0287817Y0100643D01*
X0287759Y0099045D02*
X0247410Y0099045D01*
X0247410Y0097446D02*
X0287759Y0097446D01*
X0287759Y0095848D02*
X0247410Y0095848D01*
X0241610Y0092080D02*
X0263263Y0092080D01*
X0267059Y0086257D02*
X0271578Y0086257D01*
X0274990Y0081461D02*
X0301880Y0081461D01*
X0301880Y0079863D02*
X0267130Y0079863D01*
X0291728Y0097001D02*
X0292504Y0097001D01*
X0296660Y0092845D01*
X0300743Y0092845D01*
X0304680Y0088908D01*
X0304680Y0077316D01*
X0307436Y0074560D01*
X0318361Y0074560D01*
X0318361Y0072001D02*
X0307239Y0072001D01*
X0294680Y0059442D01*
X0294680Y0026135D01*
X0304680Y0026135D02*
X0304680Y0045820D01*
X0300743Y0049757D01*
X0300743Y0061568D01*
X0308617Y0069442D01*
X0318361Y0069442D01*
X0318361Y0066883D02*
X0309995Y0066883D01*
X0304680Y0061568D01*
X0304680Y0049757D01*
X0314680Y0039757D01*
X0314680Y0026135D01*
X0319680Y0025513D02*
X0335313Y0025513D01*
X0335313Y0023915D02*
X0319680Y0023915D01*
X0319680Y0022316D02*
X0335313Y0022316D01*
X0335313Y0020718D02*
X0319091Y0020718D01*
X0319680Y0027112D02*
X0335313Y0027112D01*
X0335313Y0028710D02*
X0319680Y0028710D01*
X0319606Y0030309D02*
X0335313Y0030309D01*
X0335313Y0031907D02*
X0318944Y0031907D01*
X0317480Y0033506D02*
X0335313Y0033506D01*
X0335313Y0035104D02*
X0317480Y0035104D01*
X0317480Y0036703D02*
X0335313Y0036703D01*
X0335313Y0038301D02*
X0317480Y0038301D01*
X0317480Y0039900D02*
X0335313Y0039900D01*
X0335313Y0041498D02*
X0316899Y0041498D01*
X0315300Y0043097D02*
X0335313Y0043097D01*
X0335313Y0044695D02*
X0313702Y0044695D01*
X0312103Y0046294D02*
X0335313Y0046294D01*
X0335313Y0047893D02*
X0310505Y0047893D01*
X0310848Y0047942D02*
X0309676Y0049113D01*
X0309676Y0059770D01*
X0310848Y0060942D01*
X0321505Y0060942D01*
X0322676Y0059770D01*
X0322676Y0049113D01*
X0321505Y0047942D01*
X0310848Y0047942D01*
X0309676Y0049491D02*
X0308906Y0049491D01*
X0309676Y0051090D02*
X0307480Y0051090D01*
X0307480Y0052688D02*
X0309676Y0052688D01*
X0309676Y0054287D02*
X0307480Y0054287D01*
X0307480Y0055885D02*
X0309676Y0055885D01*
X0309676Y0057484D02*
X0307480Y0057484D01*
X0307480Y0059082D02*
X0309676Y0059082D01*
X0310587Y0060681D02*
X0307753Y0060681D01*
X0309351Y0062279D02*
X0335313Y0062279D01*
X0335313Y0060681D02*
X0321766Y0060681D01*
X0322676Y0059082D02*
X0335313Y0059082D01*
X0335313Y0057484D02*
X0322676Y0057484D01*
X0322676Y0055885D02*
X0335313Y0055885D01*
X0335313Y0054287D02*
X0322676Y0054287D01*
X0322676Y0052688D02*
X0335313Y0052688D01*
X0335313Y0051090D02*
X0322676Y0051090D01*
X0322676Y0049491D02*
X0335313Y0049491D01*
X0335313Y0063878D02*
X0310950Y0063878D01*
X0310848Y0077942D02*
X0309676Y0079113D01*
X0309676Y0089770D01*
X0310848Y0090942D01*
X0321505Y0090942D01*
X0322676Y0089770D01*
X0322676Y0079113D01*
X0321505Y0077942D01*
X0310848Y0077942D01*
X0310526Y0078264D02*
X0307692Y0078264D01*
X0307480Y0079863D02*
X0309676Y0079863D01*
X0309676Y0081461D02*
X0307480Y0081461D01*
X0307480Y0083060D02*
X0309676Y0083060D01*
X0309676Y0084658D02*
X0307480Y0084658D01*
X0307480Y0086257D02*
X0309676Y0086257D01*
X0309676Y0087855D02*
X0307480Y0087855D01*
X0307480Y0089454D02*
X0309676Y0089454D01*
X0306496Y0091052D02*
X0335313Y0091052D01*
X0335313Y0089454D02*
X0322676Y0089454D01*
X0322676Y0087855D02*
X0335313Y0087855D01*
X0335313Y0086257D02*
X0322676Y0086257D01*
X0322676Y0084658D02*
X0335313Y0084658D01*
X0335313Y0083060D02*
X0322676Y0083060D01*
X0322676Y0081461D02*
X0335313Y0081461D01*
X0335313Y0079863D02*
X0322676Y0079863D01*
X0321827Y0078264D02*
X0335313Y0078264D01*
X0335313Y0076666D02*
X0323316Y0076666D01*
X0323806Y0075067D02*
X0335313Y0075067D01*
X0335313Y0073469D02*
X0323806Y0073469D01*
X0323806Y0071870D02*
X0335313Y0071870D01*
X0335313Y0070272D02*
X0323806Y0070272D01*
X0323806Y0068673D02*
X0335313Y0068673D01*
X0335313Y0067075D02*
X0323806Y0067075D01*
X0323806Y0065476D02*
X0335313Y0065476D01*
X0335313Y0092651D02*
X0304897Y0092651D01*
X0303299Y0094249D02*
X0335313Y0094249D01*
X0335313Y0095848D02*
X0303176Y0095848D01*
X0303176Y0097446D02*
X0335313Y0097446D01*
X0335313Y0099045D02*
X0303176Y0099045D01*
X0303118Y0100643D02*
X0335313Y0100643D01*
X0335313Y0102242D02*
X0302008Y0102242D01*
X0302008Y0103840D02*
X0335313Y0103840D01*
X0335313Y0105439D02*
X0302008Y0105439D01*
X0302008Y0107037D02*
X0335313Y0107037D01*
X0335313Y0108636D02*
X0302008Y0108636D01*
X0302008Y0110234D02*
X0335313Y0110234D01*
X0335313Y0111833D02*
X0302008Y0111833D01*
X0302008Y0113431D02*
X0335313Y0113431D01*
X0335313Y0115030D02*
X0303047Y0115030D01*
X0304646Y0116629D02*
X0335313Y0116629D01*
X0335313Y0118227D02*
X0306244Y0118227D01*
X0307843Y0119826D02*
X0335313Y0119826D01*
X0335313Y0121424D02*
X0309441Y0121424D01*
X0311040Y0123023D02*
X0335313Y0123023D01*
X0335313Y0124621D02*
X0312638Y0124621D01*
X0314237Y0126220D02*
X0335313Y0126220D01*
X0335313Y0127818D02*
X0315835Y0127818D01*
X0317434Y0129417D02*
X0335313Y0129417D01*
X0335313Y0131015D02*
X0319032Y0131015D01*
X0320631Y0132614D02*
X0335313Y0132614D01*
X0335313Y0134212D02*
X0322229Y0134212D01*
X0323828Y0135811D02*
X0335313Y0135811D01*
X0335313Y0137409D02*
X0331366Y0137409D01*
X0332965Y0139008D02*
X0335313Y0139008D01*
X0335313Y0140606D02*
X0334563Y0140606D01*
X0335302Y0142205D02*
X0335313Y0142205D01*
X0335302Y0143803D02*
X0335313Y0143803D01*
X0335302Y0145402D02*
X0335313Y0145402D01*
X0335302Y0147000D02*
X0335313Y0147000D01*
X0335313Y0148599D02*
X0333848Y0148599D01*
X0335313Y0150197D02*
X0332250Y0150197D01*
X0335313Y0154993D02*
X0235875Y0154993D01*
X0202417Y0124621D02*
X0304719Y0124621D01*
X0303120Y0123023D02*
X0202417Y0123023D01*
X0202417Y0121424D02*
X0301522Y0121424D01*
X0299923Y0119826D02*
X0202417Y0119826D01*
X0202417Y0118227D02*
X0298325Y0118227D01*
X0296789Y0116629D02*
X0202417Y0116629D01*
X0202417Y0115030D02*
X0296408Y0115030D01*
X0299208Y0115151D02*
X0299208Y0097001D01*
X0299436Y0089454D02*
X0300175Y0089454D01*
X0299208Y0115151D02*
X0328302Y0144245D01*
X0335313Y0226926D02*
X0202417Y0226926D01*
X0202417Y0228524D02*
X0335313Y0228524D01*
X0335313Y0230123D02*
X0202417Y0230123D01*
X0202417Y0231721D02*
X0335313Y0231721D01*
X0335313Y0233320D02*
X0202417Y0233320D01*
X0202417Y0234918D02*
X0335313Y0234918D01*
X0335313Y0236517D02*
X0202417Y0236517D01*
X0202417Y0238115D02*
X0335313Y0238115D01*
X0335313Y0239714D02*
X0202417Y0239714D01*
X0202417Y0241312D02*
X0335313Y0241312D01*
X0335313Y0242911D02*
X0202417Y0242911D01*
X0202417Y0244509D02*
X0335313Y0244509D01*
X0335313Y0246108D02*
X0202417Y0246108D01*
X0202417Y0247706D02*
X0335313Y0247706D01*
X0335313Y0249305D02*
X0202417Y0249305D01*
X0202417Y0250903D02*
X0335313Y0250903D01*
X0335313Y0252502D02*
X0202417Y0252502D01*
X0202417Y0254100D02*
X0335313Y0254100D01*
X0335313Y0255699D02*
X0202417Y0255699D01*
X0202417Y0257298D02*
X0335313Y0257298D01*
X0335313Y0258896D02*
X0202417Y0258896D01*
X0202417Y0260495D02*
X0335313Y0260495D01*
X0335313Y0262093D02*
X0202417Y0262093D01*
X0202417Y0263692D02*
X0335313Y0263692D01*
X0335313Y0265290D02*
X0202417Y0265290D01*
X0202937Y0266889D02*
X0232762Y0266889D01*
X0234866Y0266889D02*
X0335313Y0266889D01*
X0335313Y0268487D02*
X0236869Y0268487D01*
X0237303Y0270086D02*
X0335313Y0270086D01*
X0335313Y0271684D02*
X0236988Y0271684D01*
X0236614Y0273283D02*
X0335313Y0273283D01*
X0335313Y0274881D02*
X0236614Y0274881D01*
X0236614Y0276480D02*
X0335313Y0276480D01*
X0335313Y0278078D02*
X0236614Y0278078D01*
X0236614Y0279677D02*
X0335313Y0279677D01*
X0335313Y0281275D02*
X0236614Y0281275D01*
X0236614Y0282874D02*
X0335313Y0282874D01*
X0335313Y0284472D02*
X0236967Y0284472D01*
X0237303Y0286071D02*
X0335313Y0286071D01*
X0335313Y0287669D02*
X0236890Y0287669D01*
X0236614Y0289268D02*
X0335313Y0289268D01*
X0335313Y0290866D02*
X0236614Y0290866D01*
X0237016Y0292465D02*
X0335313Y0292465D01*
X0335313Y0294063D02*
X0237303Y0294063D01*
X0236841Y0295662D02*
X0335313Y0295662D01*
X0335313Y0297260D02*
X0234701Y0297260D01*
X0234907Y0298859D02*
X0335313Y0298859D01*
X0335313Y0300457D02*
X0236506Y0300457D01*
X0238104Y0302056D02*
X0335313Y0302056D01*
X0335313Y0303654D02*
X0239703Y0303654D01*
X0241302Y0305253D02*
X0335313Y0305253D01*
X0335313Y0306851D02*
X0242900Y0306851D01*
X0244499Y0308450D02*
X0335313Y0308450D01*
X0335313Y0310048D02*
X0246097Y0310048D01*
X0247696Y0311647D02*
X0335313Y0311647D01*
X0335313Y0313245D02*
X0249294Y0313245D01*
X0250893Y0314844D02*
X0335313Y0314844D01*
X0335313Y0316442D02*
X0252491Y0316442D01*
X0254090Y0318041D02*
X0335313Y0318041D01*
X0335313Y0319639D02*
X0255688Y0319639D01*
X0257287Y0321238D02*
X0335313Y0321238D01*
X0335313Y0322836D02*
X0258885Y0322836D01*
X0260484Y0324435D02*
X0335313Y0324435D01*
X0335313Y0326033D02*
X0262082Y0326033D01*
X0263681Y0327632D02*
X0335313Y0327632D01*
X0335313Y0329231D02*
X0265279Y0329231D01*
X0266878Y0330829D02*
X0335313Y0330829D01*
X0335313Y0332428D02*
X0268476Y0332428D01*
X0270075Y0334026D02*
X0335313Y0334026D01*
X0335313Y0335625D02*
X0310230Y0335625D01*
X0310230Y0337223D02*
X0335313Y0337223D01*
X0335313Y0338822D02*
X0310230Y0338822D01*
X0310230Y0340420D02*
X0335313Y0340420D01*
X0335313Y0342019D02*
X0310230Y0342019D01*
X0310025Y0343617D02*
X0335313Y0343617D01*
X0335313Y0345216D02*
X0236614Y0345216D01*
X0236614Y0346814D02*
X0299131Y0346814D01*
X0299131Y0348413D02*
X0236614Y0348413D01*
X0236614Y0350011D02*
X0299131Y0350011D01*
X0299131Y0351610D02*
X0236614Y0351610D01*
X0236614Y0353208D02*
X0299131Y0353208D01*
X0299329Y0354807D02*
X0236712Y0354807D01*
X0237303Y0356405D02*
X0301880Y0356405D01*
X0299707Y0358004D02*
X0237110Y0358004D01*
X0236614Y0359602D02*
X0299531Y0359602D01*
X0299531Y0361201D02*
X0238244Y0361201D01*
X0238964Y0362799D02*
X0299531Y0362799D01*
X0300154Y0364398D02*
X0238964Y0364398D01*
X0234208Y0364717D02*
X0233814Y0364324D01*
X0233814Y0356843D01*
X0233814Y0341095D01*
X0236475Y0338822D02*
X0266951Y0338822D01*
X0268549Y0340420D02*
X0237303Y0340420D01*
X0237208Y0342019D02*
X0270446Y0342019D01*
X0271523Y0339434D02*
X0199617Y0267529D01*
X0199617Y0110197D01*
X0196517Y0110197D02*
X0196517Y0310011D01*
X0225940Y0339434D01*
X0220391Y0338822D02*
X0157734Y0338822D01*
X0158032Y0339119D02*
X0158563Y0340401D01*
X0158563Y0341789D01*
X0158032Y0343072D01*
X0157874Y0343230D01*
X0157874Y0354709D01*
X0158032Y0354867D01*
X0158563Y0356149D01*
X0158563Y0357537D01*
X0158032Y0358820D01*
X0157874Y0358978D01*
X0157874Y0360749D01*
X0159052Y0360749D01*
X0160224Y0361921D01*
X0160224Y0365658D01*
X0220794Y0365658D01*
X0221734Y0364717D01*
X0220791Y0363774D01*
X0220791Y0358180D01*
X0221962Y0357009D01*
X0223140Y0357009D01*
X0223140Y0355780D01*
X0221563Y0355780D01*
X0220391Y0354609D01*
X0220391Y0346653D01*
X0221563Y0345481D01*
X0230318Y0345481D01*
X0231014Y0346178D01*
X0231014Y0343887D01*
X0230318Y0344584D01*
X0221563Y0344584D01*
X0220391Y0343412D01*
X0220391Y0337845D01*
X0194931Y0312385D01*
X0194144Y0311597D01*
X0193717Y0310568D01*
X0193717Y0296876D01*
X0152749Y0337845D01*
X0152749Y0338486D01*
X0153098Y0338138D01*
X0154380Y0337606D01*
X0155768Y0337606D01*
X0157050Y0338138D01*
X0158032Y0339119D01*
X0158563Y0340420D02*
X0220391Y0340420D01*
X0220391Y0342019D02*
X0158468Y0342019D01*
X0157874Y0343617D02*
X0220596Y0343617D01*
X0220391Y0346814D02*
X0157874Y0346814D01*
X0157874Y0345216D02*
X0231014Y0345216D01*
X0236614Y0343617D02*
X0299336Y0343617D01*
X0304680Y0339434D02*
X0271523Y0339434D01*
X0271673Y0335625D02*
X0299131Y0335625D01*
X0304680Y0348773D02*
X0304680Y0350631D01*
X0304680Y0360584D01*
X0304287Y0360977D01*
X0310230Y0353208D02*
X0335313Y0353208D01*
X0335313Y0351610D02*
X0310230Y0351610D01*
X0310230Y0350011D02*
X0335313Y0350011D01*
X0335313Y0348413D02*
X0310230Y0348413D01*
X0310230Y0346814D02*
X0335313Y0346814D01*
X0335313Y0373989D02*
X0029953Y0373989D01*
X0029953Y0375587D02*
X0335313Y0375587D01*
X0335313Y0377186D02*
X0029953Y0377186D01*
X0029953Y0378784D02*
X0335313Y0378784D01*
X0335313Y0380383D02*
X0029953Y0380383D01*
X0029953Y0381981D02*
X0335313Y0381981D01*
X0335313Y0383580D02*
X0029953Y0383580D01*
X0029953Y0385178D02*
X0335313Y0385178D01*
X0335313Y0386777D02*
X0029953Y0386777D01*
X0068066Y0360977D02*
X0068460Y0360584D01*
X0068460Y0350631D01*
X0068460Y0348773D01*
X0068460Y0339434D02*
X0074673Y0333221D01*
X0099956Y0333221D01*
X0102498Y0330829D02*
X0102983Y0330829D01*
X0102983Y0329231D02*
X0066311Y0329231D01*
X0066311Y0330829D02*
X0073131Y0330829D01*
X0071507Y0332428D02*
X0066311Y0332428D01*
X0066311Y0334026D02*
X0069908Y0334026D01*
X0074009Y0337845D02*
X0074009Y0338486D01*
X0074358Y0338138D01*
X0075640Y0337606D01*
X0077028Y0337606D01*
X0078310Y0338138D01*
X0079292Y0339119D01*
X0079823Y0340401D01*
X0079823Y0341789D01*
X0079292Y0343072D01*
X0079134Y0343230D01*
X0079134Y0354709D01*
X0079292Y0354867D01*
X0079823Y0356149D01*
X0079823Y0357537D01*
X0079292Y0358820D01*
X0079134Y0358978D01*
X0079134Y0360749D01*
X0080312Y0360749D01*
X0081484Y0361921D01*
X0081484Y0365658D01*
X0142054Y0365658D01*
X0142994Y0364717D01*
X0142050Y0363774D01*
X0142050Y0358180D01*
X0143222Y0357009D01*
X0144400Y0357009D01*
X0144400Y0355780D01*
X0142822Y0355780D01*
X0141651Y0354609D01*
X0141651Y0346653D01*
X0142822Y0345481D01*
X0151578Y0345481D01*
X0152274Y0346178D01*
X0152274Y0343887D01*
X0151578Y0344584D01*
X0142822Y0344584D01*
X0141651Y0343412D01*
X0141651Y0335456D01*
X0142822Y0334284D01*
X0148390Y0334284D01*
X0190517Y0292157D01*
X0190517Y0270242D01*
X0125952Y0334807D01*
X0125164Y0335595D01*
X0124135Y0336021D01*
X0117838Y0336021D01*
X0117680Y0336179D01*
X0116398Y0336710D01*
X0115010Y0336710D01*
X0113728Y0336179D01*
X0113701Y0336152D01*
X0113701Y0342057D01*
X0113743Y0342075D01*
X0114725Y0343056D01*
X0115256Y0344338D01*
X0115256Y0345726D01*
X0114725Y0347009D01*
X0113743Y0347990D01*
X0112461Y0348521D01*
X0111142Y0348521D01*
X0111142Y0350442D01*
X0111630Y0350930D01*
X0112161Y0352212D01*
X0112161Y0353600D01*
X0111630Y0354883D01*
X0110648Y0355864D01*
X0109366Y0356395D01*
X0108583Y0356395D01*
X0108583Y0357338D01*
X0109806Y0357845D01*
X0110788Y0358826D01*
X0111319Y0360109D01*
X0111319Y0361497D01*
X0110788Y0362779D01*
X0109806Y0363760D01*
X0108524Y0364291D01*
X0107136Y0364291D01*
X0105854Y0363760D01*
X0104872Y0362779D01*
X0104341Y0361497D01*
X0104341Y0361273D01*
X0103409Y0360341D01*
X0102983Y0359312D01*
X0102983Y0335031D01*
X0102914Y0335198D01*
X0101932Y0336179D01*
X0100650Y0336710D01*
X0099262Y0336710D01*
X0097980Y0336179D01*
X0097822Y0336021D01*
X0075832Y0336021D01*
X0074009Y0337845D01*
X0074631Y0337223D02*
X0102983Y0337223D01*
X0102983Y0335625D02*
X0102487Y0335625D01*
X0102983Y0338822D02*
X0078994Y0338822D01*
X0079823Y0340420D02*
X0102983Y0340420D01*
X0102983Y0342019D02*
X0079728Y0342019D01*
X0079134Y0343617D02*
X0102983Y0343617D01*
X0102983Y0345216D02*
X0079134Y0345216D01*
X0079134Y0346814D02*
X0102983Y0346814D01*
X0102983Y0348413D02*
X0079134Y0348413D01*
X0079134Y0350011D02*
X0102983Y0350011D01*
X0102983Y0351610D02*
X0079134Y0351610D01*
X0079134Y0353208D02*
X0102983Y0353208D01*
X0102983Y0354807D02*
X0079231Y0354807D01*
X0079823Y0356405D02*
X0102983Y0356405D01*
X0102983Y0358004D02*
X0079630Y0358004D01*
X0079134Y0359602D02*
X0103103Y0359602D01*
X0104268Y0361201D02*
X0080764Y0361201D01*
X0081484Y0362799D02*
X0104893Y0362799D01*
X0107830Y0360803D02*
X0105783Y0358755D01*
X0105783Y0182552D01*
X0103583Y0182193D02*
X0103583Y0179130D01*
X0106972Y0175741D01*
X0127515Y0175741D01*
X0127515Y0171804D02*
X0103893Y0171804D01*
X0100665Y0175032D01*
X0100665Y0182552D01*
X0103224Y0182552D02*
X0103583Y0182193D01*
X0108342Y0182552D02*
X0108342Y0352577D01*
X0108672Y0352906D01*
X0111911Y0351610D02*
X0141651Y0351610D01*
X0141651Y0353208D02*
X0112161Y0353208D01*
X0111661Y0354807D02*
X0141849Y0354807D01*
X0144400Y0356405D02*
X0108583Y0356405D01*
X0109965Y0358004D02*
X0142227Y0358004D01*
X0142050Y0359602D02*
X0111109Y0359602D01*
X0111319Y0361201D02*
X0142050Y0361201D01*
X0142050Y0362799D02*
X0110767Y0362799D01*
X0111142Y0350011D02*
X0141651Y0350011D01*
X0141651Y0348413D02*
X0112724Y0348413D01*
X0114805Y0346814D02*
X0141651Y0346814D01*
X0141856Y0343617D02*
X0114957Y0343617D01*
X0115256Y0345216D02*
X0152274Y0345216D01*
X0155074Y0341095D02*
X0155074Y0356843D01*
X0155074Y0364324D01*
X0155468Y0364717D01*
X0160224Y0364398D02*
X0221414Y0364398D01*
X0220791Y0362799D02*
X0160224Y0362799D01*
X0159504Y0361201D02*
X0220791Y0361201D01*
X0220791Y0359602D02*
X0157874Y0359602D01*
X0158370Y0358004D02*
X0220967Y0358004D01*
X0223140Y0356405D02*
X0158563Y0356405D01*
X0157971Y0354807D02*
X0220589Y0354807D01*
X0220391Y0353208D02*
X0157874Y0353208D01*
X0157874Y0351610D02*
X0220391Y0351610D01*
X0220391Y0350011D02*
X0157874Y0350011D01*
X0157874Y0348413D02*
X0220391Y0348413D01*
X0225940Y0348773D02*
X0225940Y0350631D01*
X0225940Y0360584D01*
X0225547Y0360977D01*
X0219769Y0337223D02*
X0153371Y0337223D01*
X0154969Y0335625D02*
X0218171Y0335625D01*
X0216572Y0334026D02*
X0156568Y0334026D01*
X0158166Y0332428D02*
X0214974Y0332428D01*
X0213375Y0330829D02*
X0159765Y0330829D01*
X0161363Y0329231D02*
X0211777Y0329231D01*
X0210178Y0327632D02*
X0162962Y0327632D01*
X0164560Y0326033D02*
X0208580Y0326033D01*
X0206981Y0324435D02*
X0166159Y0324435D01*
X0167757Y0322836D02*
X0205383Y0322836D01*
X0203784Y0321238D02*
X0169356Y0321238D01*
X0170954Y0319639D02*
X0202186Y0319639D01*
X0200587Y0318041D02*
X0172553Y0318041D01*
X0174151Y0316442D02*
X0198989Y0316442D01*
X0197390Y0314844D02*
X0175750Y0314844D01*
X0177348Y0313245D02*
X0195792Y0313245D01*
X0194193Y0311647D02*
X0178947Y0311647D01*
X0180545Y0310048D02*
X0193717Y0310048D01*
X0193717Y0308450D02*
X0182144Y0308450D01*
X0183743Y0306851D02*
X0193717Y0306851D01*
X0193717Y0305253D02*
X0185341Y0305253D01*
X0186940Y0303654D02*
X0193717Y0303654D01*
X0193717Y0302056D02*
X0188538Y0302056D01*
X0190137Y0300457D02*
X0193717Y0300457D01*
X0193717Y0298859D02*
X0191735Y0298859D01*
X0193334Y0297260D02*
X0193717Y0297260D01*
X0193317Y0293317D02*
X0193317Y0110197D01*
X0190217Y0110197D02*
X0190217Y0266582D01*
X0123578Y0333221D01*
X0115704Y0333221D01*
X0113701Y0329231D02*
X0123609Y0329231D01*
X0125208Y0327632D02*
X0113701Y0327632D01*
X0113701Y0326033D02*
X0126806Y0326033D01*
X0128405Y0324435D02*
X0113701Y0324435D01*
X0113701Y0322836D02*
X0130003Y0322836D01*
X0131602Y0321238D02*
X0113701Y0321238D01*
X0113701Y0319639D02*
X0133200Y0319639D01*
X0134799Y0318041D02*
X0113701Y0318041D01*
X0113701Y0316442D02*
X0136397Y0316442D01*
X0137996Y0314844D02*
X0113701Y0314844D01*
X0113701Y0313245D02*
X0139594Y0313245D01*
X0141193Y0311647D02*
X0113701Y0311647D01*
X0113701Y0310048D02*
X0142791Y0310048D01*
X0144390Y0308450D02*
X0113701Y0308450D01*
X0113701Y0306851D02*
X0145988Y0306851D01*
X0147587Y0305253D02*
X0113701Y0305253D01*
X0113701Y0303654D02*
X0149185Y0303654D01*
X0150784Y0302056D02*
X0113701Y0302056D01*
X0113701Y0300457D02*
X0152382Y0300457D01*
X0153981Y0298859D02*
X0113701Y0298859D01*
X0113701Y0297260D02*
X0154187Y0297260D01*
X0152048Y0295662D02*
X0113701Y0295662D01*
X0113701Y0294063D02*
X0151585Y0294063D01*
X0151872Y0292465D02*
X0116196Y0292465D01*
X0117181Y0290866D02*
X0152274Y0290866D01*
X0152274Y0289268D02*
X0117279Y0289268D01*
X0116457Y0287669D02*
X0151998Y0287669D01*
X0151585Y0286071D02*
X0116260Y0286071D01*
X0118851Y0284472D02*
X0151921Y0284472D01*
X0152274Y0282874D02*
X0119780Y0282874D01*
X0119808Y0281275D02*
X0152274Y0281275D01*
X0152274Y0279677D02*
X0118919Y0279677D01*
X0118819Y0278078D02*
X0152274Y0278078D01*
X0152274Y0276480D02*
X0122262Y0276480D01*
X0123121Y0274881D02*
X0152274Y0274881D01*
X0152274Y0273283D02*
X0123051Y0273283D01*
X0122093Y0271684D02*
X0151900Y0271684D01*
X0151585Y0270086D02*
X0121378Y0270086D01*
X0121378Y0268487D02*
X0152019Y0268487D01*
X0154022Y0266889D02*
X0121378Y0266889D01*
X0121378Y0265290D02*
X0187417Y0265290D01*
X0187417Y0263692D02*
X0121378Y0263692D01*
X0121378Y0262093D02*
X0187417Y0262093D01*
X0187417Y0260495D02*
X0121378Y0260495D01*
X0121378Y0258896D02*
X0187417Y0258896D01*
X0187417Y0257298D02*
X0121378Y0257298D01*
X0121378Y0255699D02*
X0187417Y0255699D01*
X0187417Y0254100D02*
X0121378Y0254100D01*
X0121378Y0252502D02*
X0187417Y0252502D01*
X0187417Y0250903D02*
X0121378Y0250903D01*
X0121378Y0249305D02*
X0187417Y0249305D01*
X0187417Y0247706D02*
X0121378Y0247706D01*
X0121378Y0246108D02*
X0187417Y0246108D01*
X0187417Y0244509D02*
X0121378Y0244509D01*
X0121378Y0242911D02*
X0187417Y0242911D01*
X0187417Y0241312D02*
X0121378Y0241312D01*
X0121378Y0239714D02*
X0187417Y0239714D01*
X0187417Y0238115D02*
X0121378Y0238115D01*
X0121378Y0236517D02*
X0187417Y0236517D01*
X0187417Y0234918D02*
X0121378Y0234918D01*
X0121378Y0233320D02*
X0187417Y0233320D01*
X0187417Y0231721D02*
X0121378Y0231721D01*
X0121378Y0230123D02*
X0187417Y0230123D01*
X0187417Y0228524D02*
X0121378Y0228524D01*
X0121378Y0226926D02*
X0187417Y0226926D01*
X0185951Y0266889D02*
X0156126Y0266889D01*
X0158129Y0268487D02*
X0184353Y0268487D01*
X0182754Y0270086D02*
X0158563Y0270086D01*
X0158248Y0271684D02*
X0181156Y0271684D01*
X0179557Y0273283D02*
X0157874Y0273283D01*
X0157874Y0274881D02*
X0177959Y0274881D01*
X0176360Y0276480D02*
X0157874Y0276480D01*
X0157874Y0278078D02*
X0174761Y0278078D01*
X0173163Y0279677D02*
X0157874Y0279677D01*
X0157874Y0281275D02*
X0171564Y0281275D01*
X0169966Y0282874D02*
X0157874Y0282874D01*
X0158227Y0284472D02*
X0168367Y0284472D01*
X0166769Y0286071D02*
X0158563Y0286071D01*
X0158150Y0287669D02*
X0165170Y0287669D01*
X0163572Y0289268D02*
X0157874Y0289268D01*
X0157874Y0290866D02*
X0161973Y0290866D01*
X0160375Y0292465D02*
X0158276Y0292465D01*
X0158563Y0294063D02*
X0158776Y0294063D01*
X0155074Y0293851D02*
X0155074Y0285977D01*
X0155074Y0270229D01*
X0171491Y0289268D02*
X0190517Y0289268D01*
X0190517Y0290866D02*
X0169893Y0290866D01*
X0168294Y0292465D02*
X0190210Y0292465D01*
X0188611Y0294063D02*
X0166696Y0294063D01*
X0165097Y0295662D02*
X0187013Y0295662D01*
X0185414Y0297260D02*
X0163499Y0297260D01*
X0161900Y0298859D02*
X0183815Y0298859D01*
X0182217Y0300457D02*
X0160302Y0300457D01*
X0158703Y0302056D02*
X0180618Y0302056D01*
X0179020Y0303654D02*
X0157105Y0303654D01*
X0155506Y0305253D02*
X0177421Y0305253D01*
X0175823Y0306851D02*
X0153908Y0306851D01*
X0152309Y0308450D02*
X0174224Y0308450D01*
X0172626Y0310048D02*
X0150711Y0310048D01*
X0149112Y0311647D02*
X0171027Y0311647D01*
X0169429Y0313245D02*
X0147514Y0313245D01*
X0145915Y0314844D02*
X0167830Y0314844D01*
X0166232Y0316442D02*
X0144317Y0316442D01*
X0142718Y0318041D02*
X0164633Y0318041D01*
X0163035Y0319639D02*
X0141120Y0319639D01*
X0139521Y0321238D02*
X0161436Y0321238D01*
X0159838Y0322836D02*
X0137923Y0322836D01*
X0136324Y0324435D02*
X0158239Y0324435D01*
X0156641Y0326033D02*
X0134726Y0326033D01*
X0133127Y0327632D02*
X0155042Y0327632D01*
X0153444Y0329231D02*
X0131529Y0329231D01*
X0129930Y0330829D02*
X0151845Y0330829D01*
X0150247Y0332428D02*
X0128332Y0332428D01*
X0126733Y0334026D02*
X0148648Y0334026D01*
X0147200Y0339434D02*
X0193317Y0293317D01*
X0190517Y0287669D02*
X0173090Y0287669D01*
X0174689Y0286071D02*
X0190517Y0286071D01*
X0190517Y0284472D02*
X0176287Y0284472D01*
X0177886Y0282874D02*
X0190517Y0282874D01*
X0190517Y0281275D02*
X0179484Y0281275D01*
X0181083Y0279677D02*
X0190517Y0279677D01*
X0190517Y0278078D02*
X0182681Y0278078D01*
X0184280Y0276480D02*
X0190517Y0276480D01*
X0190517Y0274881D02*
X0185878Y0274881D01*
X0187477Y0273283D02*
X0190517Y0273283D01*
X0190517Y0271684D02*
X0189075Y0271684D01*
X0199317Y0271684D02*
X0199813Y0271684D01*
X0199317Y0273283D02*
X0201412Y0273283D01*
X0203010Y0274881D02*
X0199317Y0274881D01*
X0199317Y0276480D02*
X0204609Y0276480D01*
X0206207Y0278078D02*
X0199317Y0278078D01*
X0199317Y0279677D02*
X0207806Y0279677D01*
X0209404Y0281275D02*
X0199317Y0281275D01*
X0199317Y0282874D02*
X0211003Y0282874D01*
X0212601Y0284472D02*
X0199317Y0284472D01*
X0199317Y0286071D02*
X0214200Y0286071D01*
X0215798Y0287669D02*
X0199317Y0287669D01*
X0199317Y0289268D02*
X0217397Y0289268D01*
X0218995Y0290866D02*
X0199317Y0290866D01*
X0199317Y0292465D02*
X0220594Y0292465D01*
X0222192Y0294063D02*
X0199317Y0294063D01*
X0199317Y0295662D02*
X0223791Y0295662D01*
X0225389Y0297260D02*
X0199317Y0297260D01*
X0199317Y0298859D02*
X0226988Y0298859D01*
X0228586Y0300457D02*
X0199317Y0300457D01*
X0199317Y0302056D02*
X0230185Y0302056D01*
X0231783Y0303654D02*
X0199317Y0303654D01*
X0199317Y0305253D02*
X0233382Y0305253D01*
X0234980Y0306851D02*
X0199317Y0306851D01*
X0199317Y0308450D02*
X0236579Y0308450D01*
X0238177Y0310048D02*
X0200514Y0310048D01*
X0202113Y0311647D02*
X0239776Y0311647D01*
X0241375Y0313245D02*
X0203711Y0313245D01*
X0205310Y0314844D02*
X0242973Y0314844D01*
X0244572Y0316442D02*
X0206908Y0316442D01*
X0208507Y0318041D02*
X0246170Y0318041D01*
X0247769Y0319639D02*
X0210105Y0319639D01*
X0211704Y0321238D02*
X0249367Y0321238D01*
X0250966Y0322836D02*
X0213302Y0322836D01*
X0214901Y0324435D02*
X0252564Y0324435D01*
X0254163Y0326033D02*
X0216499Y0326033D01*
X0218098Y0327632D02*
X0255761Y0327632D01*
X0257360Y0329231D02*
X0219697Y0329231D01*
X0221295Y0330829D02*
X0258958Y0330829D01*
X0260557Y0332428D02*
X0222894Y0332428D01*
X0224492Y0334026D02*
X0262155Y0334026D01*
X0263754Y0335625D02*
X0231489Y0335625D01*
X0231489Y0337223D02*
X0265352Y0337223D01*
X0233814Y0293851D02*
X0233814Y0285977D01*
X0233814Y0270229D01*
X0230640Y0271684D02*
X0207733Y0271684D01*
X0209331Y0273283D02*
X0231014Y0273283D01*
X0231014Y0274881D02*
X0210930Y0274881D01*
X0212528Y0276480D02*
X0231014Y0276480D01*
X0231014Y0278078D02*
X0214127Y0278078D01*
X0215725Y0279677D02*
X0231014Y0279677D01*
X0231014Y0281275D02*
X0217324Y0281275D01*
X0218922Y0282874D02*
X0231014Y0282874D01*
X0230661Y0284472D02*
X0220521Y0284472D01*
X0222119Y0286071D02*
X0230325Y0286071D01*
X0230739Y0287669D02*
X0223718Y0287669D01*
X0225316Y0289268D02*
X0231014Y0289268D01*
X0231014Y0290866D02*
X0226915Y0290866D01*
X0228513Y0292465D02*
X0230612Y0292465D01*
X0230325Y0294063D02*
X0230112Y0294063D01*
X0230325Y0270086D02*
X0206134Y0270086D01*
X0204536Y0268487D02*
X0230759Y0268487D01*
X0155074Y0171804D02*
X0151137Y0171804D01*
X0155074Y0171804D02*
X0183769Y0143109D01*
X0183917Y0135235D01*
X0183917Y0110197D01*
X0187017Y0110197D02*
X0187017Y0143946D01*
X0155074Y0144245D02*
X0155074Y0128497D01*
X0155074Y0144245D02*
X0155074Y0152119D01*
X0130404Y0162733D02*
X0130404Y0202252D01*
X0131452Y0203300D01*
X0121137Y0218740D02*
X0121467Y0219070D01*
X0121137Y0218740D02*
X0121137Y0182552D01*
X0118578Y0182552D02*
X0118578Y0273103D01*
X0119641Y0274166D01*
X0116019Y0281710D02*
X0116019Y0182552D01*
X0113460Y0182552D02*
X0113460Y0289606D01*
X0113790Y0289936D01*
X0116349Y0282040D02*
X0116019Y0281710D01*
X0102983Y0281275D02*
X0079134Y0281275D01*
X0079134Y0279677D02*
X0102983Y0279677D01*
X0102983Y0278078D02*
X0079134Y0278078D01*
X0079134Y0276480D02*
X0102983Y0276480D01*
X0102983Y0274881D02*
X0079134Y0274881D01*
X0079134Y0273283D02*
X0102983Y0273283D01*
X0102983Y0271684D02*
X0079508Y0271684D01*
X0079292Y0272206D02*
X0079134Y0272363D01*
X0079134Y0283843D01*
X0079292Y0284001D01*
X0079823Y0285283D01*
X0079823Y0286671D01*
X0079292Y0287954D01*
X0079134Y0288111D01*
X0079134Y0291717D01*
X0079292Y0291875D01*
X0079823Y0293157D01*
X0079823Y0294545D01*
X0079292Y0295828D01*
X0078310Y0296809D01*
X0077028Y0297340D01*
X0075640Y0297340D01*
X0074358Y0296809D01*
X0073376Y0295828D01*
X0072845Y0294545D01*
X0072845Y0293157D01*
X0073376Y0291875D01*
X0073534Y0291717D01*
X0073534Y0288111D01*
X0073376Y0287954D01*
X0072845Y0286671D01*
X0072845Y0285283D01*
X0073376Y0284001D01*
X0073534Y0283843D01*
X0073534Y0272363D01*
X0073376Y0272206D01*
X0072845Y0270923D01*
X0072845Y0269535D01*
X0073376Y0268253D01*
X0074358Y0267271D01*
X0075640Y0266740D01*
X0077028Y0266740D01*
X0078310Y0267271D01*
X0079292Y0268253D01*
X0079823Y0269535D01*
X0079823Y0270923D01*
X0079292Y0272206D01*
X0079823Y0270086D02*
X0102983Y0270086D01*
X0102983Y0268487D02*
X0079389Y0268487D01*
X0077386Y0266889D02*
X0102983Y0266889D01*
X0102983Y0265290D02*
X0066311Y0265290D01*
X0066311Y0263692D02*
X0102983Y0263692D01*
X0102983Y0262093D02*
X0066311Y0262093D01*
X0066311Y0260495D02*
X0102983Y0260495D01*
X0102983Y0258896D02*
X0066311Y0258896D01*
X0066311Y0257298D02*
X0102983Y0257298D01*
X0102983Y0255699D02*
X0066311Y0255699D01*
X0066311Y0254100D02*
X0102983Y0254100D01*
X0102983Y0252502D02*
X0066311Y0252502D01*
X0066311Y0250903D02*
X0102983Y0250903D01*
X0102983Y0249305D02*
X0066311Y0249305D01*
X0066311Y0247706D02*
X0102983Y0247706D01*
X0102983Y0246108D02*
X0066311Y0246108D01*
X0066311Y0244509D02*
X0102983Y0244509D01*
X0102983Y0242911D02*
X0066311Y0242911D01*
X0066311Y0241312D02*
X0102983Y0241312D01*
X0102983Y0239714D02*
X0066311Y0239714D01*
X0066311Y0238115D02*
X0102983Y0238115D01*
X0102983Y0236517D02*
X0066311Y0236517D01*
X0066311Y0234918D02*
X0102983Y0234918D01*
X0102983Y0233320D02*
X0066311Y0233320D01*
X0066311Y0231721D02*
X0102983Y0231721D01*
X0102983Y0230123D02*
X0066311Y0230123D01*
X0066311Y0228524D02*
X0102983Y0228524D01*
X0102983Y0226926D02*
X0066311Y0226926D01*
X0066311Y0225327D02*
X0073742Y0225327D01*
X0073376Y0224962D02*
X0072845Y0223679D01*
X0072845Y0222291D01*
X0073376Y0221009D01*
X0073534Y0220851D01*
X0073534Y0217245D01*
X0073376Y0217088D01*
X0072845Y0215805D01*
X0072845Y0214417D01*
X0073376Y0213135D01*
X0073534Y0212977D01*
X0073534Y0201497D01*
X0073376Y0201339D01*
X0072845Y0200057D01*
X0072845Y0198669D01*
X0073376Y0197387D01*
X0074358Y0196405D01*
X0075640Y0195874D01*
X0077028Y0195874D01*
X0078310Y0196405D01*
X0079292Y0197387D01*
X0079823Y0198669D01*
X0079823Y0200057D01*
X0079292Y0201339D01*
X0079134Y0201497D01*
X0079134Y0212977D01*
X0079292Y0213135D01*
X0079823Y0214417D01*
X0079823Y0215805D01*
X0079292Y0217088D01*
X0079134Y0217245D01*
X0079134Y0220851D01*
X0079292Y0221009D01*
X0079823Y0222291D01*
X0079823Y0223679D01*
X0079292Y0224962D01*
X0078310Y0225943D01*
X0077028Y0226474D01*
X0075640Y0226474D01*
X0074358Y0225943D01*
X0073376Y0224962D01*
X0072865Y0223729D02*
X0066311Y0223729D01*
X0066311Y0222130D02*
X0072912Y0222130D01*
X0073534Y0220532D02*
X0066311Y0220532D01*
X0066311Y0218933D02*
X0073534Y0218933D01*
X0073534Y0217335D02*
X0066311Y0217335D01*
X0066311Y0215736D02*
X0072845Y0215736D01*
X0072961Y0214138D02*
X0066311Y0214138D01*
X0066311Y0212539D02*
X0073534Y0212539D01*
X0073534Y0210941D02*
X0066311Y0210941D01*
X0066311Y0209342D02*
X0073534Y0209342D01*
X0073534Y0207744D02*
X0066311Y0207744D01*
X0066311Y0206145D02*
X0073534Y0206145D01*
X0073534Y0204547D02*
X0066311Y0204547D01*
X0066311Y0202948D02*
X0073534Y0202948D01*
X0073386Y0201350D02*
X0066311Y0201350D01*
X0066311Y0199751D02*
X0072845Y0199751D01*
X0073059Y0198153D02*
X0066311Y0198153D01*
X0066311Y0196554D02*
X0074209Y0196554D01*
X0076334Y0199363D02*
X0076334Y0215111D01*
X0076334Y0222985D01*
X0078926Y0225327D02*
X0102983Y0225327D01*
X0102983Y0223729D02*
X0079802Y0223729D01*
X0079756Y0222130D02*
X0102983Y0222130D01*
X0102983Y0220532D02*
X0079134Y0220532D01*
X0079134Y0218933D02*
X0102983Y0218933D01*
X0102983Y0217335D02*
X0079134Y0217335D01*
X0079823Y0215736D02*
X0102983Y0215736D01*
X0102983Y0214138D02*
X0079707Y0214138D01*
X0079134Y0212539D02*
X0102983Y0212539D01*
X0102983Y0210941D02*
X0079134Y0210941D01*
X0079134Y0209342D02*
X0102983Y0209342D01*
X0102983Y0207744D02*
X0079134Y0207744D01*
X0079134Y0206145D02*
X0102983Y0206145D01*
X0102983Y0204547D02*
X0079134Y0204547D01*
X0079134Y0202948D02*
X0102983Y0202948D01*
X0102983Y0201350D02*
X0079282Y0201350D01*
X0079823Y0199751D02*
X0102983Y0199751D01*
X0102983Y0198153D02*
X0079609Y0198153D01*
X0078459Y0196554D02*
X0102983Y0196554D01*
X0102983Y0194956D02*
X0066311Y0194956D01*
X0066311Y0193357D02*
X0102983Y0193357D01*
X0102983Y0191759D02*
X0066311Y0191759D01*
X0066311Y0190160D02*
X0102983Y0190160D01*
X0102983Y0188562D02*
X0066311Y0188562D01*
X0066311Y0186963D02*
X0096046Y0186963D01*
X0095417Y0185364D02*
X0066311Y0185364D01*
X0066311Y0183766D02*
X0095417Y0183766D01*
X0095306Y0182167D02*
X0066311Y0182167D01*
X0066580Y0180569D02*
X0095306Y0180569D01*
X0095306Y0178970D02*
X0068178Y0178970D01*
X0069777Y0177372D02*
X0095306Y0177372D01*
X0098106Y0173654D02*
X0103893Y0167867D01*
X0127515Y0167867D01*
X0130404Y0162733D02*
X0128712Y0161041D01*
X0113460Y0158930D02*
X0113460Y0079031D01*
X0111767Y0077338D01*
X0106319Y0065476D02*
X0096013Y0065476D01*
X0094415Y0063878D02*
X0104720Y0063878D01*
X0103122Y0062279D02*
X0092816Y0062279D01*
X0091554Y0060681D02*
X0101523Y0060681D01*
X0099925Y0059082D02*
X0090593Y0059082D01*
X0073677Y0126220D02*
X0029953Y0126220D01*
X0029953Y0127818D02*
X0072845Y0127818D01*
X0072938Y0129417D02*
X0029953Y0129417D01*
X0029953Y0131015D02*
X0073534Y0131015D01*
X0073534Y0132614D02*
X0029953Y0132614D01*
X0029953Y0134212D02*
X0073534Y0134212D01*
X0073534Y0135811D02*
X0029953Y0135811D01*
X0029953Y0137409D02*
X0073534Y0137409D01*
X0073534Y0139008D02*
X0029953Y0139008D01*
X0029953Y0140606D02*
X0073534Y0140606D01*
X0073440Y0142205D02*
X0029953Y0142205D01*
X0029953Y0143803D02*
X0072845Y0143803D01*
X0073037Y0145402D02*
X0029953Y0145402D01*
X0029953Y0147000D02*
X0073534Y0147000D01*
X0073534Y0148599D02*
X0029953Y0148599D01*
X0029953Y0150197D02*
X0073354Y0150197D01*
X0072845Y0151796D02*
X0029953Y0151796D01*
X0029953Y0153394D02*
X0073086Y0153394D01*
X0074273Y0154993D02*
X0029953Y0154993D01*
X0076334Y0152119D02*
X0076334Y0144245D01*
X0076334Y0128497D01*
X0103224Y0158930D02*
X0103224Y0162473D01*
X0098106Y0173654D02*
X0098106Y0182552D01*
X0110901Y0182552D02*
X0110901Y0344166D01*
X0111767Y0345032D01*
X0113701Y0342019D02*
X0141651Y0342019D01*
X0141651Y0340420D02*
X0113701Y0340420D01*
X0113701Y0338822D02*
X0141651Y0338822D01*
X0141651Y0337223D02*
X0113701Y0337223D01*
X0125093Y0335625D02*
X0141651Y0335625D01*
X0147200Y0348773D02*
X0147200Y0350631D01*
X0147200Y0360584D01*
X0146806Y0360977D01*
X0142674Y0364398D02*
X0081484Y0364398D01*
X0076728Y0364717D02*
X0076334Y0364324D01*
X0076334Y0356843D01*
X0076334Y0341095D01*
X0066311Y0327632D02*
X0102983Y0327632D01*
X0102983Y0326033D02*
X0066311Y0326033D01*
X0066311Y0324435D02*
X0102983Y0324435D01*
X0102983Y0322836D02*
X0066311Y0322836D01*
X0066311Y0321238D02*
X0102983Y0321238D01*
X0102983Y0319639D02*
X0066311Y0319639D01*
X0066311Y0318041D02*
X0102983Y0318041D01*
X0102983Y0316442D02*
X0066311Y0316442D01*
X0066311Y0314844D02*
X0102983Y0314844D01*
X0102983Y0313245D02*
X0066311Y0313245D01*
X0066311Y0311647D02*
X0102983Y0311647D01*
X0102983Y0310048D02*
X0066311Y0310048D01*
X0066311Y0308450D02*
X0102983Y0308450D01*
X0102983Y0306851D02*
X0066311Y0306851D01*
X0066311Y0305253D02*
X0102983Y0305253D01*
X0102983Y0303654D02*
X0066311Y0303654D01*
X0066311Y0302056D02*
X0102983Y0302056D01*
X0102983Y0300457D02*
X0066311Y0300457D01*
X0066311Y0298859D02*
X0102983Y0298859D01*
X0102983Y0297260D02*
X0077221Y0297260D01*
X0075447Y0297260D02*
X0066311Y0297260D01*
X0066311Y0295662D02*
X0073307Y0295662D01*
X0072845Y0294063D02*
X0066311Y0294063D01*
X0066311Y0292465D02*
X0073132Y0292465D01*
X0073534Y0290866D02*
X0066311Y0290866D01*
X0066311Y0289268D02*
X0073534Y0289268D01*
X0073258Y0287669D02*
X0066311Y0287669D01*
X0066311Y0286071D02*
X0072845Y0286071D01*
X0073181Y0284472D02*
X0066311Y0284472D01*
X0066311Y0282874D02*
X0073534Y0282874D01*
X0073534Y0281275D02*
X0066311Y0281275D01*
X0066311Y0279677D02*
X0073534Y0279677D01*
X0073534Y0278078D02*
X0066311Y0278078D01*
X0066311Y0276480D02*
X0073534Y0276480D01*
X0073534Y0274881D02*
X0066311Y0274881D01*
X0066311Y0273283D02*
X0073534Y0273283D01*
X0073160Y0271684D02*
X0066311Y0271684D01*
X0066311Y0270086D02*
X0072845Y0270086D01*
X0073279Y0268487D02*
X0066311Y0268487D01*
X0066311Y0266889D02*
X0075282Y0266889D01*
X0076334Y0270229D02*
X0076334Y0285977D01*
X0076334Y0293851D01*
X0079536Y0292465D02*
X0102983Y0292465D01*
X0102983Y0294063D02*
X0079823Y0294063D01*
X0079360Y0295662D02*
X0102983Y0295662D01*
X0102983Y0290866D02*
X0079134Y0290866D01*
X0079134Y0289268D02*
X0102983Y0289268D01*
X0102983Y0287669D02*
X0079410Y0287669D01*
X0079823Y0286071D02*
X0102983Y0286071D01*
X0102983Y0284472D02*
X0079487Y0284472D01*
X0079134Y0282874D02*
X0102983Y0282874D01*
X0126465Y0388375D02*
X0148250Y0388375D01*
X0146895Y0389974D02*
X0128384Y0389974D01*
X0130382Y0391572D02*
X0146337Y0391572D01*
X0146337Y0393171D02*
X0132380Y0393171D01*
X0134378Y0394769D02*
X0146337Y0394769D01*
X0146337Y0396368D02*
X0136376Y0396368D01*
X0138374Y0397966D02*
X0146337Y0397966D01*
X0146337Y0399565D02*
X0140372Y0399565D01*
X0142370Y0401164D02*
X0146361Y0401164D01*
X0147023Y0402762D02*
X0144369Y0402762D01*
X0218243Y0402762D02*
X0220478Y0402762D01*
X0218905Y0401164D02*
X0222076Y0401164D01*
X0223675Y0399565D02*
X0218929Y0399565D01*
X0218929Y0397966D02*
X0225273Y0397966D01*
X0226872Y0396368D02*
X0218929Y0396368D01*
X0218929Y0394769D02*
X0228470Y0394769D01*
X0230069Y0393171D02*
X0218929Y0393171D01*
X0218929Y0391572D02*
X0231667Y0391572D01*
X0233266Y0389974D02*
X0218371Y0389974D01*
X0217016Y0388375D02*
X0234864Y0388375D01*
X0189548Y0103840D02*
X0176817Y0103840D01*
X0176817Y0102242D02*
X0187851Y0102242D01*
X0186253Y0100643D02*
X0176817Y0100643D01*
X0176817Y0099045D02*
X0184654Y0099045D01*
X0183056Y0097446D02*
X0176817Y0097446D01*
X0176297Y0095848D02*
X0181457Y0095848D01*
X0186180Y0092651D02*
X0201035Y0092651D01*
X0200844Y0091052D02*
X0184581Y0091052D01*
X0182885Y0089454D02*
X0200417Y0089454D01*
X0200417Y0087855D02*
X0176817Y0087855D01*
X0176817Y0086257D02*
X0200417Y0086257D01*
X0200417Y0084658D02*
X0176817Y0084658D01*
X0176817Y0083060D02*
X0200417Y0083060D01*
X0200417Y0094249D02*
X0187778Y0094249D01*
X0189377Y0095848D02*
X0200417Y0095848D01*
X0200417Y0097446D02*
X0190975Y0097446D01*
X0205317Y0098197D02*
X0208617Y0098197D01*
X0208617Y0098182D01*
X0222003Y0084796D01*
X0222003Y0061568D01*
X0249562Y0034009D01*
X0251568Y0039900D02*
X0291880Y0039900D01*
X0291880Y0041498D02*
X0249969Y0041498D01*
X0248371Y0043097D02*
X0291880Y0043097D01*
X0291880Y0044695D02*
X0246772Y0044695D01*
X0245174Y0046294D02*
X0291880Y0046294D01*
X0291880Y0047893D02*
X0244692Y0047893D01*
X0245177Y0049491D02*
X0291880Y0049491D01*
X0291880Y0038301D02*
X0264544Y0038301D01*
X0266143Y0036703D02*
X0291880Y0036703D01*
X0235810Y0095848D02*
X0232027Y0095848D01*
X0233814Y0081253D02*
X0233814Y0073379D01*
X0218066Y0061568D02*
X0218066Y0060820D01*
X0208159Y0095097D02*
X0205317Y0095097D01*
X0164817Y0084658D02*
X0155970Y0084658D01*
X0158102Y0083060D02*
X0164817Y0083060D01*
X0163811Y0081461D02*
X0158563Y0081461D01*
X0158275Y0079863D02*
X0162212Y0079863D01*
X0160614Y0078264D02*
X0157874Y0078264D01*
X0157874Y0076666D02*
X0159015Y0076666D01*
X0155074Y0073379D02*
X0155074Y0081253D01*
D27*
X0155074Y0081253D03*
X0160980Y0083221D03*
X0155074Y0073379D03*
X0147200Y0081253D03*
X0151137Y0093064D03*
X0159011Y0093064D03*
X0182633Y0100938D03*
X0182633Y0085190D03*
X0194444Y0097001D03*
X0225940Y0104875D03*
X0229877Y0093064D03*
X0233814Y0081253D03*
X0233814Y0073379D03*
X0241688Y0049757D03*
X0233814Y0128497D03*
X0233814Y0144245D03*
X0233814Y0152119D03*
X0225940Y0175741D03*
X0241688Y0175741D03*
X0233814Y0199363D03*
X0233814Y0215111D03*
X0233814Y0222985D03*
X0225940Y0246607D03*
X0241688Y0246607D03*
X0233814Y0270229D03*
X0233814Y0285977D03*
X0233814Y0293851D03*
X0225940Y0329284D03*
X0233814Y0341095D03*
X0241688Y0329284D03*
X0233814Y0356843D03*
X0190507Y0329284D03*
X0159011Y0317473D03*
X0147200Y0317473D03*
X0155074Y0341095D03*
X0155074Y0356843D03*
X0119641Y0313536D03*
X0115704Y0333221D03*
X0111767Y0345032D03*
X0108672Y0352906D03*
X0107830Y0360803D03*
X0099956Y0333221D03*
X0096019Y0313536D03*
X0076334Y0293851D03*
X0076334Y0285977D03*
X0076334Y0270229D03*
X0116349Y0282040D03*
X0113790Y0289936D03*
X0119641Y0274166D03*
X0147200Y0246607D03*
X0155074Y0222985D03*
X0155074Y0215111D03*
X0155074Y0199363D03*
X0143263Y0175741D03*
X0151137Y0171804D03*
X0143189Y0163856D03*
X0135389Y0167867D03*
X0127515Y0167867D03*
X0127515Y0163930D03*
X0127515Y0171804D03*
X0127515Y0175741D03*
X0121467Y0148204D03*
X0119641Y0140308D03*
X0116349Y0132434D03*
X0103893Y0108812D03*
X0096019Y0104875D03*
X0092082Y0097001D03*
X0076334Y0081253D03*
X0076334Y0073379D03*
X0088145Y0061568D03*
X0099956Y0069442D03*
X0111767Y0077338D03*
X0119641Y0100938D03*
X0155074Y0128497D03*
X0155074Y0144245D03*
X0155074Y0152119D03*
X0131452Y0203300D03*
X0124026Y0211174D03*
X0121467Y0219070D03*
X0099956Y0191489D03*
X0076334Y0199363D03*
X0076334Y0215111D03*
X0076334Y0222985D03*
X0076334Y0152119D03*
X0076334Y0144245D03*
X0076334Y0128497D03*
X0155074Y0270229D03*
X0155074Y0285977D03*
X0155074Y0293851D03*
X0076334Y0341095D03*
X0076334Y0356843D03*
X0312554Y0356843D03*
M02*
