G75*
%MOIN*%
%OFA0B0*%
%FSLAX25Y25*%
%IPPOS*%
%LPD*%
%AMOC8*
5,1,8,0,0,1.08239X$1,22.5*
%
%ADD10OC8,0.10800*%
%ADD11R,0.04737X0.06312*%
%ADD12R,0.06312X0.04737*%
%ADD13R,0.07898X0.07099*%
%ADD14C,0.06800*%
%ADD15R,0.02178X0.06706*%
%ADD16R,0.01981X0.06706*%
%ADD17R,0.08400X0.15800*%
%ADD18R,0.06400X0.03600*%
%ADD19R,0.07690X0.02375*%
%ADD20R,0.10800X0.10800*%
%ADD21R,0.09800X0.09800*%
%ADD22R,0.06600X0.02800*%
%ADD23R,0.02800X0.06600*%
%ADD24R,0.07099X0.07887*%
%ADD25R,0.07887X0.07099*%
%ADD26C,0.03778*%
D10*
X0328302Y0120623D03*
X0328302Y0144245D03*
D11*
X0299208Y0097001D03*
X0291728Y0097001D03*
X0295468Y0088340D03*
D12*
X0304287Y0360977D03*
X0304287Y0368458D03*
X0312948Y0364717D03*
X0234208Y0364717D03*
X0225547Y0360977D03*
X0225547Y0368458D03*
X0155468Y0364717D03*
X0146806Y0360977D03*
X0146806Y0368458D03*
X0076728Y0364717D03*
X0068066Y0360977D03*
X0068066Y0368458D03*
D13*
X0068460Y0350631D03*
X0068460Y0339434D03*
X0147200Y0339434D03*
X0147200Y0350631D03*
X0225940Y0350631D03*
X0225940Y0339434D03*
X0304680Y0339434D03*
X0304680Y0350631D03*
X0083421Y0180395D03*
X0083421Y0169198D03*
D14*
X0053145Y0029135D02*
X0053145Y0023135D01*
X0063145Y0023135D02*
X0063145Y0029135D01*
X0073145Y0029135D02*
X0073145Y0023135D01*
X0083145Y0023135D02*
X0083145Y0029135D01*
X0093145Y0029135D02*
X0093145Y0023135D01*
X0103145Y0023135D02*
X0103145Y0029135D01*
X0113145Y0029135D02*
X0113145Y0023135D01*
X0123145Y0023135D02*
X0123145Y0029135D01*
X0137948Y0029135D02*
X0137948Y0023135D01*
X0147948Y0023135D02*
X0147948Y0029135D01*
X0157948Y0029135D02*
X0157948Y0023135D01*
X0167948Y0023135D02*
X0167948Y0029135D01*
X0177948Y0029135D02*
X0177948Y0023135D01*
X0187948Y0023135D02*
X0187948Y0029135D01*
X0202751Y0029135D02*
X0202751Y0023135D01*
X0212751Y0023135D02*
X0212751Y0029135D01*
X0222751Y0029135D02*
X0222751Y0023135D01*
X0232751Y0023135D02*
X0232751Y0029135D01*
X0242751Y0029135D02*
X0242751Y0023135D01*
X0252751Y0023135D02*
X0252751Y0029135D01*
X0262751Y0029135D02*
X0262751Y0023135D01*
X0272751Y0023135D02*
X0272751Y0029135D01*
X0294680Y0029135D02*
X0294680Y0023135D01*
X0304680Y0023135D02*
X0304680Y0029135D01*
X0314680Y0029135D02*
X0314680Y0023135D01*
D15*
X0123696Y0158930D03*
X0121137Y0158930D03*
X0118578Y0158930D03*
X0116019Y0158930D03*
X0113460Y0158930D03*
X0110901Y0158930D03*
X0108342Y0158930D03*
X0105783Y0158930D03*
X0103224Y0158930D03*
X0100665Y0158930D03*
X0098106Y0158930D03*
X0095547Y0158930D03*
X0095547Y0182552D03*
X0098106Y0182552D03*
X0100665Y0182552D03*
X0103224Y0182552D03*
X0105783Y0182552D03*
X0108342Y0182552D03*
X0110901Y0182552D03*
X0113460Y0182552D03*
X0116019Y0182552D03*
X0118578Y0182552D03*
X0121137Y0182552D03*
D16*
X0123696Y0182552D03*
D17*
X0241610Y0092080D03*
D18*
X0263263Y0092080D03*
X0263263Y0101135D03*
X0263263Y0083025D03*
D19*
X0318361Y0074560D03*
X0318361Y0072001D03*
X0318361Y0069442D03*
X0318361Y0066883D03*
X0318361Y0064324D03*
D20*
X0329484Y0054777D03*
X0329484Y0084107D03*
D21*
X0316176Y0084442D03*
X0316176Y0054442D03*
D22*
X0205317Y0082497D03*
X0205317Y0085597D03*
X0205317Y0088797D03*
X0205317Y0091897D03*
X0205317Y0095097D03*
X0205317Y0098197D03*
X0205317Y0101397D03*
X0205317Y0104497D03*
X0171917Y0104497D03*
X0171917Y0101397D03*
X0171917Y0098197D03*
X0171917Y0095097D03*
X0171917Y0091897D03*
X0171917Y0088797D03*
X0171917Y0085597D03*
X0171917Y0082497D03*
D23*
X0177617Y0076797D03*
X0180717Y0076797D03*
X0183917Y0076797D03*
X0187017Y0076797D03*
X0190217Y0076797D03*
X0193317Y0076797D03*
X0196517Y0076797D03*
X0199617Y0076797D03*
X0199617Y0110197D03*
X0196517Y0110197D03*
X0193317Y0110197D03*
X0190217Y0110197D03*
X0187017Y0110197D03*
X0183917Y0110197D03*
X0180717Y0110197D03*
X0177617Y0110197D03*
D24*
X0244050Y0108812D03*
X0255074Y0108812D03*
D25*
X0277121Y0098576D03*
X0277121Y0087552D03*
D26*
X0241688Y0049757D03*
X0233814Y0073379D03*
X0233814Y0081253D03*
X0229877Y0093064D03*
X0225940Y0104875D03*
X0233814Y0128497D03*
X0233814Y0144245D03*
X0233814Y0152119D03*
X0225940Y0175741D03*
X0241688Y0175741D03*
X0233814Y0199363D03*
X0233814Y0215111D03*
X0233814Y0222985D03*
X0225940Y0246607D03*
X0241688Y0246607D03*
X0233814Y0270229D03*
X0233814Y0285977D03*
X0233814Y0293851D03*
X0225940Y0329284D03*
X0233814Y0341095D03*
X0241688Y0329284D03*
X0233814Y0356843D03*
X0190507Y0329284D03*
X0159011Y0317473D03*
X0147200Y0317473D03*
X0155074Y0341095D03*
X0155074Y0356843D03*
X0119641Y0313536D03*
X0115704Y0333221D03*
X0111767Y0345032D03*
X0108672Y0352906D03*
X0107830Y0360803D03*
X0099956Y0333221D03*
X0096019Y0313536D03*
X0076334Y0293851D03*
X0076334Y0285977D03*
X0076334Y0270229D03*
X0116349Y0282040D03*
X0113790Y0289936D03*
X0119641Y0274166D03*
X0147200Y0246607D03*
X0155074Y0222985D03*
X0155074Y0215111D03*
X0155074Y0199363D03*
X0143263Y0175741D03*
X0151137Y0171804D03*
X0143189Y0163856D03*
X0135389Y0167867D03*
X0127515Y0167867D03*
X0127515Y0163930D03*
X0127515Y0171804D03*
X0127515Y0175741D03*
X0121467Y0148204D03*
X0119641Y0140308D03*
X0116349Y0132434D03*
X0103893Y0108812D03*
X0096019Y0104875D03*
X0092082Y0097001D03*
X0076334Y0081253D03*
X0076334Y0073379D03*
X0088145Y0061568D03*
X0099956Y0069442D03*
X0111767Y0077338D03*
X0119641Y0100938D03*
X0147200Y0081253D03*
X0155074Y0081253D03*
X0160980Y0083221D03*
X0155074Y0073379D03*
X0151137Y0093064D03*
X0159011Y0093064D03*
X0182633Y0100938D03*
X0182633Y0085190D03*
X0194444Y0097001D03*
X0155074Y0128497D03*
X0155074Y0144245D03*
X0155074Y0152119D03*
X0131452Y0203300D03*
X0124026Y0211174D03*
X0121467Y0219070D03*
X0099956Y0191489D03*
X0076334Y0199363D03*
X0076334Y0215111D03*
X0076334Y0222985D03*
X0076334Y0152119D03*
X0076334Y0144245D03*
X0076334Y0128497D03*
X0155074Y0270229D03*
X0155074Y0285977D03*
X0155074Y0293851D03*
X0076334Y0341095D03*
X0076334Y0356843D03*
X0312554Y0356843D03*
M02*
