%
M48
M72
T01C0.01378
T02C0.04000
T03C0.04400
T04C0.04724
%
T01
X76334Y73379
X76334Y81253
X92082Y97001
X96019Y104875
X103893Y108812
X119641Y100938
X111767Y77338
X99956Y69442
X88145Y61568
X147200Y81253
X155074Y81253
X160980Y83221
X155074Y73379
X151137Y93064
X159011Y93064
X182633Y100938
X182633Y85190
X194444Y97001
X225940Y104875
X229877Y93064
X233814Y81253
X233814Y73379
X241688Y49757
X233814Y128497
X233814Y144245
X233814Y152119
X225940Y175741
X241688Y175741
X233814Y199363
X233814Y215111
X233814Y222985
X225940Y246607
X241688Y246607
X233814Y270229
X233814Y285977
X233814Y293851
X225940Y329284
X233814Y341095
X241688Y329284
X233814Y356843
X190507Y329284
X159011Y317473
X147200Y317473
X155074Y341095
X155074Y356843
X119641Y313536
X115704Y333221
X111767Y345032
X108672Y352906
X107830Y360803
X99956Y333221
X96019Y313536
X76334Y293851
X76334Y285977
X76334Y270229
X116349Y282040
X113790Y289936
X119641Y274166
X147200Y246607
X155074Y222985
X155074Y215111
X155074Y199363
X143263Y175741
X151137Y171804
X143189Y163856
X135389Y167867
X127515Y167867
X127515Y163930
X127515Y171804
X127515Y175741
X121467Y148204
X119641Y140308
X116349Y132434
X155074Y128497
X155074Y144245
X155074Y152119
X131452Y203300
X124026Y211174
X121467Y219070
X99956Y191489
X76334Y199363
X76334Y215111
X76334Y222985
X76334Y152119
X76334Y144245
X76334Y128497
X155074Y270229
X155074Y285977
X155074Y293851
X76334Y341095
X76334Y356843
X312554Y356843
T02
X53145Y26135
X63145Y26135
X73145Y26135
X83145Y26135
X93145Y26135
X103145Y26135
X113145Y26135
X123145Y26135
X137948Y26135
X147948Y26135
X157948Y26135
X167948Y26135
X177948Y26135
X187948Y26135
X202751Y26135
X212751Y26135
X222751Y26135
X232751Y26135
X242751Y26135
X252751Y26135
X262751Y26135
X272751Y26135
X294680Y26135
X304680Y26135
X314680Y26135
T03
X328302Y120623
X328302Y144245
T04
X329484Y84107
X329484Y54777
M30
