G75*
%MOIN*%
%OFA0B0*%
%FSLAX25Y25*%
%IPPOS*%
%LPD*%
%AMOC8*
5,1,8,0,0,1.08239X$1,22.5*
%
%ADD10OC8,0.10800*%
%ADD11C,0.06800*%
%ADD12R,0.06706X0.04343*%
%ADD13R,0.10800X0.10800*%
%ADD14C,0.03778*%
D10*
X0328302Y0120623D03*
X0328302Y0144245D03*
D11*
X0053145Y0029135D02*
X0053145Y0023135D01*
X0063145Y0023135D02*
X0063145Y0029135D01*
X0073145Y0029135D02*
X0073145Y0023135D01*
X0083145Y0023135D02*
X0083145Y0029135D01*
X0093145Y0029135D02*
X0093145Y0023135D01*
X0103145Y0023135D02*
X0103145Y0029135D01*
X0113145Y0029135D02*
X0113145Y0023135D01*
X0123145Y0023135D02*
X0123145Y0029135D01*
X0137948Y0029135D02*
X0137948Y0023135D01*
X0147948Y0023135D02*
X0147948Y0029135D01*
X0157948Y0029135D02*
X0157948Y0023135D01*
X0167948Y0023135D02*
X0167948Y0029135D01*
X0177948Y0029135D02*
X0177948Y0023135D01*
X0187948Y0023135D02*
X0187948Y0029135D01*
X0202751Y0029135D02*
X0202751Y0023135D01*
X0212751Y0023135D02*
X0212751Y0029135D01*
X0222751Y0029135D02*
X0222751Y0023135D01*
X0232751Y0023135D02*
X0232751Y0029135D01*
X0242751Y0029135D02*
X0242751Y0023135D01*
X0252751Y0023135D02*
X0252751Y0029135D01*
X0262751Y0029135D02*
X0262751Y0023135D01*
X0272751Y0023135D02*
X0272751Y0029135D01*
X0294680Y0029135D02*
X0294680Y0023135D01*
X0304680Y0023135D02*
X0304680Y0029135D01*
X0314680Y0029135D02*
X0314680Y0023135D01*
D12*
X0306649Y0065111D03*
X0306649Y0074166D03*
X0294444Y0074166D03*
X0294444Y0065111D03*
X0294444Y0135977D03*
X0294444Y0145032D03*
X0306649Y0145032D03*
X0306649Y0135977D03*
X0306649Y0206843D03*
X0306649Y0215899D03*
X0294444Y0215899D03*
X0294444Y0206843D03*
X0294444Y0277710D03*
X0294444Y0286765D03*
X0306649Y0286765D03*
X0306649Y0277710D03*
X0306649Y0348576D03*
X0306649Y0357631D03*
X0294444Y0357631D03*
X0294444Y0348576D03*
X0227909Y0348576D03*
X0227909Y0357631D03*
X0215704Y0357631D03*
X0215704Y0348576D03*
X0215704Y0286765D03*
X0215704Y0277710D03*
X0227909Y0277710D03*
X0227909Y0286765D03*
X0227909Y0215899D03*
X0227909Y0206843D03*
X0215704Y0206843D03*
X0215704Y0215899D03*
X0215704Y0145032D03*
X0215704Y0135977D03*
X0227909Y0135977D03*
X0227909Y0145032D03*
X0227909Y0074166D03*
X0227909Y0065111D03*
X0215704Y0065111D03*
X0215704Y0074166D03*
X0149169Y0074166D03*
X0149169Y0065111D03*
X0136964Y0065111D03*
X0136964Y0074166D03*
X0136964Y0135977D03*
X0136964Y0145032D03*
X0149169Y0145032D03*
X0149169Y0135977D03*
X0149169Y0206843D03*
X0149169Y0215899D03*
X0136964Y0215899D03*
X0136964Y0206843D03*
X0136964Y0277710D03*
X0136964Y0286765D03*
X0149169Y0286765D03*
X0149169Y0277710D03*
X0149169Y0348576D03*
X0149169Y0357631D03*
X0136964Y0357631D03*
X0136964Y0348576D03*
X0070428Y0348576D03*
X0070428Y0357631D03*
X0058224Y0357631D03*
X0058224Y0348576D03*
X0058224Y0286765D03*
X0058224Y0277710D03*
X0070428Y0277710D03*
X0070428Y0286765D03*
X0070428Y0215899D03*
X0070428Y0206843D03*
X0058224Y0206843D03*
X0058224Y0215899D03*
X0058224Y0145032D03*
X0058224Y0135977D03*
X0070428Y0135977D03*
X0070428Y0145032D03*
X0070428Y0074166D03*
X0070428Y0065111D03*
X0058224Y0065111D03*
X0058224Y0074166D03*
D13*
X0329484Y0084107D03*
X0329484Y0054777D03*
D14*
X0241688Y0049757D03*
X0233814Y0073379D03*
X0233814Y0081253D03*
X0229877Y0093064D03*
X0225940Y0104875D03*
X0233814Y0128497D03*
X0233814Y0144245D03*
X0233814Y0152119D03*
X0225940Y0175741D03*
X0241688Y0175741D03*
X0233814Y0199363D03*
X0233814Y0215111D03*
X0233814Y0222985D03*
X0225940Y0246607D03*
X0241688Y0246607D03*
X0233814Y0270229D03*
X0233814Y0285977D03*
X0233814Y0293851D03*
X0225940Y0329284D03*
X0233814Y0341095D03*
X0241688Y0329284D03*
X0233814Y0356843D03*
X0190507Y0329284D03*
X0159011Y0317473D03*
X0147200Y0317473D03*
X0155074Y0341095D03*
X0155074Y0356843D03*
X0119641Y0313536D03*
X0115704Y0333221D03*
X0111767Y0345032D03*
X0108672Y0352906D03*
X0107830Y0360803D03*
X0099956Y0333221D03*
X0096019Y0313536D03*
X0076334Y0293851D03*
X0076334Y0285977D03*
X0076334Y0270229D03*
X0116349Y0282040D03*
X0113790Y0289936D03*
X0119641Y0274166D03*
X0147200Y0246607D03*
X0155074Y0222985D03*
X0155074Y0215111D03*
X0155074Y0199363D03*
X0143263Y0175741D03*
X0151137Y0171804D03*
X0143189Y0163856D03*
X0135389Y0167867D03*
X0127515Y0167867D03*
X0127515Y0163930D03*
X0127515Y0171804D03*
X0127515Y0175741D03*
X0121467Y0148204D03*
X0119641Y0140308D03*
X0116349Y0132434D03*
X0103893Y0108812D03*
X0096019Y0104875D03*
X0092082Y0097001D03*
X0076334Y0081253D03*
X0076334Y0073379D03*
X0088145Y0061568D03*
X0099956Y0069442D03*
X0111767Y0077338D03*
X0119641Y0100938D03*
X0147200Y0081253D03*
X0155074Y0081253D03*
X0160980Y0083221D03*
X0155074Y0073379D03*
X0151137Y0093064D03*
X0159011Y0093064D03*
X0182633Y0100938D03*
X0182633Y0085190D03*
X0194444Y0097001D03*
X0155074Y0128497D03*
X0155074Y0144245D03*
X0155074Y0152119D03*
X0131452Y0203300D03*
X0124026Y0211174D03*
X0121467Y0219070D03*
X0099956Y0191489D03*
X0076334Y0199363D03*
X0076334Y0215111D03*
X0076334Y0222985D03*
X0076334Y0152119D03*
X0076334Y0144245D03*
X0076334Y0128497D03*
X0155074Y0270229D03*
X0155074Y0285977D03*
X0155074Y0293851D03*
X0076334Y0341095D03*
X0076334Y0356843D03*
X0312554Y0356843D03*
M02*
