G75*
%MOIN*%
%OFA0B0*%
%FSLAX25Y25*%
%IPPOS*%
%LPD*%
%AMOC8*
5,1,8,0,0,1.08239X$1,22.5*
%
%ADD10OC8,0.10000*%
%ADD11C,0.06000*%
%ADD12OC8,0.10050*%
%ADD13C,0.02978*%
%ADD14C,0.01200*%
%ADD15C,0.00600*%
D10*
X0229346Y0127705D03*
X0229346Y0143453D03*
D11*
X0209228Y0142421D02*
X0209228Y0148421D01*
X0199228Y0148421D02*
X0199228Y0142421D01*
X0199228Y0134642D02*
X0199228Y0128642D01*
X0209228Y0128642D02*
X0209228Y0134642D01*
X0189228Y0134642D02*
X0189228Y0128642D01*
X0179228Y0128642D02*
X0179228Y0134642D01*
X0169228Y0134642D02*
X0169228Y0128642D01*
X0159228Y0128642D02*
X0159228Y0134642D01*
X0149228Y0134642D02*
X0149228Y0128642D01*
X0139228Y0128642D02*
X0139228Y0134642D01*
X0139228Y0142421D02*
X0139228Y0148421D01*
X0149228Y0148421D02*
X0149228Y0142421D01*
X0159228Y0142421D02*
X0159228Y0148421D01*
X0169228Y0148421D02*
X0169228Y0142421D01*
X0179228Y0142421D02*
X0179228Y0148421D01*
X0189228Y0148421D02*
X0189228Y0142421D01*
X0119425Y0144390D02*
X0119425Y0150390D01*
X0109425Y0150390D02*
X0109425Y0144390D01*
X0099425Y0144390D02*
X0099425Y0150390D01*
X0089425Y0150390D02*
X0089425Y0144390D01*
X0079425Y0144390D02*
X0079425Y0150390D01*
D12*
X0229346Y0111957D03*
X0229346Y0100146D03*
X0229346Y0088335D03*
X0229346Y0076524D03*
X0229346Y0064713D03*
D13*
X0205724Y0056839D03*
X0221472Y0045028D03*
X0217535Y0037154D03*
X0205724Y0023374D03*
X0142732Y0029280D03*
X0142732Y0033134D03*
X0126984Y0041091D03*
X0115173Y0048965D03*
X0121079Y0052902D03*
X0125016Y0056839D03*
X0115173Y0033217D03*
X0081709Y0026330D03*
X0060055Y0025343D03*
X0056766Y0039198D03*
X0040370Y0037154D03*
X0123047Y0100146D03*
X0119110Y0104083D03*
X0113205Y0108020D03*
X0111236Y0111957D03*
X0123047Y0111957D03*
X0134728Y0115763D03*
X0150606Y0111957D03*
X0164386Y0121153D03*
X0142732Y0099305D03*
X0154543Y0096209D03*
X0162417Y0088335D03*
X0154543Y0080461D03*
X0162417Y0072587D03*
X0193913Y0072587D03*
X0202176Y0076524D03*
X0200577Y0092272D03*
X0201787Y0102114D03*
X0197850Y0104083D03*
X0202295Y0107512D03*
X0213598Y0100146D03*
X0204822Y0118765D03*
X0197850Y0119831D03*
X0056118Y0142969D03*
X0040370Y0141484D03*
D14*
X0017411Y0053817D02*
X0017411Y0006320D01*
X0236557Y0006320D01*
X0236557Y0158538D01*
X0017411Y0158538D01*
X0017411Y0111042D01*
X0016711Y0109351D01*
X0012811Y0105451D01*
X0012811Y0100959D01*
X0013756Y0100959D01*
X0015502Y0100236D01*
X0016838Y0098899D01*
X0017561Y0097153D01*
X0017561Y0067705D01*
X0016838Y0065959D01*
X0015502Y0064623D01*
X0013756Y0063900D01*
X0012811Y0063900D01*
X0012811Y0059407D01*
X0015417Y0056801D01*
X0016711Y0055507D01*
X0017411Y0053817D01*
X0017411Y0053256D02*
X0117990Y0053256D01*
X0117990Y0053516D02*
X0117990Y0052287D01*
X0118455Y0051165D01*
X0117342Y0051165D01*
X0116923Y0051583D01*
X0115788Y0052054D01*
X0114559Y0052054D01*
X0113423Y0051583D01*
X0112555Y0050714D01*
X0112084Y0049579D01*
X0112084Y0048350D01*
X0112555Y0047215D01*
X0113423Y0046346D01*
X0114559Y0045876D01*
X0115788Y0045876D01*
X0116923Y0046346D01*
X0117342Y0046765D01*
X0187211Y0046765D01*
X0171926Y0031480D01*
X0144901Y0031480D01*
X0144482Y0031898D01*
X0143347Y0032368D01*
X0142118Y0032368D01*
X0140983Y0031898D01*
X0140114Y0031029D01*
X0139643Y0029894D01*
X0139643Y0028665D01*
X0140114Y0027530D01*
X0140983Y0026661D01*
X0142118Y0026191D01*
X0143347Y0026191D01*
X0144482Y0026661D01*
X0144901Y0027080D01*
X0173748Y0027080D01*
X0175037Y0028368D01*
X0202711Y0056042D01*
X0203106Y0055089D01*
X0203975Y0054220D01*
X0205110Y0053750D01*
X0205702Y0053750D01*
X0215335Y0044116D01*
X0216624Y0042828D01*
X0219304Y0042828D01*
X0219723Y0042409D01*
X0220858Y0041939D01*
X0222087Y0041939D01*
X0223222Y0042409D01*
X0224091Y0043278D01*
X0224561Y0044413D01*
X0224561Y0045642D01*
X0224091Y0046777D01*
X0223222Y0047646D01*
X0222087Y0048117D01*
X0220858Y0048117D01*
X0219723Y0047646D01*
X0219304Y0047228D01*
X0218447Y0047228D01*
X0208813Y0056861D01*
X0208813Y0057453D01*
X0208343Y0058588D01*
X0207474Y0059457D01*
X0206521Y0059852D01*
X0220992Y0074324D01*
X0222721Y0074324D01*
X0222721Y0073779D01*
X0225883Y0070618D01*
X0222721Y0067457D01*
X0222721Y0065313D01*
X0228746Y0065313D01*
X0228746Y0064113D01*
X0222721Y0064113D01*
X0222721Y0061968D01*
X0226602Y0058088D01*
X0228746Y0058088D01*
X0228746Y0064113D01*
X0229946Y0064113D01*
X0229946Y0058088D01*
X0232091Y0058088D01*
X0235971Y0061968D01*
X0235971Y0064113D01*
X0229947Y0064113D01*
X0229947Y0065313D01*
X0235971Y0065313D01*
X0235971Y0067457D01*
X0232810Y0070618D01*
X0235971Y0073779D01*
X0235971Y0079268D01*
X0232810Y0082429D01*
X0235971Y0085590D01*
X0235971Y0091079D01*
X0232810Y0094240D01*
X0235971Y0097402D01*
X0235971Y0102890D01*
X0232810Y0106051D01*
X0235971Y0109213D01*
X0235971Y0114701D01*
X0232091Y0118582D01*
X0226602Y0118582D01*
X0222721Y0114701D01*
X0222721Y0109213D01*
X0223106Y0108828D01*
X0216196Y0101917D01*
X0215348Y0102764D01*
X0214213Y0103235D01*
X0212984Y0103235D01*
X0211849Y0102764D01*
X0210980Y0101895D01*
X0210509Y0100760D01*
X0210509Y0100168D01*
X0204813Y0094472D01*
X0202746Y0094472D01*
X0202327Y0094890D01*
X0201192Y0095361D01*
X0199963Y0095361D01*
X0198828Y0094890D01*
X0197959Y0094021D01*
X0197488Y0092886D01*
X0197488Y0091657D01*
X0197959Y0090522D01*
X0198828Y0089653D01*
X0199963Y0089183D01*
X0201192Y0089183D01*
X0202327Y0089653D01*
X0202746Y0090072D01*
X0204350Y0090072D01*
X0169380Y0055102D01*
X0123247Y0055102D01*
X0122828Y0055520D01*
X0121693Y0055991D01*
X0120464Y0055991D01*
X0119329Y0055520D01*
X0118460Y0054651D01*
X0117990Y0053516D01*
X0118379Y0054455D02*
X0017147Y0054455D01*
X0016564Y0055653D02*
X0119651Y0055653D01*
X0117996Y0055591D02*
X0112484Y0050078D01*
X0112484Y0047851D01*
X0115173Y0045162D01*
X0115173Y0033217D01*
X0115256Y0033134D01*
X0123047Y0033134D01*
X0126984Y0037071D01*
X0126984Y0041091D01*
X0123047Y0033134D02*
X0142732Y0033134D01*
X0140768Y0031683D02*
X0017411Y0031683D01*
X0017411Y0030485D02*
X0139888Y0030485D01*
X0139643Y0029286D02*
X0017411Y0029286D01*
X0017411Y0028088D02*
X0139882Y0028088D01*
X0140754Y0026889D02*
X0017411Y0026889D01*
X0017411Y0025691D02*
X0236557Y0025691D01*
X0236557Y0026889D02*
X0144710Y0026889D01*
X0142732Y0029280D02*
X0172837Y0029280D01*
X0220081Y0076524D01*
X0229346Y0076524D01*
X0235971Y0076028D02*
X0236557Y0076028D01*
X0236557Y0074830D02*
X0235971Y0074830D01*
X0235823Y0073631D02*
X0236557Y0073631D01*
X0236557Y0072433D02*
X0234625Y0072433D01*
X0233426Y0071234D02*
X0236557Y0071234D01*
X0236557Y0070036D02*
X0233393Y0070036D01*
X0234591Y0068837D02*
X0236557Y0068837D01*
X0236557Y0067639D02*
X0235790Y0067639D01*
X0235971Y0066440D02*
X0236557Y0066440D01*
X0236557Y0065242D02*
X0229947Y0065242D01*
X0229946Y0064043D02*
X0228746Y0064043D01*
X0228746Y0062845D02*
X0229946Y0062845D01*
X0229946Y0061646D02*
X0228746Y0061646D01*
X0228746Y0060448D02*
X0229946Y0060448D01*
X0229946Y0059249D02*
X0228746Y0059249D01*
X0225441Y0059249D02*
X0207682Y0059249D01*
X0207116Y0060448D02*
X0224242Y0060448D01*
X0223044Y0061646D02*
X0208315Y0061646D01*
X0209513Y0062845D02*
X0222721Y0062845D01*
X0222721Y0064043D02*
X0210712Y0064043D01*
X0211910Y0065242D02*
X0228746Y0065242D01*
X0224102Y0068837D02*
X0215506Y0068837D01*
X0216704Y0070036D02*
X0225300Y0070036D01*
X0225267Y0071234D02*
X0217903Y0071234D01*
X0219101Y0072433D02*
X0224068Y0072433D01*
X0222870Y0073631D02*
X0220300Y0073631D01*
X0215127Y0077227D02*
X0197728Y0077227D01*
X0197850Y0076524D02*
X0202176Y0076524D01*
X0200125Y0079624D02*
X0217524Y0079624D01*
X0218723Y0080822D02*
X0201323Y0080822D01*
X0202522Y0082021D02*
X0219921Y0082021D01*
X0221120Y0083219D02*
X0203720Y0083219D01*
X0204919Y0084418D02*
X0222318Y0084418D01*
X0223106Y0085206D02*
X0189065Y0051165D01*
X0171666Y0051165D01*
X0172491Y0051990D01*
X0222721Y0102220D01*
X0222721Y0097402D01*
X0225883Y0094240D01*
X0222721Y0091079D01*
X0222721Y0085590D01*
X0223106Y0085206D01*
X0222721Y0085616D02*
X0206117Y0085616D01*
X0207316Y0086815D02*
X0222721Y0086815D01*
X0222721Y0088013D02*
X0208514Y0088013D01*
X0209713Y0089212D02*
X0222721Y0089212D01*
X0222721Y0090410D02*
X0210911Y0090410D01*
X0212110Y0091609D02*
X0223251Y0091609D01*
X0224450Y0092807D02*
X0213308Y0092807D01*
X0214507Y0094006D02*
X0225648Y0094006D01*
X0224919Y0095204D02*
X0215705Y0095204D01*
X0216904Y0096403D02*
X0223720Y0096403D01*
X0222721Y0097601D02*
X0218102Y0097601D01*
X0219301Y0098800D02*
X0222721Y0098800D01*
X0222721Y0099998D02*
X0220499Y0099998D01*
X0221698Y0101197D02*
X0222721Y0101197D01*
X0219071Y0104792D02*
X0203800Y0104792D01*
X0203572Y0104698D02*
X0204045Y0104894D01*
X0204913Y0105763D01*
X0205384Y0106898D01*
X0205384Y0108127D01*
X0204913Y0109262D01*
X0204045Y0110131D01*
X0202909Y0110601D01*
X0201680Y0110601D01*
X0200545Y0110131D01*
X0199826Y0109412D01*
X0198156Y0109412D01*
X0204420Y0115676D01*
X0205436Y0115676D01*
X0206571Y0116146D01*
X0207440Y0117015D01*
X0207911Y0118150D01*
X0207911Y0119379D01*
X0207440Y0120515D01*
X0206571Y0121384D01*
X0205436Y0121854D01*
X0204207Y0121854D01*
X0203072Y0121384D01*
X0202203Y0120515D01*
X0201733Y0119379D01*
X0201733Y0118363D01*
X0194838Y0111468D01*
X0153695Y0111468D01*
X0153695Y0112571D01*
X0153225Y0113706D01*
X0152356Y0114575D01*
X0151221Y0115046D01*
X0149992Y0115046D01*
X0148857Y0114575D01*
X0148438Y0114157D01*
X0125216Y0114157D01*
X0124797Y0114575D01*
X0123662Y0115046D01*
X0122433Y0115046D01*
X0121297Y0114575D01*
X0120517Y0113795D01*
X0120456Y0113857D01*
X0113705Y0113857D01*
X0112986Y0114575D01*
X0111851Y0115046D01*
X0110622Y0115046D01*
X0109486Y0114575D01*
X0108618Y0113706D01*
X0108147Y0112571D01*
X0108147Y0111342D01*
X0108618Y0110207D01*
X0109486Y0109338D01*
X0110272Y0109012D01*
X0110116Y0108634D01*
X0110116Y0107405D01*
X0110586Y0106270D01*
X0111455Y0105401D01*
X0112590Y0104931D01*
X0113819Y0104931D01*
X0114954Y0105401D01*
X0115166Y0105612D01*
X0116400Y0105612D01*
X0116021Y0104697D01*
X0116021Y0103468D01*
X0116492Y0102333D01*
X0117360Y0101464D01*
X0118496Y0100994D01*
X0119725Y0100994D01*
X0120123Y0101159D01*
X0119958Y0100760D01*
X0119958Y0099531D01*
X0120429Y0098396D01*
X0121297Y0097527D01*
X0122433Y0097057D01*
X0123662Y0097057D01*
X0124797Y0097527D01*
X0125666Y0098396D01*
X0126136Y0099531D01*
X0126136Y0099794D01*
X0199627Y0099794D01*
X0199683Y0099850D01*
X0200038Y0099495D01*
X0201173Y0099025D01*
X0202402Y0099025D01*
X0203537Y0099495D01*
X0204406Y0100364D01*
X0204876Y0101500D01*
X0204876Y0102729D01*
X0204406Y0103864D01*
X0203572Y0104698D01*
X0204518Y0103594D02*
X0217872Y0103594D01*
X0216674Y0102395D02*
X0215717Y0102395D01*
X0211480Y0102395D02*
X0204876Y0102395D01*
X0204751Y0101197D02*
X0210690Y0101197D01*
X0210340Y0099998D02*
X0204040Y0099998D01*
X0207943Y0097601D02*
X0157310Y0097601D01*
X0157162Y0097958D02*
X0156293Y0098827D01*
X0155158Y0099298D01*
X0153929Y0099298D01*
X0152794Y0098827D01*
X0151925Y0097958D01*
X0151454Y0096823D01*
X0151454Y0095594D01*
X0151925Y0094459D01*
X0152794Y0093590D01*
X0153929Y0093120D01*
X0154521Y0093120D01*
X0159328Y0088312D01*
X0159328Y0087720D01*
X0159799Y0086585D01*
X0160668Y0085716D01*
X0161803Y0085246D01*
X0163032Y0085246D01*
X0164167Y0085716D01*
X0165036Y0086585D01*
X0165506Y0087720D01*
X0165506Y0088949D01*
X0165036Y0090084D01*
X0164167Y0090953D01*
X0163032Y0091424D01*
X0162440Y0091424D01*
X0157632Y0096231D01*
X0157632Y0096823D01*
X0157162Y0097958D01*
X0156321Y0098800D02*
X0209141Y0098800D01*
X0206744Y0096403D02*
X0157632Y0096403D01*
X0158659Y0095204D02*
X0199586Y0095204D01*
X0201569Y0095204D02*
X0205546Y0095204D01*
X0205724Y0092272D02*
X0200577Y0092272D01*
X0197488Y0092807D02*
X0161056Y0092807D01*
X0162254Y0091609D02*
X0197508Y0091609D01*
X0198070Y0090410D02*
X0164710Y0090410D01*
X0165397Y0089212D02*
X0199893Y0089212D01*
X0201262Y0089212D02*
X0203490Y0089212D01*
X0202292Y0088013D02*
X0165506Y0088013D01*
X0165131Y0086815D02*
X0201093Y0086815D01*
X0199895Y0085616D02*
X0163926Y0085616D01*
X0160908Y0085616D02*
X0017561Y0085616D01*
X0017561Y0084418D02*
X0198696Y0084418D01*
X0197498Y0083219D02*
X0017561Y0083219D01*
X0017561Y0082021D02*
X0196299Y0082021D01*
X0195101Y0080822D02*
X0017561Y0080822D01*
X0017561Y0079624D02*
X0193902Y0079624D01*
X0192704Y0078425D02*
X0017561Y0078425D01*
X0017561Y0077227D02*
X0191505Y0077227D01*
X0190307Y0076028D02*
X0017561Y0076028D01*
X0017561Y0074830D02*
X0189108Y0074830D01*
X0187910Y0073631D02*
X0017561Y0073631D01*
X0017561Y0072433D02*
X0186711Y0072433D01*
X0185513Y0071234D02*
X0017561Y0071234D01*
X0017561Y0070036D02*
X0184314Y0070036D01*
X0183116Y0068837D02*
X0017561Y0068837D01*
X0017534Y0067639D02*
X0181917Y0067639D01*
X0180719Y0066440D02*
X0017037Y0066440D01*
X0016120Y0065242D02*
X0179520Y0065242D01*
X0178322Y0064043D02*
X0014102Y0064043D01*
X0012811Y0062845D02*
X0177123Y0062845D01*
X0175925Y0061646D02*
X0012811Y0061646D01*
X0012811Y0060448D02*
X0174726Y0060448D01*
X0173528Y0059249D02*
X0012969Y0059249D01*
X0014167Y0058051D02*
X0172329Y0058051D01*
X0171130Y0056852D02*
X0015366Y0056852D01*
X0017411Y0052058D02*
X0118085Y0052058D01*
X0121079Y0052902D02*
X0170291Y0052902D01*
X0229346Y0111957D01*
X0233948Y0107189D02*
X0236557Y0107189D01*
X0236557Y0105991D02*
X0232870Y0105991D01*
X0234069Y0104792D02*
X0236557Y0104792D01*
X0236557Y0103594D02*
X0235267Y0103594D01*
X0235971Y0102395D02*
X0236557Y0102395D01*
X0236557Y0101197D02*
X0235971Y0101197D01*
X0235971Y0099998D02*
X0236557Y0099998D01*
X0236557Y0098800D02*
X0235971Y0098800D01*
X0235971Y0097601D02*
X0236557Y0097601D01*
X0236557Y0096403D02*
X0234973Y0096403D01*
X0233774Y0095204D02*
X0236557Y0095204D01*
X0236557Y0094006D02*
X0233044Y0094006D01*
X0234243Y0092807D02*
X0236557Y0092807D01*
X0236557Y0091609D02*
X0235441Y0091609D01*
X0235971Y0090410D02*
X0236557Y0090410D01*
X0236557Y0089212D02*
X0235971Y0089212D01*
X0235971Y0088013D02*
X0236557Y0088013D01*
X0236557Y0086815D02*
X0235971Y0086815D01*
X0235971Y0085616D02*
X0236557Y0085616D01*
X0236557Y0084418D02*
X0234799Y0084418D01*
X0233600Y0083219D02*
X0236557Y0083219D01*
X0236557Y0082021D02*
X0233218Y0082021D01*
X0234417Y0080822D02*
X0236557Y0080822D01*
X0236557Y0079624D02*
X0235616Y0079624D01*
X0235971Y0078425D02*
X0236557Y0078425D01*
X0236557Y0077227D02*
X0235971Y0077227D01*
X0222903Y0067639D02*
X0214307Y0067639D01*
X0213109Y0066440D02*
X0222721Y0066440D01*
X0211532Y0073631D02*
X0194132Y0073631D01*
X0193913Y0072587D02*
X0197850Y0076524D01*
X0196529Y0076028D02*
X0213929Y0076028D01*
X0212730Y0074830D02*
X0195331Y0074830D01*
X0192934Y0072433D02*
X0210333Y0072433D01*
X0209135Y0071234D02*
X0191735Y0071234D01*
X0190537Y0070036D02*
X0207936Y0070036D01*
X0206738Y0068837D02*
X0189338Y0068837D01*
X0188140Y0067639D02*
X0205539Y0067639D01*
X0204341Y0066440D02*
X0186941Y0066440D01*
X0185743Y0065242D02*
X0203142Y0065242D01*
X0201944Y0064043D02*
X0184544Y0064043D01*
X0183346Y0062845D02*
X0200745Y0062845D01*
X0199547Y0061646D02*
X0182147Y0061646D01*
X0180949Y0060448D02*
X0198348Y0060448D01*
X0197150Y0059249D02*
X0179750Y0059249D01*
X0178552Y0058051D02*
X0195951Y0058051D01*
X0194753Y0056852D02*
X0177353Y0056852D01*
X0176155Y0055653D02*
X0193554Y0055653D01*
X0192356Y0054455D02*
X0174956Y0054455D01*
X0173757Y0053256D02*
X0191157Y0053256D01*
X0189959Y0052058D02*
X0172559Y0052058D01*
X0169932Y0055653D02*
X0122507Y0055653D01*
X0123768Y0055591D02*
X0117996Y0055591D01*
X0123768Y0055591D02*
X0125016Y0056839D01*
X0115173Y0048965D02*
X0189976Y0048965D01*
X0229346Y0088335D01*
X0216326Y0078425D02*
X0198926Y0078425D01*
X0205724Y0092272D02*
X0213598Y0100146D01*
X0220269Y0105991D02*
X0205008Y0105991D01*
X0205384Y0107189D02*
X0221468Y0107189D01*
X0222666Y0108388D02*
X0205276Y0108388D01*
X0204589Y0109586D02*
X0222721Y0109586D01*
X0222721Y0110785D02*
X0199529Y0110785D01*
X0200000Y0109586D02*
X0198330Y0109586D01*
X0200727Y0111984D02*
X0222721Y0111984D01*
X0222721Y0113182D02*
X0201926Y0113182D01*
X0203124Y0114381D02*
X0222721Y0114381D01*
X0223600Y0115579D02*
X0204323Y0115579D01*
X0207203Y0116778D02*
X0224798Y0116778D01*
X0225997Y0117976D02*
X0207838Y0117976D01*
X0207911Y0119175D02*
X0236557Y0119175D01*
X0236557Y0120373D02*
X0207499Y0120373D01*
X0206118Y0121572D02*
X0226146Y0121572D01*
X0226613Y0121105D02*
X0232080Y0121105D01*
X0235946Y0124971D01*
X0235946Y0130439D01*
X0232080Y0134305D01*
X0226613Y0134305D01*
X0222746Y0130439D01*
X0222746Y0124971D01*
X0226613Y0121105D01*
X0224947Y0122770D02*
X0017411Y0122770D01*
X0017411Y0121572D02*
X0203526Y0121572D01*
X0203708Y0121454D02*
X0211285Y0121454D01*
X0229346Y0139516D01*
X0229346Y0143453D01*
X0228846Y0143145D02*
X0213828Y0143145D01*
X0213828Y0144343D02*
X0222746Y0144343D01*
X0222746Y0143953D02*
X0228846Y0143953D01*
X0228846Y0142953D01*
X0222746Y0142953D01*
X0222746Y0140719D01*
X0226613Y0136853D01*
X0228846Y0136853D01*
X0228846Y0142953D01*
X0229846Y0142953D01*
X0229846Y0136853D01*
X0232080Y0136853D01*
X0235946Y0140719D01*
X0235946Y0142953D01*
X0229847Y0142953D01*
X0229847Y0143953D01*
X0235946Y0143953D01*
X0235946Y0146187D01*
X0232080Y0150053D01*
X0229846Y0150053D01*
X0229846Y0143953D01*
X0228846Y0143953D01*
X0228846Y0150053D01*
X0226613Y0150053D01*
X0222746Y0146187D01*
X0222746Y0143953D01*
X0222746Y0145542D02*
X0213828Y0145542D01*
X0213828Y0146740D02*
X0223300Y0146740D01*
X0224499Y0147939D02*
X0213828Y0147939D01*
X0213828Y0149137D02*
X0225697Y0149137D01*
X0228846Y0149137D02*
X0229846Y0149137D01*
X0229846Y0147939D02*
X0228846Y0147939D01*
X0228846Y0146740D02*
X0229846Y0146740D01*
X0229846Y0145542D02*
X0228846Y0145542D01*
X0228846Y0144343D02*
X0229846Y0144343D01*
X0229847Y0143145D02*
X0236557Y0143145D01*
X0236557Y0144343D02*
X0235946Y0144343D01*
X0235946Y0145542D02*
X0236557Y0145542D01*
X0236557Y0146740D02*
X0235393Y0146740D01*
X0236557Y0147939D02*
X0234194Y0147939D01*
X0232996Y0149137D02*
X0236557Y0149137D01*
X0236557Y0150336D02*
X0213414Y0150336D01*
X0213128Y0151027D02*
X0211834Y0152321D01*
X0210143Y0153021D01*
X0208313Y0153021D01*
X0206623Y0152321D01*
X0205329Y0151027D01*
X0204628Y0149336D01*
X0204628Y0141506D01*
X0205329Y0139816D01*
X0206613Y0138531D01*
X0205329Y0137247D01*
X0204628Y0135557D01*
X0204628Y0127727D01*
X0205329Y0126036D01*
X0206623Y0124742D01*
X0208313Y0124042D01*
X0210143Y0124042D01*
X0211834Y0124742D01*
X0213128Y0126036D01*
X0213828Y0127727D01*
X0213828Y0135557D01*
X0213128Y0137247D01*
X0211844Y0138531D01*
X0213128Y0139816D01*
X0213828Y0141506D01*
X0213828Y0149336D01*
X0213128Y0151027D01*
X0212621Y0151534D02*
X0236557Y0151534D01*
X0236557Y0152733D02*
X0210839Y0152733D01*
X0207617Y0152733D02*
X0200839Y0152733D01*
X0200143Y0153021D02*
X0198313Y0153021D01*
X0196623Y0152321D01*
X0195329Y0151027D01*
X0194628Y0149336D01*
X0194628Y0141506D01*
X0195329Y0139816D01*
X0196613Y0138531D01*
X0195329Y0137247D01*
X0194628Y0135557D01*
X0194628Y0127727D01*
X0195329Y0126036D01*
X0196623Y0124742D01*
X0198313Y0124042D01*
X0200143Y0124042D01*
X0201834Y0124742D01*
X0203128Y0126036D01*
X0203828Y0127727D01*
X0203828Y0135557D01*
X0203128Y0137247D01*
X0201844Y0138531D01*
X0203128Y0139816D01*
X0203828Y0141506D01*
X0203828Y0149336D01*
X0203128Y0151027D01*
X0201834Y0152321D01*
X0200143Y0153021D01*
X0197617Y0152733D02*
X0190839Y0152733D01*
X0190143Y0153021D02*
X0188313Y0153021D01*
X0186623Y0152321D01*
X0185329Y0151027D01*
X0184628Y0149336D01*
X0184628Y0141506D01*
X0185329Y0139816D01*
X0186613Y0138531D01*
X0185329Y0137247D01*
X0184628Y0135557D01*
X0184628Y0127727D01*
X0185329Y0126036D01*
X0186623Y0124742D01*
X0188313Y0124042D01*
X0190143Y0124042D01*
X0191834Y0124742D01*
X0193128Y0126036D01*
X0193828Y0127727D01*
X0193828Y0135557D01*
X0193128Y0137247D01*
X0191844Y0138531D01*
X0193128Y0139816D01*
X0193828Y0141506D01*
X0193828Y0149336D01*
X0193128Y0151027D01*
X0191834Y0152321D01*
X0190143Y0153021D01*
X0187617Y0152733D02*
X0180839Y0152733D01*
X0180143Y0153021D02*
X0178313Y0153021D01*
X0176623Y0152321D01*
X0175329Y0151027D01*
X0174628Y0149336D01*
X0174628Y0141506D01*
X0175329Y0139816D01*
X0176613Y0138531D01*
X0175329Y0137247D01*
X0174628Y0135557D01*
X0174628Y0127727D01*
X0175329Y0126036D01*
X0176623Y0124742D01*
X0178313Y0124042D01*
X0180143Y0124042D01*
X0181834Y0124742D01*
X0183128Y0126036D01*
X0183828Y0127727D01*
X0183828Y0135557D01*
X0183128Y0137247D01*
X0181844Y0138531D01*
X0183128Y0139816D01*
X0183828Y0141506D01*
X0183828Y0149336D01*
X0183128Y0151027D01*
X0181834Y0152321D01*
X0180143Y0153021D01*
X0177617Y0152733D02*
X0170839Y0152733D01*
X0170143Y0153021D02*
X0168313Y0153021D01*
X0166623Y0152321D01*
X0165329Y0151027D01*
X0164628Y0149336D01*
X0164628Y0141506D01*
X0165329Y0139816D01*
X0166613Y0138531D01*
X0165329Y0137247D01*
X0164628Y0135557D01*
X0164628Y0127727D01*
X0165329Y0126036D01*
X0166623Y0124742D01*
X0168313Y0124042D01*
X0170143Y0124042D01*
X0171834Y0124742D01*
X0173128Y0126036D01*
X0173828Y0127727D01*
X0173828Y0135557D01*
X0173128Y0137247D01*
X0171844Y0138531D01*
X0173128Y0139816D01*
X0173828Y0141506D01*
X0173828Y0149336D01*
X0173128Y0151027D01*
X0171834Y0152321D01*
X0170143Y0153021D01*
X0167617Y0152733D02*
X0160839Y0152733D01*
X0160143Y0153021D02*
X0161834Y0152321D01*
X0163128Y0151027D01*
X0163828Y0149336D01*
X0163828Y0141506D01*
X0163128Y0139816D01*
X0161844Y0138531D01*
X0163128Y0137247D01*
X0163828Y0135557D01*
X0163828Y0127727D01*
X0163128Y0126036D01*
X0161834Y0124742D01*
X0160143Y0124042D01*
X0158313Y0124042D01*
X0156623Y0124742D01*
X0155329Y0126036D01*
X0154628Y0127727D01*
X0154628Y0135557D01*
X0155329Y0137247D01*
X0156613Y0138531D01*
X0155329Y0139816D01*
X0154628Y0141506D01*
X0154628Y0149336D01*
X0155329Y0151027D01*
X0156623Y0152321D01*
X0158313Y0153021D01*
X0160143Y0153021D01*
X0157617Y0152733D02*
X0150839Y0152733D01*
X0150143Y0153021D02*
X0151834Y0152321D01*
X0153128Y0151027D01*
X0153828Y0149336D01*
X0153828Y0141506D01*
X0153128Y0139816D01*
X0151844Y0138531D01*
X0153128Y0137247D01*
X0153828Y0135557D01*
X0153828Y0127727D01*
X0153128Y0126036D01*
X0151834Y0124742D01*
X0150143Y0124042D01*
X0148313Y0124042D01*
X0146623Y0124742D01*
X0145329Y0126036D01*
X0144628Y0127727D01*
X0144628Y0135557D01*
X0145329Y0137247D01*
X0146613Y0138531D01*
X0145329Y0139816D01*
X0144628Y0141506D01*
X0144628Y0149336D01*
X0145329Y0151027D01*
X0146623Y0152321D01*
X0148313Y0153021D01*
X0150143Y0153021D01*
X0147617Y0152733D02*
X0140839Y0152733D01*
X0140143Y0153021D02*
X0141834Y0152321D01*
X0143128Y0151027D01*
X0143828Y0149336D01*
X0143828Y0141506D01*
X0143128Y0139816D01*
X0141844Y0138531D01*
X0143128Y0137247D01*
X0143828Y0135557D01*
X0143828Y0127727D01*
X0143128Y0126036D01*
X0141834Y0124742D01*
X0140143Y0124042D01*
X0138313Y0124042D01*
X0136623Y0124742D01*
X0135329Y0126036D01*
X0134628Y0127727D01*
X0134628Y0135557D01*
X0135329Y0137247D01*
X0136613Y0138531D01*
X0135329Y0139816D01*
X0134628Y0141506D01*
X0134628Y0149336D01*
X0135329Y0151027D01*
X0136623Y0152321D01*
X0138313Y0153021D01*
X0140143Y0153021D01*
X0137617Y0152733D02*
X0123434Y0152733D01*
X0123325Y0152995D02*
X0122031Y0154289D01*
X0120340Y0154990D01*
X0118510Y0154990D01*
X0116820Y0154289D01*
X0115526Y0152995D01*
X0114825Y0151305D01*
X0114825Y0143475D01*
X0115526Y0141784D01*
X0116820Y0140490D01*
X0118510Y0139790D01*
X0120340Y0139790D01*
X0122031Y0140490D01*
X0123325Y0141784D01*
X0124025Y0143475D01*
X0124025Y0151305D01*
X0123325Y0152995D01*
X0122389Y0153931D02*
X0236557Y0153931D01*
X0236557Y0155130D02*
X0017411Y0155130D01*
X0017411Y0156328D02*
X0236557Y0156328D01*
X0236557Y0157527D02*
X0017411Y0157527D01*
X0017411Y0153931D02*
X0076474Y0153931D01*
X0076428Y0153898D02*
X0075917Y0153386D01*
X0075491Y0152801D01*
X0075162Y0152156D01*
X0074938Y0151467D01*
X0074825Y0150752D01*
X0074825Y0147790D01*
X0079025Y0147790D01*
X0079025Y0154984D01*
X0078348Y0154876D01*
X0077659Y0154653D01*
X0077014Y0154324D01*
X0076428Y0153898D01*
X0075456Y0152733D02*
X0017411Y0152733D01*
X0017411Y0151534D02*
X0074960Y0151534D01*
X0074825Y0150336D02*
X0017411Y0150336D01*
X0017411Y0149137D02*
X0074825Y0149137D01*
X0074825Y0147939D02*
X0017411Y0147939D01*
X0017411Y0146740D02*
X0074825Y0146740D01*
X0074825Y0146990D02*
X0074825Y0144028D01*
X0074938Y0143313D01*
X0075162Y0142624D01*
X0075491Y0141979D01*
X0075917Y0141393D01*
X0076428Y0140881D01*
X0077014Y0140455D01*
X0077659Y0140127D01*
X0078348Y0139903D01*
X0079025Y0139796D01*
X0079025Y0146990D01*
X0074825Y0146990D01*
X0074825Y0145542D02*
X0017411Y0145542D01*
X0017411Y0144343D02*
X0074825Y0144343D01*
X0074993Y0143145D02*
X0017411Y0143145D01*
X0017411Y0141946D02*
X0075515Y0141946D01*
X0076612Y0140748D02*
X0017411Y0140748D01*
X0017411Y0139549D02*
X0135595Y0139549D01*
X0134943Y0140748D02*
X0122289Y0140748D01*
X0123392Y0141946D02*
X0134628Y0141946D01*
X0134628Y0143145D02*
X0123889Y0143145D01*
X0124025Y0144343D02*
X0134628Y0144343D01*
X0134628Y0145542D02*
X0124025Y0145542D01*
X0124025Y0146740D02*
X0134628Y0146740D01*
X0134628Y0147939D02*
X0124025Y0147939D01*
X0124025Y0149137D02*
X0134628Y0149137D01*
X0135042Y0150336D02*
X0124025Y0150336D01*
X0123930Y0151534D02*
X0135836Y0151534D01*
X0142621Y0151534D02*
X0145836Y0151534D01*
X0145042Y0150336D02*
X0143414Y0150336D01*
X0143828Y0149137D02*
X0144628Y0149137D01*
X0144628Y0147939D02*
X0143828Y0147939D01*
X0143828Y0146740D02*
X0144628Y0146740D01*
X0144628Y0145542D02*
X0143828Y0145542D01*
X0143828Y0144343D02*
X0144628Y0144343D01*
X0144628Y0143145D02*
X0143828Y0143145D01*
X0143828Y0141946D02*
X0144628Y0141946D01*
X0144943Y0140748D02*
X0143514Y0140748D01*
X0142862Y0139549D02*
X0145595Y0139549D01*
X0146432Y0138351D02*
X0142025Y0138351D01*
X0143167Y0137152D02*
X0145289Y0137152D01*
X0144793Y0135954D02*
X0143664Y0135954D01*
X0143828Y0134755D02*
X0144628Y0134755D01*
X0144628Y0133557D02*
X0143828Y0133557D01*
X0143828Y0132358D02*
X0144628Y0132358D01*
X0144628Y0131160D02*
X0143828Y0131160D01*
X0143828Y0129961D02*
X0144628Y0129961D01*
X0144628Y0128763D02*
X0143828Y0128763D01*
X0143761Y0127564D02*
X0144696Y0127564D01*
X0145192Y0126366D02*
X0143265Y0126366D01*
X0142259Y0125167D02*
X0146198Y0125167D01*
X0152259Y0125167D02*
X0156198Y0125167D01*
X0155192Y0126366D02*
X0153265Y0126366D01*
X0153761Y0127564D02*
X0154696Y0127564D01*
X0154628Y0128763D02*
X0153828Y0128763D01*
X0153828Y0129961D02*
X0154628Y0129961D01*
X0154628Y0131160D02*
X0153828Y0131160D01*
X0153828Y0132358D02*
X0154628Y0132358D01*
X0154628Y0133557D02*
X0153828Y0133557D01*
X0153828Y0134755D02*
X0154628Y0134755D01*
X0154793Y0135954D02*
X0153664Y0135954D01*
X0153167Y0137152D02*
X0155289Y0137152D01*
X0156432Y0138351D02*
X0152025Y0138351D01*
X0152862Y0139549D02*
X0155595Y0139549D01*
X0154943Y0140748D02*
X0153514Y0140748D01*
X0153828Y0141946D02*
X0154628Y0141946D01*
X0154628Y0143145D02*
X0153828Y0143145D01*
X0153828Y0144343D02*
X0154628Y0144343D01*
X0154628Y0145542D02*
X0153828Y0145542D01*
X0153828Y0146740D02*
X0154628Y0146740D01*
X0154628Y0147939D02*
X0153828Y0147939D01*
X0153828Y0149137D02*
X0154628Y0149137D01*
X0155042Y0150336D02*
X0153414Y0150336D01*
X0152621Y0151534D02*
X0155836Y0151534D01*
X0162621Y0151534D02*
X0165836Y0151534D01*
X0165042Y0150336D02*
X0163414Y0150336D01*
X0163828Y0149137D02*
X0164628Y0149137D01*
X0164628Y0147939D02*
X0163828Y0147939D01*
X0163828Y0146740D02*
X0164628Y0146740D01*
X0164628Y0145542D02*
X0163828Y0145542D01*
X0163828Y0144343D02*
X0164628Y0144343D01*
X0164628Y0143145D02*
X0163828Y0143145D01*
X0163828Y0141946D02*
X0164628Y0141946D01*
X0164943Y0140748D02*
X0163514Y0140748D01*
X0162862Y0139549D02*
X0165595Y0139549D01*
X0166432Y0138351D02*
X0162025Y0138351D01*
X0163167Y0137152D02*
X0165289Y0137152D01*
X0164793Y0135954D02*
X0163664Y0135954D01*
X0163828Y0134755D02*
X0164628Y0134755D01*
X0164628Y0133557D02*
X0163828Y0133557D01*
X0163828Y0132358D02*
X0164628Y0132358D01*
X0164628Y0131160D02*
X0163828Y0131160D01*
X0163828Y0129961D02*
X0164628Y0129961D01*
X0164628Y0128763D02*
X0163828Y0128763D01*
X0163761Y0127564D02*
X0164696Y0127564D01*
X0165192Y0126366D02*
X0163265Y0126366D01*
X0162259Y0125167D02*
X0166198Y0125167D01*
X0164386Y0121153D02*
X0158996Y0115763D01*
X0134728Y0115763D01*
X0124992Y0114381D02*
X0148662Y0114381D01*
X0152551Y0114381D02*
X0197750Y0114381D01*
X0198949Y0115579D02*
X0017411Y0115579D01*
X0017411Y0114381D02*
X0109292Y0114381D01*
X0108400Y0113182D02*
X0017411Y0113182D01*
X0017411Y0111984D02*
X0108147Y0111984D01*
X0108378Y0110785D02*
X0017305Y0110785D01*
X0016808Y0109586D02*
X0109238Y0109586D01*
X0110116Y0108388D02*
X0015748Y0108388D01*
X0014549Y0107189D02*
X0110205Y0107189D01*
X0110865Y0105991D02*
X0013351Y0105991D01*
X0012811Y0104792D02*
X0116061Y0104792D01*
X0116021Y0103594D02*
X0012811Y0103594D01*
X0012811Y0102395D02*
X0116466Y0102395D01*
X0118005Y0101197D02*
X0012811Y0101197D01*
X0015739Y0099998D02*
X0119958Y0099998D01*
X0120261Y0098800D02*
X0016879Y0098800D01*
X0017375Y0097601D02*
X0121223Y0097601D01*
X0119831Y0097457D02*
X0079425Y0137862D01*
X0079425Y0143453D01*
X0078942Y0142969D01*
X0056118Y0142969D01*
X0054633Y0141484D01*
X0040370Y0141484D01*
X0055635Y0143453D02*
X0056118Y0142969D01*
X0079025Y0143145D02*
X0079825Y0143145D01*
X0079425Y0143453D02*
X0079425Y0147390D01*
X0079025Y0147790D02*
X0079025Y0146990D01*
X0079825Y0146990D01*
X0079825Y0147790D01*
X0079025Y0147790D01*
X0079025Y0147939D02*
X0079825Y0147939D01*
X0079825Y0147790D02*
X0079825Y0154984D01*
X0080502Y0154876D01*
X0081191Y0154653D01*
X0081836Y0154324D01*
X0082422Y0153898D01*
X0082934Y0153386D01*
X0083359Y0152801D01*
X0083688Y0152156D01*
X0083912Y0151467D01*
X0084025Y0150752D01*
X0084025Y0147790D01*
X0079825Y0147790D01*
X0079825Y0146990D02*
X0084025Y0146990D01*
X0084025Y0144028D01*
X0083912Y0143313D01*
X0083688Y0142624D01*
X0083359Y0141979D01*
X0082934Y0141393D01*
X0082422Y0140881D01*
X0081836Y0140455D01*
X0081191Y0140127D01*
X0080502Y0139903D01*
X0079825Y0139796D01*
X0079825Y0146990D01*
X0079825Y0146740D02*
X0079025Y0146740D01*
X0079025Y0145542D02*
X0079825Y0145542D01*
X0079825Y0144343D02*
X0079025Y0144343D01*
X0079025Y0141946D02*
X0079825Y0141946D01*
X0079825Y0140748D02*
X0079025Y0140748D01*
X0082238Y0140748D02*
X0086562Y0140748D01*
X0086820Y0140490D02*
X0088510Y0139790D01*
X0090340Y0139790D01*
X0092031Y0140490D01*
X0093325Y0141784D01*
X0094025Y0143475D01*
X0094025Y0151305D01*
X0093325Y0152995D01*
X0092031Y0154289D01*
X0090340Y0154990D01*
X0088510Y0154990D01*
X0086820Y0154289D01*
X0085526Y0152995D01*
X0084825Y0151305D01*
X0084825Y0143475D01*
X0085526Y0141784D01*
X0086820Y0140490D01*
X0085458Y0141946D02*
X0083336Y0141946D01*
X0083857Y0143145D02*
X0084962Y0143145D01*
X0084825Y0144343D02*
X0084025Y0144343D01*
X0084025Y0145542D02*
X0084825Y0145542D01*
X0084825Y0146740D02*
X0084025Y0146740D01*
X0084025Y0147939D02*
X0084825Y0147939D01*
X0084825Y0149137D02*
X0084025Y0149137D01*
X0084025Y0150336D02*
X0084825Y0150336D01*
X0084920Y0151534D02*
X0083890Y0151534D01*
X0083394Y0152733D02*
X0085417Y0152733D01*
X0086461Y0153931D02*
X0082377Y0153931D01*
X0079825Y0153931D02*
X0079025Y0153931D01*
X0079025Y0152733D02*
X0079825Y0152733D01*
X0079825Y0151534D02*
X0079025Y0151534D01*
X0079025Y0150336D02*
X0079825Y0150336D01*
X0079825Y0149137D02*
X0079025Y0149137D01*
X0092389Y0153931D02*
X0096461Y0153931D01*
X0096820Y0154289D02*
X0095526Y0152995D01*
X0094825Y0151305D01*
X0094825Y0143475D01*
X0095526Y0141784D01*
X0096820Y0140490D01*
X0098510Y0139790D01*
X0100340Y0139790D01*
X0102031Y0140490D01*
X0103325Y0141784D01*
X0104025Y0143475D01*
X0104025Y0151305D01*
X0103325Y0152995D01*
X0102031Y0154289D01*
X0100340Y0154990D01*
X0098510Y0154990D01*
X0096820Y0154289D01*
X0095417Y0152733D02*
X0093434Y0152733D01*
X0093930Y0151534D02*
X0094920Y0151534D01*
X0094825Y0150336D02*
X0094025Y0150336D01*
X0094025Y0149137D02*
X0094825Y0149137D01*
X0094825Y0147939D02*
X0094025Y0147939D01*
X0094025Y0146740D02*
X0094825Y0146740D01*
X0094825Y0145542D02*
X0094025Y0145542D01*
X0094025Y0144343D02*
X0094825Y0144343D01*
X0094962Y0143145D02*
X0093889Y0143145D01*
X0093392Y0141946D02*
X0095458Y0141946D01*
X0096562Y0140748D02*
X0092289Y0140748D01*
X0102289Y0140748D02*
X0106562Y0140748D01*
X0106820Y0140490D02*
X0105526Y0141784D01*
X0104825Y0143475D01*
X0104825Y0151305D01*
X0105526Y0152995D01*
X0106820Y0154289D01*
X0108510Y0154990D01*
X0110340Y0154990D01*
X0112031Y0154289D01*
X0113325Y0152995D01*
X0114025Y0151305D01*
X0114025Y0143475D01*
X0113325Y0141784D01*
X0112031Y0140490D01*
X0110340Y0139790D01*
X0108510Y0139790D01*
X0106820Y0140490D01*
X0105458Y0141946D02*
X0103392Y0141946D01*
X0103889Y0143145D02*
X0104962Y0143145D01*
X0104825Y0144343D02*
X0104025Y0144343D01*
X0104025Y0145542D02*
X0104825Y0145542D01*
X0104825Y0146740D02*
X0104025Y0146740D01*
X0104025Y0147939D02*
X0104825Y0147939D01*
X0104825Y0149137D02*
X0104025Y0149137D01*
X0104025Y0150336D02*
X0104825Y0150336D01*
X0104920Y0151534D02*
X0103930Y0151534D01*
X0103434Y0152733D02*
X0105417Y0152733D01*
X0106461Y0153931D02*
X0102389Y0153931D01*
X0112389Y0153931D02*
X0116461Y0153931D01*
X0115417Y0152733D02*
X0113434Y0152733D01*
X0113930Y0151534D02*
X0114920Y0151534D01*
X0114825Y0150336D02*
X0114025Y0150336D01*
X0114025Y0149137D02*
X0114825Y0149137D01*
X0114825Y0147939D02*
X0114025Y0147939D01*
X0114025Y0146740D02*
X0114825Y0146740D01*
X0114825Y0145542D02*
X0114025Y0145542D01*
X0114025Y0144343D02*
X0114825Y0144343D01*
X0114962Y0143145D02*
X0113889Y0143145D01*
X0113392Y0141946D02*
X0115458Y0141946D01*
X0116562Y0140748D02*
X0112289Y0140748D01*
X0134793Y0135954D02*
X0017411Y0135954D01*
X0017411Y0137152D02*
X0135289Y0137152D01*
X0136432Y0138351D02*
X0017411Y0138351D01*
X0017411Y0134755D02*
X0134628Y0134755D01*
X0134628Y0133557D02*
X0017411Y0133557D01*
X0017411Y0132358D02*
X0134628Y0132358D01*
X0134628Y0131160D02*
X0017411Y0131160D01*
X0017411Y0129961D02*
X0134628Y0129961D01*
X0134628Y0128763D02*
X0017411Y0128763D01*
X0017411Y0127564D02*
X0134696Y0127564D01*
X0135192Y0126366D02*
X0017411Y0126366D01*
X0017411Y0125167D02*
X0136198Y0125167D01*
X0121103Y0114381D02*
X0113181Y0114381D01*
X0123047Y0111957D02*
X0150606Y0111957D01*
X0153695Y0111984D02*
X0195353Y0111984D01*
X0196552Y0113182D02*
X0153442Y0113182D01*
X0164386Y0121153D02*
X0165708Y0119831D01*
X0197850Y0119831D01*
X0202085Y0119831D01*
X0203708Y0121454D01*
X0202144Y0120373D02*
X0017411Y0120373D01*
X0017411Y0119175D02*
X0201733Y0119175D01*
X0201346Y0117976D02*
X0017411Y0117976D01*
X0017411Y0116778D02*
X0200147Y0116778D01*
X0202259Y0125167D02*
X0206198Y0125167D01*
X0205192Y0126366D02*
X0203265Y0126366D01*
X0203761Y0127564D02*
X0204696Y0127564D01*
X0204628Y0128763D02*
X0203828Y0128763D01*
X0203828Y0129961D02*
X0204628Y0129961D01*
X0204628Y0131160D02*
X0203828Y0131160D01*
X0203828Y0132358D02*
X0204628Y0132358D01*
X0204628Y0133557D02*
X0203828Y0133557D01*
X0203828Y0134755D02*
X0204628Y0134755D01*
X0204793Y0135954D02*
X0203664Y0135954D01*
X0203167Y0137152D02*
X0205289Y0137152D01*
X0206432Y0138351D02*
X0202025Y0138351D01*
X0202862Y0139549D02*
X0205595Y0139549D01*
X0204943Y0140748D02*
X0203514Y0140748D01*
X0203828Y0141946D02*
X0204628Y0141946D01*
X0204628Y0143145D02*
X0203828Y0143145D01*
X0203828Y0144343D02*
X0204628Y0144343D01*
X0204628Y0145542D02*
X0203828Y0145542D01*
X0203828Y0146740D02*
X0204628Y0146740D01*
X0204628Y0147939D02*
X0203828Y0147939D01*
X0203828Y0149137D02*
X0204628Y0149137D01*
X0205042Y0150336D02*
X0203414Y0150336D01*
X0202621Y0151534D02*
X0205836Y0151534D01*
X0195836Y0151534D02*
X0192621Y0151534D01*
X0193414Y0150336D02*
X0195042Y0150336D01*
X0194628Y0149137D02*
X0193828Y0149137D01*
X0193828Y0147939D02*
X0194628Y0147939D01*
X0194628Y0146740D02*
X0193828Y0146740D01*
X0193828Y0145542D02*
X0194628Y0145542D01*
X0194628Y0144343D02*
X0193828Y0144343D01*
X0193828Y0143145D02*
X0194628Y0143145D01*
X0194628Y0141946D02*
X0193828Y0141946D01*
X0193514Y0140748D02*
X0194943Y0140748D01*
X0195595Y0139549D02*
X0192862Y0139549D01*
X0192025Y0138351D02*
X0196432Y0138351D01*
X0195289Y0137152D02*
X0193167Y0137152D01*
X0193664Y0135954D02*
X0194793Y0135954D01*
X0194628Y0134755D02*
X0193828Y0134755D01*
X0193828Y0133557D02*
X0194628Y0133557D01*
X0194628Y0132358D02*
X0193828Y0132358D01*
X0193828Y0131160D02*
X0194628Y0131160D01*
X0194628Y0129961D02*
X0193828Y0129961D01*
X0193828Y0128763D02*
X0194628Y0128763D01*
X0194696Y0127564D02*
X0193761Y0127564D01*
X0193265Y0126366D02*
X0195192Y0126366D01*
X0196198Y0125167D02*
X0192259Y0125167D01*
X0186198Y0125167D02*
X0182259Y0125167D01*
X0183265Y0126366D02*
X0185192Y0126366D01*
X0184696Y0127564D02*
X0183761Y0127564D01*
X0183828Y0128763D02*
X0184628Y0128763D01*
X0184628Y0129961D02*
X0183828Y0129961D01*
X0183828Y0131160D02*
X0184628Y0131160D01*
X0184628Y0132358D02*
X0183828Y0132358D01*
X0183828Y0133557D02*
X0184628Y0133557D01*
X0184628Y0134755D02*
X0183828Y0134755D01*
X0183664Y0135954D02*
X0184793Y0135954D01*
X0185289Y0137152D02*
X0183167Y0137152D01*
X0182025Y0138351D02*
X0186432Y0138351D01*
X0185595Y0139549D02*
X0182862Y0139549D01*
X0183514Y0140748D02*
X0184943Y0140748D01*
X0184628Y0141946D02*
X0183828Y0141946D01*
X0183828Y0143145D02*
X0184628Y0143145D01*
X0184628Y0144343D02*
X0183828Y0144343D01*
X0183828Y0145542D02*
X0184628Y0145542D01*
X0184628Y0146740D02*
X0183828Y0146740D01*
X0183828Y0147939D02*
X0184628Y0147939D01*
X0184628Y0149137D02*
X0183828Y0149137D01*
X0183414Y0150336D02*
X0185042Y0150336D01*
X0185836Y0151534D02*
X0182621Y0151534D01*
X0175836Y0151534D02*
X0172621Y0151534D01*
X0173414Y0150336D02*
X0175042Y0150336D01*
X0174628Y0149137D02*
X0173828Y0149137D01*
X0173828Y0147939D02*
X0174628Y0147939D01*
X0174628Y0146740D02*
X0173828Y0146740D01*
X0173828Y0145542D02*
X0174628Y0145542D01*
X0174628Y0144343D02*
X0173828Y0144343D01*
X0173828Y0143145D02*
X0174628Y0143145D01*
X0174628Y0141946D02*
X0173828Y0141946D01*
X0173514Y0140748D02*
X0174943Y0140748D01*
X0175595Y0139549D02*
X0172862Y0139549D01*
X0172025Y0138351D02*
X0176432Y0138351D01*
X0175289Y0137152D02*
X0173167Y0137152D01*
X0173664Y0135954D02*
X0174793Y0135954D01*
X0174628Y0134755D02*
X0173828Y0134755D01*
X0173828Y0133557D02*
X0174628Y0133557D01*
X0174628Y0132358D02*
X0173828Y0132358D01*
X0173828Y0131160D02*
X0174628Y0131160D01*
X0174628Y0129961D02*
X0173828Y0129961D01*
X0173828Y0128763D02*
X0174628Y0128763D01*
X0174696Y0127564D02*
X0173761Y0127564D01*
X0173265Y0126366D02*
X0175192Y0126366D01*
X0176198Y0125167D02*
X0172259Y0125167D01*
X0142732Y0099305D02*
X0154543Y0087494D01*
X0154543Y0080461D01*
X0162417Y0072587D01*
X0159703Y0086815D02*
X0017561Y0086815D01*
X0017561Y0088013D02*
X0159328Y0088013D01*
X0158429Y0089212D02*
X0017561Y0089212D01*
X0017561Y0090410D02*
X0157230Y0090410D01*
X0156032Y0091609D02*
X0017561Y0091609D01*
X0017561Y0092807D02*
X0154833Y0092807D01*
X0152378Y0094006D02*
X0017561Y0094006D01*
X0017561Y0095204D02*
X0151616Y0095204D01*
X0151454Y0096403D02*
X0017561Y0096403D01*
X0017411Y0123969D02*
X0223749Y0123969D01*
X0222746Y0125167D02*
X0212259Y0125167D01*
X0213265Y0126366D02*
X0222746Y0126366D01*
X0222746Y0127564D02*
X0213761Y0127564D01*
X0213828Y0128763D02*
X0222746Y0128763D01*
X0222746Y0129961D02*
X0213828Y0129961D01*
X0213828Y0131160D02*
X0223468Y0131160D01*
X0224666Y0132358D02*
X0213828Y0132358D01*
X0213828Y0133557D02*
X0225865Y0133557D01*
X0226313Y0137152D02*
X0213167Y0137152D01*
X0213664Y0135954D02*
X0236557Y0135954D01*
X0236557Y0137152D02*
X0232380Y0137152D01*
X0233578Y0138351D02*
X0236557Y0138351D01*
X0236557Y0139549D02*
X0234777Y0139549D01*
X0235946Y0140748D02*
X0236557Y0140748D01*
X0236557Y0141946D02*
X0235946Y0141946D01*
X0229846Y0141946D02*
X0228846Y0141946D01*
X0228846Y0140748D02*
X0229846Y0140748D01*
X0229846Y0139549D02*
X0228846Y0139549D01*
X0228846Y0138351D02*
X0229846Y0138351D01*
X0229846Y0137152D02*
X0228846Y0137152D01*
X0225115Y0138351D02*
X0212025Y0138351D01*
X0212862Y0139549D02*
X0223916Y0139549D01*
X0222746Y0140748D02*
X0213514Y0140748D01*
X0213828Y0141946D02*
X0222746Y0141946D01*
X0213828Y0134755D02*
X0236557Y0134755D01*
X0236557Y0133557D02*
X0232828Y0133557D01*
X0234027Y0132358D02*
X0236557Y0132358D01*
X0236557Y0131160D02*
X0235225Y0131160D01*
X0235946Y0129961D02*
X0236557Y0129961D01*
X0236557Y0128763D02*
X0235946Y0128763D01*
X0235946Y0127564D02*
X0236557Y0127564D01*
X0236557Y0126366D02*
X0235946Y0126366D01*
X0235946Y0125167D02*
X0236557Y0125167D01*
X0236557Y0123969D02*
X0234944Y0123969D01*
X0233746Y0122770D02*
X0236557Y0122770D01*
X0236557Y0121572D02*
X0232547Y0121572D01*
X0232696Y0117976D02*
X0236557Y0117976D01*
X0236557Y0116778D02*
X0233895Y0116778D01*
X0235093Y0115579D02*
X0236557Y0115579D01*
X0236557Y0114381D02*
X0235971Y0114381D01*
X0235971Y0113182D02*
X0236557Y0113182D01*
X0236557Y0111984D02*
X0235971Y0111984D01*
X0235971Y0110785D02*
X0236557Y0110785D01*
X0236557Y0109586D02*
X0235971Y0109586D01*
X0236557Y0108388D02*
X0235147Y0108388D01*
X0197952Y0094006D02*
X0159857Y0094006D01*
X0154543Y0096209D02*
X0162417Y0088335D01*
X0151777Y0097601D02*
X0124871Y0097601D01*
X0124161Y0097457D02*
X0119831Y0097457D01*
X0124161Y0097457D02*
X0126009Y0099305D01*
X0142732Y0099305D01*
X0152766Y0098800D02*
X0125833Y0098800D01*
X0112700Y0050859D02*
X0017411Y0050859D01*
X0017411Y0049661D02*
X0112118Y0049661D01*
X0112084Y0048462D02*
X0017411Y0048462D01*
X0017411Y0047264D02*
X0112534Y0047264D01*
X0114101Y0046065D02*
X0017411Y0046065D01*
X0017411Y0044867D02*
X0185313Y0044867D01*
X0186512Y0046065D02*
X0116246Y0046065D01*
X0144697Y0031683D02*
X0172129Y0031683D01*
X0173328Y0032882D02*
X0017411Y0032882D01*
X0017411Y0034080D02*
X0174526Y0034080D01*
X0175725Y0035279D02*
X0017411Y0035279D01*
X0017411Y0036477D02*
X0176923Y0036477D01*
X0178122Y0037676D02*
X0017411Y0037676D01*
X0017411Y0038874D02*
X0179320Y0038874D01*
X0180519Y0040073D02*
X0017411Y0040073D01*
X0017411Y0041271D02*
X0181717Y0041271D01*
X0182916Y0042470D02*
X0017411Y0042470D01*
X0017411Y0043668D02*
X0184115Y0043668D01*
X0186741Y0040073D02*
X0236557Y0040073D01*
X0236557Y0041271D02*
X0187940Y0041271D01*
X0189139Y0042470D02*
X0219662Y0042470D01*
X0223283Y0042470D02*
X0236557Y0042470D01*
X0236557Y0043668D02*
X0224253Y0043668D01*
X0224561Y0044867D02*
X0236557Y0044867D01*
X0236557Y0046065D02*
X0224386Y0046065D01*
X0223605Y0047264D02*
X0236557Y0047264D01*
X0236557Y0048462D02*
X0217212Y0048462D01*
X0218410Y0047264D02*
X0219340Y0047264D01*
X0217535Y0045028D02*
X0221472Y0045028D01*
X0217535Y0045028D02*
X0205724Y0056839D01*
X0202872Y0055653D02*
X0202322Y0055653D01*
X0201124Y0054455D02*
X0203740Y0054455D01*
X0206195Y0053256D02*
X0199925Y0053256D01*
X0198727Y0052058D02*
X0207394Y0052058D01*
X0208592Y0050859D02*
X0197528Y0050859D01*
X0196330Y0049661D02*
X0209791Y0049661D01*
X0210989Y0048462D02*
X0195131Y0048462D01*
X0193933Y0047264D02*
X0212188Y0047264D01*
X0213386Y0046065D02*
X0192734Y0046065D01*
X0191536Y0044867D02*
X0214585Y0044867D01*
X0215783Y0043668D02*
X0190337Y0043668D01*
X0185543Y0038874D02*
X0236557Y0038874D01*
X0236557Y0037676D02*
X0184344Y0037676D01*
X0183146Y0036477D02*
X0236557Y0036477D01*
X0236557Y0035279D02*
X0181947Y0035279D01*
X0180749Y0034080D02*
X0236557Y0034080D01*
X0236557Y0032882D02*
X0179550Y0032882D01*
X0178352Y0031683D02*
X0236557Y0031683D01*
X0236557Y0030485D02*
X0177153Y0030485D01*
X0175955Y0029286D02*
X0236557Y0029286D01*
X0236557Y0028088D02*
X0174756Y0028088D01*
X0205724Y0023374D02*
X0217535Y0035185D01*
X0217535Y0037154D01*
X0216013Y0049661D02*
X0236557Y0049661D01*
X0236557Y0050859D02*
X0214815Y0050859D01*
X0213616Y0052058D02*
X0236557Y0052058D01*
X0236557Y0053256D02*
X0212418Y0053256D01*
X0211219Y0054455D02*
X0236557Y0054455D01*
X0236557Y0055653D02*
X0210021Y0055653D01*
X0208822Y0056852D02*
X0236557Y0056852D01*
X0236557Y0058051D02*
X0208566Y0058051D01*
X0233252Y0059249D02*
X0236557Y0059249D01*
X0236557Y0060448D02*
X0234451Y0060448D01*
X0235649Y0061646D02*
X0236557Y0061646D01*
X0236557Y0062845D02*
X0235971Y0062845D01*
X0235971Y0064043D02*
X0236557Y0064043D01*
X0236557Y0024492D02*
X0017411Y0024492D01*
X0017411Y0023294D02*
X0236557Y0023294D01*
X0236557Y0022095D02*
X0017411Y0022095D01*
X0017411Y0020897D02*
X0236557Y0020897D01*
X0236557Y0019698D02*
X0017411Y0019698D01*
X0017411Y0018500D02*
X0236557Y0018500D01*
X0236557Y0017301D02*
X0017411Y0017301D01*
X0017411Y0016103D02*
X0236557Y0016103D01*
X0236557Y0014904D02*
X0017411Y0014904D01*
X0017411Y0013706D02*
X0236557Y0013706D01*
X0236557Y0012507D02*
X0017411Y0012507D01*
X0017411Y0011309D02*
X0236557Y0011309D01*
X0236557Y0010110D02*
X0017411Y0010110D01*
X0017411Y0008912D02*
X0236557Y0008912D01*
X0236557Y0007713D02*
X0017411Y0007713D01*
X0017411Y0006515D02*
X0236557Y0006515D01*
X0081709Y0026330D02*
X0080722Y0025343D01*
X0060055Y0025343D01*
X0056766Y0028631D01*
X0056766Y0039198D01*
X0054722Y0037154D01*
X0040370Y0037154D01*
D15*
X0123047Y0100146D02*
X0124595Y0101694D01*
X0198840Y0101694D01*
X0199260Y0102114D01*
X0201787Y0102114D01*
X0197850Y0104083D02*
X0119110Y0104083D01*
X0122058Y0109568D02*
X0195625Y0109568D01*
X0204822Y0118765D01*
X0202295Y0107512D02*
X0113712Y0107512D01*
X0113205Y0108020D01*
X0111236Y0111957D02*
X0119669Y0111957D01*
X0122058Y0109568D01*
M02*
