%
M48
M72
T01C0.01378
T02C0.04000
T03C0.04400
T04C0.06700
%
T01
X40370Y37154
X56766Y39198
X60055Y25343
X81709Y26330
X115173Y33217
X126984Y41091
X115173Y48965
X121079Y52902
X125016Y56839
X142732Y33134
X142732Y29280
X205724Y23374
X217535Y37154
X221472Y45028
X205724Y56839
X193913Y72587
X202176Y76524
X200577Y92272
X201787Y102114
X197850Y104083
X202295Y107512
X213598Y100146
X204822Y118765
X197850Y119831
X164386Y121153
X150606Y111957
X142732Y99305
X154543Y96209
X162417Y88335
X154543Y80461
X162417Y72587
X123047Y100146
X119110Y104083
X113205Y108020
X111236Y111957
X123047Y111957
X134728Y115763
X56118Y142969
X40370Y141484
T02
X79425Y147390
X89425Y147390
X99425Y147390
X109425Y147390
X119425Y147390
X139228Y145421
X149228Y145421
X159228Y145421
X169228Y145421
X179228Y145421
X189228Y145421
X199228Y145421
X209228Y145421
X209228Y131642
X199228Y131642
X189228Y131642
X179228Y131642
X169228Y131642
X159228Y131642
X149228Y131642
X139228Y131642
T03
X229346Y127705
X229346Y143453
T04
X229346Y111957
X229346Y100146
X229346Y88335
X229346Y76524
X229346Y64713
M30
