G75*
%MOIN*%
%OFA0B0*%
%FSLAX25Y25*%
%IPPOS*%
%LPD*%
%AMOC8*
5,1,8,0,0,1.08239X$1,22.5*
%
%ADD10R,0.07874X0.27559*%
%ADD11C,0.00600*%
%ADD12OC8,0.10800*%
%ADD13R,0.03556X0.04343*%
%ADD14R,0.04343X0.03556*%
%ADD15R,0.04737X0.06312*%
%ADD16R,0.07099X0.09461*%
%ADD17R,0.03950X0.03950*%
%ADD18C,0.06800*%
%ADD19OC8,0.10850*%
%ADD20R,0.03200X0.09500*%
%ADD21R,0.15800X0.08400*%
%ADD22R,0.03600X0.06400*%
%ADD23C,0.04550*%
%ADD24R,0.04737X0.02000*%
%ADD25R,0.05800X0.10800*%
%ADD26R,0.05500X0.03000*%
%ADD27R,0.03000X0.05500*%
%ADD28R,0.01575X0.05512*%
%ADD29R,0.07480X0.09252*%
%ADD30C,0.03778*%
D10*
X0008874Y0082429D03*
D11*
X0030528Y0076524D02*
X0046669Y0078886D01*
X0034071Y0078886D01*
X0039189Y0084398D01*
X0043520Y0085185D01*
X0038795Y0087547D01*
X0030528Y0076524D01*
X0030536Y0076534D02*
X0030601Y0076534D01*
X0030985Y0077133D02*
X0034691Y0077133D01*
X0034110Y0078928D02*
X0032331Y0078928D01*
X0031882Y0078330D02*
X0042871Y0078330D01*
X0038781Y0077731D02*
X0031433Y0077731D01*
X0032780Y0079527D02*
X0034666Y0079527D01*
X0035222Y0080125D02*
X0033229Y0080125D01*
X0033678Y0080724D02*
X0035778Y0080724D01*
X0036333Y0081322D02*
X0034127Y0081322D01*
X0034576Y0081921D02*
X0036889Y0081921D01*
X0037445Y0082520D02*
X0035024Y0082520D01*
X0035473Y0083118D02*
X0038001Y0083118D01*
X0038557Y0083717D02*
X0035922Y0083717D01*
X0036371Y0084315D02*
X0039112Y0084315D01*
X0037269Y0085512D02*
X0042866Y0085512D01*
X0042026Y0084914D02*
X0036820Y0084914D01*
X0037718Y0086111D02*
X0041669Y0086111D01*
X0040472Y0086709D02*
X0038167Y0086709D01*
X0038616Y0087308D02*
X0039275Y0087308D01*
X0038795Y0093059D02*
X0030528Y0104083D01*
X0046669Y0101720D01*
X0034071Y0101720D01*
X0039189Y0096209D01*
X0043520Y0095421D01*
X0038795Y0093059D01*
X0038620Y0093293D02*
X0039263Y0093293D01*
X0038171Y0093891D02*
X0040460Y0093891D01*
X0041657Y0094490D02*
X0037722Y0094490D01*
X0037273Y0095088D02*
X0042854Y0095088D01*
X0042059Y0095687D02*
X0036825Y0095687D01*
X0036376Y0096285D02*
X0039118Y0096285D01*
X0038562Y0096884D02*
X0035927Y0096884D01*
X0035478Y0097482D02*
X0038006Y0097482D01*
X0037451Y0098081D02*
X0035029Y0098081D01*
X0034580Y0098679D02*
X0036895Y0098679D01*
X0036339Y0099278D02*
X0034131Y0099278D01*
X0033682Y0099876D02*
X0035783Y0099876D01*
X0035228Y0100475D02*
X0033233Y0100475D01*
X0032785Y0101073D02*
X0034672Y0101073D01*
X0034116Y0101672D02*
X0032336Y0101672D01*
X0031887Y0102270D02*
X0042912Y0102270D01*
X0038822Y0102869D02*
X0031438Y0102869D01*
X0030989Y0103467D02*
X0034732Y0103467D01*
X0030642Y0104066D02*
X0030540Y0104066D01*
X0049425Y0098177D02*
X0050213Y0093846D01*
X0052969Y0093846D01*
X0049425Y0098177D01*
X0049443Y0098081D02*
X0049504Y0098081D01*
X0049552Y0097482D02*
X0049994Y0097482D01*
X0049660Y0096884D02*
X0050483Y0096884D01*
X0050973Y0096285D02*
X0049769Y0096285D01*
X0049878Y0095687D02*
X0051463Y0095687D01*
X0051953Y0095088D02*
X0049987Y0095088D01*
X0050096Y0094490D02*
X0052442Y0094490D01*
X0052932Y0093891D02*
X0050204Y0093891D01*
X0054150Y0096209D02*
X0060843Y0093453D01*
X0055331Y0096602D01*
X0054150Y0098965D01*
X0054150Y0096209D01*
X0054150Y0096285D02*
X0055886Y0096285D01*
X0055417Y0095687D02*
X0056933Y0095687D01*
X0056871Y0095088D02*
X0057980Y0095088D01*
X0058324Y0094490D02*
X0059028Y0094490D01*
X0059778Y0093891D02*
X0060075Y0093891D01*
X0062417Y0091484D02*
X0063992Y0090303D01*
X0062417Y0089122D01*
X0062417Y0091484D01*
X0062417Y0090899D02*
X0063198Y0090899D01*
X0062417Y0090300D02*
X0063988Y0090300D01*
X0063190Y0089702D02*
X0062417Y0089702D01*
X0060843Y0087154D02*
X0055331Y0084004D01*
X0054150Y0081642D01*
X0054150Y0084398D01*
X0060843Y0087154D01*
X0060065Y0086709D02*
X0059763Y0086709D01*
X0059017Y0086111D02*
X0058310Y0086111D01*
X0057970Y0085512D02*
X0056856Y0085512D01*
X0056923Y0084914D02*
X0055403Y0084914D01*
X0055875Y0084315D02*
X0054150Y0084315D01*
X0054150Y0083717D02*
X0055187Y0083717D01*
X0054888Y0083118D02*
X0054150Y0083118D01*
X0054150Y0082520D02*
X0054588Y0082520D01*
X0054289Y0081921D02*
X0054150Y0081921D01*
X0057693Y0080067D02*
X0065567Y0080067D01*
X0070685Y0087154D01*
X0081315Y0089516D01*
X0069898Y0088335D01*
X0065961Y0082035D01*
X0057693Y0080067D01*
X0057939Y0080125D02*
X0065609Y0080125D01*
X0066041Y0080724D02*
X0060452Y0080724D01*
X0062966Y0081322D02*
X0066474Y0081322D01*
X0066906Y0081921D02*
X0065480Y0081921D01*
X0066263Y0082520D02*
X0067338Y0082520D01*
X0067770Y0083118D02*
X0066637Y0083118D01*
X0067011Y0083717D02*
X0068203Y0083717D01*
X0068635Y0084315D02*
X0067385Y0084315D01*
X0067759Y0084914D02*
X0069067Y0084914D01*
X0069500Y0085512D02*
X0068134Y0085512D01*
X0068508Y0086111D02*
X0069932Y0086111D01*
X0070364Y0086709D02*
X0068882Y0086709D01*
X0069256Y0087308D02*
X0071378Y0087308D01*
X0071541Y0088505D02*
X0076765Y0088505D01*
X0077326Y0089103D02*
X0079458Y0089103D01*
X0079485Y0091497D02*
X0077384Y0091497D01*
X0076792Y0092096D02*
X0071599Y0092096D01*
X0071405Y0093293D02*
X0069259Y0093293D01*
X0068885Y0093891D02*
X0070368Y0093891D01*
X0070685Y0093453D02*
X0081315Y0091091D01*
X0069898Y0092272D01*
X0065961Y0098571D01*
X0057693Y0100539D01*
X0065567Y0100539D01*
X0070685Y0093453D01*
X0069936Y0094490D02*
X0068511Y0094490D01*
X0068137Y0095088D02*
X0069504Y0095088D01*
X0069072Y0095687D02*
X0067763Y0095687D01*
X0067389Y0096285D02*
X0068639Y0096285D01*
X0068207Y0096884D02*
X0067015Y0096884D01*
X0066641Y0097482D02*
X0067775Y0097482D01*
X0067343Y0098081D02*
X0066267Y0098081D01*
X0066910Y0098679D02*
X0065505Y0098679D01*
X0066478Y0099278D02*
X0062991Y0099278D01*
X0060478Y0099876D02*
X0066046Y0099876D01*
X0065614Y0100475D02*
X0057964Y0100475D01*
X0054292Y0098679D02*
X0054150Y0098679D01*
X0054150Y0098081D02*
X0054591Y0098081D01*
X0054891Y0097482D02*
X0054150Y0097482D01*
X0054150Y0096884D02*
X0055190Y0096884D01*
X0052969Y0086760D02*
X0050213Y0086760D01*
X0049425Y0082429D01*
X0052969Y0086760D01*
X0052927Y0086709D02*
X0050203Y0086709D01*
X0050095Y0086111D02*
X0052437Y0086111D01*
X0051948Y0085512D02*
X0049986Y0085512D01*
X0049877Y0084914D02*
X0051458Y0084914D01*
X0050968Y0084315D02*
X0049768Y0084315D01*
X0049659Y0083717D02*
X0050479Y0083717D01*
X0049989Y0083118D02*
X0049550Y0083118D01*
X0049499Y0082520D02*
X0049442Y0082520D01*
X0049425Y0077705D02*
X0052575Y0068256D01*
X0065173Y0060382D01*
X0050213Y0067862D01*
X0049425Y0077705D01*
X0049471Y0077133D02*
X0049616Y0077133D01*
X0049519Y0076534D02*
X0049815Y0076534D01*
X0050015Y0075936D02*
X0049567Y0075936D01*
X0049615Y0075337D02*
X0050214Y0075337D01*
X0050414Y0074739D02*
X0049662Y0074739D01*
X0049710Y0074140D02*
X0050613Y0074140D01*
X0050813Y0073542D02*
X0049758Y0073542D01*
X0049806Y0072943D02*
X0051012Y0072943D01*
X0051212Y0072345D02*
X0049854Y0072345D01*
X0049902Y0071746D02*
X0051411Y0071746D01*
X0051611Y0071148D02*
X0049950Y0071148D01*
X0049998Y0070549D02*
X0051810Y0070549D01*
X0052010Y0069951D02*
X0050046Y0069951D01*
X0050093Y0069352D02*
X0052209Y0069352D01*
X0052409Y0068754D02*
X0050141Y0068754D01*
X0050189Y0068155D02*
X0052736Y0068155D01*
X0053694Y0067557D02*
X0050824Y0067557D01*
X0052021Y0066958D02*
X0054651Y0066958D01*
X0055609Y0066360D02*
X0053218Y0066360D01*
X0054415Y0065761D02*
X0056566Y0065761D01*
X0055612Y0065163D02*
X0057524Y0065163D01*
X0056809Y0064564D02*
X0058482Y0064564D01*
X0058006Y0063966D02*
X0059439Y0063966D01*
X0059203Y0063367D02*
X0060397Y0063367D01*
X0060400Y0062769D02*
X0061354Y0062769D01*
X0061597Y0062170D02*
X0062312Y0062170D01*
X0062794Y0061572D02*
X0063270Y0061572D01*
X0063991Y0060973D02*
X0064227Y0060973D01*
X0069110Y0060382D02*
X0082890Y0065106D01*
X0095488Y0082429D01*
X0094307Y0091091D01*
X0086433Y0098965D01*
X0083283Y0093059D01*
X0082890Y0082429D01*
X0076984Y0074555D01*
X0069110Y0060382D01*
X0069439Y0060973D02*
X0070835Y0060973D01*
X0069771Y0061572D02*
X0072580Y0061572D01*
X0074326Y0062170D02*
X0070104Y0062170D01*
X0070436Y0062769D02*
X0076072Y0062769D01*
X0077817Y0063367D02*
X0070769Y0063367D01*
X0071101Y0063966D02*
X0079563Y0063966D01*
X0081309Y0064564D02*
X0071434Y0064564D01*
X0071766Y0065163D02*
X0082931Y0065163D01*
X0083366Y0065761D02*
X0072099Y0065761D01*
X0072431Y0066360D02*
X0083801Y0066360D01*
X0084237Y0066958D02*
X0072764Y0066958D01*
X0073096Y0067557D02*
X0084672Y0067557D01*
X0085107Y0068155D02*
X0073429Y0068155D01*
X0073761Y0068754D02*
X0085542Y0068754D01*
X0085978Y0069352D02*
X0074094Y0069352D01*
X0074426Y0069951D02*
X0086413Y0069951D01*
X0086848Y0070549D02*
X0074759Y0070549D01*
X0075091Y0071148D02*
X0087284Y0071148D01*
X0087719Y0071746D02*
X0075424Y0071746D01*
X0075756Y0072345D02*
X0088154Y0072345D01*
X0088589Y0072943D02*
X0076089Y0072943D01*
X0076421Y0073542D02*
X0089025Y0073542D01*
X0089460Y0074140D02*
X0076754Y0074140D01*
X0077122Y0074739D02*
X0089895Y0074739D01*
X0090331Y0075337D02*
X0077571Y0075337D01*
X0078020Y0075936D02*
X0090766Y0075936D01*
X0091201Y0076534D02*
X0078469Y0076534D01*
X0078918Y0077133D02*
X0091636Y0077133D01*
X0092072Y0077731D02*
X0079366Y0077731D01*
X0079815Y0078330D02*
X0092507Y0078330D01*
X0092942Y0078928D02*
X0080264Y0078928D01*
X0080713Y0079527D02*
X0093378Y0079527D01*
X0093813Y0080125D02*
X0081162Y0080125D01*
X0081611Y0080724D02*
X0094248Y0080724D01*
X0094683Y0081322D02*
X0082060Y0081322D01*
X0082509Y0081921D02*
X0095119Y0081921D01*
X0095476Y0082520D02*
X0082893Y0082520D01*
X0082915Y0083118D02*
X0095394Y0083118D01*
X0095313Y0083717D02*
X0082937Y0083717D01*
X0082960Y0084315D02*
X0095231Y0084315D01*
X0095149Y0084914D02*
X0082982Y0084914D01*
X0083004Y0085512D02*
X0095068Y0085512D01*
X0094986Y0086111D02*
X0083026Y0086111D01*
X0083048Y0086709D02*
X0094905Y0086709D01*
X0094823Y0087308D02*
X0083070Y0087308D01*
X0083093Y0087906D02*
X0094741Y0087906D01*
X0094660Y0088505D02*
X0083115Y0088505D01*
X0083137Y0089103D02*
X0094578Y0089103D01*
X0094496Y0089702D02*
X0083159Y0089702D01*
X0083181Y0090300D02*
X0094415Y0090300D01*
X0094333Y0090899D02*
X0083203Y0090899D01*
X0083226Y0091497D02*
X0093900Y0091497D01*
X0093302Y0092096D02*
X0083248Y0092096D01*
X0083270Y0092694D02*
X0092703Y0092694D01*
X0092105Y0093293D02*
X0083408Y0093293D01*
X0083727Y0093891D02*
X0091506Y0093891D01*
X0090908Y0094490D02*
X0084046Y0094490D01*
X0084366Y0095088D02*
X0090309Y0095088D01*
X0089711Y0095687D02*
X0084685Y0095687D01*
X0085004Y0096285D02*
X0089112Y0096285D01*
X0088514Y0096884D02*
X0085323Y0096884D01*
X0085643Y0097482D02*
X0087915Y0097482D01*
X0087317Y0098081D02*
X0085962Y0098081D01*
X0086281Y0098679D02*
X0086718Y0098679D01*
X0088511Y0100475D02*
X0092794Y0100475D01*
X0092585Y0101073D02*
X0087831Y0101073D01*
X0087150Y0101672D02*
X0092375Y0101672D01*
X0092166Y0102270D02*
X0086470Y0102270D01*
X0085790Y0102869D02*
X0091956Y0102869D01*
X0091945Y0102902D02*
X0094701Y0095028D01*
X0084858Y0103689D01*
X0082102Y0099752D01*
X0076984Y0110776D01*
X0091945Y0102902D01*
X0090870Y0103467D02*
X0085110Y0103467D01*
X0084703Y0103467D02*
X0080377Y0103467D01*
X0080655Y0102869D02*
X0084284Y0102869D01*
X0083865Y0102270D02*
X0080933Y0102270D01*
X0081211Y0101672D02*
X0083446Y0101672D01*
X0083027Y0101073D02*
X0081489Y0101073D01*
X0081767Y0100475D02*
X0082608Y0100475D01*
X0082189Y0099876D02*
X0082045Y0099876D01*
X0080099Y0104066D02*
X0089733Y0104066D01*
X0088595Y0104664D02*
X0079822Y0104664D01*
X0079544Y0105263D02*
X0087458Y0105263D01*
X0086321Y0105861D02*
X0079266Y0105861D01*
X0078988Y0106460D02*
X0085184Y0106460D01*
X0084047Y0107058D02*
X0078710Y0107058D01*
X0078432Y0107657D02*
X0082910Y0107657D01*
X0081772Y0108255D02*
X0078154Y0108255D01*
X0077876Y0108854D02*
X0080635Y0108854D01*
X0079498Y0109453D02*
X0077599Y0109453D01*
X0077321Y0110051D02*
X0078361Y0110051D01*
X0077224Y0110650D02*
X0077043Y0110650D01*
X0089191Y0099876D02*
X0093004Y0099876D01*
X0093213Y0099278D02*
X0089871Y0099278D01*
X0090551Y0098679D02*
X0093423Y0098679D01*
X0093632Y0098081D02*
X0091231Y0098081D01*
X0091911Y0097482D02*
X0093842Y0097482D01*
X0094051Y0096884D02*
X0092591Y0096884D01*
X0093272Y0096285D02*
X0094261Y0096285D01*
X0094470Y0095687D02*
X0093952Y0095687D01*
X0094632Y0095088D02*
X0094680Y0095088D01*
X0074099Y0092694D02*
X0069634Y0092694D01*
X0069630Y0087906D02*
X0074072Y0087906D01*
D12*
X0229346Y0127705D03*
X0229346Y0143453D03*
D13*
X0115764Y0137547D03*
X0110646Y0137547D03*
X0056709Y0043059D03*
X0051591Y0043059D03*
X0038992Y0041091D03*
X0033874Y0041091D03*
X0071276Y0027311D03*
X0076394Y0027311D03*
X0076394Y0019437D03*
X0071276Y0019437D03*
X0071276Y0013531D03*
X0076394Y0013531D03*
D14*
X0060055Y0030657D03*
X0054150Y0030657D03*
X0054150Y0035776D03*
X0060055Y0035776D03*
X0045094Y0039319D03*
X0045094Y0044437D03*
X0026591Y0031839D03*
X0020685Y0031839D03*
X0020685Y0026720D03*
X0026591Y0026720D03*
X0105331Y0025933D03*
X0105331Y0020815D03*
X0105331Y0034594D03*
X0105331Y0039713D03*
X0229346Y0038531D03*
X0229346Y0043650D03*
X0099425Y0131051D03*
X0099425Y0136169D03*
X0089583Y0136169D03*
X0089583Y0131051D03*
D15*
X0073835Y0041484D03*
X0077575Y0032823D03*
X0070094Y0032823D03*
X0052181Y0023768D03*
X0048441Y0015106D03*
X0055921Y0015106D03*
D16*
X0026984Y0015500D03*
X0038008Y0015500D03*
D17*
X0134858Y0073571D03*
X0140764Y0073571D03*
X0140764Y0079476D03*
X0134858Y0079476D03*
D18*
X0139228Y0128642D02*
X0139228Y0134642D01*
X0149228Y0134642D02*
X0149228Y0128642D01*
X0159228Y0128642D02*
X0159228Y0134642D01*
X0169228Y0134642D02*
X0169228Y0128642D01*
X0179228Y0128642D02*
X0179228Y0134642D01*
X0189228Y0134642D02*
X0189228Y0128642D01*
X0199228Y0128642D02*
X0199228Y0134642D01*
X0209228Y0134642D02*
X0209228Y0128642D01*
X0209228Y0142421D02*
X0209228Y0148421D01*
X0199228Y0148421D02*
X0199228Y0142421D01*
X0189228Y0142421D02*
X0189228Y0148421D01*
X0179228Y0148421D02*
X0179228Y0142421D01*
X0169228Y0142421D02*
X0169228Y0148421D01*
X0159228Y0148421D02*
X0159228Y0142421D01*
X0149228Y0142421D02*
X0149228Y0148421D01*
X0139228Y0148421D02*
X0139228Y0142421D01*
X0119425Y0144390D02*
X0119425Y0150390D01*
X0109425Y0150390D02*
X0109425Y0144390D01*
X0099425Y0144390D02*
X0099425Y0150390D01*
X0089425Y0150390D02*
X0089425Y0144390D01*
X0079425Y0144390D02*
X0079425Y0150390D01*
D19*
X0229346Y0111957D03*
X0229346Y0100146D03*
X0229346Y0088335D03*
X0229346Y0076524D03*
X0229346Y0064713D03*
D20*
X0099051Y0039580D03*
X0094051Y0039580D03*
X0089051Y0039580D03*
X0084051Y0039580D03*
X0084051Y0018980D03*
X0089051Y0018980D03*
X0094051Y0018980D03*
X0099051Y0018980D03*
D21*
X0120252Y0024949D03*
D22*
X0120252Y0046602D03*
X0129307Y0046602D03*
X0111197Y0046602D03*
D23*
X0064217Y0146933D02*
X0064217Y0151783D01*
X0064217Y0146933D02*
X0063767Y0146933D01*
X0063767Y0151783D01*
X0064217Y0151783D01*
X0064217Y0151482D02*
X0063767Y0151482D01*
X0058312Y0151783D02*
X0058312Y0146933D01*
X0057862Y0146933D01*
X0057862Y0151783D01*
X0058312Y0151783D01*
X0058312Y0151482D02*
X0057862Y0151482D01*
X0052406Y0151783D02*
X0052406Y0146933D01*
X0051956Y0146933D01*
X0051956Y0151783D01*
X0052406Y0151783D01*
X0052406Y0151482D02*
X0051956Y0151482D01*
X0046501Y0151783D02*
X0046501Y0146933D01*
X0046051Y0146933D01*
X0046051Y0151783D01*
X0046501Y0151783D01*
X0046501Y0151482D02*
X0046051Y0151482D01*
X0040595Y0151783D02*
X0040595Y0146933D01*
X0040145Y0146933D01*
X0040145Y0151783D01*
X0040595Y0151783D01*
X0040595Y0151482D02*
X0040145Y0151482D01*
X0034690Y0151783D02*
X0034690Y0146933D01*
X0034240Y0146933D01*
X0034240Y0151783D01*
X0034690Y0151783D01*
X0034690Y0151482D02*
X0034240Y0151482D01*
X0028784Y0151783D02*
X0028784Y0146933D01*
X0028334Y0146933D01*
X0028334Y0151783D01*
X0028784Y0151783D01*
X0028784Y0151482D02*
X0028334Y0151482D01*
X0022879Y0151783D02*
X0022879Y0146933D01*
X0022429Y0146933D01*
X0022429Y0151783D01*
X0022879Y0151783D01*
X0022879Y0151482D02*
X0022429Y0151482D01*
D24*
X0034661Y0033217D03*
X0034661Y0031248D03*
X0034661Y0029280D03*
X0034661Y0027311D03*
X0034661Y0025343D03*
X0046079Y0025343D03*
X0046079Y0027311D03*
X0046079Y0029280D03*
X0046079Y0031248D03*
X0046079Y0033217D03*
D25*
X0040370Y0029280D03*
D26*
X0147457Y0060776D03*
X0147457Y0063925D03*
X0147457Y0067075D03*
X0147457Y0070224D03*
X0147457Y0073374D03*
X0147457Y0076524D03*
X0147457Y0079673D03*
X0147457Y0082823D03*
X0147457Y0085972D03*
X0147457Y0089122D03*
X0147457Y0092272D03*
X0147457Y0095421D03*
X0147457Y0098571D03*
X0147457Y0101720D03*
X0147457Y0104870D03*
X0147457Y0108020D03*
X0208874Y0108020D03*
X0208874Y0104870D03*
X0208874Y0101720D03*
X0208874Y0098571D03*
X0208874Y0095421D03*
X0208874Y0092272D03*
X0208874Y0089122D03*
X0208874Y0085972D03*
X0208874Y0082823D03*
X0208874Y0079673D03*
X0208874Y0076524D03*
X0208874Y0073374D03*
X0208874Y0070224D03*
X0208874Y0067075D03*
X0208874Y0063925D03*
X0208874Y0060776D03*
D27*
X0201787Y0053689D03*
X0198638Y0053689D03*
X0195488Y0053689D03*
X0192339Y0053689D03*
X0189189Y0053689D03*
X0186039Y0053689D03*
X0182890Y0053689D03*
X0179740Y0053689D03*
X0176591Y0053689D03*
X0173441Y0053689D03*
X0170291Y0053689D03*
X0167142Y0053689D03*
X0163992Y0053689D03*
X0160843Y0053689D03*
X0157693Y0053689D03*
X0154543Y0053689D03*
X0154543Y0115106D03*
X0157693Y0115106D03*
X0160843Y0115106D03*
X0163992Y0115106D03*
X0167142Y0115106D03*
X0170291Y0115106D03*
X0173441Y0115106D03*
X0176591Y0115106D03*
X0179740Y0115106D03*
X0182890Y0115106D03*
X0186039Y0115106D03*
X0189189Y0115106D03*
X0192339Y0115106D03*
X0195488Y0115106D03*
X0198638Y0115106D03*
X0201787Y0115106D03*
D28*
X0200803Y0030264D03*
X0198835Y0030264D03*
X0196866Y0030264D03*
X0194898Y0030264D03*
X0192929Y0030264D03*
X0190961Y0030264D03*
X0188992Y0030264D03*
X0187024Y0030264D03*
X0185055Y0030264D03*
X0183087Y0030264D03*
X0181118Y0030264D03*
X0179150Y0030264D03*
X0177181Y0030264D03*
X0175213Y0030264D03*
X0173244Y0030264D03*
X0171276Y0030264D03*
X0169307Y0030264D03*
X0167339Y0030264D03*
X0165370Y0030264D03*
X0163402Y0030264D03*
X0161433Y0030264D03*
X0159465Y0030264D03*
X0157496Y0030264D03*
X0155528Y0030264D03*
X0153559Y0030264D03*
X0151591Y0030264D03*
X0149622Y0030264D03*
X0147654Y0030264D03*
X0202772Y0030264D03*
X0204740Y0030264D03*
X0206709Y0030264D03*
X0208677Y0030264D03*
X0210646Y0030264D03*
X0212614Y0030264D03*
X0214583Y0030264D03*
X0216551Y0030264D03*
X0218520Y0030264D03*
X0220488Y0030264D03*
X0222457Y0030264D03*
X0224425Y0030264D03*
D29*
X0231906Y0017469D03*
X0140173Y0017469D03*
D30*
X0142732Y0029280D03*
X0142732Y0033134D03*
X0126984Y0041091D03*
X0115173Y0048965D03*
X0121079Y0052902D03*
X0125016Y0056839D03*
X0115173Y0033217D03*
X0081709Y0026330D03*
X0060055Y0025343D03*
X0056766Y0039198D03*
X0040370Y0037154D03*
X0123047Y0100146D03*
X0119110Y0104083D03*
X0113205Y0108020D03*
X0111236Y0111957D03*
X0123047Y0111957D03*
X0134728Y0115763D03*
X0150606Y0111957D03*
X0164386Y0121153D03*
X0142732Y0099305D03*
X0154543Y0096209D03*
X0162417Y0088335D03*
X0154543Y0080461D03*
X0162417Y0072587D03*
X0193913Y0072587D03*
X0202176Y0076524D03*
X0200577Y0092272D03*
X0201787Y0102114D03*
X0197850Y0104083D03*
X0202295Y0107512D03*
X0213598Y0100146D03*
X0204822Y0118765D03*
X0197850Y0119831D03*
X0205724Y0056839D03*
X0221472Y0045028D03*
X0217535Y0037154D03*
X0205724Y0023374D03*
X0040370Y0141484D03*
X0056118Y0142969D03*
M02*
