G75*
%MOIN*%
%OFA0B0*%
%FSLAX25Y25*%
%IPPOS*%
%LPD*%
%AMOC8*
5,1,8,0,0,1.08239X$1,22.5*
%
%ADD10OC8,0.10000*%
%ADD11R,0.02756X0.03543*%
%ADD12R,0.03543X0.02756*%
%ADD13R,0.03937X0.05512*%
%ADD14R,0.06299X0.08661*%
%ADD15R,0.03150X0.03150*%
%ADD16C,0.06000*%
%ADD17OC8,0.10050*%
%ADD18R,0.02400X0.08700*%
%ADD19R,0.15000X0.07600*%
%ADD20R,0.02800X0.05600*%
%ADD21C,0.03822*%
%ADD22R,0.03937X0.01200*%
%ADD23R,0.05000X0.10000*%
%ADD24R,0.04700X0.02200*%
%ADD25R,0.02200X0.04700*%
%ADD26R,0.01181X0.05118*%
%ADD27R,0.07087X0.08661*%
%ADD28C,0.01200*%
%ADD29C,0.02978*%
%ADD30C,0.00600*%
%ADD31C,0.00300*%
D10*
X0229346Y0127705D03*
X0229346Y0143453D03*
D11*
X0115764Y0137547D03*
X0110646Y0137547D03*
X0056709Y0043059D03*
X0051591Y0043059D03*
X0038992Y0041091D03*
X0033874Y0041091D03*
X0071276Y0027311D03*
X0076394Y0027311D03*
X0076394Y0019437D03*
X0071276Y0019437D03*
X0071276Y0013531D03*
X0076394Y0013531D03*
D12*
X0060055Y0030657D03*
X0054150Y0030657D03*
X0054150Y0035776D03*
X0060055Y0035776D03*
X0045094Y0039319D03*
X0045094Y0044437D03*
X0026591Y0031839D03*
X0020685Y0031839D03*
X0020685Y0026720D03*
X0026591Y0026720D03*
X0105331Y0025933D03*
X0105331Y0020815D03*
X0105331Y0034594D03*
X0105331Y0039713D03*
X0229346Y0038531D03*
X0229346Y0043650D03*
X0099425Y0131051D03*
X0099425Y0136169D03*
X0089583Y0136169D03*
X0089583Y0131051D03*
D13*
X0073835Y0041484D03*
X0077575Y0032823D03*
X0070094Y0032823D03*
X0052181Y0023768D03*
X0048441Y0015106D03*
X0055921Y0015106D03*
D14*
X0038008Y0015500D03*
X0026984Y0015500D03*
D15*
X0134858Y0073571D03*
X0140764Y0073571D03*
X0140764Y0079476D03*
X0134858Y0079476D03*
D16*
X0139228Y0128642D02*
X0139228Y0134642D01*
X0149228Y0134642D02*
X0149228Y0128642D01*
X0159228Y0128642D02*
X0159228Y0134642D01*
X0169228Y0134642D02*
X0169228Y0128642D01*
X0179228Y0128642D02*
X0179228Y0134642D01*
X0189228Y0134642D02*
X0189228Y0128642D01*
X0199228Y0128642D02*
X0199228Y0134642D01*
X0209228Y0134642D02*
X0209228Y0128642D01*
X0209228Y0142421D02*
X0209228Y0148421D01*
X0199228Y0148421D02*
X0199228Y0142421D01*
X0189228Y0142421D02*
X0189228Y0148421D01*
X0179228Y0148421D02*
X0179228Y0142421D01*
X0169228Y0142421D02*
X0169228Y0148421D01*
X0159228Y0148421D02*
X0159228Y0142421D01*
X0149228Y0142421D02*
X0149228Y0148421D01*
X0139228Y0148421D02*
X0139228Y0142421D01*
X0119425Y0144390D02*
X0119425Y0150390D01*
X0109425Y0150390D02*
X0109425Y0144390D01*
X0099425Y0144390D02*
X0099425Y0150390D01*
X0089425Y0150390D02*
X0089425Y0144390D01*
X0079425Y0144390D02*
X0079425Y0150390D01*
D17*
X0229346Y0111957D03*
X0229346Y0100146D03*
X0229346Y0088335D03*
X0229346Y0076524D03*
X0229346Y0064713D03*
D18*
X0099051Y0039580D03*
X0094051Y0039580D03*
X0089051Y0039580D03*
X0084051Y0039580D03*
X0084051Y0018980D03*
X0089051Y0018980D03*
X0094051Y0018980D03*
X0099051Y0018980D03*
D19*
X0120252Y0024949D03*
D20*
X0120252Y0046602D03*
X0129307Y0046602D03*
X0111197Y0046602D03*
D21*
X0064181Y0146969D02*
X0064181Y0151747D01*
X0064181Y0146969D02*
X0063803Y0146969D01*
X0063803Y0151747D01*
X0064181Y0151747D01*
X0064181Y0150790D02*
X0063803Y0150790D01*
X0058276Y0151747D02*
X0058276Y0146969D01*
X0057898Y0146969D01*
X0057898Y0151747D01*
X0058276Y0151747D01*
X0058276Y0150790D02*
X0057898Y0150790D01*
X0052370Y0151747D02*
X0052370Y0146969D01*
X0051992Y0146969D01*
X0051992Y0151747D01*
X0052370Y0151747D01*
X0052370Y0150790D02*
X0051992Y0150790D01*
X0046465Y0151747D02*
X0046465Y0146969D01*
X0046087Y0146969D01*
X0046087Y0151747D01*
X0046465Y0151747D01*
X0046465Y0150790D02*
X0046087Y0150790D01*
X0040559Y0151747D02*
X0040559Y0146969D01*
X0040181Y0146969D01*
X0040181Y0151747D01*
X0040559Y0151747D01*
X0040559Y0150790D02*
X0040181Y0150790D01*
X0034654Y0151747D02*
X0034654Y0146969D01*
X0034276Y0146969D01*
X0034276Y0151747D01*
X0034654Y0151747D01*
X0034654Y0150790D02*
X0034276Y0150790D01*
X0028748Y0151747D02*
X0028748Y0146969D01*
X0028370Y0146969D01*
X0028370Y0151747D01*
X0028748Y0151747D01*
X0028748Y0150790D02*
X0028370Y0150790D01*
X0022843Y0151747D02*
X0022843Y0146969D01*
X0022465Y0146969D01*
X0022465Y0151747D01*
X0022843Y0151747D01*
X0022843Y0150790D02*
X0022465Y0150790D01*
D22*
X0034661Y0033217D03*
X0034661Y0031248D03*
X0034661Y0029280D03*
X0034661Y0027311D03*
X0034661Y0025343D03*
X0046079Y0025343D03*
X0046079Y0027311D03*
X0046079Y0029280D03*
X0046079Y0031248D03*
X0046079Y0033217D03*
D23*
X0040370Y0029280D03*
D24*
X0147457Y0060776D03*
X0147457Y0063925D03*
X0147457Y0067075D03*
X0147457Y0070224D03*
X0147457Y0073374D03*
X0147457Y0076524D03*
X0147457Y0079673D03*
X0147457Y0082823D03*
X0147457Y0085972D03*
X0147457Y0089122D03*
X0147457Y0092272D03*
X0147457Y0095421D03*
X0147457Y0098571D03*
X0147457Y0101720D03*
X0147457Y0104870D03*
X0147457Y0108020D03*
X0208874Y0108020D03*
X0208874Y0104870D03*
X0208874Y0101720D03*
X0208874Y0098571D03*
X0208874Y0095421D03*
X0208874Y0092272D03*
X0208874Y0089122D03*
X0208874Y0085972D03*
X0208874Y0082823D03*
X0208874Y0079673D03*
X0208874Y0076524D03*
X0208874Y0073374D03*
X0208874Y0070224D03*
X0208874Y0067075D03*
X0208874Y0063925D03*
X0208874Y0060776D03*
D25*
X0201787Y0053689D03*
X0198638Y0053689D03*
X0195488Y0053689D03*
X0192339Y0053689D03*
X0189189Y0053689D03*
X0186039Y0053689D03*
X0182890Y0053689D03*
X0179740Y0053689D03*
X0176591Y0053689D03*
X0173441Y0053689D03*
X0170291Y0053689D03*
X0167142Y0053689D03*
X0163992Y0053689D03*
X0160843Y0053689D03*
X0157693Y0053689D03*
X0154543Y0053689D03*
X0154543Y0115106D03*
X0157693Y0115106D03*
X0160843Y0115106D03*
X0163992Y0115106D03*
X0167142Y0115106D03*
X0170291Y0115106D03*
X0173441Y0115106D03*
X0176591Y0115106D03*
X0179740Y0115106D03*
X0182890Y0115106D03*
X0186039Y0115106D03*
X0189189Y0115106D03*
X0192339Y0115106D03*
X0195488Y0115106D03*
X0198638Y0115106D03*
X0201787Y0115106D03*
D26*
X0200803Y0030264D03*
X0198835Y0030264D03*
X0196866Y0030264D03*
X0194898Y0030264D03*
X0192929Y0030264D03*
X0190961Y0030264D03*
X0188992Y0030264D03*
X0187024Y0030264D03*
X0185055Y0030264D03*
X0183087Y0030264D03*
X0181118Y0030264D03*
X0179150Y0030264D03*
X0177181Y0030264D03*
X0175213Y0030264D03*
X0173244Y0030264D03*
X0171276Y0030264D03*
X0169307Y0030264D03*
X0167339Y0030264D03*
X0165370Y0030264D03*
X0163402Y0030264D03*
X0161433Y0030264D03*
X0159465Y0030264D03*
X0157496Y0030264D03*
X0155528Y0030264D03*
X0153559Y0030264D03*
X0151591Y0030264D03*
X0149622Y0030264D03*
X0147654Y0030264D03*
X0202772Y0030264D03*
X0204740Y0030264D03*
X0206709Y0030264D03*
X0208677Y0030264D03*
X0210646Y0030264D03*
X0212614Y0030264D03*
X0214583Y0030264D03*
X0216551Y0030264D03*
X0218520Y0030264D03*
X0220488Y0030264D03*
X0222457Y0030264D03*
X0224425Y0030264D03*
D27*
X0231906Y0017469D03*
X0140173Y0017469D03*
D28*
X0017411Y0022037D02*
X0017411Y0006320D01*
X0236557Y0006320D01*
X0236557Y0011984D01*
X0236112Y0011538D01*
X0227699Y0011538D01*
X0226762Y0012475D01*
X0226762Y0022462D01*
X0227699Y0023399D01*
X0236112Y0023399D01*
X0236557Y0022953D01*
X0236557Y0158538D01*
X0187314Y0158538D01*
X0195181Y0150671D01*
X0195329Y0151027D01*
X0196623Y0152321D01*
X0198313Y0153021D01*
X0200143Y0153021D01*
X0201834Y0152321D01*
X0203128Y0151027D01*
X0203828Y0149336D01*
X0203828Y0141506D01*
X0203128Y0139816D01*
X0201844Y0138531D01*
X0203128Y0137247D01*
X0203828Y0135557D01*
X0203828Y0128929D01*
X0204628Y0129729D01*
X0204628Y0135557D01*
X0205329Y0137247D01*
X0206613Y0138531D01*
X0205329Y0139816D01*
X0204628Y0141506D01*
X0204628Y0149336D01*
X0205329Y0151027D01*
X0206623Y0152321D01*
X0208313Y0153021D01*
X0210143Y0153021D01*
X0211834Y0152321D01*
X0213128Y0151027D01*
X0213828Y0149336D01*
X0213828Y0141506D01*
X0213128Y0139816D01*
X0212692Y0139380D01*
X0213915Y0138157D01*
X0215028Y0137044D01*
X0215028Y0120937D01*
X0204133Y0110042D01*
X0204256Y0109920D01*
X0205061Y0109920D01*
X0205861Y0110720D01*
X0211887Y0110720D01*
X0212824Y0109782D01*
X0212824Y0103168D01*
X0212984Y0103235D01*
X0214213Y0103235D01*
X0215348Y0102764D01*
X0215767Y0102346D01*
X0222721Y0102346D01*
X0222721Y0102890D01*
X0225883Y0106051D01*
X0222721Y0109213D01*
X0222721Y0114701D01*
X0226602Y0118582D01*
X0227146Y0118582D01*
X0227146Y0121105D01*
X0226613Y0121105D01*
X0222746Y0124971D01*
X0222746Y0130439D01*
X0226613Y0134305D01*
X0232080Y0134305D01*
X0235946Y0130439D01*
X0235946Y0124971D01*
X0232080Y0121105D01*
X0231546Y0121105D01*
X0231546Y0118582D01*
X0232091Y0118582D01*
X0235971Y0114701D01*
X0235971Y0109213D01*
X0232810Y0106051D01*
X0235971Y0102890D01*
X0235971Y0097402D01*
X0232810Y0094240D01*
X0235971Y0091079D01*
X0235971Y0085590D01*
X0232810Y0082429D01*
X0235971Y0079268D01*
X0235971Y0073779D01*
X0232810Y0070618D01*
X0235971Y0067457D01*
X0235971Y0065313D01*
X0229947Y0065313D01*
X0229947Y0064113D01*
X0235971Y0064113D01*
X0235971Y0061968D01*
X0232091Y0058088D01*
X0229946Y0058088D01*
X0229946Y0064113D01*
X0228746Y0064113D01*
X0228746Y0058088D01*
X0226602Y0058088D01*
X0224824Y0059866D01*
X0224824Y0052345D01*
X0223711Y0051232D01*
X0223711Y0051232D01*
X0220410Y0047931D01*
X0220858Y0048117D01*
X0222087Y0048117D01*
X0223222Y0047646D01*
X0224091Y0046777D01*
X0224475Y0045850D01*
X0226134Y0045850D01*
X0226912Y0046628D01*
X0231781Y0046628D01*
X0232718Y0045690D01*
X0232718Y0041609D01*
X0232200Y0041091D01*
X0232718Y0040572D01*
X0232718Y0036491D01*
X0231781Y0035554D01*
X0229055Y0035554D01*
X0227816Y0034314D01*
X0227816Y0026545D01*
X0227289Y0026018D01*
X0226176Y0024905D01*
X0206927Y0024905D01*
X0205814Y0026018D01*
X0205727Y0026105D01*
X0202772Y0026105D01*
X0202772Y0026820D01*
X0202772Y0026820D01*
X0202772Y0026820D01*
X0202772Y0026105D01*
X0151591Y0026105D01*
X0151591Y0026243D01*
X0151590Y0026243D01*
X0151590Y0026105D01*
X0151452Y0026105D01*
X0149652Y0024305D01*
X0135716Y0024305D01*
X0130449Y0019038D01*
X0129160Y0017749D01*
X0110222Y0017749D01*
X0103703Y0011230D01*
X0096443Y0011230D01*
X0095154Y0012518D01*
X0094643Y0013030D01*
X0094051Y0013030D01*
X0094051Y0018979D01*
X0094051Y0018979D01*
X0094051Y0013030D01*
X0092641Y0013030D01*
X0092234Y0013139D01*
X0091869Y0013349D01*
X0091571Y0013647D01*
X0091556Y0013672D01*
X0090914Y0013030D01*
X0088459Y0013030D01*
X0087948Y0012518D01*
X0086659Y0011230D01*
X0079372Y0011230D01*
X0079372Y0011097D01*
X0078434Y0010160D01*
X0074353Y0010160D01*
X0073835Y0010678D01*
X0073636Y0010480D01*
X0073271Y0010269D01*
X0072864Y0010160D01*
X0071365Y0010160D01*
X0071365Y0013442D01*
X0073416Y0013442D01*
X0073416Y0013620D01*
X0071365Y0013620D01*
X0071365Y0013442D01*
X0071187Y0013442D01*
X0071187Y0010160D01*
X0069687Y0010160D01*
X0069280Y0010269D01*
X0068915Y0010480D01*
X0068617Y0010777D01*
X0068407Y0011142D01*
X0068298Y0011549D01*
X0068298Y0013442D01*
X0071187Y0013442D01*
X0071187Y0013620D01*
X0068298Y0013620D01*
X0068298Y0015514D01*
X0068407Y0015921D01*
X0068617Y0016286D01*
X0068816Y0016484D01*
X0068298Y0017003D01*
X0068298Y0021871D01*
X0069076Y0022649D01*
X0069076Y0024099D01*
X0068298Y0024877D01*
X0068298Y0028467D01*
X0067463Y0028467D01*
X0066526Y0029404D01*
X0066526Y0034017D01*
X0063427Y0030918D01*
X0063427Y0028617D01*
X0062490Y0027680D01*
X0057621Y0027680D01*
X0057102Y0028198D01*
X0056584Y0027680D01*
X0055256Y0027680D01*
X0055750Y0027186D01*
X0055750Y0020349D01*
X0054863Y0019462D01*
X0058552Y0019462D01*
X0059490Y0018525D01*
X0059490Y0011688D01*
X0058552Y0010750D01*
X0053290Y0010750D01*
X0052353Y0011688D01*
X0052353Y0018525D01*
X0053240Y0019412D01*
X0051123Y0019412D01*
X0052009Y0018525D01*
X0052009Y0011688D01*
X0051072Y0010750D01*
X0045810Y0010750D01*
X0044872Y0011688D01*
X0044872Y0013300D01*
X0042757Y0013300D01*
X0042757Y0010507D01*
X0041820Y0009569D01*
X0034196Y0009569D01*
X0033258Y0010507D01*
X0033258Y0020493D01*
X0034196Y0021431D01*
X0041820Y0021431D01*
X0042757Y0020493D01*
X0042757Y0017700D01*
X0043879Y0017700D01*
X0043879Y0023025D01*
X0043852Y0022999D01*
X0043488Y0022789D01*
X0043081Y0022680D01*
X0040970Y0022680D01*
X0040970Y0028679D01*
X0039770Y0028679D01*
X0039770Y0022680D01*
X0037659Y0022680D01*
X0037252Y0022789D01*
X0036888Y0022999D01*
X0036744Y0023143D01*
X0034661Y0023143D01*
X0034661Y0025342D01*
X0034661Y0025342D01*
X0034661Y0023143D01*
X0032482Y0023143D01*
X0032075Y0023252D01*
X0031866Y0023373D01*
X0031724Y0023231D01*
X0030436Y0021943D01*
X0025696Y0021943D01*
X0026208Y0021431D01*
X0030797Y0021431D01*
X0031734Y0020493D01*
X0031734Y0010507D01*
X0030797Y0009569D01*
X0023172Y0009569D01*
X0022235Y0010507D01*
X0022235Y0019181D01*
X0019474Y0021943D01*
X0017505Y0021943D01*
X0017411Y0022037D01*
X0017411Y0020897D02*
X0020519Y0020897D01*
X0021718Y0019698D02*
X0017411Y0019698D01*
X0017411Y0018500D02*
X0022235Y0018500D01*
X0022235Y0017301D02*
X0017411Y0017301D01*
X0017411Y0016103D02*
X0022235Y0016103D01*
X0022235Y0014904D02*
X0017411Y0014904D01*
X0017411Y0013706D02*
X0022235Y0013706D01*
X0022235Y0012507D02*
X0017411Y0012507D01*
X0017411Y0011309D02*
X0022235Y0011309D01*
X0022631Y0010110D02*
X0017411Y0010110D01*
X0017411Y0008912D02*
X0236557Y0008912D01*
X0236557Y0010110D02*
X0042361Y0010110D01*
X0042757Y0011309D02*
X0045252Y0011309D01*
X0044872Y0012507D02*
X0042757Y0012507D01*
X0046079Y0015697D02*
X0046276Y0015500D01*
X0048047Y0015500D01*
X0048441Y0015106D01*
X0046276Y0015500D02*
X0038008Y0015500D01*
X0033258Y0014904D02*
X0031734Y0014904D01*
X0031734Y0013706D02*
X0033258Y0013706D01*
X0033258Y0012507D02*
X0031734Y0012507D01*
X0031734Y0011309D02*
X0033258Y0011309D01*
X0033655Y0010110D02*
X0031337Y0010110D01*
X0031734Y0016103D02*
X0033258Y0016103D01*
X0033258Y0017301D02*
X0031734Y0017301D01*
X0031734Y0018500D02*
X0033258Y0018500D01*
X0033258Y0019698D02*
X0031734Y0019698D01*
X0031331Y0020897D02*
X0033661Y0020897D01*
X0030588Y0022095D02*
X0043879Y0022095D01*
X0043879Y0020897D02*
X0042354Y0020897D01*
X0042757Y0019698D02*
X0043879Y0019698D01*
X0043879Y0018500D02*
X0042757Y0018500D01*
X0046079Y0015697D02*
X0046079Y0025343D01*
X0046079Y0027311D01*
X0046079Y0029280D02*
X0046079Y0031248D01*
X0046247Y0031417D01*
X0048544Y0031417D01*
X0049247Y0032119D01*
X0049247Y0034314D01*
X0048066Y0035495D01*
X0048066Y0046312D01*
X0050719Y0048965D01*
X0107299Y0048965D01*
X0111236Y0052902D01*
X0121079Y0052902D01*
X0118910Y0055102D02*
X0110325Y0055102D01*
X0106388Y0051165D01*
X0049807Y0051165D01*
X0048519Y0049876D01*
X0047858Y0049215D01*
X0039159Y0049215D01*
X0037870Y0047926D01*
X0034406Y0044462D01*
X0031833Y0044462D01*
X0030896Y0043525D01*
X0030896Y0042043D01*
X0022597Y0042043D01*
X0021308Y0040754D01*
X0021308Y0040754D01*
X0021022Y0040467D01*
X0019733Y0039179D01*
X0019733Y0036876D01*
X0019474Y0036617D01*
X0017505Y0036617D01*
X0017411Y0036522D01*
X0017411Y0053817D01*
X0016711Y0055507D01*
X0015417Y0056801D01*
X0012811Y0059407D01*
X0012811Y0063900D01*
X0013756Y0063900D01*
X0015502Y0064623D01*
X0016838Y0065959D01*
X0017561Y0067705D01*
X0017561Y0097153D01*
X0016838Y0098899D01*
X0015502Y0100236D01*
X0013756Y0100959D01*
X0012811Y0100959D01*
X0012811Y0105451D01*
X0016711Y0109351D01*
X0017411Y0111042D01*
X0017411Y0158538D01*
X0049449Y0158538D01*
X0046681Y0155770D01*
X0046681Y0155258D01*
X0045388Y0155258D01*
X0044098Y0154724D01*
X0043323Y0153949D01*
X0042548Y0154724D01*
X0041257Y0155258D01*
X0039483Y0155258D01*
X0038192Y0154724D01*
X0037410Y0153942D01*
X0037381Y0153985D01*
X0036892Y0154474D01*
X0036317Y0154859D01*
X0035678Y0155123D01*
X0034999Y0155258D01*
X0034915Y0155258D01*
X0034915Y0149808D01*
X0034015Y0149808D01*
X0034015Y0155258D01*
X0033930Y0155258D01*
X0033251Y0155123D01*
X0032612Y0154859D01*
X0032037Y0154474D01*
X0031548Y0153985D01*
X0031519Y0153942D01*
X0030737Y0154724D01*
X0029446Y0155258D01*
X0027672Y0155258D01*
X0026381Y0154724D01*
X0025606Y0153949D01*
X0024831Y0154724D01*
X0023541Y0155258D01*
X0021766Y0155258D01*
X0020476Y0154724D01*
X0019488Y0153736D01*
X0018954Y0152446D01*
X0018954Y0146271D01*
X0019488Y0144980D01*
X0020476Y0143993D01*
X0021766Y0143458D01*
X0023541Y0143458D01*
X0023659Y0143507D01*
X0023659Y0143371D01*
X0024772Y0142258D01*
X0043844Y0123186D01*
X0044957Y0122073D01*
X0086622Y0122073D01*
X0086827Y0121868D01*
X0088401Y0121868D01*
X0089897Y0121868D01*
X0111971Y0099794D01*
X0119958Y0099794D01*
X0119958Y0099531D01*
X0120429Y0098396D01*
X0121297Y0097527D01*
X0122433Y0097057D01*
X0123662Y0097057D01*
X0124797Y0097527D01*
X0125666Y0098396D01*
X0125778Y0098665D01*
X0140592Y0083851D01*
X0138029Y0083851D01*
X0136829Y0082651D01*
X0132621Y0082651D01*
X0131683Y0081714D01*
X0131683Y0077239D01*
X0132425Y0076497D01*
X0132301Y0076426D01*
X0132003Y0076128D01*
X0131792Y0075763D01*
X0131683Y0075356D01*
X0131683Y0073758D01*
X0134671Y0073758D01*
X0134671Y0073383D01*
X0135046Y0073383D01*
X0135046Y0070396D01*
X0136644Y0070396D01*
X0137051Y0070505D01*
X0137415Y0070716D01*
X0137713Y0071014D01*
X0137811Y0071183D01*
X0137909Y0071014D01*
X0138207Y0070716D01*
X0138571Y0070505D01*
X0138978Y0070396D01*
X0140576Y0070396D01*
X0140576Y0073383D01*
X0140951Y0073383D01*
X0140951Y0070413D01*
X0124134Y0053596D01*
X0123697Y0054651D01*
X0122828Y0055520D01*
X0121693Y0055991D01*
X0120464Y0055991D01*
X0119329Y0055520D01*
X0118910Y0055102D01*
X0119651Y0055653D02*
X0016564Y0055653D01*
X0017147Y0054455D02*
X0109678Y0054455D01*
X0108480Y0053256D02*
X0017411Y0053256D01*
X0017411Y0052058D02*
X0107281Y0052058D01*
X0108197Y0046765D02*
X0108197Y0046714D01*
X0107391Y0045908D01*
X0106102Y0044619D01*
X0106102Y0042691D01*
X0102896Y0042691D01*
X0101985Y0041780D01*
X0101851Y0041780D01*
X0101851Y0044592D01*
X0100914Y0045530D01*
X0097188Y0045530D01*
X0096551Y0044892D01*
X0095914Y0045530D01*
X0092188Y0045530D01*
X0091551Y0044892D01*
X0090914Y0045530D01*
X0087188Y0045530D01*
X0086551Y0044892D01*
X0085914Y0045530D01*
X0082188Y0045530D01*
X0081251Y0044592D01*
X0081251Y0043684D01*
X0077403Y0043684D01*
X0077403Y0044903D01*
X0076466Y0045840D01*
X0071203Y0045840D01*
X0070266Y0044903D01*
X0070266Y0041027D01*
X0068218Y0038979D01*
X0065265Y0038979D01*
X0063427Y0037140D01*
X0063427Y0037816D01*
X0062490Y0038754D01*
X0062255Y0038754D01*
X0062255Y0040624D01*
X0060966Y0041913D01*
X0059687Y0043192D01*
X0059687Y0045493D01*
X0058749Y0046431D01*
X0054668Y0046431D01*
X0054150Y0045912D01*
X0053951Y0046111D01*
X0053586Y0046322D01*
X0053179Y0046431D01*
X0051680Y0046431D01*
X0051680Y0043148D01*
X0051502Y0043148D01*
X0051502Y0046431D01*
X0051296Y0046431D01*
X0051630Y0046765D01*
X0108197Y0046765D01*
X0107549Y0046065D02*
X0059115Y0046065D01*
X0059687Y0044867D02*
X0070266Y0044867D01*
X0070266Y0043668D02*
X0059687Y0043668D01*
X0060409Y0042470D02*
X0070266Y0042470D01*
X0070266Y0041271D02*
X0061608Y0041271D01*
X0062255Y0040073D02*
X0069312Y0040073D01*
X0069129Y0036779D02*
X0066176Y0036779D01*
X0060055Y0030657D01*
X0054150Y0030657D01*
X0052181Y0028689D01*
X0052181Y0023768D01*
X0055750Y0023294D02*
X0069076Y0023294D01*
X0068682Y0024492D02*
X0055750Y0024492D01*
X0055750Y0025691D02*
X0068298Y0025691D01*
X0068298Y0026889D02*
X0055750Y0026889D01*
X0056992Y0028088D02*
X0057213Y0028088D01*
X0060055Y0025343D02*
X0060055Y0024752D01*
X0071276Y0013531D01*
X0071547Y0013531D01*
X0074519Y0010560D01*
X0087879Y0010560D01*
X0091451Y0014132D01*
X0091451Y0016380D01*
X0094051Y0018980D01*
X0094051Y0018500D02*
X0094051Y0018500D01*
X0094051Y0017301D02*
X0094051Y0017301D01*
X0094051Y0016103D02*
X0094051Y0016103D01*
X0094051Y0014904D02*
X0094051Y0014904D01*
X0094051Y0013706D02*
X0094051Y0013706D01*
X0095165Y0012507D02*
X0087937Y0012507D01*
X0086739Y0011309D02*
X0096364Y0011309D01*
X0097354Y0013430D02*
X0096451Y0014332D01*
X0096451Y0023827D01*
X0095748Y0024530D01*
X0087354Y0024530D01*
X0086651Y0023827D01*
X0086651Y0021580D01*
X0084051Y0018980D01*
X0079657Y0023374D01*
X0071276Y0023374D01*
X0071276Y0019437D01*
X0068298Y0019698D02*
X0055099Y0019698D01*
X0055750Y0020897D02*
X0068298Y0020897D01*
X0068521Y0022095D02*
X0055750Y0022095D01*
X0052353Y0018500D02*
X0052009Y0018500D01*
X0052009Y0017301D02*
X0052353Y0017301D01*
X0052353Y0016103D02*
X0052009Y0016103D01*
X0052009Y0014904D02*
X0052353Y0014904D01*
X0052353Y0013706D02*
X0052009Y0013706D01*
X0052009Y0012507D02*
X0052353Y0012507D01*
X0052732Y0011309D02*
X0051630Y0011309D01*
X0059111Y0011309D02*
X0068362Y0011309D01*
X0068298Y0012507D02*
X0059490Y0012507D01*
X0059490Y0013706D02*
X0068298Y0013706D01*
X0068298Y0014904D02*
X0059490Y0014904D01*
X0059490Y0016103D02*
X0068512Y0016103D01*
X0068298Y0017301D02*
X0059490Y0017301D01*
X0059490Y0018500D02*
X0068298Y0018500D01*
X0071276Y0023374D02*
X0071276Y0027311D01*
X0071276Y0031642D01*
X0070094Y0032823D01*
X0066526Y0032882D02*
X0065391Y0032882D01*
X0066526Y0031683D02*
X0064192Y0031683D01*
X0063427Y0030485D02*
X0066526Y0030485D01*
X0066644Y0029286D02*
X0063427Y0029286D01*
X0062898Y0028088D02*
X0068298Y0028088D01*
X0076394Y0027311D02*
X0077375Y0026330D01*
X0081709Y0026330D01*
X0098948Y0026330D01*
X0104463Y0020815D01*
X0105331Y0020815D01*
X0111552Y0027036D01*
X0111552Y0029246D01*
X0115173Y0032867D01*
X0115173Y0033217D01*
X0118052Y0032882D02*
X0108702Y0032882D01*
X0108702Y0032554D02*
X0108702Y0035126D01*
X0110502Y0036926D01*
X0110502Y0042202D01*
X0113260Y0042202D01*
X0114197Y0043140D01*
X0114197Y0044877D01*
X0115011Y0045691D01*
X0115196Y0045876D01*
X0115788Y0045876D01*
X0116923Y0046346D01*
X0117252Y0046675D01*
X0117252Y0043140D01*
X0118052Y0042340D01*
X0118052Y0030349D01*
X0112089Y0030349D01*
X0111152Y0029412D01*
X0111152Y0022149D01*
X0108702Y0022149D01*
X0108702Y0022404D01*
X0108593Y0022810D01*
X0108383Y0023175D01*
X0108184Y0023374D01*
X0108702Y0023892D01*
X0108702Y0027974D01*
X0107765Y0028911D01*
X0107531Y0028911D01*
X0107531Y0031617D01*
X0107765Y0031617D01*
X0108702Y0032554D01*
X0107832Y0031683D02*
X0118052Y0031683D01*
X0118052Y0030485D02*
X0107531Y0030485D01*
X0107531Y0029286D02*
X0111152Y0029286D01*
X0111152Y0028088D02*
X0108588Y0028088D01*
X0108702Y0026889D02*
X0111152Y0026889D01*
X0111152Y0025691D02*
X0108702Y0025691D01*
X0108702Y0024492D02*
X0111152Y0024492D01*
X0111152Y0023294D02*
X0108264Y0023294D01*
X0105331Y0025933D02*
X0105331Y0033217D01*
X0088167Y0033217D01*
X0086651Y0034732D01*
X0086651Y0036980D01*
X0084051Y0039580D01*
X0082146Y0041484D01*
X0073835Y0041484D01*
X0069129Y0036779D01*
X0065161Y0038874D02*
X0062255Y0038874D01*
X0063427Y0037676D02*
X0063962Y0037676D01*
X0060055Y0035776D02*
X0060055Y0039713D01*
X0056709Y0043059D01*
X0054303Y0046065D02*
X0053997Y0046065D01*
X0051680Y0046065D02*
X0051502Y0046065D01*
X0051502Y0044867D02*
X0051680Y0044867D01*
X0051680Y0043668D02*
X0051502Y0043668D01*
X0051591Y0043059D02*
X0054150Y0040500D01*
X0054150Y0039122D01*
X0056690Y0039122D01*
X0056766Y0039198D01*
X0056969Y0039687D02*
X0057855Y0038801D01*
X0057855Y0038754D01*
X0057621Y0038754D01*
X0057102Y0038235D01*
X0056904Y0038434D01*
X0056539Y0038645D01*
X0056132Y0038754D01*
X0054239Y0038754D01*
X0054239Y0035865D01*
X0054061Y0035865D01*
X0054061Y0038754D01*
X0052167Y0038754D01*
X0051760Y0038645D01*
X0051396Y0038434D01*
X0051098Y0038136D01*
X0050887Y0037771D01*
X0050778Y0037364D01*
X0050778Y0035894D01*
X0050266Y0036406D01*
X0050266Y0039687D01*
X0051502Y0039687D01*
X0051502Y0042970D01*
X0051680Y0042970D01*
X0051680Y0039687D01*
X0053179Y0039687D01*
X0053586Y0039796D01*
X0053951Y0040007D01*
X0054150Y0040206D01*
X0054668Y0039687D01*
X0056969Y0039687D01*
X0057782Y0038874D02*
X0050266Y0038874D01*
X0050266Y0037676D02*
X0050861Y0037676D01*
X0050778Y0036477D02*
X0050266Y0036477D01*
X0054061Y0036477D02*
X0054239Y0036477D01*
X0054150Y0035776D02*
X0054150Y0039122D01*
X0054017Y0040073D02*
X0054283Y0040073D01*
X0051680Y0040073D02*
X0051502Y0040073D01*
X0051502Y0041271D02*
X0051680Y0041271D01*
X0051680Y0042470D02*
X0051502Y0042470D01*
X0048066Y0046312D02*
X0047363Y0047015D01*
X0040070Y0047015D01*
X0034145Y0041091D01*
X0033874Y0041091D01*
X0032626Y0039843D01*
X0023508Y0039843D01*
X0021933Y0038267D01*
X0021933Y0035965D01*
X0020385Y0034417D01*
X0018416Y0034417D01*
X0017713Y0033714D01*
X0017713Y0024845D01*
X0018416Y0024143D01*
X0020385Y0024143D01*
X0029524Y0024143D01*
X0031493Y0026111D01*
X0031493Y0028408D01*
X0032196Y0029111D01*
X0034493Y0029111D01*
X0034661Y0029280D01*
X0034661Y0027311D02*
X0038402Y0027311D01*
X0040370Y0029280D01*
X0040370Y0037154D01*
X0039681Y0037843D01*
X0035744Y0037843D01*
X0032918Y0035017D01*
X0024922Y0035017D01*
X0021744Y0031839D01*
X0020685Y0031839D01*
X0020774Y0031928D02*
X0023219Y0031928D01*
X0023219Y0031750D01*
X0020774Y0031750D01*
X0020774Y0031928D01*
X0023508Y0034428D02*
X0024133Y0035053D01*
X0024133Y0037356D01*
X0024419Y0037643D01*
X0033537Y0037643D01*
X0033614Y0037719D01*
X0035915Y0037719D01*
X0036433Y0038237D01*
X0036632Y0038039D01*
X0036997Y0037828D01*
X0037404Y0037719D01*
X0038903Y0037719D01*
X0038903Y0041001D01*
X0039081Y0041001D01*
X0039081Y0037719D01*
X0040581Y0037719D01*
X0040988Y0037828D01*
X0041352Y0038039D01*
X0041650Y0038336D01*
X0041723Y0038462D01*
X0041723Y0037278D01*
X0042660Y0036341D01*
X0043879Y0036341D01*
X0043879Y0035534D01*
X0043852Y0035560D01*
X0043488Y0035770D01*
X0043081Y0035880D01*
X0040970Y0035880D01*
X0040970Y0029880D01*
X0039770Y0029880D01*
X0039770Y0035880D01*
X0037659Y0035880D01*
X0037252Y0035770D01*
X0036888Y0035560D01*
X0036744Y0035417D01*
X0027057Y0035417D01*
X0026457Y0034817D01*
X0024156Y0034817D01*
X0023638Y0034298D01*
X0023508Y0034428D01*
X0024133Y0035279D02*
X0026919Y0035279D01*
X0027969Y0033217D02*
X0034661Y0033217D01*
X0033571Y0037676D02*
X0041723Y0037676D01*
X0042524Y0036477D02*
X0024133Y0036477D01*
X0019733Y0037676D02*
X0017411Y0037676D01*
X0017411Y0038874D02*
X0019733Y0038874D01*
X0020627Y0040073D02*
X0017411Y0040073D01*
X0017411Y0041271D02*
X0021826Y0041271D01*
X0021022Y0040467D02*
X0021022Y0040467D01*
X0017411Y0042470D02*
X0030896Y0042470D01*
X0031039Y0043668D02*
X0017411Y0043668D01*
X0017411Y0044867D02*
X0034811Y0044867D01*
X0036009Y0046065D02*
X0017411Y0046065D01*
X0017411Y0047264D02*
X0037208Y0047264D01*
X0038406Y0048462D02*
X0017411Y0048462D01*
X0017411Y0049661D02*
X0048304Y0049661D01*
X0048519Y0049876D02*
X0048519Y0049876D01*
X0049502Y0050859D02*
X0017411Y0050859D01*
X0015366Y0056852D02*
X0127390Y0056852D01*
X0126192Y0055653D02*
X0122507Y0055653D01*
X0123779Y0054455D02*
X0124993Y0054455D01*
X0125016Y0056839D02*
X0134858Y0066681D01*
X0134858Y0073571D01*
X0140764Y0073571D01*
X0147260Y0073571D01*
X0147457Y0073374D01*
X0148306Y0074224D01*
X0150304Y0074224D01*
X0151007Y0074927D01*
X0151007Y0076924D01*
X0154543Y0080461D01*
X0155032Y0080822D02*
X0151407Y0080822D01*
X0151407Y0079624D02*
X0155032Y0079624D01*
X0155032Y0078914D02*
X0151407Y0075288D01*
X0151407Y0087222D01*
X0152181Y0087222D01*
X0153294Y0088335D01*
X0171078Y0106120D01*
X0195519Y0106120D01*
X0195232Y0105832D01*
X0194761Y0104697D01*
X0194761Y0103468D01*
X0195232Y0102333D01*
X0196101Y0101464D01*
X0197236Y0100994D01*
X0198465Y0100994D01*
X0198843Y0101150D01*
X0199169Y0100364D01*
X0200038Y0099495D01*
X0201173Y0099025D01*
X0202402Y0099025D01*
X0203537Y0099495D01*
X0203862Y0099820D01*
X0204924Y0099820D01*
X0204924Y0091036D01*
X0203666Y0092294D01*
X0203666Y0092886D01*
X0203196Y0094021D01*
X0202327Y0094890D01*
X0201192Y0095361D01*
X0199963Y0095361D01*
X0198828Y0094890D01*
X0198409Y0094472D01*
X0165443Y0094472D01*
X0162395Y0091424D01*
X0161803Y0091424D01*
X0160668Y0090953D01*
X0159799Y0090084D01*
X0159328Y0088949D01*
X0159328Y0088357D01*
X0156321Y0085350D01*
X0155032Y0084061D01*
X0155032Y0078914D01*
X0154544Y0078425D02*
X0151407Y0078425D01*
X0151407Y0077227D02*
X0153345Y0077227D01*
X0152147Y0076028D02*
X0151407Y0076028D01*
X0150304Y0071074D02*
X0157232Y0078003D01*
X0157232Y0083150D01*
X0162417Y0088335D01*
X0166354Y0092272D01*
X0200577Y0092272D01*
X0206027Y0086822D01*
X0206027Y0085123D01*
X0199487Y0078583D01*
X0199487Y0060776D01*
X0203024Y0057239D01*
X0203384Y0057239D01*
X0203785Y0056839D01*
X0205724Y0056839D01*
X0204924Y0059851D02*
X0203975Y0059457D01*
X0203956Y0059439D01*
X0203935Y0059439D01*
X0201687Y0061687D01*
X0201687Y0077672D01*
X0204924Y0080909D01*
X0204924Y0059851D01*
X0204924Y0060448D02*
X0202927Y0060448D01*
X0201728Y0061646D02*
X0204924Y0061646D01*
X0204924Y0062845D02*
X0201687Y0062845D01*
X0201687Y0064043D02*
X0204924Y0064043D01*
X0204924Y0065242D02*
X0201687Y0065242D01*
X0201687Y0066440D02*
X0204924Y0066440D01*
X0204924Y0067639D02*
X0201687Y0067639D01*
X0201687Y0068837D02*
X0204924Y0068837D01*
X0204924Y0070036D02*
X0201687Y0070036D01*
X0201687Y0071234D02*
X0204924Y0071234D01*
X0204924Y0072433D02*
X0201687Y0072433D01*
X0201687Y0073631D02*
X0204924Y0073631D01*
X0204924Y0074830D02*
X0201687Y0074830D01*
X0201687Y0076028D02*
X0204924Y0076028D01*
X0204924Y0077227D02*
X0201687Y0077227D01*
X0202176Y0076524D02*
X0205324Y0079671D01*
X0205324Y0081270D01*
X0206877Y0082823D01*
X0208874Y0082823D01*
X0206838Y0082823D01*
X0206838Y0082823D01*
X0208874Y0082823D01*
X0208874Y0082823D01*
X0212824Y0082823D01*
X0212824Y0084058D01*
X0217424Y0079458D01*
X0217424Y0075383D01*
X0213497Y0079311D01*
X0212824Y0079983D01*
X0212824Y0081436D01*
X0212808Y0081452D01*
X0212824Y0081512D01*
X0212824Y0082823D01*
X0208874Y0082823D01*
X0208874Y0082823D01*
X0212824Y0083219D02*
X0213663Y0083219D01*
X0212824Y0082021D02*
X0214862Y0082021D01*
X0216060Y0080822D02*
X0212824Y0080822D01*
X0213184Y0079624D02*
X0217259Y0079624D01*
X0217424Y0078425D02*
X0214382Y0078425D01*
X0215581Y0077227D02*
X0217424Y0077227D01*
X0217424Y0076028D02*
X0216779Y0076028D01*
X0204924Y0078425D02*
X0202441Y0078425D01*
X0203639Y0079624D02*
X0204924Y0079624D01*
X0204924Y0080822D02*
X0204838Y0080822D01*
X0202211Y0084418D02*
X0161612Y0084418D01*
X0162440Y0085246D02*
X0163032Y0085246D01*
X0164167Y0085716D01*
X0165036Y0086585D01*
X0165506Y0087720D01*
X0165506Y0088312D01*
X0167266Y0090072D01*
X0198409Y0090072D01*
X0198828Y0089653D01*
X0199963Y0089183D01*
X0200555Y0089183D01*
X0203765Y0085972D01*
X0197287Y0079495D01*
X0197287Y0057639D01*
X0196875Y0057639D01*
X0196859Y0057623D01*
X0196799Y0057639D01*
X0195488Y0057639D01*
X0194178Y0057639D01*
X0194117Y0057623D01*
X0194101Y0057639D01*
X0153280Y0057639D01*
X0151407Y0059513D01*
X0151407Y0062162D01*
X0151407Y0069066D01*
X0159432Y0077091D01*
X0159432Y0082238D01*
X0162440Y0085246D01*
X0163926Y0085616D02*
X0203409Y0085616D01*
X0202923Y0086815D02*
X0165131Y0086815D01*
X0165506Y0088013D02*
X0201724Y0088013D01*
X0199893Y0089212D02*
X0166406Y0089212D01*
X0163779Y0092807D02*
X0157766Y0092807D01*
X0156567Y0091609D02*
X0162580Y0091609D01*
X0160125Y0090410D02*
X0155369Y0090410D01*
X0154170Y0089212D02*
X0159437Y0089212D01*
X0158985Y0088013D02*
X0152972Y0088013D01*
X0151407Y0086815D02*
X0157786Y0086815D01*
X0156588Y0085616D02*
X0151407Y0085616D01*
X0151407Y0084418D02*
X0155389Y0084418D01*
X0155032Y0083219D02*
X0151407Y0083219D01*
X0151407Y0082021D02*
X0155032Y0082021D01*
X0159432Y0082021D02*
X0199814Y0082021D01*
X0201012Y0083219D02*
X0160413Y0083219D01*
X0159432Y0080822D02*
X0198615Y0080822D01*
X0197417Y0079624D02*
X0159432Y0079624D01*
X0159432Y0078425D02*
X0197287Y0078425D01*
X0197287Y0077227D02*
X0159432Y0077227D01*
X0158369Y0076028D02*
X0197287Y0076028D01*
X0197287Y0074830D02*
X0157171Y0074830D01*
X0155972Y0073631D02*
X0197287Y0073631D01*
X0197287Y0072433D02*
X0154774Y0072433D01*
X0153575Y0071234D02*
X0197287Y0071234D01*
X0197287Y0070036D02*
X0152377Y0070036D01*
X0151407Y0068837D02*
X0197287Y0068837D01*
X0197287Y0067639D02*
X0151407Y0067639D01*
X0151407Y0066440D02*
X0197287Y0066440D01*
X0197287Y0065242D02*
X0151407Y0065242D01*
X0151407Y0064043D02*
X0197287Y0064043D01*
X0197287Y0062845D02*
X0151407Y0062845D01*
X0151407Y0061646D02*
X0197287Y0061646D01*
X0197287Y0060448D02*
X0151407Y0060448D01*
X0151670Y0059249D02*
X0197287Y0059249D01*
X0197287Y0058051D02*
X0152869Y0058051D01*
X0144172Y0053256D02*
X0130017Y0053256D01*
X0128819Y0052058D02*
X0145370Y0052058D01*
X0146569Y0050859D02*
X0131383Y0050859D01*
X0131325Y0050893D02*
X0130918Y0051002D01*
X0129407Y0051002D01*
X0129407Y0046702D01*
X0132307Y0046702D01*
X0132307Y0049613D01*
X0132198Y0050020D01*
X0131987Y0050385D01*
X0131690Y0050683D01*
X0131325Y0050893D01*
X0132294Y0049661D02*
X0147767Y0049661D01*
X0148966Y0048462D02*
X0132307Y0048462D01*
X0132307Y0047264D02*
X0150164Y0047264D01*
X0151363Y0046065D02*
X0132307Y0046065D01*
X0132307Y0046502D02*
X0129407Y0046502D01*
X0129407Y0042202D01*
X0130918Y0042202D01*
X0131325Y0042311D01*
X0131690Y0042522D01*
X0131987Y0042820D01*
X0132198Y0043185D01*
X0132307Y0043592D01*
X0132307Y0046502D01*
X0132307Y0044867D02*
X0152561Y0044867D01*
X0153628Y0043801D02*
X0153628Y0036762D01*
X0152367Y0038023D01*
X0140666Y0038023D01*
X0129792Y0027149D01*
X0129352Y0027149D01*
X0129352Y0029412D01*
X0128415Y0030349D01*
X0122452Y0030349D01*
X0122452Y0042340D01*
X0123252Y0043140D01*
X0123252Y0046491D01*
X0126307Y0049546D01*
X0126307Y0046702D01*
X0129207Y0046702D01*
X0129207Y0046502D01*
X0129407Y0046502D01*
X0129407Y0046702D01*
X0129207Y0046702D01*
X0129207Y0051002D01*
X0127763Y0051002D01*
X0141107Y0064346D01*
X0141107Y0056322D01*
X0153628Y0043801D01*
X0153628Y0043668D02*
X0132307Y0043668D01*
X0131599Y0042470D02*
X0153628Y0042470D01*
X0153628Y0041271D02*
X0122452Y0041271D01*
X0122452Y0040073D02*
X0153628Y0040073D01*
X0153628Y0038874D02*
X0122452Y0038874D01*
X0122452Y0037676D02*
X0140319Y0037676D01*
X0139121Y0036477D02*
X0122452Y0036477D01*
X0122452Y0035279D02*
X0137922Y0035279D01*
X0136724Y0034080D02*
X0122452Y0034080D01*
X0122452Y0032882D02*
X0135525Y0032882D01*
X0134327Y0031683D02*
X0122452Y0031683D01*
X0122452Y0030485D02*
X0133128Y0030485D01*
X0131930Y0029286D02*
X0129352Y0029286D01*
X0129352Y0028088D02*
X0130731Y0028088D01*
X0130703Y0024949D02*
X0141577Y0035823D01*
X0151455Y0035823D01*
X0153391Y0033888D01*
X0153391Y0030432D01*
X0153559Y0030264D01*
X0151591Y0030264D02*
X0151422Y0030432D01*
X0151422Y0033310D01*
X0150710Y0034023D01*
X0148534Y0034023D01*
X0147644Y0033132D01*
X0147654Y0033123D01*
X0147654Y0030264D01*
X0149622Y0030264D02*
X0149622Y0027386D01*
X0148741Y0026505D01*
X0142732Y0026505D01*
X0142732Y0029280D01*
X0142732Y0026505D02*
X0134805Y0026505D01*
X0128249Y0019949D01*
X0109311Y0019949D01*
X0102792Y0013430D01*
X0097354Y0013430D01*
X0101851Y0015630D02*
X0101881Y0015630D01*
X0104088Y0017837D01*
X0103348Y0017837D01*
X0102941Y0017946D01*
X0102577Y0018157D01*
X0102279Y0018455D01*
X0102068Y0018819D01*
X0101959Y0019226D01*
X0101959Y0020726D01*
X0105242Y0020726D01*
X0105242Y0020904D01*
X0101959Y0020904D01*
X0101959Y0022404D01*
X0102068Y0022810D01*
X0102279Y0023175D01*
X0102477Y0023374D01*
X0101959Y0023892D01*
X0101959Y0027974D01*
X0102896Y0028911D01*
X0103131Y0028911D01*
X0103131Y0031017D01*
X0087256Y0031017D01*
X0085967Y0032305D01*
X0084643Y0033630D01*
X0082188Y0033630D01*
X0081251Y0034567D01*
X0081251Y0039268D01*
X0081235Y0039284D01*
X0077403Y0039284D01*
X0077403Y0038066D01*
X0076516Y0037179D01*
X0080206Y0037179D01*
X0081143Y0036241D01*
X0081143Y0029404D01*
X0080206Y0028467D01*
X0079372Y0028467D01*
X0079372Y0027400D01*
X0076483Y0027400D01*
X0076483Y0027222D01*
X0079372Y0027222D01*
X0079372Y0025574D01*
X0080568Y0025574D01*
X0081700Y0024442D01*
X0082188Y0024930D01*
X0084643Y0024930D01*
X0085154Y0025441D01*
X0085154Y0025441D01*
X0086443Y0026730D01*
X0096659Y0026730D01*
X0097362Y0026027D01*
X0098459Y0024930D01*
X0100914Y0024930D01*
X0101851Y0023992D01*
X0101851Y0015630D01*
X0101851Y0016103D02*
X0102354Y0016103D01*
X0101851Y0017301D02*
X0103552Y0017301D01*
X0102253Y0018500D02*
X0101851Y0018500D01*
X0101851Y0019698D02*
X0101959Y0019698D01*
X0101851Y0020897D02*
X0105242Y0020897D01*
X0101959Y0022095D02*
X0101851Y0022095D01*
X0101851Y0023294D02*
X0102397Y0023294D01*
X0101959Y0024492D02*
X0101351Y0024492D01*
X0101959Y0025691D02*
X0097698Y0025691D01*
X0101959Y0026889D02*
X0079372Y0026889D01*
X0079372Y0025691D02*
X0085404Y0025691D01*
X0081751Y0024492D02*
X0081650Y0024492D01*
X0079372Y0028088D02*
X0102073Y0028088D01*
X0103131Y0029286D02*
X0081025Y0029286D01*
X0081143Y0030485D02*
X0103131Y0030485D01*
X0105331Y0033217D02*
X0105331Y0034594D01*
X0105331Y0034866D01*
X0108302Y0037838D01*
X0108302Y0043708D01*
X0111197Y0046602D01*
X0112811Y0046602D01*
X0115173Y0048965D01*
X0116246Y0046065D02*
X0117252Y0046065D01*
X0117252Y0044867D02*
X0114197Y0044867D01*
X0114197Y0043668D02*
X0117252Y0043668D01*
X0117922Y0042470D02*
X0113527Y0042470D01*
X0110502Y0041271D02*
X0118052Y0041271D01*
X0118052Y0040073D02*
X0110502Y0040073D01*
X0110502Y0038874D02*
X0118052Y0038874D01*
X0118052Y0037676D02*
X0110502Y0037676D01*
X0110053Y0036477D02*
X0118052Y0036477D01*
X0118052Y0035279D02*
X0108855Y0035279D01*
X0108702Y0034080D02*
X0118052Y0034080D01*
X0126984Y0041091D02*
X0129307Y0043413D01*
X0129307Y0046602D01*
X0129207Y0046502D02*
X0129207Y0042202D01*
X0127696Y0042202D01*
X0127290Y0042311D01*
X0126925Y0042522D01*
X0126627Y0042820D01*
X0126416Y0043185D01*
X0126307Y0043592D01*
X0126307Y0046502D01*
X0129207Y0046502D01*
X0129207Y0046065D02*
X0129407Y0046065D01*
X0129407Y0044867D02*
X0129207Y0044867D01*
X0129207Y0043668D02*
X0129407Y0043668D01*
X0129407Y0042470D02*
X0129207Y0042470D01*
X0127015Y0042470D02*
X0122582Y0042470D01*
X0123252Y0043668D02*
X0126307Y0043668D01*
X0126307Y0044867D02*
X0123252Y0044867D01*
X0123252Y0046065D02*
X0126307Y0046065D01*
X0126307Y0047264D02*
X0124025Y0047264D01*
X0125223Y0048462D02*
X0126307Y0048462D01*
X0129207Y0048462D02*
X0129407Y0048462D01*
X0129407Y0047264D02*
X0129207Y0047264D01*
X0129207Y0049661D02*
X0129407Y0049661D01*
X0129407Y0050859D02*
X0129207Y0050859D01*
X0131216Y0054455D02*
X0142973Y0054455D01*
X0141775Y0055653D02*
X0132414Y0055653D01*
X0133613Y0056852D02*
X0141107Y0056852D01*
X0141107Y0058051D02*
X0134811Y0058051D01*
X0136010Y0059249D02*
X0141107Y0059249D01*
X0141107Y0060448D02*
X0137208Y0060448D01*
X0138407Y0061646D02*
X0141107Y0061646D01*
X0141107Y0062845D02*
X0139605Y0062845D01*
X0140804Y0064043D02*
X0141107Y0064043D01*
X0136978Y0066440D02*
X0086024Y0066440D01*
X0086895Y0067639D02*
X0138177Y0067639D01*
X0139375Y0068837D02*
X0087767Y0068837D01*
X0088639Y0070036D02*
X0140574Y0070036D01*
X0140576Y0071234D02*
X0140951Y0071234D01*
X0140951Y0072433D02*
X0140576Y0072433D01*
X0140576Y0073383D02*
X0137589Y0073383D01*
X0135046Y0073383D01*
X0135046Y0073758D01*
X0140576Y0073758D01*
X0140576Y0073383D01*
X0140576Y0073631D02*
X0135046Y0073631D01*
X0134671Y0073631D02*
X0091253Y0073631D01*
X0090382Y0072433D02*
X0131683Y0072433D01*
X0131683Y0071785D02*
X0131792Y0071378D01*
X0132003Y0071014D01*
X0132301Y0070716D01*
X0132666Y0070505D01*
X0133073Y0070396D01*
X0134671Y0070396D01*
X0134671Y0073383D01*
X0131683Y0073383D01*
X0131683Y0071785D01*
X0131876Y0071234D02*
X0089510Y0071234D01*
X0092125Y0074830D02*
X0131683Y0074830D01*
X0131945Y0076028D02*
X0092997Y0076028D01*
X0093868Y0077227D02*
X0131696Y0077227D01*
X0131683Y0078425D02*
X0094740Y0078425D01*
X0095612Y0079624D02*
X0131683Y0079624D01*
X0131683Y0080822D02*
X0096483Y0080822D01*
X0096892Y0081385D02*
X0097320Y0081947D01*
X0097317Y0081969D01*
X0097330Y0081986D01*
X0097220Y0082684D01*
X0096057Y0091209D01*
X0096057Y0091815D01*
X0095961Y0091911D01*
X0095943Y0092045D01*
X0095461Y0092412D01*
X0094699Y0093173D01*
X0095052Y0093296D01*
X0095536Y0093327D01*
X0095712Y0093527D01*
X0095963Y0093615D01*
X0096173Y0094052D01*
X0096493Y0094416D01*
X0096476Y0094681D01*
X0096592Y0094921D01*
X0096432Y0095379D01*
X0096401Y0095862D01*
X0096201Y0096038D01*
X0093607Y0103450D01*
X0093401Y0104113D01*
X0093369Y0104130D01*
X0093357Y0104164D01*
X0092732Y0104465D01*
X0078323Y0112049D01*
X0078266Y0112170D01*
X0077696Y0112379D01*
X0077158Y0112662D01*
X0077030Y0112622D01*
X0076905Y0112668D01*
X0076354Y0112412D01*
X0075773Y0112232D01*
X0075711Y0112114D01*
X0075590Y0112058D01*
X0075381Y0111487D01*
X0075098Y0110949D01*
X0075138Y0110822D01*
X0075092Y0110696D01*
X0075348Y0110145D01*
X0075528Y0109565D01*
X0075646Y0109502D01*
X0080419Y0099223D01*
X0080505Y0098734D01*
X0080713Y0098588D01*
X0080820Y0098358D01*
X0081286Y0098187D01*
X0081693Y0097903D01*
X0081943Y0097947D01*
X0082182Y0097859D01*
X0082632Y0098068D01*
X0083120Y0098155D01*
X0083266Y0098363D01*
X0083497Y0098470D01*
X0083667Y0098936D01*
X0085170Y0101083D01*
X0085653Y0100659D01*
X0085505Y0100511D01*
X0085230Y0100428D01*
X0085011Y0100018D01*
X0084683Y0099689D01*
X0084683Y0099402D01*
X0081878Y0094142D01*
X0081561Y0093848D01*
X0081550Y0093527D01*
X0081398Y0093243D01*
X0081522Y0092837D01*
X0071714Y0095017D01*
X0067317Y0101105D01*
X0067317Y0101264D01*
X0066904Y0101678D01*
X0066561Y0102152D01*
X0066404Y0102177D01*
X0066292Y0102289D01*
X0065707Y0102289D01*
X0065130Y0102382D01*
X0065001Y0102289D01*
X0057898Y0102289D01*
X0057393Y0102410D01*
X0057198Y0102289D01*
X0056968Y0102289D01*
X0056601Y0101922D01*
X0056158Y0101650D01*
X0056105Y0101427D01*
X0055943Y0101264D01*
X0055943Y0100745D01*
X0055823Y0100240D01*
X0055943Y0100044D01*
X0055943Y0099814D01*
X0056310Y0099447D01*
X0056582Y0099005D01*
X0056806Y0098952D01*
X0056968Y0098789D01*
X0057487Y0098789D01*
X0064857Y0097035D01*
X0068095Y0091854D01*
X0068082Y0091731D01*
X0068471Y0091252D01*
X0068798Y0090729D01*
X0068918Y0090702D01*
X0068997Y0090606D01*
X0069610Y0090542D01*
X0070210Y0090403D01*
X0070315Y0090469D01*
X0071920Y0090303D01*
X0070315Y0090137D01*
X0070210Y0090203D01*
X0069610Y0090064D01*
X0068997Y0090001D01*
X0068918Y0089905D01*
X0068798Y0089877D01*
X0068471Y0089354D01*
X0068082Y0088876D01*
X0068095Y0088752D01*
X0064857Y0083572D01*
X0057487Y0081817D01*
X0056968Y0081817D01*
X0056806Y0081655D01*
X0056582Y0081601D01*
X0056310Y0081159D01*
X0055943Y0080792D01*
X0055943Y0080562D01*
X0055823Y0080367D01*
X0055943Y0079861D01*
X0055943Y0079342D01*
X0056105Y0079180D01*
X0056158Y0078956D01*
X0056601Y0078684D01*
X0056968Y0078317D01*
X0057198Y0078317D01*
X0057393Y0078197D01*
X0057898Y0078317D01*
X0065001Y0078317D01*
X0065130Y0078224D01*
X0065707Y0078317D01*
X0066292Y0078317D01*
X0066404Y0078429D01*
X0066561Y0078455D01*
X0066904Y0078929D01*
X0067317Y0079342D01*
X0067317Y0079501D01*
X0071714Y0085590D01*
X0081335Y0087727D01*
X0081161Y0083041D01*
X0075937Y0076076D01*
X0075807Y0076039D01*
X0075513Y0075510D01*
X0075149Y0075025D01*
X0075169Y0074890D01*
X0067907Y0061819D01*
X0067857Y0061802D01*
X0067558Y0061192D01*
X0067228Y0060598D01*
X0067243Y0060547D01*
X0067220Y0060500D01*
X0067440Y0059857D01*
X0067627Y0059204D01*
X0067673Y0059179D01*
X0067690Y0059129D01*
X0068300Y0058830D01*
X0068894Y0058500D01*
X0068945Y0058515D01*
X0068992Y0058491D01*
X0069635Y0058712D01*
X0070288Y0058898D01*
X0070314Y0058944D01*
X0083313Y0063401D01*
X0083879Y0063491D01*
X0083980Y0063630D01*
X0084143Y0063686D01*
X0084395Y0064200D01*
X0096892Y0081385D01*
X0097324Y0082021D02*
X0131990Y0082021D01*
X0137397Y0083219D02*
X0097147Y0083219D01*
X0096983Y0084418D02*
X0140025Y0084418D01*
X0138827Y0085616D02*
X0096820Y0085616D01*
X0096656Y0086815D02*
X0137628Y0086815D01*
X0136430Y0088013D02*
X0096493Y0088013D01*
X0096329Y0089212D02*
X0135231Y0089212D01*
X0134033Y0090410D02*
X0096166Y0090410D01*
X0096057Y0091609D02*
X0132834Y0091609D01*
X0131636Y0092807D02*
X0095065Y0092807D01*
X0096151Y0094006D02*
X0130437Y0094006D01*
X0129239Y0095204D02*
X0096493Y0095204D01*
X0096074Y0096403D02*
X0128040Y0096403D01*
X0126842Y0097601D02*
X0124871Y0097601D01*
X0121223Y0097601D02*
X0095654Y0097601D01*
X0095235Y0098800D02*
X0120261Y0098800D01*
X0111766Y0099998D02*
X0094815Y0099998D01*
X0094396Y0101197D02*
X0110568Y0101197D01*
X0109369Y0102395D02*
X0093976Y0102395D01*
X0093562Y0103594D02*
X0108171Y0103594D01*
X0106972Y0104792D02*
X0092110Y0104792D01*
X0089832Y0105991D02*
X0105774Y0105991D01*
X0104575Y0107189D02*
X0087555Y0107189D01*
X0085278Y0108388D02*
X0103377Y0108388D01*
X0102178Y0109586D02*
X0083001Y0109586D01*
X0080724Y0110785D02*
X0100980Y0110785D01*
X0099781Y0111984D02*
X0078447Y0111984D01*
X0075563Y0111984D02*
X0017411Y0111984D01*
X0017411Y0113182D02*
X0098583Y0113182D01*
X0097384Y0114381D02*
X0017411Y0114381D01*
X0017411Y0115579D02*
X0096186Y0115579D01*
X0094987Y0116778D02*
X0017411Y0116778D01*
X0017411Y0117976D02*
X0093789Y0117976D01*
X0092590Y0119175D02*
X0017411Y0119175D01*
X0017411Y0120373D02*
X0091392Y0120373D01*
X0090193Y0121572D02*
X0017411Y0121572D01*
X0017411Y0122770D02*
X0044260Y0122770D01*
X0043062Y0123969D02*
X0017411Y0123969D01*
X0017411Y0125167D02*
X0041863Y0125167D01*
X0040665Y0126366D02*
X0017411Y0126366D01*
X0017411Y0127564D02*
X0039466Y0127564D01*
X0038268Y0128763D02*
X0017411Y0128763D01*
X0017411Y0129961D02*
X0037069Y0129961D01*
X0035871Y0131160D02*
X0017411Y0131160D01*
X0017411Y0132358D02*
X0034672Y0132358D01*
X0033474Y0133557D02*
X0017411Y0133557D01*
X0017411Y0134755D02*
X0032275Y0134755D01*
X0031077Y0135954D02*
X0017411Y0135954D01*
X0017411Y0137152D02*
X0029878Y0137152D01*
X0028680Y0138351D02*
X0017411Y0138351D01*
X0017411Y0139549D02*
X0027481Y0139549D01*
X0026283Y0140748D02*
X0017411Y0140748D01*
X0017411Y0141946D02*
X0025084Y0141946D01*
X0023885Y0143145D02*
X0017411Y0143145D01*
X0017411Y0144343D02*
X0020125Y0144343D01*
X0019256Y0145542D02*
X0017411Y0145542D01*
X0017411Y0146740D02*
X0018954Y0146740D01*
X0018954Y0147939D02*
X0017411Y0147939D01*
X0017411Y0149137D02*
X0018954Y0149137D01*
X0018954Y0150336D02*
X0017411Y0150336D01*
X0017411Y0151534D02*
X0018954Y0151534D01*
X0019073Y0152733D02*
X0017411Y0152733D01*
X0017411Y0153931D02*
X0019683Y0153931D01*
X0021456Y0155130D02*
X0017411Y0155130D01*
X0017411Y0156328D02*
X0047240Y0156328D01*
X0048438Y0157527D02*
X0017411Y0157527D01*
X0023851Y0155130D02*
X0027362Y0155130D01*
X0029756Y0155130D02*
X0033285Y0155130D01*
X0034015Y0155130D02*
X0034915Y0155130D01*
X0035645Y0155130D02*
X0039173Y0155130D01*
X0041567Y0155130D02*
X0045078Y0155130D01*
X0048881Y0154858D02*
X0048881Y0151964D01*
X0046276Y0149358D01*
X0051731Y0148908D02*
X0052631Y0148908D01*
X0052631Y0143458D01*
X0052716Y0143458D01*
X0053394Y0143593D01*
X0054033Y0143858D01*
X0054608Y0144242D01*
X0055097Y0144731D01*
X0055127Y0144775D01*
X0055909Y0143993D01*
X0057199Y0143458D01*
X0058974Y0143458D01*
X0059092Y0143507D01*
X0059092Y0143371D01*
X0074190Y0128273D01*
X0061848Y0128273D01*
X0046663Y0143458D01*
X0047163Y0143458D01*
X0048453Y0143993D01*
X0049236Y0144775D01*
X0049265Y0144731D01*
X0049754Y0144242D01*
X0050329Y0143858D01*
X0050968Y0143593D01*
X0051646Y0143458D01*
X0051731Y0143458D01*
X0051731Y0148908D01*
X0052181Y0149358D02*
X0052181Y0146464D01*
X0054787Y0143858D01*
X0055229Y0143858D01*
X0056118Y0142969D01*
X0055558Y0144343D02*
X0054709Y0144343D01*
X0052631Y0144343D02*
X0051731Y0144343D01*
X0051731Y0145542D02*
X0052631Y0145542D01*
X0052631Y0146740D02*
X0051731Y0146740D01*
X0051731Y0147939D02*
X0052631Y0147939D01*
X0052631Y0149808D02*
X0051731Y0149808D01*
X0051731Y0154597D01*
X0053472Y0156338D01*
X0107366Y0156338D01*
X0108714Y0154990D01*
X0108510Y0154990D01*
X0106820Y0154289D01*
X0105526Y0152995D01*
X0104825Y0151305D01*
X0104825Y0143475D01*
X0105526Y0141784D01*
X0106820Y0140490D01*
X0107779Y0140093D01*
X0107668Y0139982D01*
X0107668Y0137256D01*
X0105641Y0135229D01*
X0102797Y0135229D01*
X0102797Y0138210D01*
X0101860Y0139147D01*
X0101325Y0139147D01*
X0101325Y0140198D01*
X0102031Y0140490D01*
X0103325Y0141784D01*
X0104025Y0143475D01*
X0104025Y0151305D01*
X0103325Y0152995D01*
X0102031Y0154289D01*
X0100340Y0154990D01*
X0098510Y0154990D01*
X0096820Y0154289D01*
X0095526Y0152995D01*
X0094825Y0151305D01*
X0094825Y0143475D01*
X0095526Y0141784D01*
X0096820Y0140490D01*
X0097525Y0140198D01*
X0097525Y0139147D01*
X0096991Y0139147D01*
X0096054Y0138210D01*
X0096054Y0135229D01*
X0092954Y0135229D01*
X0092954Y0138210D01*
X0092017Y0139147D01*
X0091483Y0139147D01*
X0091483Y0140263D01*
X0092031Y0140490D01*
X0093325Y0141784D01*
X0094025Y0143475D01*
X0094025Y0151305D01*
X0093325Y0152995D01*
X0092031Y0154289D01*
X0090340Y0154990D01*
X0088510Y0154990D01*
X0086820Y0154289D01*
X0085526Y0152995D01*
X0084825Y0151305D01*
X0084825Y0143475D01*
X0085526Y0141784D01*
X0086820Y0140490D01*
X0087683Y0140133D01*
X0087683Y0139147D01*
X0087148Y0139147D01*
X0086211Y0138210D01*
X0086211Y0134789D01*
X0086124Y0134702D01*
X0085011Y0133589D01*
X0085011Y0129473D01*
X0078364Y0129473D01*
X0064379Y0143458D01*
X0064880Y0143458D01*
X0066170Y0143993D01*
X0067158Y0144980D01*
X0067692Y0146271D01*
X0067692Y0152446D01*
X0067158Y0153736D01*
X0066170Y0154724D01*
X0064880Y0155258D01*
X0063105Y0155258D01*
X0061814Y0154724D01*
X0061039Y0153949D01*
X0060264Y0154724D01*
X0058974Y0155258D01*
X0057199Y0155258D01*
X0055909Y0154724D01*
X0055127Y0153942D01*
X0055097Y0153985D01*
X0054608Y0154474D01*
X0054033Y0154859D01*
X0053394Y0155123D01*
X0052716Y0155258D01*
X0052631Y0155258D01*
X0052631Y0149808D01*
X0052631Y0150336D02*
X0051731Y0150336D01*
X0051731Y0151534D02*
X0052631Y0151534D01*
X0052631Y0152733D02*
X0051731Y0152733D01*
X0051731Y0153931D02*
X0052631Y0153931D01*
X0052631Y0155130D02*
X0052264Y0155130D01*
X0053361Y0155130D02*
X0056889Y0155130D01*
X0059284Y0155130D02*
X0062795Y0155130D01*
X0065189Y0155130D02*
X0108574Y0155130D01*
X0107375Y0156328D02*
X0053463Y0156328D01*
X0052561Y0158538D02*
X0108277Y0158538D01*
X0119425Y0147390D01*
X0115764Y0143728D01*
X0115764Y0137547D01*
X0115764Y0119240D01*
X0123047Y0111957D01*
X0130028Y0111984D02*
X0139199Y0111984D01*
X0138000Y0113182D02*
X0130028Y0113182D01*
X0130028Y0114381D02*
X0136802Y0114381D01*
X0135603Y0115579D02*
X0130028Y0115579D01*
X0130028Y0116778D02*
X0134405Y0116778D01*
X0134728Y0115763D02*
X0141507Y0108984D01*
X0141507Y0103976D01*
X0142732Y0102750D01*
X0142732Y0099305D01*
X0143466Y0098571D01*
X0147457Y0098571D01*
X0151407Y0098571D01*
X0151407Y0099882D01*
X0151391Y0099942D01*
X0151407Y0099958D01*
X0151407Y0108045D01*
X0152343Y0107108D01*
X0153632Y0105820D01*
X0161043Y0105820D01*
X0154521Y0099298D01*
X0153929Y0099298D01*
X0152794Y0098827D01*
X0152375Y0098409D01*
X0151407Y0098409D01*
X0151407Y0098571D01*
X0147457Y0098571D01*
X0147457Y0098571D01*
X0147457Y0098571D01*
X0143507Y0098571D01*
X0143507Y0099882D01*
X0143523Y0099942D01*
X0143507Y0099958D01*
X0143507Y0101410D01*
X0141107Y0103810D01*
X0141107Y0105384D01*
X0141107Y0110076D01*
X0130028Y0121154D01*
X0130028Y0110814D01*
X0143507Y0097335D01*
X0143507Y0098571D01*
X0147457Y0098571D01*
X0148244Y0096209D02*
X0154543Y0096209D01*
X0163992Y0105657D01*
X0163992Y0108020D01*
X0154543Y0108020D01*
X0150606Y0111957D01*
X0151407Y0107189D02*
X0152262Y0107189D01*
X0151407Y0105991D02*
X0153461Y0105991D01*
X0151407Y0104792D02*
X0160016Y0104792D01*
X0158817Y0103594D02*
X0151407Y0103594D01*
X0151407Y0102395D02*
X0157619Y0102395D01*
X0156420Y0101197D02*
X0151407Y0101197D01*
X0151407Y0099998D02*
X0155222Y0099998D01*
X0152766Y0098800D02*
X0151407Y0098800D01*
X0148244Y0096209D02*
X0147457Y0095421D01*
X0143507Y0097601D02*
X0143241Y0097601D01*
X0143507Y0098800D02*
X0142042Y0098800D01*
X0140844Y0099998D02*
X0143507Y0099998D01*
X0143507Y0101197D02*
X0139645Y0101197D01*
X0138447Y0102395D02*
X0142522Y0102395D01*
X0141323Y0103594D02*
X0137248Y0103594D01*
X0136050Y0104792D02*
X0141107Y0104792D01*
X0141107Y0105991D02*
X0134851Y0105991D01*
X0133653Y0107189D02*
X0141107Y0107189D01*
X0141107Y0108388D02*
X0132454Y0108388D01*
X0131256Y0109586D02*
X0141107Y0109586D01*
X0140397Y0110785D02*
X0130057Y0110785D01*
X0130028Y0117976D02*
X0133206Y0117976D01*
X0132008Y0119175D02*
X0130028Y0119175D01*
X0130028Y0120373D02*
X0130809Y0120373D01*
X0107564Y0137152D02*
X0102797Y0137152D01*
X0102797Y0135954D02*
X0106365Y0135954D01*
X0107668Y0138351D02*
X0102656Y0138351D01*
X0101325Y0139549D02*
X0107668Y0139549D01*
X0106562Y0140748D02*
X0102289Y0140748D01*
X0103392Y0141946D02*
X0105458Y0141946D01*
X0104962Y0143145D02*
X0103889Y0143145D01*
X0104025Y0144343D02*
X0104825Y0144343D01*
X0104825Y0145542D02*
X0104025Y0145542D01*
X0104025Y0146740D02*
X0104825Y0146740D01*
X0104825Y0147939D02*
X0104025Y0147939D01*
X0104025Y0149137D02*
X0104825Y0149137D01*
X0104825Y0150336D02*
X0104025Y0150336D01*
X0103930Y0151534D02*
X0104920Y0151534D01*
X0105417Y0152733D02*
X0103434Y0152733D01*
X0102389Y0153931D02*
X0106461Y0153931D01*
X0096461Y0153931D02*
X0092389Y0153931D01*
X0093434Y0152733D02*
X0095417Y0152733D01*
X0094920Y0151534D02*
X0093930Y0151534D01*
X0094025Y0150336D02*
X0094825Y0150336D01*
X0094825Y0149137D02*
X0094025Y0149137D01*
X0094025Y0147939D02*
X0094825Y0147939D01*
X0094825Y0146740D02*
X0094025Y0146740D01*
X0094025Y0145542D02*
X0094825Y0145542D01*
X0094825Y0144343D02*
X0094025Y0144343D01*
X0093889Y0143145D02*
X0094962Y0143145D01*
X0095458Y0141946D02*
X0093392Y0141946D01*
X0092289Y0140748D02*
X0096562Y0140748D01*
X0097525Y0139549D02*
X0091483Y0139549D01*
X0092814Y0138351D02*
X0096194Y0138351D01*
X0096054Y0137152D02*
X0092954Y0137152D01*
X0092954Y0135954D02*
X0096054Y0135954D01*
X0087683Y0139549D02*
X0068288Y0139549D01*
X0069487Y0138351D02*
X0086352Y0138351D01*
X0086211Y0137152D02*
X0070685Y0137152D01*
X0071884Y0135954D02*
X0086211Y0135954D01*
X0086177Y0134755D02*
X0073082Y0134755D01*
X0074281Y0133557D02*
X0085011Y0133557D01*
X0085011Y0132358D02*
X0075479Y0132358D01*
X0076678Y0131160D02*
X0085011Y0131160D01*
X0085011Y0129961D02*
X0077876Y0129961D01*
X0073701Y0128763D02*
X0061358Y0128763D01*
X0060160Y0129961D02*
X0072502Y0129961D01*
X0071304Y0131160D02*
X0058961Y0131160D01*
X0057763Y0132358D02*
X0070105Y0132358D01*
X0068907Y0133557D02*
X0056564Y0133557D01*
X0055366Y0134755D02*
X0067708Y0134755D01*
X0066510Y0135954D02*
X0054167Y0135954D01*
X0052969Y0137152D02*
X0065311Y0137152D01*
X0064113Y0138351D02*
X0051770Y0138351D01*
X0050572Y0139549D02*
X0062914Y0139549D01*
X0061716Y0140748D02*
X0049373Y0140748D01*
X0048175Y0141946D02*
X0060517Y0141946D01*
X0059319Y0143145D02*
X0046976Y0143145D01*
X0048804Y0144343D02*
X0049653Y0144343D01*
X0043999Y0140748D02*
X0037562Y0140748D01*
X0036363Y0141946D02*
X0042801Y0141946D01*
X0042489Y0142258D02*
X0057674Y0127073D01*
X0051237Y0127073D01*
X0034015Y0144295D01*
X0034015Y0148908D01*
X0034915Y0148908D01*
X0034915Y0143458D01*
X0034999Y0143458D01*
X0035678Y0143593D01*
X0036317Y0143858D01*
X0036892Y0144242D01*
X0037381Y0144731D01*
X0037410Y0144775D01*
X0038192Y0143993D01*
X0039483Y0143458D01*
X0041257Y0143458D01*
X0041376Y0143507D01*
X0041376Y0143371D01*
X0042489Y0142258D01*
X0041602Y0143145D02*
X0035165Y0143145D01*
X0034915Y0144343D02*
X0034015Y0144343D01*
X0034015Y0145542D02*
X0034915Y0145542D01*
X0034465Y0146464D02*
X0034465Y0149358D01*
X0034015Y0150336D02*
X0034915Y0150336D01*
X0034915Y0151534D02*
X0034015Y0151534D01*
X0034015Y0152733D02*
X0034915Y0152733D01*
X0034915Y0153931D02*
X0034015Y0153931D01*
X0034015Y0147939D02*
X0034915Y0147939D01*
X0034915Y0146740D02*
X0034015Y0146740D01*
X0034465Y0146464D02*
X0037070Y0143858D01*
X0037996Y0143858D01*
X0040370Y0141484D01*
X0038761Y0139549D02*
X0045198Y0139549D01*
X0046396Y0138351D02*
X0039959Y0138351D01*
X0041158Y0137152D02*
X0047595Y0137152D01*
X0048793Y0135954D02*
X0042356Y0135954D01*
X0043555Y0134755D02*
X0049992Y0134755D01*
X0051190Y0133557D02*
X0044753Y0133557D01*
X0045952Y0132358D02*
X0052389Y0132358D01*
X0053587Y0131160D02*
X0047150Y0131160D01*
X0048349Y0129961D02*
X0054786Y0129961D01*
X0055984Y0128763D02*
X0049547Y0128763D01*
X0050746Y0127564D02*
X0057183Y0127564D01*
X0067090Y0140748D02*
X0076612Y0140748D01*
X0076428Y0140881D02*
X0077014Y0140455D01*
X0077659Y0140127D01*
X0078348Y0139903D01*
X0079025Y0139796D01*
X0079025Y0146990D01*
X0074825Y0146990D01*
X0074825Y0144028D01*
X0074938Y0143313D01*
X0075162Y0142624D01*
X0075491Y0141979D01*
X0075917Y0141393D01*
X0076428Y0140881D01*
X0075515Y0141946D02*
X0065891Y0141946D01*
X0064693Y0143145D02*
X0074993Y0143145D01*
X0074825Y0144343D02*
X0066520Y0144343D01*
X0067390Y0145542D02*
X0074825Y0145542D01*
X0074825Y0146740D02*
X0067692Y0146740D01*
X0067692Y0147939D02*
X0074825Y0147939D01*
X0074825Y0147790D02*
X0079025Y0147790D01*
X0079025Y0154984D01*
X0078348Y0154876D01*
X0077659Y0154653D01*
X0077014Y0154324D01*
X0076428Y0153898D01*
X0075917Y0153386D01*
X0075491Y0152801D01*
X0075162Y0152156D01*
X0074938Y0151467D01*
X0074825Y0150752D01*
X0074825Y0147790D01*
X0074825Y0149137D02*
X0067692Y0149137D01*
X0067692Y0150336D02*
X0074825Y0150336D01*
X0074960Y0151534D02*
X0067692Y0151534D01*
X0067573Y0152733D02*
X0075456Y0152733D01*
X0076474Y0153931D02*
X0066962Y0153931D01*
X0079025Y0153931D02*
X0079825Y0153931D01*
X0079825Y0154984D02*
X0079825Y0147790D01*
X0079025Y0147790D01*
X0079025Y0146990D01*
X0079825Y0146990D01*
X0079825Y0147790D01*
X0084025Y0147790D01*
X0084025Y0150752D01*
X0083912Y0151467D01*
X0083688Y0152156D01*
X0083359Y0152801D01*
X0082934Y0153386D01*
X0082422Y0153898D01*
X0081836Y0154324D01*
X0081191Y0154653D01*
X0080502Y0154876D01*
X0079825Y0154984D01*
X0082377Y0153931D02*
X0086461Y0153931D01*
X0085417Y0152733D02*
X0083394Y0152733D01*
X0083890Y0151534D02*
X0084920Y0151534D01*
X0084825Y0150336D02*
X0084025Y0150336D01*
X0084025Y0149137D02*
X0084825Y0149137D01*
X0084825Y0147939D02*
X0084025Y0147939D01*
X0084025Y0146990D02*
X0079825Y0146990D01*
X0079825Y0139796D01*
X0080502Y0139903D01*
X0081191Y0140127D01*
X0081836Y0140455D01*
X0082422Y0140881D01*
X0082934Y0141393D01*
X0083359Y0141979D01*
X0083688Y0142624D01*
X0083912Y0143313D01*
X0084025Y0144028D01*
X0084025Y0146990D01*
X0084025Y0146740D02*
X0084825Y0146740D01*
X0084825Y0145542D02*
X0084025Y0145542D01*
X0084025Y0144343D02*
X0084825Y0144343D01*
X0084962Y0143145D02*
X0083857Y0143145D01*
X0083336Y0141946D02*
X0085458Y0141946D01*
X0086562Y0140748D02*
X0082238Y0140748D01*
X0079825Y0140748D02*
X0079025Y0140748D01*
X0079025Y0141946D02*
X0079825Y0141946D01*
X0079825Y0143145D02*
X0079025Y0143145D01*
X0079025Y0144343D02*
X0079825Y0144343D01*
X0079825Y0145542D02*
X0079025Y0145542D01*
X0079025Y0146740D02*
X0079825Y0146740D01*
X0079825Y0147939D02*
X0079025Y0147939D01*
X0079025Y0149137D02*
X0079825Y0149137D01*
X0079825Y0150336D02*
X0079025Y0150336D01*
X0079025Y0151534D02*
X0079825Y0151534D01*
X0079825Y0152733D02*
X0079025Y0152733D01*
X0052561Y0158538D02*
X0048881Y0154858D01*
X0037842Y0144343D02*
X0036993Y0144343D01*
X0017305Y0110785D02*
X0075124Y0110785D01*
X0075521Y0109586D02*
X0016808Y0109586D01*
X0015748Y0108388D02*
X0076163Y0108388D01*
X0076720Y0107189D02*
X0014549Y0107189D01*
X0013351Y0105991D02*
X0077276Y0105991D01*
X0077833Y0104792D02*
X0037763Y0104792D01*
X0038084Y0099970D02*
X0046542Y0099970D01*
X0047133Y0099884D01*
X0047249Y0099970D01*
X0047394Y0099970D01*
X0047817Y0100393D01*
X0048296Y0100750D01*
X0048317Y0100893D01*
X0048419Y0100996D01*
X0048419Y0101593D01*
X0048506Y0102184D01*
X0048419Y0102300D01*
X0048419Y0102445D01*
X0047997Y0102868D01*
X0047640Y0103347D01*
X0047497Y0103368D01*
X0047394Y0103470D01*
X0046797Y0103470D01*
X0031495Y0105710D01*
X0031493Y0105713D01*
X0030778Y0105815D01*
X0030064Y0105919D01*
X0030061Y0105917D01*
X0030057Y0105918D01*
X0029478Y0105483D01*
X0028901Y0105053D01*
X0028900Y0105050D01*
X0028898Y0105048D01*
X0028796Y0104333D01*
X0028691Y0103619D01*
X0028693Y0103616D01*
X0028693Y0103613D01*
X0029127Y0103033D01*
X0029557Y0102456D01*
X0029560Y0102456D01*
X0037301Y0092135D01*
X0037554Y0091628D01*
X0037723Y0091572D01*
X0037830Y0091429D01*
X0038392Y0091349D01*
X0038930Y0091170D01*
X0039089Y0091249D01*
X0039265Y0091224D01*
X0039719Y0091564D01*
X0043781Y0093595D01*
X0043920Y0093570D01*
X0044414Y0093912D01*
X0044951Y0094180D01*
X0044995Y0094314D01*
X0045112Y0094395D01*
X0045219Y0094986D01*
X0045409Y0095556D01*
X0045346Y0095682D01*
X0045371Y0095821D01*
X0045029Y0096315D01*
X0044761Y0096852D01*
X0044626Y0096897D01*
X0044546Y0097013D01*
X0043955Y0097121D01*
X0043385Y0097311D01*
X0043259Y0097247D01*
X0040075Y0097826D01*
X0038084Y0099970D01*
X0039171Y0098800D02*
X0047728Y0098800D01*
X0047729Y0098801D02*
X0047574Y0098577D01*
X0047659Y0098106D01*
X0047612Y0097630D01*
X0047784Y0097419D01*
X0048463Y0093689D01*
X0048463Y0093122D01*
X0048589Y0092996D01*
X0048620Y0092820D01*
X0049087Y0092497D01*
X0049488Y0092096D01*
X0049666Y0092096D01*
X0049812Y0091995D01*
X0050370Y0092096D01*
X0052881Y0092096D01*
X0053516Y0092033D01*
X0053593Y0092096D01*
X0053693Y0092096D01*
X0054144Y0092547D01*
X0054638Y0092951D01*
X0054648Y0093051D01*
X0054718Y0093122D01*
X0054718Y0093759D01*
X0054749Y0094069D01*
X0060072Y0091877D01*
X0060604Y0091574D01*
X0060636Y0091582D01*
X0060667Y0091360D01*
X0060667Y0089246D01*
X0060636Y0089024D01*
X0060604Y0089033D01*
X0060072Y0088729D01*
X0054749Y0086537D01*
X0054718Y0086847D01*
X0054718Y0087485D01*
X0054648Y0087556D01*
X0054638Y0087655D01*
X0054144Y0088059D01*
X0053693Y0088510D01*
X0053593Y0088510D01*
X0053516Y0088573D01*
X0052881Y0088510D01*
X0050370Y0088510D01*
X0049812Y0088611D01*
X0049666Y0088510D01*
X0049488Y0088510D01*
X0049087Y0088109D01*
X0048620Y0087786D01*
X0048589Y0087611D01*
X0048463Y0087485D01*
X0048463Y0086918D01*
X0047784Y0083187D01*
X0047612Y0082976D01*
X0047659Y0082500D01*
X0047574Y0082029D01*
X0047729Y0081805D01*
X0047756Y0081534D01*
X0048127Y0081231D01*
X0048399Y0080837D01*
X0048667Y0080788D01*
X0048878Y0080616D01*
X0049354Y0080663D01*
X0049825Y0080578D01*
X0050049Y0080733D01*
X0050321Y0080760D01*
X0050624Y0081130D01*
X0051017Y0081403D01*
X0051066Y0081671D01*
X0052400Y0083301D01*
X0052400Y0082055D01*
X0052260Y0081776D01*
X0052400Y0081358D01*
X0052400Y0080917D01*
X0052620Y0080696D01*
X0052719Y0080401D01*
X0053113Y0080203D01*
X0053425Y0079892D01*
X0053736Y0079892D01*
X0054015Y0079752D01*
X0054434Y0079892D01*
X0054874Y0079892D01*
X0055095Y0080112D01*
X0055391Y0080211D01*
X0055588Y0080605D01*
X0055900Y0080917D01*
X0055900Y0081229D01*
X0056659Y0082747D01*
X0061613Y0085578D01*
X0062179Y0085811D01*
X0062229Y0085930D01*
X0062340Y0085994D01*
X0062501Y0086584D01*
X0062737Y0087150D01*
X0062688Y0087268D01*
X0062700Y0087314D01*
X0062887Y0087287D01*
X0063001Y0087372D01*
X0063142Y0087372D01*
X0063567Y0087797D01*
X0064683Y0088634D01*
X0064957Y0088673D01*
X0065242Y0089053D01*
X0065622Y0089338D01*
X0065661Y0089612D01*
X0065827Y0089833D01*
X0065760Y0090303D01*
X0065827Y0090773D01*
X0065661Y0090994D01*
X0065622Y0091268D01*
X0065242Y0091553D01*
X0064957Y0091933D01*
X0064683Y0091972D01*
X0063567Y0092810D01*
X0063142Y0093234D01*
X0063001Y0093234D01*
X0062887Y0093319D01*
X0062700Y0093292D01*
X0062688Y0093338D01*
X0062737Y0093457D01*
X0062501Y0094022D01*
X0062340Y0094613D01*
X0062229Y0094676D01*
X0062179Y0094795D01*
X0061613Y0095028D01*
X0056659Y0097859D01*
X0055900Y0099378D01*
X0055900Y0099689D01*
X0055588Y0100001D01*
X0055391Y0100396D01*
X0055095Y0100494D01*
X0054874Y0100715D01*
X0054434Y0100715D01*
X0054015Y0100854D01*
X0053736Y0100715D01*
X0053425Y0100715D01*
X0053113Y0100403D01*
X0052719Y0100206D01*
X0052620Y0099910D01*
X0052400Y0099689D01*
X0052400Y0099249D01*
X0052260Y0098830D01*
X0052400Y0098551D01*
X0052400Y0097305D01*
X0051066Y0098935D01*
X0051017Y0099203D01*
X0050624Y0099476D01*
X0050321Y0099846D01*
X0050049Y0099873D01*
X0049825Y0100029D01*
X0049354Y0099943D01*
X0048878Y0099991D01*
X0048667Y0099818D01*
X0048399Y0099769D01*
X0048127Y0099376D01*
X0047756Y0099073D01*
X0047729Y0098801D01*
X0047635Y0097601D02*
X0041312Y0097601D01*
X0044985Y0096403D02*
X0047969Y0096403D01*
X0048187Y0095204D02*
X0045292Y0095204D01*
X0044602Y0094006D02*
X0048405Y0094006D01*
X0048639Y0092807D02*
X0042205Y0092807D01*
X0039808Y0091609D02*
X0060542Y0091609D01*
X0060667Y0090410D02*
X0017561Y0090410D01*
X0017561Y0089212D02*
X0038073Y0089212D01*
X0037830Y0089177D02*
X0038392Y0089257D01*
X0038930Y0089437D01*
X0039089Y0089357D01*
X0039265Y0089382D01*
X0039719Y0089042D01*
X0043781Y0087011D01*
X0043920Y0087036D01*
X0044414Y0086695D01*
X0044951Y0086426D01*
X0044995Y0086292D01*
X0045112Y0086211D01*
X0045219Y0085620D01*
X0045409Y0085051D01*
X0045346Y0084924D01*
X0045371Y0084785D01*
X0045029Y0084291D01*
X0044761Y0083754D01*
X0044626Y0083709D01*
X0044546Y0083593D01*
X0043955Y0083486D01*
X0043385Y0083296D01*
X0043259Y0083359D01*
X0040075Y0082780D01*
X0038084Y0080636D01*
X0046542Y0080636D01*
X0047133Y0080722D01*
X0047249Y0080636D01*
X0047394Y0080636D01*
X0047817Y0080213D01*
X0048296Y0079856D01*
X0048317Y0079713D01*
X0048419Y0079611D01*
X0048419Y0079223D01*
X0048563Y0079391D01*
X0049074Y0079432D01*
X0049559Y0079594D01*
X0049772Y0079488D01*
X0050008Y0079507D01*
X0050398Y0079175D01*
X0050856Y0078946D01*
X0050931Y0078721D01*
X0051112Y0078567D01*
X0051153Y0078056D01*
X0054036Y0069406D01*
X0066030Y0061910D01*
X0066604Y0061623D01*
X0066634Y0061532D01*
X0066715Y0061482D01*
X0066860Y0060856D01*
X0067063Y0060248D01*
X0067020Y0060162D01*
X0067041Y0060069D01*
X0066701Y0059525D01*
X0066414Y0058951D01*
X0066324Y0058921D01*
X0066273Y0058840D01*
X0065648Y0058695D01*
X0065039Y0058492D01*
X0064954Y0058535D01*
X0064860Y0058514D01*
X0064316Y0058854D01*
X0049866Y0066079D01*
X0049630Y0066060D01*
X0049240Y0066392D01*
X0048782Y0066621D01*
X0048707Y0066846D01*
X0048526Y0067000D01*
X0048485Y0067511D01*
X0048323Y0067996D01*
X0048429Y0068209D01*
X0047699Y0077338D01*
X0047640Y0077259D01*
X0047497Y0077238D01*
X0047394Y0077136D01*
X0046797Y0077136D01*
X0031495Y0074897D01*
X0031493Y0074894D01*
X0030778Y0074792D01*
X0030064Y0074687D01*
X0030061Y0074689D01*
X0030057Y0074689D01*
X0029478Y0075123D01*
X0028901Y0075553D01*
X0028900Y0075556D01*
X0028898Y0075559D01*
X0028796Y0076273D01*
X0028691Y0076987D01*
X0028693Y0076990D01*
X0028693Y0076994D01*
X0029127Y0077574D01*
X0029557Y0078150D01*
X0029560Y0078151D01*
X0037301Y0088471D01*
X0037554Y0088978D01*
X0037723Y0089035D01*
X0037830Y0089177D01*
X0036957Y0088013D02*
X0017561Y0088013D01*
X0017561Y0086815D02*
X0036058Y0086815D01*
X0035160Y0085616D02*
X0017561Y0085616D01*
X0017561Y0084418D02*
X0034261Y0084418D01*
X0033362Y0083219D02*
X0017561Y0083219D01*
X0017561Y0082021D02*
X0032463Y0082021D01*
X0031564Y0080822D02*
X0017561Y0080822D01*
X0017561Y0079624D02*
X0030665Y0079624D01*
X0029766Y0078425D02*
X0017561Y0078425D01*
X0017561Y0077227D02*
X0028867Y0077227D01*
X0028831Y0076028D02*
X0017561Y0076028D01*
X0017561Y0074830D02*
X0029869Y0074830D01*
X0031044Y0074830D02*
X0047900Y0074830D01*
X0047804Y0076028D02*
X0039228Y0076028D01*
X0038257Y0080822D02*
X0048480Y0080822D01*
X0048406Y0079624D02*
X0055943Y0079624D01*
X0055973Y0080822D02*
X0055805Y0080822D01*
X0056296Y0082021D02*
X0058343Y0082021D01*
X0057485Y0083219D02*
X0063377Y0083219D01*
X0065386Y0084418D02*
X0059582Y0084418D01*
X0061705Y0085616D02*
X0066135Y0085616D01*
X0066884Y0086815D02*
X0062597Y0086815D01*
X0063856Y0088013D02*
X0067633Y0088013D01*
X0068356Y0089212D02*
X0065454Y0089212D01*
X0065775Y0090410D02*
X0070181Y0090410D01*
X0070221Y0090410D02*
X0070884Y0090410D01*
X0068181Y0091609D02*
X0065200Y0091609D01*
X0063570Y0092807D02*
X0067499Y0092807D01*
X0066750Y0094006D02*
X0062508Y0094006D01*
X0061304Y0095204D02*
X0066001Y0095204D01*
X0065252Y0096403D02*
X0059207Y0096403D01*
X0057110Y0097601D02*
X0062477Y0097601D01*
X0056958Y0098800D02*
X0056188Y0098800D01*
X0055943Y0099998D02*
X0055591Y0099998D01*
X0055943Y0101197D02*
X0048419Y0101197D01*
X0048419Y0102395D02*
X0057370Y0102395D01*
X0057453Y0102395D02*
X0078946Y0102395D01*
X0079502Y0101197D02*
X0067317Y0101197D01*
X0068116Y0099998D02*
X0080059Y0099998D01*
X0080493Y0098800D02*
X0068982Y0098800D01*
X0069847Y0097601D02*
X0083723Y0097601D01*
X0083617Y0098800D02*
X0084362Y0098800D01*
X0084411Y0099998D02*
X0084992Y0099998D01*
X0083084Y0096403D02*
X0070713Y0096403D01*
X0071579Y0095204D02*
X0082444Y0095204D01*
X0081731Y0094006D02*
X0076263Y0094006D01*
X0077228Y0086815D02*
X0081301Y0086815D01*
X0081257Y0085616D02*
X0071834Y0085616D01*
X0070868Y0084418D02*
X0081212Y0084418D01*
X0081168Y0083219D02*
X0070002Y0083219D01*
X0069137Y0082021D02*
X0080396Y0082021D01*
X0079497Y0080822D02*
X0068271Y0080822D01*
X0067405Y0079624D02*
X0078598Y0079624D01*
X0077699Y0078425D02*
X0066400Y0078425D01*
X0074469Y0073631D02*
X0052628Y0073631D01*
X0053027Y0072433D02*
X0073803Y0072433D01*
X0073137Y0071234D02*
X0053427Y0071234D01*
X0053826Y0070036D02*
X0072472Y0070036D01*
X0071806Y0068837D02*
X0054947Y0068837D01*
X0056864Y0067639D02*
X0071140Y0067639D01*
X0070474Y0066440D02*
X0058782Y0066440D01*
X0060700Y0065242D02*
X0069808Y0065242D01*
X0069142Y0064043D02*
X0062617Y0064043D01*
X0064535Y0062845D02*
X0068476Y0062845D01*
X0067781Y0061646D02*
X0066558Y0061646D01*
X0066996Y0060448D02*
X0067238Y0060448D01*
X0067614Y0059249D02*
X0066563Y0059249D01*
X0063526Y0059249D02*
X0012969Y0059249D01*
X0012811Y0060448D02*
X0061129Y0060448D01*
X0058732Y0061646D02*
X0012811Y0061646D01*
X0012811Y0062845D02*
X0056335Y0062845D01*
X0053938Y0064043D02*
X0014102Y0064043D01*
X0016120Y0065242D02*
X0051541Y0065242D01*
X0049144Y0066440D02*
X0017037Y0066440D01*
X0017534Y0067639D02*
X0048442Y0067639D01*
X0048379Y0068837D02*
X0017561Y0068837D01*
X0017561Y0070036D02*
X0048283Y0070036D01*
X0048187Y0071234D02*
X0017561Y0071234D01*
X0017561Y0072433D02*
X0048091Y0072433D01*
X0047995Y0073631D02*
X0017561Y0073631D01*
X0014167Y0058051D02*
X0128589Y0058051D01*
X0129787Y0059249D02*
X0071202Y0059249D01*
X0074698Y0060448D02*
X0130986Y0060448D01*
X0132184Y0061646D02*
X0078193Y0061646D01*
X0081689Y0062845D02*
X0133383Y0062845D01*
X0134581Y0064043D02*
X0084318Y0064043D01*
X0085152Y0065242D02*
X0135780Y0065242D01*
X0135046Y0071234D02*
X0134671Y0071234D01*
X0134671Y0072433D02*
X0135046Y0072433D01*
X0143874Y0070224D02*
X0147457Y0070224D01*
X0148306Y0071074D01*
X0150304Y0071074D01*
X0143874Y0070224D02*
X0120252Y0046602D01*
X0120252Y0024949D01*
X0130703Y0024949D01*
X0133507Y0022095D02*
X0135030Y0022095D01*
X0135030Y0022462D02*
X0135967Y0023399D01*
X0144379Y0023399D01*
X0145317Y0022462D01*
X0145317Y0012475D01*
X0144379Y0011538D01*
X0135967Y0011538D01*
X0135030Y0012475D01*
X0135030Y0022462D01*
X0134705Y0023294D02*
X0135862Y0023294D01*
X0135030Y0020897D02*
X0132308Y0020897D01*
X0131110Y0019698D02*
X0135030Y0019698D01*
X0135030Y0018500D02*
X0129911Y0018500D01*
X0135030Y0017301D02*
X0109775Y0017301D01*
X0108576Y0016103D02*
X0135030Y0016103D01*
X0135030Y0014904D02*
X0107378Y0014904D01*
X0106179Y0013706D02*
X0135030Y0013706D01*
X0135030Y0012507D02*
X0104981Y0012507D01*
X0103782Y0011309D02*
X0236557Y0011309D01*
X0236557Y0007713D02*
X0017411Y0007713D01*
X0017411Y0006515D02*
X0236557Y0006515D01*
X0226762Y0012507D02*
X0145317Y0012507D01*
X0145317Y0013706D02*
X0226762Y0013706D01*
X0226762Y0014904D02*
X0145317Y0014904D01*
X0145317Y0016103D02*
X0226762Y0016103D01*
X0226762Y0017301D02*
X0145317Y0017301D01*
X0145317Y0018500D02*
X0226762Y0018500D01*
X0226762Y0019698D02*
X0145317Y0019698D01*
X0145317Y0020897D02*
X0226762Y0020897D01*
X0226762Y0022095D02*
X0145317Y0022095D01*
X0144485Y0023294D02*
X0227594Y0023294D01*
X0226962Y0025691D02*
X0236557Y0025691D01*
X0236557Y0026889D02*
X0227816Y0026889D01*
X0227816Y0028088D02*
X0236557Y0028088D01*
X0236557Y0029286D02*
X0227816Y0029286D01*
X0227816Y0030485D02*
X0236557Y0030485D01*
X0236557Y0031683D02*
X0227816Y0031683D01*
X0227816Y0032882D02*
X0236557Y0032882D01*
X0236557Y0034080D02*
X0227816Y0034080D01*
X0228781Y0035279D02*
X0236557Y0035279D01*
X0236557Y0036477D02*
X0232705Y0036477D01*
X0232718Y0037676D02*
X0236557Y0037676D01*
X0236557Y0038874D02*
X0232718Y0038874D01*
X0232718Y0040073D02*
X0236557Y0040073D01*
X0236557Y0041271D02*
X0232381Y0041271D01*
X0232718Y0042470D02*
X0236557Y0042470D01*
X0236557Y0043668D02*
X0232718Y0043668D01*
X0232718Y0044867D02*
X0236557Y0044867D01*
X0236557Y0046065D02*
X0232343Y0046065D01*
X0229346Y0043650D02*
X0222850Y0043650D01*
X0221472Y0045028D01*
X0218783Y0046141D02*
X0229346Y0056704D01*
X0229346Y0064713D01*
X0236557Y0071924D01*
X0236557Y0136242D01*
X0229346Y0143453D01*
X0228846Y0143145D02*
X0213828Y0143145D01*
X0213828Y0144343D02*
X0222746Y0144343D01*
X0222746Y0143953D02*
X0228846Y0143953D01*
X0228846Y0142953D01*
X0222746Y0142953D01*
X0222746Y0140719D01*
X0226613Y0136853D01*
X0228846Y0136853D01*
X0228846Y0142953D01*
X0229846Y0142953D01*
X0229846Y0136853D01*
X0232080Y0136853D01*
X0235946Y0140719D01*
X0235946Y0142953D01*
X0229847Y0142953D01*
X0229847Y0143953D01*
X0235946Y0143953D01*
X0235946Y0146187D01*
X0232080Y0150053D01*
X0229846Y0150053D01*
X0229846Y0143953D01*
X0228846Y0143953D01*
X0228846Y0150053D01*
X0226613Y0150053D01*
X0222746Y0146187D01*
X0222746Y0143953D01*
X0222746Y0145542D02*
X0213828Y0145542D01*
X0213828Y0146740D02*
X0223300Y0146740D01*
X0224499Y0147939D02*
X0213828Y0147939D01*
X0213828Y0149137D02*
X0225697Y0149137D01*
X0228846Y0149137D02*
X0229846Y0149137D01*
X0229846Y0147939D02*
X0228846Y0147939D01*
X0228846Y0146740D02*
X0229846Y0146740D01*
X0229846Y0145542D02*
X0228846Y0145542D01*
X0228846Y0144343D02*
X0229846Y0144343D01*
X0229847Y0143145D02*
X0236557Y0143145D01*
X0236557Y0144343D02*
X0235946Y0144343D01*
X0235946Y0145542D02*
X0236557Y0145542D01*
X0236557Y0146740D02*
X0235393Y0146740D01*
X0236557Y0147939D02*
X0234194Y0147939D01*
X0232996Y0149137D02*
X0236557Y0149137D01*
X0236557Y0150336D02*
X0213414Y0150336D01*
X0212621Y0151534D02*
X0236557Y0151534D01*
X0236557Y0152733D02*
X0210839Y0152733D01*
X0207617Y0152733D02*
X0200839Y0152733D01*
X0202621Y0151534D02*
X0205836Y0151534D01*
X0205042Y0150336D02*
X0203414Y0150336D01*
X0203828Y0149137D02*
X0204628Y0149137D01*
X0204628Y0147939D02*
X0203828Y0147939D01*
X0203828Y0146740D02*
X0204628Y0146740D01*
X0204628Y0145542D02*
X0203828Y0145542D01*
X0203828Y0144343D02*
X0204628Y0144343D01*
X0204628Y0143145D02*
X0203828Y0143145D01*
X0203828Y0141946D02*
X0204628Y0141946D01*
X0204943Y0140748D02*
X0203514Y0140748D01*
X0202862Y0139549D02*
X0205595Y0139549D01*
X0206432Y0138351D02*
X0202025Y0138351D01*
X0203167Y0137152D02*
X0205289Y0137152D01*
X0204793Y0135954D02*
X0203664Y0135954D01*
X0203828Y0134755D02*
X0204628Y0134755D01*
X0204628Y0133557D02*
X0203828Y0133557D01*
X0203828Y0132358D02*
X0204628Y0132358D01*
X0204628Y0131160D02*
X0203828Y0131160D01*
X0203828Y0129961D02*
X0204628Y0129961D01*
X0205819Y0125546D02*
X0206623Y0124742D01*
X0208313Y0124042D01*
X0210143Y0124042D01*
X0211228Y0124491D01*
X0211228Y0122511D01*
X0207911Y0119194D01*
X0207911Y0119379D01*
X0207440Y0120515D01*
X0206571Y0121384D01*
X0205436Y0121854D01*
X0204207Y0121854D01*
X0203072Y0121384D01*
X0202203Y0120515D01*
X0201733Y0119379D01*
X0201733Y0119056D01*
X0200025Y0119056D01*
X0200009Y0119040D01*
X0199948Y0119056D01*
X0198638Y0119056D01*
X0198638Y0115106D01*
X0198638Y0111156D01*
X0199873Y0111156D01*
X0198637Y0109920D01*
X0195410Y0109920D01*
X0196647Y0111156D01*
X0197251Y0111156D01*
X0197267Y0111172D01*
X0197327Y0111156D01*
X0198638Y0111156D01*
X0198638Y0115106D01*
X0198638Y0115106D01*
X0198638Y0119043D01*
X0197850Y0119831D01*
X0197327Y0119056D02*
X0197267Y0119040D01*
X0197251Y0119056D01*
X0194239Y0119056D01*
X0194239Y0121406D01*
X0194700Y0121868D01*
X0202141Y0121868D01*
X0203254Y0122981D01*
X0205819Y0125546D01*
X0205441Y0125167D02*
X0206198Y0125167D01*
X0204242Y0123969D02*
X0211228Y0123969D01*
X0211228Y0122770D02*
X0203044Y0122770D01*
X0203526Y0121572D02*
X0194404Y0121572D01*
X0194239Y0120373D02*
X0202144Y0120373D01*
X0201733Y0119175D02*
X0194239Y0119175D01*
X0197327Y0119056D02*
X0198638Y0119056D01*
X0198638Y0115106D01*
X0198638Y0115106D01*
X0198638Y0115579D02*
X0198638Y0115579D01*
X0198638Y0114381D02*
X0198638Y0114381D01*
X0198638Y0113182D02*
X0198638Y0113182D01*
X0198638Y0111984D02*
X0198638Y0111984D01*
X0199502Y0110785D02*
X0196276Y0110785D01*
X0194639Y0112259D02*
X0191899Y0109520D01*
X0169670Y0109520D01*
X0168170Y0108020D01*
X0163992Y0108020D01*
X0163992Y0115106D01*
X0166292Y0115956D02*
X0166292Y0117953D01*
X0164386Y0119860D01*
X0164386Y0121153D01*
X0164702Y0121572D02*
X0162126Y0121572D01*
X0162055Y0121642D02*
X0164632Y0121642D01*
X0165832Y0120442D01*
X0166562Y0120442D01*
X0167947Y0119056D01*
X0167142Y0119056D01*
X0167142Y0115106D01*
X0167142Y0111156D01*
X0168195Y0111156D01*
X0167470Y0110431D01*
X0167259Y0110220D01*
X0166192Y0110220D01*
X0166192Y0111156D01*
X0167142Y0111156D01*
X0167142Y0115106D01*
X0167142Y0115106D01*
X0166292Y0115956D01*
X0167142Y0115579D02*
X0167142Y0115579D01*
X0167142Y0115106D02*
X0167142Y0119056D01*
X0165831Y0119056D01*
X0165771Y0119040D01*
X0165755Y0119056D01*
X0162743Y0119056D01*
X0162743Y0120955D01*
X0162055Y0121642D01*
X0162743Y0120373D02*
X0166630Y0120373D01*
X0167829Y0119175D02*
X0162743Y0119175D01*
X0167142Y0117976D02*
X0167142Y0117976D01*
X0167142Y0116778D02*
X0167142Y0116778D01*
X0167142Y0115106D02*
X0167142Y0115106D01*
X0167142Y0114381D02*
X0167142Y0114381D01*
X0167142Y0113182D02*
X0167142Y0113182D01*
X0167142Y0111984D02*
X0167142Y0111984D01*
X0167824Y0110785D02*
X0166192Y0110785D01*
X0170950Y0105991D02*
X0195390Y0105991D01*
X0194801Y0104792D02*
X0169751Y0104792D01*
X0168553Y0103594D02*
X0194761Y0103594D01*
X0195206Y0102395D02*
X0167354Y0102395D01*
X0166156Y0101197D02*
X0196745Y0101197D01*
X0199535Y0099998D02*
X0164957Y0099998D01*
X0163759Y0098800D02*
X0204924Y0098800D01*
X0204924Y0097601D02*
X0162560Y0097601D01*
X0161362Y0096403D02*
X0204924Y0096403D01*
X0204924Y0095204D02*
X0201569Y0095204D01*
X0199586Y0095204D02*
X0160163Y0095204D01*
X0158964Y0094006D02*
X0164977Y0094006D01*
X0162417Y0072587D02*
X0193913Y0072587D01*
X0193913Y0057261D01*
X0194639Y0056536D01*
X0194639Y0054539D01*
X0195488Y0053689D01*
X0195488Y0057639D01*
X0195488Y0053689D01*
X0195488Y0053689D01*
X0195488Y0054455D02*
X0195488Y0054455D01*
X0195488Y0055653D02*
X0195488Y0055653D01*
X0195488Y0056852D02*
X0195488Y0056852D01*
X0198638Y0053689D02*
X0199487Y0054539D01*
X0199487Y0060776D01*
X0218783Y0046141D02*
X0218783Y0038402D01*
X0217535Y0037154D01*
X0216551Y0036169D01*
X0216551Y0030264D01*
X0216551Y0033708D02*
X0216551Y0033708D01*
X0216551Y0034423D01*
X0214514Y0034423D01*
X0214514Y0042035D01*
X0218569Y0046090D01*
X0218383Y0045642D01*
X0218383Y0044413D01*
X0218854Y0043278D01*
X0219723Y0042409D01*
X0220858Y0041939D01*
X0221450Y0041939D01*
X0221939Y0041450D01*
X0226134Y0041450D01*
X0226493Y0041091D01*
X0225975Y0040572D01*
X0225975Y0037847D01*
X0225129Y0037001D01*
X0224016Y0035888D01*
X0224016Y0034423D01*
X0223172Y0034423D01*
X0216551Y0034423D01*
X0216551Y0033708D01*
X0216551Y0033708D01*
X0216551Y0034080D02*
X0216551Y0034080D01*
X0214514Y0035279D02*
X0224016Y0035279D01*
X0224605Y0036477D02*
X0214514Y0036477D01*
X0214514Y0037676D02*
X0225804Y0037676D01*
X0225975Y0038874D02*
X0214514Y0038874D01*
X0214514Y0040073D02*
X0225975Y0040073D01*
X0226312Y0041271D02*
X0214514Y0041271D01*
X0214949Y0042470D02*
X0219662Y0042470D01*
X0218692Y0043668D02*
X0216147Y0043668D01*
X0217346Y0044867D02*
X0218383Y0044867D01*
X0218544Y0046065D02*
X0218559Y0046065D01*
X0220941Y0048462D02*
X0236557Y0048462D01*
X0236557Y0047264D02*
X0223605Y0047264D01*
X0224386Y0046065D02*
X0226350Y0046065D01*
X0222140Y0049661D02*
X0236557Y0049661D01*
X0236557Y0050859D02*
X0223338Y0050859D01*
X0224537Y0052058D02*
X0236557Y0052058D01*
X0236557Y0053256D02*
X0224824Y0053256D01*
X0224824Y0054455D02*
X0236557Y0054455D01*
X0236557Y0055653D02*
X0224824Y0055653D01*
X0224824Y0056852D02*
X0236557Y0056852D01*
X0236557Y0058051D02*
X0224824Y0058051D01*
X0224824Y0059249D02*
X0225441Y0059249D01*
X0228746Y0059249D02*
X0229946Y0059249D01*
X0229946Y0060448D02*
X0228746Y0060448D01*
X0228746Y0061646D02*
X0229946Y0061646D01*
X0229946Y0062845D02*
X0228746Y0062845D01*
X0228746Y0064043D02*
X0229946Y0064043D01*
X0229947Y0065242D02*
X0236557Y0065242D01*
X0236557Y0066440D02*
X0235971Y0066440D01*
X0235790Y0067639D02*
X0236557Y0067639D01*
X0236557Y0068837D02*
X0234591Y0068837D01*
X0233393Y0070036D02*
X0236557Y0070036D01*
X0236557Y0071234D02*
X0233426Y0071234D01*
X0234625Y0072433D02*
X0236557Y0072433D01*
X0236557Y0073631D02*
X0235823Y0073631D01*
X0235971Y0074830D02*
X0236557Y0074830D01*
X0236557Y0076028D02*
X0235971Y0076028D01*
X0235971Y0077227D02*
X0236557Y0077227D01*
X0236557Y0078425D02*
X0235971Y0078425D01*
X0235616Y0079624D02*
X0236557Y0079624D01*
X0236557Y0080822D02*
X0234417Y0080822D01*
X0233218Y0082021D02*
X0236557Y0082021D01*
X0236557Y0083219D02*
X0233600Y0083219D01*
X0234799Y0084418D02*
X0236557Y0084418D01*
X0236557Y0085616D02*
X0235971Y0085616D01*
X0235971Y0086815D02*
X0236557Y0086815D01*
X0236557Y0088013D02*
X0235971Y0088013D01*
X0235971Y0089212D02*
X0236557Y0089212D01*
X0236557Y0090410D02*
X0235971Y0090410D01*
X0235441Y0091609D02*
X0236557Y0091609D01*
X0236557Y0092807D02*
X0234243Y0092807D01*
X0233044Y0094006D02*
X0236557Y0094006D01*
X0236557Y0095204D02*
X0233774Y0095204D01*
X0234973Y0096403D02*
X0236557Y0096403D01*
X0236557Y0097601D02*
X0235971Y0097601D01*
X0235971Y0098800D02*
X0236557Y0098800D01*
X0236557Y0099998D02*
X0235971Y0099998D01*
X0235971Y0101197D02*
X0236557Y0101197D01*
X0236557Y0102395D02*
X0235971Y0102395D01*
X0236557Y0103594D02*
X0235267Y0103594D01*
X0234069Y0104792D02*
X0236557Y0104792D01*
X0236557Y0105991D02*
X0232870Y0105991D01*
X0233948Y0107189D02*
X0236557Y0107189D01*
X0236557Y0108388D02*
X0235147Y0108388D01*
X0235971Y0109586D02*
X0236557Y0109586D01*
X0236557Y0110785D02*
X0235971Y0110785D01*
X0235971Y0111984D02*
X0236557Y0111984D01*
X0236557Y0113182D02*
X0235971Y0113182D01*
X0235971Y0114381D02*
X0236557Y0114381D01*
X0236557Y0115579D02*
X0235093Y0115579D01*
X0233895Y0116778D02*
X0236557Y0116778D01*
X0236557Y0117976D02*
X0232696Y0117976D01*
X0231546Y0119175D02*
X0236557Y0119175D01*
X0236557Y0120373D02*
X0231546Y0120373D01*
X0232547Y0121572D02*
X0236557Y0121572D01*
X0236557Y0122770D02*
X0233746Y0122770D01*
X0234944Y0123969D02*
X0236557Y0123969D01*
X0236557Y0125167D02*
X0235946Y0125167D01*
X0235946Y0126366D02*
X0236557Y0126366D01*
X0236557Y0127564D02*
X0235946Y0127564D01*
X0235946Y0128763D02*
X0236557Y0128763D01*
X0236557Y0129961D02*
X0235946Y0129961D01*
X0236557Y0131160D02*
X0235225Y0131160D01*
X0234027Y0132358D02*
X0236557Y0132358D01*
X0236557Y0133557D02*
X0232828Y0133557D01*
X0232380Y0137152D02*
X0236557Y0137152D01*
X0236557Y0135954D02*
X0215028Y0135954D01*
X0215028Y0134755D02*
X0236557Y0134755D01*
X0236557Y0138351D02*
X0233578Y0138351D01*
X0234777Y0139549D02*
X0236557Y0139549D01*
X0236557Y0140748D02*
X0235946Y0140748D01*
X0235946Y0141946D02*
X0236557Y0141946D01*
X0229846Y0141946D02*
X0228846Y0141946D01*
X0228846Y0140748D02*
X0229846Y0140748D01*
X0229846Y0139549D02*
X0228846Y0139549D01*
X0228846Y0138351D02*
X0229846Y0138351D01*
X0229846Y0137152D02*
X0228846Y0137152D01*
X0226313Y0137152D02*
X0214920Y0137152D01*
X0213722Y0138351D02*
X0225115Y0138351D01*
X0223916Y0139549D02*
X0212862Y0139549D01*
X0213514Y0140748D02*
X0222746Y0140748D01*
X0222746Y0141946D02*
X0213828Y0141946D01*
X0215028Y0133557D02*
X0225865Y0133557D01*
X0224666Y0132358D02*
X0215028Y0132358D01*
X0215028Y0131160D02*
X0223468Y0131160D01*
X0222746Y0129961D02*
X0215028Y0129961D01*
X0215028Y0128763D02*
X0222746Y0128763D01*
X0222746Y0127564D02*
X0215028Y0127564D01*
X0215028Y0126366D02*
X0222746Y0126366D01*
X0222746Y0125167D02*
X0215028Y0125167D01*
X0215028Y0123969D02*
X0223749Y0123969D01*
X0224947Y0122770D02*
X0215028Y0122770D01*
X0215028Y0121572D02*
X0226146Y0121572D01*
X0227146Y0120373D02*
X0214464Y0120373D01*
X0213265Y0119175D02*
X0227146Y0119175D01*
X0225997Y0117976D02*
X0212067Y0117976D01*
X0210868Y0116778D02*
X0224798Y0116778D01*
X0223600Y0115579D02*
X0209670Y0115579D01*
X0208471Y0114381D02*
X0222721Y0114381D01*
X0222721Y0113182D02*
X0207273Y0113182D01*
X0206074Y0111984D02*
X0222721Y0111984D01*
X0222721Y0110785D02*
X0204876Y0110785D01*
X0212824Y0109586D02*
X0222721Y0109586D01*
X0223546Y0108388D02*
X0212824Y0108388D01*
X0212824Y0107189D02*
X0224745Y0107189D01*
X0225823Y0105991D02*
X0212824Y0105991D01*
X0212824Y0104792D02*
X0224624Y0104792D01*
X0223426Y0103594D02*
X0212824Y0103594D01*
X0215717Y0102395D02*
X0222721Y0102395D01*
X0229346Y0100146D02*
X0213598Y0100146D01*
X0204924Y0094006D02*
X0203203Y0094006D01*
X0203666Y0092807D02*
X0204924Y0092807D01*
X0204924Y0091609D02*
X0204351Y0091609D01*
X0206027Y0086822D02*
X0208024Y0086822D01*
X0208874Y0085972D01*
X0235971Y0064043D02*
X0236557Y0064043D01*
X0236557Y0062845D02*
X0235971Y0062845D01*
X0235649Y0061646D02*
X0236557Y0061646D01*
X0236557Y0060448D02*
X0234451Y0060448D01*
X0233252Y0059249D02*
X0236557Y0059249D01*
X0202772Y0030264D02*
X0202772Y0026327D01*
X0205724Y0023374D01*
X0206141Y0025691D02*
X0151038Y0025691D01*
X0149840Y0024492D02*
X0236557Y0024492D01*
X0236557Y0023294D02*
X0236217Y0023294D01*
X0153628Y0037676D02*
X0152714Y0037676D01*
X0147644Y0033132D02*
X0142734Y0033132D01*
X0142732Y0033134D01*
X0142489Y0033623D02*
X0145677Y0033623D01*
X0145572Y0033440D01*
X0145463Y0033033D01*
X0145463Y0030759D01*
X0145351Y0031029D01*
X0144482Y0031898D01*
X0143347Y0032368D01*
X0142118Y0032368D01*
X0140983Y0031898D01*
X0140114Y0031029D01*
X0139643Y0029894D01*
X0139643Y0028705D01*
X0137571Y0028705D01*
X0142489Y0033623D01*
X0141748Y0032882D02*
X0145463Y0032882D01*
X0145463Y0031683D02*
X0144697Y0031683D01*
X0140768Y0031683D02*
X0140549Y0031683D01*
X0139888Y0030485D02*
X0139351Y0030485D01*
X0139643Y0029286D02*
X0138152Y0029286D01*
X0105331Y0039713D02*
X0105198Y0039580D01*
X0099051Y0039580D01*
X0101851Y0042470D02*
X0102676Y0042470D01*
X0101851Y0043668D02*
X0106102Y0043668D01*
X0106350Y0044867D02*
X0101577Y0044867D01*
X0086589Y0031683D02*
X0081143Y0031683D01*
X0081143Y0032882D02*
X0085391Y0032882D01*
X0081738Y0034080D02*
X0081143Y0034080D01*
X0081143Y0035279D02*
X0081251Y0035279D01*
X0081251Y0036477D02*
X0080907Y0036477D01*
X0081251Y0037676D02*
X0077013Y0037676D01*
X0077403Y0038874D02*
X0081251Y0038874D01*
X0081526Y0044867D02*
X0077403Y0044867D01*
X0054239Y0037676D02*
X0054061Y0037676D01*
X0046079Y0038335D02*
X0046079Y0033217D01*
X0040970Y0032882D02*
X0039770Y0032882D01*
X0039770Y0034080D02*
X0040970Y0034080D01*
X0040970Y0035279D02*
X0039770Y0035279D01*
X0039770Y0031683D02*
X0040970Y0031683D01*
X0040970Y0030485D02*
X0039770Y0030485D01*
X0039770Y0028088D02*
X0040970Y0028088D01*
X0040970Y0026889D02*
X0039770Y0026889D01*
X0039770Y0025691D02*
X0040970Y0025691D01*
X0040970Y0024492D02*
X0039770Y0024492D01*
X0039770Y0023294D02*
X0040970Y0023294D01*
X0034661Y0023294D02*
X0034661Y0023294D01*
X0034661Y0024492D02*
X0034661Y0024492D01*
X0034661Y0025343D02*
X0034661Y0027311D01*
X0034661Y0026911D02*
X0034661Y0025343D01*
X0034661Y0026911D01*
X0034661Y0026911D01*
X0034661Y0026889D02*
X0034661Y0026889D01*
X0034661Y0025691D02*
X0034661Y0025691D01*
X0034661Y0025343D02*
X0034661Y0025343D01*
X0032002Y0023294D02*
X0031787Y0023294D01*
X0026591Y0026720D02*
X0020685Y0026720D01*
X0020385Y0024143D02*
X0026984Y0017543D01*
X0026984Y0015500D01*
X0026591Y0031839D02*
X0027969Y0033217D01*
X0035744Y0037843D02*
X0038992Y0041091D01*
X0041748Y0041091D01*
X0045094Y0044437D01*
X0045005Y0044348D02*
X0041723Y0044348D01*
X0041723Y0043719D01*
X0041650Y0043845D01*
X0041352Y0044143D01*
X0040988Y0044353D01*
X0040618Y0044452D01*
X0040981Y0044815D01*
X0041723Y0044815D01*
X0041723Y0044526D01*
X0045005Y0044526D01*
X0045005Y0044348D01*
X0039081Y0040073D02*
X0038903Y0040073D01*
X0038903Y0038874D02*
X0039081Y0038874D01*
X0045094Y0039319D02*
X0046079Y0038335D01*
X0045291Y0039122D02*
X0045094Y0039319D01*
X0076394Y0019437D02*
X0076394Y0013531D01*
X0076496Y0013430D01*
X0085748Y0013430D01*
X0086451Y0014132D01*
X0086451Y0016380D01*
X0089051Y0018980D01*
X0071365Y0012507D02*
X0071187Y0012507D01*
X0071187Y0011309D02*
X0071365Y0011309D01*
X0075135Y0074830D02*
X0052228Y0074830D01*
X0051829Y0076028D02*
X0075801Y0076028D01*
X0076800Y0077227D02*
X0051429Y0077227D01*
X0051123Y0078425D02*
X0056860Y0078425D01*
X0052494Y0080822D02*
X0050372Y0080822D01*
X0051352Y0082021D02*
X0052383Y0082021D01*
X0052400Y0083219D02*
X0052333Y0083219D01*
X0054722Y0086815D02*
X0055424Y0086815D01*
X0054200Y0088013D02*
X0058334Y0088013D01*
X0060662Y0089212D02*
X0039493Y0089212D01*
X0041776Y0088013D02*
X0048949Y0088013D01*
X0048444Y0086815D02*
X0044240Y0086815D01*
X0045221Y0085616D02*
X0048226Y0085616D01*
X0048008Y0084418D02*
X0045117Y0084418D01*
X0042491Y0083219D02*
X0047790Y0083219D01*
X0047579Y0082021D02*
X0039370Y0082021D01*
X0047485Y0077227D02*
X0047708Y0077227D01*
X0037612Y0091609D02*
X0017561Y0091609D01*
X0017561Y0092807D02*
X0036797Y0092807D01*
X0035898Y0094006D02*
X0017561Y0094006D01*
X0017561Y0095204D02*
X0034999Y0095204D01*
X0034100Y0096403D02*
X0017561Y0096403D01*
X0017375Y0097601D02*
X0033201Y0097601D01*
X0032302Y0098800D02*
X0016879Y0098800D01*
X0015739Y0099998D02*
X0031403Y0099998D01*
X0030504Y0101197D02*
X0012811Y0101197D01*
X0012811Y0102395D02*
X0029605Y0102395D01*
X0028707Y0103594D02*
X0012811Y0103594D01*
X0012811Y0104792D02*
X0028861Y0104792D01*
X0045953Y0103594D02*
X0078389Y0103594D01*
X0057814Y0092807D02*
X0054462Y0092807D01*
X0054743Y0094006D02*
X0054903Y0094006D01*
X0052400Y0097601D02*
X0052157Y0097601D01*
X0052275Y0098800D02*
X0051177Y0098800D01*
X0049869Y0099998D02*
X0052650Y0099998D01*
X0049659Y0099998D02*
X0047422Y0099998D01*
X0188325Y0157527D02*
X0236557Y0157527D01*
X0236557Y0156328D02*
X0189524Y0156328D01*
X0190722Y0155130D02*
X0236557Y0155130D01*
X0236557Y0153931D02*
X0191921Y0153931D01*
X0193119Y0152733D02*
X0197617Y0152733D01*
X0195836Y0151534D02*
X0194318Y0151534D01*
X0229346Y0127705D02*
X0229346Y0111957D01*
X0210289Y0121572D02*
X0206118Y0121572D01*
X0207499Y0120373D02*
X0209090Y0120373D01*
X0198638Y0117976D02*
X0198638Y0117976D01*
X0198638Y0116778D02*
X0198638Y0116778D01*
X0195488Y0115106D02*
X0194639Y0114257D01*
X0194639Y0112259D01*
D29*
X0202295Y0107512D03*
X0197850Y0104083D03*
X0201787Y0102114D03*
X0213598Y0100146D03*
X0200577Y0092272D03*
X0202176Y0076524D03*
X0193913Y0072587D03*
X0205724Y0056839D03*
X0221472Y0045028D03*
X0217535Y0037154D03*
X0205724Y0023374D03*
X0142732Y0029280D03*
X0142732Y0033134D03*
X0126984Y0041091D03*
X0115173Y0048965D03*
X0121079Y0052902D03*
X0125016Y0056839D03*
X0115173Y0033217D03*
X0081709Y0026330D03*
X0060055Y0025343D03*
X0056766Y0039198D03*
X0040370Y0037154D03*
X0123047Y0100146D03*
X0119110Y0104083D03*
X0113205Y0108020D03*
X0111236Y0111957D03*
X0123047Y0111957D03*
X0134728Y0115763D03*
X0150606Y0111957D03*
X0164386Y0121153D03*
X0142732Y0099305D03*
X0154543Y0096209D03*
X0162417Y0088335D03*
X0154543Y0080461D03*
X0162417Y0072587D03*
X0197850Y0119831D03*
X0204822Y0118765D03*
X0056118Y0142969D03*
X0040370Y0141484D03*
D30*
X0043276Y0144158D02*
X0043276Y0146453D01*
X0040370Y0149358D01*
X0043276Y0144158D02*
X0061061Y0126373D01*
X0078074Y0126373D01*
X0078074Y0126373D01*
X0091473Y0126373D01*
X0112215Y0105631D01*
X0114194Y0105631D01*
X0115594Y0107030D01*
X0115594Y0109009D01*
X0114194Y0110409D01*
X0112784Y0110409D01*
X0111236Y0111957D01*
X0111657Y0109568D02*
X0110247Y0109568D01*
X0092241Y0127573D01*
X0077577Y0127573D01*
X0060992Y0144158D01*
X0060992Y0146453D01*
X0058087Y0149358D01*
X0050450Y0125173D02*
X0031465Y0144158D01*
X0031465Y0146453D01*
X0028559Y0149358D01*
X0025559Y0146453D02*
X0022654Y0149358D01*
X0025559Y0146453D02*
X0025559Y0144158D01*
X0045744Y0123973D01*
X0087409Y0123973D01*
X0087614Y0123768D01*
X0090684Y0123768D01*
X0112758Y0101694D01*
X0121499Y0101694D01*
X0123047Y0100146D01*
X0119110Y0104083D02*
X0118762Y0104431D01*
X0111718Y0104431D01*
X0090976Y0125173D01*
X0078571Y0125173D01*
X0050450Y0125173D01*
X0078571Y0125173D02*
X0078571Y0125173D01*
X0086911Y0129300D02*
X0087438Y0128773D01*
X0098357Y0128773D01*
X0144307Y0082823D01*
X0147457Y0082823D01*
X0147457Y0085972D02*
X0144504Y0085972D01*
X0099425Y0131051D01*
X0089583Y0131051D01*
X0087438Y0133329D02*
X0086911Y0132802D01*
X0086911Y0129300D01*
X0087438Y0133329D02*
X0106428Y0133329D01*
X0110646Y0137547D01*
X0110646Y0146169D01*
X0109425Y0147390D01*
X0099425Y0147390D02*
X0099425Y0136169D01*
X0089583Y0136169D02*
X0089583Y0147232D01*
X0089425Y0147390D01*
X0128128Y0151322D02*
X0128128Y0110027D01*
X0144734Y0093421D01*
X0146307Y0093421D01*
X0147457Y0092272D01*
X0147457Y0089122D02*
X0151394Y0089122D01*
X0170291Y0108020D01*
X0199424Y0108020D01*
X0213128Y0121724D01*
X0213128Y0136257D01*
X0209228Y0140157D01*
X0209228Y0145421D01*
X0199228Y0145421D02*
X0197744Y0145421D01*
X0184844Y0158321D01*
X0135128Y0158321D01*
X0128128Y0151322D01*
X0129328Y0150825D02*
X0129328Y0131642D01*
X0129328Y0124541D01*
X0143007Y0110863D01*
X0143007Y0104597D01*
X0144734Y0102870D01*
X0146307Y0102870D01*
X0147457Y0101720D01*
X0147457Y0104870D02*
X0146307Y0106020D01*
X0144734Y0106020D01*
X0144207Y0106547D01*
X0144207Y0111360D01*
X0130528Y0125038D01*
X0130528Y0150328D01*
X0136122Y0155921D01*
X0167244Y0155921D01*
X0177744Y0145421D01*
X0179228Y0145421D01*
X0187744Y0145421D02*
X0176044Y0157121D01*
X0135625Y0157121D01*
X0129328Y0150825D01*
X0131728Y0149831D02*
X0131728Y0125535D01*
X0147457Y0109807D01*
X0147457Y0108020D01*
X0154543Y0115106D02*
X0151882Y0117768D01*
X0141193Y0117768D01*
X0132928Y0126032D01*
X0132928Y0149334D01*
X0137116Y0153521D01*
X0149644Y0153521D01*
X0157744Y0145421D01*
X0159228Y0145421D01*
X0167744Y0145421D02*
X0158444Y0154721D01*
X0136619Y0154721D01*
X0131728Y0149831D01*
X0134128Y0148837D02*
X0134128Y0126529D01*
X0141690Y0118968D01*
X0157693Y0118968D01*
X0157693Y0115106D01*
X0160843Y0115106D02*
X0160843Y0120168D01*
X0142187Y0120168D01*
X0135328Y0127026D01*
X0135328Y0136257D01*
X0139228Y0140157D01*
X0139228Y0145421D01*
X0134128Y0148837D02*
X0137613Y0152321D01*
X0140844Y0152321D01*
X0147744Y0145421D01*
X0149228Y0145421D01*
X0167744Y0145421D02*
X0169228Y0145421D01*
X0187744Y0145421D02*
X0189228Y0145421D01*
X0189228Y0131642D02*
X0186039Y0128453D01*
X0186039Y0115106D01*
X0182890Y0115106D02*
X0182890Y0127980D01*
X0179228Y0131642D01*
X0178165Y0123768D02*
X0177102Y0123768D01*
X0169228Y0131642D01*
X0167613Y0124742D02*
X0160713Y0131642D01*
X0159228Y0131642D01*
X0157613Y0124742D02*
X0150713Y0131642D01*
X0149228Y0131642D01*
X0148813Y0123542D02*
X0140713Y0131642D01*
X0139228Y0131642D01*
X0129328Y0131642D02*
X0129328Y0130087D01*
X0148813Y0123542D02*
X0165419Y0123542D01*
X0166619Y0122342D01*
X0167349Y0122342D01*
X0170291Y0119399D01*
X0170291Y0115106D01*
X0173441Y0115106D02*
X0173441Y0121387D01*
X0171286Y0123542D01*
X0167116Y0123542D01*
X0165916Y0124742D01*
X0157613Y0124742D01*
X0167613Y0124742D02*
X0173254Y0124742D01*
X0176591Y0121406D01*
X0176591Y0115106D01*
X0179740Y0115106D02*
X0179740Y0122193D01*
X0178165Y0123768D01*
X0189189Y0121602D02*
X0189189Y0115106D01*
X0192339Y0115106D02*
X0192339Y0122193D01*
X0193913Y0123768D01*
X0201354Y0123768D01*
X0209228Y0131642D01*
X0199228Y0131642D02*
X0189189Y0121602D01*
X0201787Y0115731D02*
X0201787Y0115106D01*
X0201787Y0115731D02*
X0204822Y0118765D01*
X0202802Y0108020D02*
X0208874Y0108020D01*
X0208874Y0104870D02*
X0198638Y0104870D01*
X0197850Y0104083D01*
X0201787Y0102114D02*
X0202181Y0101720D01*
X0208874Y0101720D01*
X0208874Y0098571D02*
X0210024Y0097421D01*
X0211597Y0097421D01*
X0222924Y0086094D01*
X0222924Y0053132D01*
X0212614Y0042822D01*
X0212614Y0030264D01*
X0210646Y0030264D02*
X0210646Y0042551D01*
X0221724Y0053629D01*
X0221724Y0084144D01*
X0211597Y0094272D01*
X0210024Y0094272D01*
X0208874Y0095421D01*
X0208874Y0092272D02*
X0210024Y0091122D01*
X0211597Y0091122D01*
X0220524Y0082195D01*
X0220524Y0054126D01*
X0208677Y0042279D01*
X0208677Y0030264D01*
X0207187Y0029786D02*
X0206709Y0030264D01*
X0207187Y0029786D02*
X0207187Y0027332D01*
X0207714Y0026805D01*
X0225389Y0026805D01*
X0225916Y0027332D01*
X0225916Y0035101D01*
X0229346Y0038531D01*
X0219324Y0054623D02*
X0219324Y0080245D01*
X0211597Y0087972D01*
X0210024Y0087972D01*
X0208874Y0089122D01*
X0208874Y0079673D02*
X0210024Y0078524D01*
X0211597Y0078524D01*
X0218124Y0071996D01*
X0218124Y0055120D01*
X0200803Y0037800D01*
X0200803Y0030264D01*
X0198835Y0030264D02*
X0198835Y0038138D01*
X0201693Y0040996D01*
X0202303Y0040996D01*
X0216924Y0055617D01*
X0216924Y0070047D01*
X0211597Y0075374D01*
X0210024Y0075374D01*
X0208874Y0076524D01*
X0208874Y0073374D02*
X0210024Y0072224D01*
X0211597Y0072224D01*
X0215724Y0068097D01*
X0215724Y0056115D01*
X0201806Y0042196D01*
X0198956Y0042196D01*
X0196866Y0040106D01*
X0196866Y0030264D01*
X0194898Y0030264D02*
X0194898Y0042075D01*
X0196219Y0043396D01*
X0201308Y0043396D01*
X0214524Y0056612D01*
X0214524Y0066148D01*
X0211597Y0069075D01*
X0210024Y0069075D01*
X0208874Y0070224D01*
X0208874Y0067075D02*
X0210024Y0065925D01*
X0211597Y0065925D01*
X0213324Y0064198D01*
X0213324Y0057109D01*
X0200811Y0044596D01*
X0193913Y0044596D01*
X0192929Y0043612D01*
X0192929Y0030264D01*
X0190961Y0030264D02*
X0190961Y0044043D01*
X0192713Y0045796D01*
X0200314Y0045796D01*
X0212124Y0057606D01*
X0212124Y0062248D01*
X0211597Y0062776D01*
X0210024Y0062776D01*
X0208874Y0063925D01*
X0208874Y0060776D02*
X0208874Y0056053D01*
X0199817Y0046996D01*
X0191945Y0046996D01*
X0188992Y0044043D01*
X0188992Y0030264D01*
X0187024Y0030264D02*
X0187024Y0044043D01*
X0191945Y0048965D01*
X0198636Y0048965D01*
X0200638Y0050966D01*
X0200638Y0052539D01*
X0201787Y0053689D01*
X0192339Y0053689D02*
X0191189Y0052539D01*
X0191189Y0050966D01*
X0185055Y0044832D01*
X0185055Y0030264D01*
X0183087Y0030264D02*
X0183087Y0046013D01*
X0188039Y0050966D01*
X0188039Y0052539D01*
X0189189Y0053689D01*
X0186039Y0053689D02*
X0184890Y0052539D01*
X0184890Y0050966D01*
X0181118Y0047195D01*
X0181118Y0030264D01*
X0179150Y0030264D02*
X0179150Y0048376D01*
X0181740Y0050966D01*
X0181740Y0052539D01*
X0182890Y0053689D01*
X0179740Y0053689D02*
X0178591Y0052539D01*
X0178591Y0050966D01*
X0177181Y0049557D01*
X0177181Y0030264D01*
X0175213Y0030264D02*
X0175213Y0050738D01*
X0175441Y0050966D01*
X0175441Y0052539D01*
X0176591Y0053689D01*
X0173441Y0053689D02*
X0173244Y0053492D01*
X0173244Y0030264D01*
X0171276Y0030264D02*
X0171276Y0052705D01*
X0170291Y0053689D01*
X0168291Y0052539D02*
X0168291Y0050966D01*
X0169307Y0049950D01*
X0169307Y0030264D01*
X0167339Y0030264D02*
X0167339Y0048769D01*
X0165142Y0050966D01*
X0165142Y0052539D01*
X0163992Y0053689D01*
X0161992Y0052539D02*
X0161992Y0050966D01*
X0165370Y0047588D01*
X0165370Y0030264D01*
X0163402Y0030264D02*
X0163402Y0046407D01*
X0158843Y0050966D01*
X0158843Y0052539D01*
X0157693Y0053689D01*
X0155693Y0052539D02*
X0155693Y0050966D01*
X0161433Y0045226D01*
X0161433Y0030264D01*
X0159465Y0030264D02*
X0159465Y0044045D01*
X0152543Y0050966D01*
X0152543Y0055689D01*
X0147457Y0060776D01*
X0144734Y0062776D02*
X0144207Y0062248D01*
X0144207Y0057606D01*
X0157496Y0044316D01*
X0157496Y0030264D01*
X0155528Y0030264D02*
X0155528Y0044588D01*
X0143007Y0057109D01*
X0143007Y0064198D01*
X0144734Y0065925D01*
X0146307Y0065925D01*
X0147457Y0067075D01*
X0147457Y0063925D02*
X0146307Y0062776D01*
X0144734Y0062776D01*
X0154543Y0053689D02*
X0155693Y0052539D01*
X0160843Y0053689D02*
X0161992Y0052539D01*
X0167142Y0053689D02*
X0168291Y0052539D01*
X0147457Y0076524D02*
X0146307Y0077673D01*
X0144734Y0077673D01*
X0142931Y0079476D01*
X0140764Y0079476D01*
X0142711Y0081951D02*
X0138816Y0081951D01*
X0136341Y0079476D01*
X0134858Y0079476D01*
X0142711Y0081951D02*
X0144989Y0079673D01*
X0147457Y0079673D01*
X0113205Y0108020D02*
X0111657Y0109568D01*
X0202295Y0107512D02*
X0202802Y0108020D01*
X0219324Y0054623D02*
X0204740Y0040039D01*
X0204740Y0030264D01*
D31*
X0095488Y0082429D02*
X0082890Y0065106D01*
X0069110Y0060382D01*
X0076984Y0074555D01*
X0082890Y0082429D01*
X0083283Y0093059D01*
X0086433Y0098965D01*
X0094307Y0091091D01*
X0095488Y0082429D01*
X0095408Y0082319D02*
X0082807Y0082319D01*
X0082897Y0082617D02*
X0095463Y0082617D01*
X0095422Y0082916D02*
X0082908Y0082916D01*
X0082919Y0083214D02*
X0095381Y0083214D01*
X0095340Y0083513D02*
X0082930Y0083513D01*
X0082941Y0083811D02*
X0095300Y0083811D01*
X0095259Y0084110D02*
X0082952Y0084110D01*
X0082963Y0084408D02*
X0095218Y0084408D01*
X0095178Y0084707D02*
X0082974Y0084707D01*
X0082985Y0085005D02*
X0095137Y0085005D01*
X0095096Y0085304D02*
X0082996Y0085304D01*
X0083007Y0085602D02*
X0095055Y0085602D01*
X0095015Y0085901D02*
X0083018Y0085901D01*
X0083029Y0086199D02*
X0094974Y0086199D01*
X0094933Y0086498D02*
X0083040Y0086498D01*
X0083052Y0086796D02*
X0094893Y0086796D01*
X0094852Y0087095D02*
X0083063Y0087095D01*
X0083074Y0087393D02*
X0094811Y0087393D01*
X0094771Y0087692D02*
X0083085Y0087692D01*
X0083096Y0087990D02*
X0094730Y0087990D01*
X0094689Y0088289D02*
X0083107Y0088289D01*
X0083118Y0088587D02*
X0094648Y0088587D01*
X0094608Y0088886D02*
X0083129Y0088886D01*
X0083140Y0089184D02*
X0094567Y0089184D01*
X0094526Y0089483D02*
X0083151Y0089483D01*
X0083162Y0089781D02*
X0094486Y0089781D01*
X0094445Y0090080D02*
X0083173Y0090080D01*
X0083184Y0090378D02*
X0094404Y0090378D01*
X0094363Y0090677D02*
X0083195Y0090677D01*
X0083206Y0090975D02*
X0094323Y0090975D01*
X0094124Y0091274D02*
X0083217Y0091274D01*
X0083228Y0091572D02*
X0093825Y0091572D01*
X0093527Y0091871D02*
X0083239Y0091871D01*
X0083251Y0092169D02*
X0093228Y0092169D01*
X0092930Y0092468D02*
X0083262Y0092468D01*
X0083273Y0092766D02*
X0092631Y0092766D01*
X0092333Y0093065D02*
X0083287Y0093065D01*
X0083446Y0093363D02*
X0092034Y0093363D01*
X0091736Y0093662D02*
X0083605Y0093662D01*
X0083764Y0093960D02*
X0091437Y0093960D01*
X0091139Y0094259D02*
X0083923Y0094259D01*
X0084083Y0094557D02*
X0090840Y0094557D01*
X0090542Y0094856D02*
X0084242Y0094856D01*
X0084401Y0095155D02*
X0090243Y0095155D01*
X0089945Y0095453D02*
X0084560Y0095453D01*
X0084719Y0095752D02*
X0089646Y0095752D01*
X0089348Y0096050D02*
X0084879Y0096050D01*
X0085038Y0096349D02*
X0089049Y0096349D01*
X0088751Y0096647D02*
X0085197Y0096647D01*
X0085356Y0096946D02*
X0088452Y0096946D01*
X0088154Y0097244D02*
X0085515Y0097244D01*
X0085675Y0097543D02*
X0087855Y0097543D01*
X0087557Y0097841D02*
X0085834Y0097841D01*
X0085993Y0098140D02*
X0087258Y0098140D01*
X0086959Y0098438D02*
X0086152Y0098438D01*
X0086312Y0098737D02*
X0086661Y0098737D01*
X0088790Y0100229D02*
X0092880Y0100229D01*
X0092985Y0099931D02*
X0089129Y0099931D01*
X0089468Y0099632D02*
X0093089Y0099632D01*
X0093194Y0099334D02*
X0089807Y0099334D01*
X0090147Y0099035D02*
X0093298Y0099035D01*
X0093403Y0098737D02*
X0090486Y0098737D01*
X0090825Y0098438D02*
X0093507Y0098438D01*
X0093612Y0098140D02*
X0091164Y0098140D01*
X0091504Y0097841D02*
X0093716Y0097841D01*
X0093821Y0097543D02*
X0091843Y0097543D01*
X0092182Y0097244D02*
X0093925Y0097244D01*
X0094029Y0096946D02*
X0092521Y0096946D01*
X0092860Y0096647D02*
X0094134Y0096647D01*
X0094238Y0096349D02*
X0093200Y0096349D01*
X0093539Y0096050D02*
X0094343Y0096050D01*
X0094447Y0095752D02*
X0093878Y0095752D01*
X0094217Y0095453D02*
X0094552Y0095453D01*
X0094557Y0095155D02*
X0094656Y0095155D01*
X0094701Y0095028D02*
X0084858Y0103689D01*
X0082102Y0099752D01*
X0076984Y0110776D01*
X0091945Y0102902D01*
X0094701Y0095028D01*
X0092776Y0100528D02*
X0088451Y0100528D01*
X0088111Y0100826D02*
X0092671Y0100826D01*
X0092567Y0101125D02*
X0087772Y0101125D01*
X0087433Y0101423D02*
X0092462Y0101423D01*
X0092358Y0101722D02*
X0087094Y0101722D01*
X0086755Y0102020D02*
X0092253Y0102020D01*
X0092149Y0102319D02*
X0086415Y0102319D01*
X0086076Y0102617D02*
X0092044Y0102617D01*
X0091918Y0102916D02*
X0085737Y0102916D01*
X0085398Y0103214D02*
X0091351Y0103214D01*
X0090783Y0103513D02*
X0085058Y0103513D01*
X0084735Y0103513D02*
X0080356Y0103513D01*
X0080218Y0103811D02*
X0090216Y0103811D01*
X0089649Y0104110D02*
X0080079Y0104110D01*
X0079940Y0104408D02*
X0089082Y0104408D01*
X0088515Y0104707D02*
X0079802Y0104707D01*
X0079663Y0105005D02*
X0087948Y0105005D01*
X0087380Y0105304D02*
X0079525Y0105304D01*
X0079386Y0105602D02*
X0086813Y0105602D01*
X0086246Y0105901D02*
X0079248Y0105901D01*
X0079109Y0106199D02*
X0085679Y0106199D01*
X0085112Y0106498D02*
X0078970Y0106498D01*
X0078832Y0106796D02*
X0084545Y0106796D01*
X0083977Y0107095D02*
X0078693Y0107095D01*
X0078555Y0107393D02*
X0083410Y0107393D01*
X0082843Y0107692D02*
X0078416Y0107692D01*
X0078277Y0107991D02*
X0082276Y0107991D01*
X0081709Y0108289D02*
X0078139Y0108289D01*
X0078000Y0108588D02*
X0081142Y0108588D01*
X0080574Y0108886D02*
X0077862Y0108886D01*
X0077723Y0109185D02*
X0080007Y0109185D01*
X0079440Y0109483D02*
X0077584Y0109483D01*
X0077446Y0109782D02*
X0078873Y0109782D01*
X0078306Y0110080D02*
X0077307Y0110080D01*
X0077169Y0110379D02*
X0077739Y0110379D01*
X0077171Y0110677D02*
X0077030Y0110677D01*
X0080495Y0103214D02*
X0084526Y0103214D01*
X0084317Y0102916D02*
X0080633Y0102916D01*
X0080772Y0102617D02*
X0084108Y0102617D01*
X0083899Y0102319D02*
X0080911Y0102319D01*
X0081049Y0102020D02*
X0083690Y0102020D01*
X0083481Y0101722D02*
X0081188Y0101722D01*
X0081326Y0101423D02*
X0083272Y0101423D01*
X0083063Y0101125D02*
X0081465Y0101125D01*
X0081604Y0100826D02*
X0082854Y0100826D01*
X0082645Y0100528D02*
X0081742Y0100528D01*
X0081881Y0100229D02*
X0082436Y0100229D01*
X0082227Y0099931D02*
X0082019Y0099931D01*
X0081315Y0091091D02*
X0070685Y0093453D01*
X0065567Y0100539D01*
X0057693Y0100539D01*
X0065961Y0098571D01*
X0069898Y0092272D01*
X0081315Y0091091D01*
X0080490Y0091274D02*
X0079543Y0091274D01*
X0079147Y0091572D02*
X0076657Y0091572D01*
X0076460Y0092169D02*
X0070886Y0092169D01*
X0069775Y0092468D02*
X0075117Y0092468D01*
X0073774Y0092766D02*
X0069588Y0092766D01*
X0069402Y0093065D02*
X0072430Y0093065D01*
X0071087Y0093363D02*
X0069215Y0093363D01*
X0069029Y0093662D02*
X0070534Y0093662D01*
X0070318Y0093960D02*
X0068842Y0093960D01*
X0068656Y0094259D02*
X0070103Y0094259D01*
X0069887Y0094557D02*
X0068469Y0094557D01*
X0068282Y0094856D02*
X0069672Y0094856D01*
X0069456Y0095155D02*
X0068096Y0095155D01*
X0067909Y0095453D02*
X0069240Y0095453D01*
X0069025Y0095752D02*
X0067723Y0095752D01*
X0067536Y0096050D02*
X0068809Y0096050D01*
X0068594Y0096349D02*
X0067350Y0096349D01*
X0067163Y0096647D02*
X0068378Y0096647D01*
X0068162Y0096946D02*
X0066976Y0096946D01*
X0066790Y0097244D02*
X0067947Y0097244D01*
X0067731Y0097543D02*
X0066603Y0097543D01*
X0066417Y0097841D02*
X0067516Y0097841D01*
X0067300Y0098140D02*
X0066230Y0098140D01*
X0066044Y0098438D02*
X0067084Y0098438D01*
X0066869Y0098737D02*
X0065264Y0098737D01*
X0064011Y0099035D02*
X0066653Y0099035D01*
X0066438Y0099334D02*
X0062757Y0099334D01*
X0061503Y0099632D02*
X0066222Y0099632D01*
X0066007Y0099931D02*
X0060249Y0099931D01*
X0058996Y0100229D02*
X0065791Y0100229D01*
X0065575Y0100528D02*
X0057742Y0100528D01*
X0054150Y0098965D02*
X0055331Y0096602D01*
X0060843Y0093453D01*
X0054150Y0096209D01*
X0054150Y0098965D01*
X0054150Y0098737D02*
X0054264Y0098737D01*
X0054150Y0098438D02*
X0054413Y0098438D01*
X0054562Y0098140D02*
X0054150Y0098140D01*
X0054150Y0097841D02*
X0054711Y0097841D01*
X0054861Y0097543D02*
X0054150Y0097543D01*
X0054150Y0097244D02*
X0055010Y0097244D01*
X0055159Y0096946D02*
X0054150Y0096946D01*
X0054150Y0096647D02*
X0055308Y0096647D01*
X0055775Y0096349D02*
X0054150Y0096349D01*
X0054535Y0096050D02*
X0056297Y0096050D01*
X0056820Y0095752D02*
X0055260Y0095752D01*
X0055985Y0095453D02*
X0057342Y0095453D01*
X0057864Y0095155D02*
X0056710Y0095155D01*
X0057435Y0094856D02*
X0058387Y0094856D01*
X0058160Y0094557D02*
X0058909Y0094557D01*
X0058885Y0094259D02*
X0059432Y0094259D01*
X0059610Y0093960D02*
X0059954Y0093960D01*
X0060334Y0093662D02*
X0060476Y0093662D01*
X0062417Y0091484D02*
X0062417Y0089122D01*
X0063992Y0090303D01*
X0062417Y0091484D01*
X0062417Y0091274D02*
X0062698Y0091274D01*
X0062417Y0090975D02*
X0063096Y0090975D01*
X0063494Y0090677D02*
X0062417Y0090677D01*
X0062417Y0090378D02*
X0063892Y0090378D01*
X0063694Y0090080D02*
X0062417Y0090080D01*
X0062417Y0089781D02*
X0063296Y0089781D01*
X0062898Y0089483D02*
X0062417Y0089483D01*
X0062417Y0089184D02*
X0062500Y0089184D01*
X0060843Y0087154D02*
X0055331Y0084004D01*
X0054150Y0081642D01*
X0054150Y0084398D01*
X0060843Y0087154D01*
X0060740Y0087095D02*
X0060700Y0087095D01*
X0060217Y0086796D02*
X0059975Y0086796D01*
X0059695Y0086498D02*
X0059250Y0086498D01*
X0059172Y0086199D02*
X0058525Y0086199D01*
X0058650Y0085901D02*
X0057800Y0085901D01*
X0058128Y0085602D02*
X0057075Y0085602D01*
X0057083Y0085005D02*
X0055625Y0085005D01*
X0056038Y0084408D02*
X0054175Y0084408D01*
X0054150Y0084110D02*
X0055516Y0084110D01*
X0055234Y0083811D02*
X0054150Y0083811D01*
X0054150Y0083513D02*
X0055085Y0083513D01*
X0054936Y0083214D02*
X0054150Y0083214D01*
X0054150Y0082916D02*
X0054787Y0082916D01*
X0054637Y0082617D02*
X0054150Y0082617D01*
X0054150Y0082319D02*
X0054488Y0082319D01*
X0054339Y0082020D02*
X0054150Y0082020D01*
X0054150Y0081722D02*
X0054189Y0081722D01*
X0057693Y0080067D02*
X0065961Y0082035D01*
X0069898Y0088335D01*
X0081315Y0089516D01*
X0070685Y0087154D01*
X0065567Y0080067D01*
X0057693Y0080067D01*
X0058373Y0080229D02*
X0065684Y0080229D01*
X0065900Y0080527D02*
X0059627Y0080527D01*
X0060881Y0080826D02*
X0066115Y0080826D01*
X0066331Y0081124D02*
X0062135Y0081124D01*
X0063388Y0081423D02*
X0066546Y0081423D01*
X0066762Y0081722D02*
X0064642Y0081722D01*
X0065896Y0082020D02*
X0066977Y0082020D01*
X0067193Y0082319D02*
X0066138Y0082319D01*
X0066324Y0082617D02*
X0067409Y0082617D01*
X0067624Y0082916D02*
X0066511Y0082916D01*
X0066697Y0083214D02*
X0067840Y0083214D01*
X0068055Y0083513D02*
X0066884Y0083513D01*
X0067070Y0083811D02*
X0068271Y0083811D01*
X0068487Y0084110D02*
X0067257Y0084110D01*
X0067444Y0084408D02*
X0068702Y0084408D01*
X0068918Y0084707D02*
X0067630Y0084707D01*
X0067817Y0085005D02*
X0069133Y0085005D01*
X0069349Y0085304D02*
X0068003Y0085304D01*
X0068190Y0085602D02*
X0069565Y0085602D01*
X0069780Y0085901D02*
X0068376Y0085901D01*
X0068563Y0086199D02*
X0069996Y0086199D01*
X0070211Y0086498D02*
X0068750Y0086498D01*
X0068936Y0086796D02*
X0070427Y0086796D01*
X0070643Y0087095D02*
X0069123Y0087095D01*
X0069309Y0087393D02*
X0071764Y0087393D01*
X0072340Y0088587D02*
X0077137Y0088587D01*
X0078111Y0089184D02*
X0079823Y0089184D01*
X0080996Y0089483D02*
X0081167Y0089483D01*
X0078480Y0088886D02*
X0075225Y0088886D01*
X0075793Y0088289D02*
X0069869Y0088289D01*
X0069682Y0087990D02*
X0074450Y0087990D01*
X0073107Y0087692D02*
X0069496Y0087692D01*
X0073772Y0091871D02*
X0077803Y0091871D01*
X0082583Y0082020D02*
X0095191Y0082020D01*
X0094974Y0081722D02*
X0082359Y0081722D01*
X0082135Y0081423D02*
X0094756Y0081423D01*
X0094539Y0081124D02*
X0081911Y0081124D01*
X0081687Y0080826D02*
X0094322Y0080826D01*
X0094105Y0080527D02*
X0081464Y0080527D01*
X0081240Y0080229D02*
X0093888Y0080229D01*
X0093671Y0079930D02*
X0081016Y0079930D01*
X0080792Y0079632D02*
X0093454Y0079632D01*
X0093237Y0079333D02*
X0080568Y0079333D01*
X0080344Y0079035D02*
X0093020Y0079035D01*
X0092803Y0078736D02*
X0080120Y0078736D01*
X0079896Y0078438D02*
X0092585Y0078438D01*
X0092368Y0078139D02*
X0079672Y0078139D01*
X0079449Y0077841D02*
X0092151Y0077841D01*
X0091934Y0077542D02*
X0079225Y0077542D01*
X0079001Y0077244D02*
X0091717Y0077244D01*
X0091500Y0076945D02*
X0078777Y0076945D01*
X0078553Y0076647D02*
X0091283Y0076647D01*
X0091066Y0076348D02*
X0078329Y0076348D01*
X0078105Y0076050D02*
X0090849Y0076050D01*
X0090632Y0075751D02*
X0077881Y0075751D01*
X0077657Y0075453D02*
X0090414Y0075453D01*
X0090197Y0075154D02*
X0077434Y0075154D01*
X0077210Y0074856D02*
X0089980Y0074856D01*
X0089763Y0074557D02*
X0076986Y0074557D01*
X0076820Y0074259D02*
X0089546Y0074259D01*
X0089329Y0073960D02*
X0076654Y0073960D01*
X0076488Y0073662D02*
X0089112Y0073662D01*
X0088895Y0073363D02*
X0076322Y0073363D01*
X0076156Y0073065D02*
X0088678Y0073065D01*
X0088461Y0072766D02*
X0075990Y0072766D01*
X0075825Y0072468D02*
X0088243Y0072468D01*
X0088026Y0072169D02*
X0075659Y0072169D01*
X0075493Y0071871D02*
X0087809Y0071871D01*
X0087592Y0071572D02*
X0075327Y0071572D01*
X0075161Y0071274D02*
X0087375Y0071274D01*
X0087158Y0070975D02*
X0074995Y0070975D01*
X0074830Y0070677D02*
X0086941Y0070677D01*
X0086724Y0070378D02*
X0074664Y0070378D01*
X0074498Y0070080D02*
X0086507Y0070080D01*
X0086290Y0069781D02*
X0074332Y0069781D01*
X0074166Y0069483D02*
X0086072Y0069483D01*
X0085855Y0069184D02*
X0074000Y0069184D01*
X0073834Y0068886D02*
X0085638Y0068886D01*
X0085421Y0068587D02*
X0073669Y0068587D01*
X0073503Y0068288D02*
X0085204Y0068288D01*
X0084987Y0067990D02*
X0073337Y0067990D01*
X0073171Y0067691D02*
X0084770Y0067691D01*
X0084553Y0067393D02*
X0073005Y0067393D01*
X0072839Y0067094D02*
X0084336Y0067094D01*
X0084119Y0066796D02*
X0072674Y0066796D01*
X0072508Y0066497D02*
X0083902Y0066497D01*
X0083684Y0066199D02*
X0072342Y0066199D01*
X0072176Y0065900D02*
X0083467Y0065900D01*
X0083250Y0065602D02*
X0072010Y0065602D01*
X0071844Y0065303D02*
X0083033Y0065303D01*
X0082594Y0065005D02*
X0071679Y0065005D01*
X0071513Y0064706D02*
X0081723Y0064706D01*
X0080853Y0064408D02*
X0071347Y0064408D01*
X0071181Y0064109D02*
X0079982Y0064109D01*
X0079111Y0063811D02*
X0071015Y0063811D01*
X0070849Y0063512D02*
X0078241Y0063512D01*
X0077370Y0063214D02*
X0070684Y0063214D01*
X0070518Y0062915D02*
X0076499Y0062915D01*
X0075629Y0062617D02*
X0070352Y0062617D01*
X0070186Y0062318D02*
X0074758Y0062318D01*
X0073887Y0062020D02*
X0070020Y0062020D01*
X0069854Y0061721D02*
X0073017Y0061721D01*
X0072146Y0061423D02*
X0069688Y0061423D01*
X0069523Y0061124D02*
X0071275Y0061124D01*
X0070405Y0060826D02*
X0069357Y0060826D01*
X0069191Y0060527D02*
X0069534Y0060527D01*
X0065173Y0060382D02*
X0050213Y0067862D01*
X0049425Y0077705D01*
X0052575Y0068256D01*
X0065173Y0060382D01*
X0064941Y0060527D02*
X0064883Y0060527D01*
X0064463Y0060826D02*
X0064286Y0060826D01*
X0063985Y0061124D02*
X0063689Y0061124D01*
X0063508Y0061423D02*
X0063092Y0061423D01*
X0063030Y0061721D02*
X0062495Y0061721D01*
X0062553Y0062020D02*
X0061897Y0062020D01*
X0062075Y0062318D02*
X0061300Y0062318D01*
X0061597Y0062617D02*
X0060703Y0062617D01*
X0061120Y0062915D02*
X0060106Y0062915D01*
X0060165Y0063512D02*
X0058912Y0063512D01*
X0059209Y0064109D02*
X0057718Y0064109D01*
X0057121Y0064408D02*
X0058732Y0064408D01*
X0058254Y0064706D02*
X0056524Y0064706D01*
X0055927Y0065005D02*
X0057776Y0065005D01*
X0057299Y0065303D02*
X0055330Y0065303D01*
X0054733Y0065602D02*
X0056821Y0065602D01*
X0056344Y0065900D02*
X0054136Y0065900D01*
X0053539Y0066199D02*
X0055866Y0066199D01*
X0055388Y0066497D02*
X0052942Y0066497D01*
X0052345Y0066796D02*
X0054911Y0066796D01*
X0054433Y0067094D02*
X0051748Y0067094D01*
X0051151Y0067393D02*
X0053956Y0067393D01*
X0053478Y0067691D02*
X0050554Y0067691D01*
X0050202Y0067990D02*
X0053000Y0067990D01*
X0052564Y0068288D02*
X0050179Y0068288D01*
X0050155Y0068587D02*
X0052464Y0068587D01*
X0052365Y0068886D02*
X0050131Y0068886D01*
X0050107Y0069184D02*
X0052265Y0069184D01*
X0052166Y0069483D02*
X0050083Y0069483D01*
X0050059Y0069781D02*
X0052066Y0069781D01*
X0051967Y0070080D02*
X0050035Y0070080D01*
X0050011Y0070378D02*
X0051867Y0070378D01*
X0051768Y0070677D02*
X0049987Y0070677D01*
X0049964Y0070975D02*
X0051668Y0070975D01*
X0051569Y0071274D02*
X0049940Y0071274D01*
X0049916Y0071572D02*
X0051469Y0071572D01*
X0051370Y0071871D02*
X0049892Y0071871D01*
X0049868Y0072169D02*
X0051270Y0072169D01*
X0051171Y0072468D02*
X0049844Y0072468D01*
X0049820Y0072766D02*
X0051071Y0072766D01*
X0050972Y0073065D02*
X0049796Y0073065D01*
X0049773Y0073363D02*
X0050872Y0073363D01*
X0050773Y0073662D02*
X0049749Y0073662D01*
X0049725Y0073960D02*
X0050673Y0073960D01*
X0050574Y0074259D02*
X0049701Y0074259D01*
X0049677Y0074557D02*
X0050474Y0074557D01*
X0050375Y0074856D02*
X0049653Y0074856D01*
X0049629Y0075154D02*
X0050275Y0075154D01*
X0050176Y0075453D02*
X0049605Y0075453D01*
X0049581Y0075751D02*
X0050076Y0075751D01*
X0049977Y0076050D02*
X0049558Y0076050D01*
X0049534Y0076348D02*
X0049877Y0076348D01*
X0049778Y0076647D02*
X0049510Y0076647D01*
X0049486Y0076945D02*
X0049678Y0076945D01*
X0049579Y0077244D02*
X0049462Y0077244D01*
X0049438Y0077542D02*
X0049479Y0077542D01*
X0046669Y0078886D02*
X0030528Y0076524D01*
X0038795Y0087547D01*
X0043520Y0085185D01*
X0039189Y0084398D01*
X0034071Y0078886D01*
X0046669Y0078886D01*
X0045648Y0078736D02*
X0032187Y0078736D01*
X0031963Y0078438D02*
X0043608Y0078438D01*
X0041569Y0078139D02*
X0031739Y0078139D01*
X0031515Y0077841D02*
X0039529Y0077841D01*
X0037489Y0077542D02*
X0031292Y0077542D01*
X0031068Y0077244D02*
X0035449Y0077244D01*
X0033409Y0076945D02*
X0030844Y0076945D01*
X0030620Y0076647D02*
X0031369Y0076647D01*
X0032411Y0079035D02*
X0034209Y0079035D01*
X0034486Y0079333D02*
X0032635Y0079333D01*
X0032859Y0079632D02*
X0034764Y0079632D01*
X0035041Y0079930D02*
X0033083Y0079930D01*
X0033307Y0080229D02*
X0035318Y0080229D01*
X0035595Y0080527D02*
X0033530Y0080527D01*
X0033754Y0080826D02*
X0035872Y0080826D01*
X0036150Y0081124D02*
X0033978Y0081124D01*
X0034202Y0081423D02*
X0036427Y0081423D01*
X0036704Y0081722D02*
X0034426Y0081722D01*
X0034650Y0082020D02*
X0036981Y0082020D01*
X0037258Y0082319D02*
X0034874Y0082319D01*
X0035098Y0082617D02*
X0037536Y0082617D01*
X0037813Y0082916D02*
X0035322Y0082916D01*
X0035545Y0083214D02*
X0038090Y0083214D01*
X0038367Y0083513D02*
X0035769Y0083513D01*
X0035993Y0083811D02*
X0038644Y0083811D01*
X0038922Y0084110D02*
X0036217Y0084110D01*
X0036441Y0084408D02*
X0039247Y0084408D01*
X0040888Y0084707D02*
X0036665Y0084707D01*
X0036889Y0085005D02*
X0042530Y0085005D01*
X0042685Y0085602D02*
X0037336Y0085602D01*
X0037113Y0085304D02*
X0043282Y0085304D01*
X0042088Y0085901D02*
X0037560Y0085901D01*
X0037784Y0086199D02*
X0041491Y0086199D01*
X0040894Y0086498D02*
X0038008Y0086498D01*
X0038232Y0086796D02*
X0040297Y0086796D01*
X0039700Y0087095D02*
X0038456Y0087095D01*
X0038680Y0087393D02*
X0039103Y0087393D01*
X0038795Y0093059D02*
X0043520Y0095421D01*
X0039189Y0096209D01*
X0034071Y0101720D01*
X0046669Y0101720D01*
X0030528Y0104083D01*
X0038795Y0093059D01*
X0038791Y0093065D02*
X0038807Y0093065D01*
X0038567Y0093363D02*
X0039404Y0093363D01*
X0040001Y0093662D02*
X0038343Y0093662D01*
X0038119Y0093960D02*
X0040598Y0093960D01*
X0041195Y0094259D02*
X0037895Y0094259D01*
X0037671Y0094557D02*
X0041792Y0094557D01*
X0042389Y0094856D02*
X0037448Y0094856D01*
X0037224Y0095155D02*
X0042986Y0095155D01*
X0043345Y0095453D02*
X0037000Y0095453D01*
X0036776Y0095752D02*
X0041703Y0095752D01*
X0040061Y0096050D02*
X0036552Y0096050D01*
X0036328Y0096349D02*
X0039059Y0096349D01*
X0038782Y0096647D02*
X0036104Y0096647D01*
X0035880Y0096946D02*
X0038505Y0096946D01*
X0038227Y0097244D02*
X0035656Y0097244D01*
X0035433Y0097543D02*
X0037950Y0097543D01*
X0037673Y0097841D02*
X0035209Y0097841D01*
X0034985Y0098140D02*
X0037396Y0098140D01*
X0037119Y0098438D02*
X0034761Y0098438D01*
X0034537Y0098737D02*
X0036842Y0098737D01*
X0036564Y0099035D02*
X0034313Y0099035D01*
X0034089Y0099334D02*
X0036287Y0099334D01*
X0036010Y0099632D02*
X0033865Y0099632D01*
X0033642Y0099931D02*
X0035733Y0099931D01*
X0035456Y0100229D02*
X0033418Y0100229D01*
X0033194Y0100528D02*
X0035178Y0100528D01*
X0034901Y0100826D02*
X0032970Y0100826D01*
X0032746Y0101125D02*
X0034624Y0101125D01*
X0034347Y0101423D02*
X0032522Y0101423D01*
X0032298Y0101722D02*
X0046660Y0101722D01*
X0044621Y0102020D02*
X0032074Y0102020D01*
X0031850Y0102319D02*
X0042581Y0102319D01*
X0040541Y0102617D02*
X0031627Y0102617D01*
X0031403Y0102916D02*
X0038501Y0102916D01*
X0036461Y0103214D02*
X0031179Y0103214D01*
X0030955Y0103513D02*
X0034421Y0103513D01*
X0032382Y0103811D02*
X0030731Y0103811D01*
X0049425Y0098177D02*
X0050213Y0093846D01*
X0052969Y0093846D01*
X0049425Y0098177D01*
X0049432Y0098140D02*
X0049456Y0098140D01*
X0049486Y0097841D02*
X0049700Y0097841D01*
X0049541Y0097543D02*
X0049944Y0097543D01*
X0050189Y0097244D02*
X0049595Y0097244D01*
X0049649Y0096946D02*
X0050433Y0096946D01*
X0050677Y0096647D02*
X0049703Y0096647D01*
X0049758Y0096349D02*
X0050921Y0096349D01*
X0051166Y0096050D02*
X0049812Y0096050D01*
X0049866Y0095752D02*
X0051410Y0095752D01*
X0051654Y0095453D02*
X0049920Y0095453D01*
X0049975Y0095155D02*
X0051898Y0095155D01*
X0052143Y0094856D02*
X0050029Y0094856D01*
X0050083Y0094557D02*
X0052387Y0094557D01*
X0052631Y0094259D02*
X0050138Y0094259D01*
X0050192Y0093960D02*
X0052875Y0093960D01*
X0052969Y0086760D02*
X0050213Y0086760D01*
X0049425Y0082429D01*
X0052969Y0086760D01*
X0052754Y0086498D02*
X0050165Y0086498D01*
X0050111Y0086199D02*
X0052510Y0086199D01*
X0052266Y0085901D02*
X0050056Y0085901D01*
X0050002Y0085602D02*
X0052021Y0085602D01*
X0051777Y0085304D02*
X0049948Y0085304D01*
X0049894Y0085005D02*
X0051533Y0085005D01*
X0051289Y0084707D02*
X0049839Y0084707D01*
X0049785Y0084408D02*
X0051044Y0084408D01*
X0050800Y0084110D02*
X0049731Y0084110D01*
X0049676Y0083811D02*
X0050556Y0083811D01*
X0050312Y0083513D02*
X0049622Y0083513D01*
X0049568Y0083214D02*
X0050067Y0083214D01*
X0049823Y0082916D02*
X0049514Y0082916D01*
X0049459Y0082617D02*
X0049579Y0082617D01*
X0054900Y0084707D02*
X0056560Y0084707D01*
X0056350Y0085304D02*
X0057605Y0085304D01*
X0058315Y0063811D02*
X0059687Y0063811D01*
X0059509Y0063214D02*
X0060642Y0063214D01*
M02*
